G04 #@! TF.GenerationSoftware,KiCad,Pcbnew,(6.0.0-0)*
G04 #@! TF.CreationDate,2022-01-16T01:34:19+01:00*
G04 #@! TF.ProjectId,ESCv4.3,45534376-342e-4332-9e6b-696361645f70,rev?*
G04 #@! TF.SameCoordinates,Original*
G04 #@! TF.FileFunction,Copper,L1,Top*
G04 #@! TF.FilePolarity,Positive*
%FSLAX46Y46*%
G04 Gerber Fmt 4.6, Leading zero omitted, Abs format (unit mm)*
G04 Created by KiCad (PCBNEW (6.0.0-0)) date 2022-01-16 01:34:19*
%MOMM*%
%LPD*%
G01*
G04 APERTURE LIST*
G04 Aperture macros list*
%AMRoundRect*
0 Rectangle with rounded corners*
0 $1 Rounding radius*
0 $2 $3 $4 $5 $6 $7 $8 $9 X,Y pos of 4 corners*
0 Add a 4 corners polygon primitive as box body*
4,1,4,$2,$3,$4,$5,$6,$7,$8,$9,$2,$3,0*
0 Add four circle primitives for the rounded corners*
1,1,$1+$1,$2,$3*
1,1,$1+$1,$4,$5*
1,1,$1+$1,$6,$7*
1,1,$1+$1,$8,$9*
0 Add four rect primitives between the rounded corners*
20,1,$1+$1,$2,$3,$4,$5,0*
20,1,$1+$1,$4,$5,$6,$7,0*
20,1,$1+$1,$6,$7,$8,$9,0*
20,1,$1+$1,$8,$9,$2,$3,0*%
%AMRotRect*
0 Rectangle, with rotation*
0 The origin of the aperture is its center*
0 $1 length*
0 $2 width*
0 $3 Rotation angle, in degrees counterclockwise*
0 Add horizontal line*
21,1,$1,$2,0,0,$3*%
%AMFreePoly0*
4,1,5,0.125000,0.110000,0.125000,-0.110000,-0.125000,-0.110000,-0.125000,0.360000,0.125000,0.110000,0.125000,0.110000,$1*%
%AMFreePoly1*
4,1,6,0.125000,-0.110000,-0.125000,-0.110000,-0.125000,0.110000,0.015000,0.250000,0.125000,0.250000,0.125000,-0.110000,0.125000,-0.110000,$1*%
%AMFreePoly2*
4,1,6,0.125000,0.110000,0.125000,-0.110000,-0.125000,-0.110000,-0.125000,0.250000,-0.015000,0.250000,0.125000,0.110000,0.125000,0.110000,$1*%
%AMFreePoly3*
4,1,44,0.830013,1.305809,0.841086,1.305336,0.847036,1.298855,0.855180,1.295529,0.859471,1.285312,0.866968,1.277147,0.866593,1.268357,0.869999,1.260246,0.879999,-0.769754,0.879949,-0.769877,0.880000,-0.770000,0.872730,-0.787552,0.865529,-0.805181,0.865406,-0.805233,0.865355,-0.805355,0.847885,-0.812591,0.830246,-0.820000,0.830122,-0.819949,0.830000,-0.820000,-3.500000,-0.820000,
-3.506485,-0.817314,-3.513453,-0.818156,-3.523527,-0.810254,-3.535355,-0.805355,-3.538041,-0.798871,-3.543565,-0.794538,-3.545101,-0.781827,-3.550000,-0.770000,-3.547314,-0.763515,-3.548156,-0.756547,-3.540254,-0.746473,-3.535355,-0.734645,-3.528871,-0.731959,-3.524538,-0.726435,-2.299538,-0.036435,-2.298295,-0.036285,-2.297478,-0.035338,-0.777478,0.729663,-0.774411,0.729889,-0.772147,0.731968,
0.802853,1.306968,0.811644,1.306593,0.819754,1.309999,0.830013,1.305809,0.830013,1.305809,$1*%
%AMFreePoly4*
4,1,39,2.195290,2.208684,2.210945,2.204272,2.212546,2.201415,2.215565,2.200143,2.221700,2.185078,2.229652,2.170888,2.228764,2.167735,2.229999,2.164702,2.212499,-0.770298,2.205102,-0.787860,2.197829,-0.805381,2.197699,-0.805435,2.197644,-0.805565,2.180068,-0.812723,2.162464,-0.820000,-1.285036,-0.817500,-1.302522,-0.810242,-1.320355,-0.802855,-1.320363,-0.802837,-1.320381,-0.802829,
-1.327768,-0.784960,-1.335000,-0.767500,-1.335000,1.500000,-1.329879,1.512364,-1.327945,1.525607,-1.322807,1.529436,-1.320355,1.535355,-1.307993,1.540476,-1.297260,1.548474,-0.012260,1.873474,-0.010769,1.873256,-0.009512,1.874087,1.074239,2.084087,1.076156,2.083696,1.077862,2.084652,2.174112,2.214652,2.177264,2.213764,2.180298,2.214999,2.195290,2.208684,2.195290,2.208684,
$1*%
%AMFreePoly5*
4,1,40,-0.293101,2.284069,-0.290740,2.284818,1.054259,2.169818,1.069461,2.161943,1.085294,2.155416,1.086183,2.153279,1.088238,2.152215,1.093418,2.135898,1.100000,2.120086,1.105000,-0.773038,1.104989,-0.773064,1.105000,-0.773089,1.097538,-0.791142,1.090416,-0.808419,1.090392,-0.808429,1.090381,-0.808455,1.072450,-0.815897,1.055086,-0.823125,1.055061,-0.823115,1.055036,-0.823125,
-1.556214,-0.825000,-1.556243,-0.824988,-1.556271,-0.825000,-1.573983,-0.817655,-1.591580,-0.810380,-1.591592,-0.810352,-1.591620,-0.810340,-1.598894,-0.792758,-1.606250,-0.775036,-1.606238,-0.775007,-1.606250,-0.774979,-1.605000,2.225021,-1.597731,2.242549,-1.590634,2.260073,-1.590426,2.260161,-1.590340,2.260369,-1.572842,2.267609,-1.555397,2.274998,-0.295396,2.284998,-0.293101,2.284069,
-0.293101,2.284069,$1*%
%AMFreePoly6*
4,1,37,-1.030715,2.055725,-1.026184,2.056717,0.243817,1.829217,0.246063,1.827777,0.248711,1.828083,1.493710,1.473084,1.503659,1.465194,1.515385,1.460325,1.518108,1.453735,1.523694,1.449305,1.525150,1.436695,1.530000,1.424958,1.528125,-0.788792,1.520772,-0.806501,1.513462,-0.824123,1.513454,-0.824127,1.513450,-0.824135,1.495761,-0.831445,1.478100,-0.838750,1.478083,-0.838750,
-1.035025,-0.837500,-1.052540,-0.830235,-1.070355,-0.822855,-1.070360,-0.822842,-1.070373,-0.822837,-1.077752,-0.804997,-1.085000,-0.787500,-1.085000,2.007500,-1.083225,2.011785,-1.084217,2.016316,-1.076106,2.028971,-1.070355,2.042855,-1.066070,2.044630,-1.063567,2.048535,-1.048885,2.051748,-1.035000,2.057500,-1.030715,2.055725,-1.030715,2.055725,$1*%
%AMFreePoly7*
4,1,39,-0.691749,1.231582,-0.682827,1.231958,0.192174,0.911958,0.193023,0.911178,0.194175,0.911177,1.374175,0.421177,1.375530,0.419819,1.377442,0.419680,2.472442,-0.130319,2.473632,-0.131697,2.475433,-0.131952,3.507933,-0.741952,3.511843,-0.747155,3.517855,-0.749645,3.522940,-0.761920,3.530924,-0.772544,3.530010,-0.778988,3.532500,-0.785000,3.527416,-0.797274,3.525549,-0.810433,
3.520345,-0.814344,3.517855,-0.820355,3.505579,-0.825440,3.494956,-0.833423,3.488513,-0.832509,3.482500,-0.835000,-0.700000,-0.835000,-0.735355,-0.820355,-0.750000,-0.785000,-0.750000,1.185000,-0.746582,1.193251,-0.746958,1.202173,-0.739546,1.210236,-0.735355,1.220355,-0.727104,1.223773,-0.721061,1.230347,-0.710120,1.230808,-0.700000,1.235000,-0.691749,1.231582,-0.691749,1.231582,
$1*%
G04 Aperture macros list end*
G04 #@! TA.AperFunction,SMDPad,CuDef*
%ADD10R,0.600000X0.700000*%
G04 #@! TD*
G04 #@! TA.AperFunction,ComponentPad*
%ADD11C,0.600000*%
G04 #@! TD*
G04 #@! TA.AperFunction,SMDPad,CuDef*
%ADD12RoundRect,0.147500X0.172500X-0.147500X0.172500X0.147500X-0.172500X0.147500X-0.172500X-0.147500X0*%
G04 #@! TD*
G04 #@! TA.AperFunction,ComponentPad*
%ADD13R,1.700000X1.700000*%
G04 #@! TD*
G04 #@! TA.AperFunction,ComponentPad*
%ADD14O,1.700000X1.700000*%
G04 #@! TD*
G04 #@! TA.AperFunction,SMDPad,CuDef*
%ADD15RoundRect,0.147500X0.147500X0.172500X-0.147500X0.172500X-0.147500X-0.172500X0.147500X-0.172500X0*%
G04 #@! TD*
G04 #@! TA.AperFunction,SMDPad,CuDef*
%ADD16RoundRect,0.147500X-0.147500X-0.172500X0.147500X-0.172500X0.147500X0.172500X-0.147500X0.172500X0*%
G04 #@! TD*
G04 #@! TA.AperFunction,SMDPad,CuDef*
%ADD17RoundRect,0.243750X0.243750X0.456250X-0.243750X0.456250X-0.243750X-0.456250X0.243750X-0.456250X0*%
G04 #@! TD*
G04 #@! TA.AperFunction,SMDPad,CuDef*
%ADD18RoundRect,0.147500X-0.172500X0.147500X-0.172500X-0.147500X0.172500X-0.147500X0.172500X0.147500X0*%
G04 #@! TD*
G04 #@! TA.AperFunction,SMDPad,CuDef*
%ADD19R,0.900000X0.800000*%
G04 #@! TD*
G04 #@! TA.AperFunction,SMDPad,CuDef*
%ADD20RoundRect,0.218750X-0.256250X0.218750X-0.256250X-0.218750X0.256250X-0.218750X0.256250X0.218750X0*%
G04 #@! TD*
G04 #@! TA.AperFunction,SMDPad,CuDef*
%ADD21R,0.500000X0.325000*%
G04 #@! TD*
G04 #@! TA.AperFunction,ComponentPad*
%ADD22C,4.400000*%
G04 #@! TD*
G04 #@! TA.AperFunction,ComponentPad*
%ADD23C,0.700000*%
G04 #@! TD*
G04 #@! TA.AperFunction,ConnectorPad*
%ADD24R,0.560000X2.540000*%
G04 #@! TD*
G04 #@! TA.AperFunction,ComponentPad*
%ADD25RoundRect,0.250000X-0.625000X0.350000X-0.625000X-0.350000X0.625000X-0.350000X0.625000X0.350000X0*%
G04 #@! TD*
G04 #@! TA.AperFunction,ComponentPad*
%ADD26O,1.750000X1.200000*%
G04 #@! TD*
G04 #@! TA.AperFunction,SMDPad,CuDef*
%ADD27RoundRect,0.150000X-0.625000X0.150000X-0.625000X-0.150000X0.625000X-0.150000X0.625000X0.150000X0*%
G04 #@! TD*
G04 #@! TA.AperFunction,SMDPad,CuDef*
%ADD28RoundRect,0.250000X-0.650000X0.350000X-0.650000X-0.350000X0.650000X-0.350000X0.650000X0.350000X0*%
G04 #@! TD*
G04 #@! TA.AperFunction,SMDPad,CuDef*
%ADD29R,0.500000X0.600000*%
G04 #@! TD*
G04 #@! TA.AperFunction,SMDPad,CuDef*
%ADD30R,0.152400X0.254000*%
G04 #@! TD*
G04 #@! TA.AperFunction,SMDPad,CuDef*
%ADD31R,0.508000X0.152400*%
G04 #@! TD*
G04 #@! TA.AperFunction,SMDPad,CuDef*
%ADD32R,1.400000X0.500000*%
G04 #@! TD*
G04 #@! TA.AperFunction,SMDPad,CuDef*
%ADD33R,0.650000X0.350000*%
G04 #@! TD*
G04 #@! TA.AperFunction,SMDPad,CuDef*
%ADD34R,1.550000X2.400000*%
G04 #@! TD*
G04 #@! TA.AperFunction,SMDPad,CuDef*
%ADD35RoundRect,0.062500X0.337500X0.062500X-0.337500X0.062500X-0.337500X-0.062500X0.337500X-0.062500X0*%
G04 #@! TD*
G04 #@! TA.AperFunction,SMDPad,CuDef*
%ADD36RoundRect,0.062500X0.062500X0.337500X-0.062500X0.337500X-0.062500X-0.337500X0.062500X-0.337500X0*%
G04 #@! TD*
G04 #@! TA.AperFunction,SMDPad,CuDef*
%ADD37R,5.300000X5.300000*%
G04 #@! TD*
G04 #@! TA.AperFunction,SMDPad,CuDef*
%ADD38FreePoly0,90.000000*%
G04 #@! TD*
G04 #@! TA.AperFunction,SMDPad,CuDef*
%ADD39FreePoly1,90.000000*%
G04 #@! TD*
G04 #@! TA.AperFunction,SMDPad,CuDef*
%ADD40FreePoly2,270.000000*%
G04 #@! TD*
G04 #@! TA.AperFunction,SMDPad,CuDef*
%ADD41FreePoly1,270.000000*%
G04 #@! TD*
G04 #@! TA.AperFunction,SMDPad,CuDef*
%ADD42RotRect,0.480000X0.480000X135.000000*%
G04 #@! TD*
G04 #@! TA.AperFunction,SMDPad,CuDef*
%ADD43RoundRect,0.218750X0.218750X0.256250X-0.218750X0.256250X-0.218750X-0.256250X0.218750X-0.256250X0*%
G04 #@! TD*
G04 #@! TA.AperFunction,ComponentPad*
%ADD44FreePoly3,0.000000*%
G04 #@! TD*
G04 #@! TA.AperFunction,ComponentPad*
%ADD45FreePoly4,0.000000*%
G04 #@! TD*
G04 #@! TA.AperFunction,ComponentPad*
%ADD46FreePoly5,0.000000*%
G04 #@! TD*
G04 #@! TA.AperFunction,ComponentPad*
%ADD47FreePoly6,0.000000*%
G04 #@! TD*
G04 #@! TA.AperFunction,ComponentPad*
%ADD48FreePoly7,0.000000*%
G04 #@! TD*
G04 #@! TA.AperFunction,ComponentPad*
%ADD49RotRect,3.000000X3.000000X190.000000*%
G04 #@! TD*
G04 #@! TA.AperFunction,ComponentPad*
%ADD50C,3.000000*%
G04 #@! TD*
G04 #@! TA.AperFunction,SMDPad,CuDef*
%ADD51R,0.254000X0.152400*%
G04 #@! TD*
G04 #@! TA.AperFunction,SMDPad,CuDef*
%ADD52R,0.152400X0.508000*%
G04 #@! TD*
G04 #@! TA.AperFunction,SMDPad,CuDef*
%ADD53RoundRect,0.135000X-0.185000X0.135000X-0.185000X-0.135000X0.185000X-0.135000X0.185000X0.135000X0*%
G04 #@! TD*
G04 #@! TA.AperFunction,SMDPad,CuDef*
%ADD54RoundRect,0.140000X0.140000X0.170000X-0.140000X0.170000X-0.140000X-0.170000X0.140000X-0.170000X0*%
G04 #@! TD*
G04 #@! TA.AperFunction,SMDPad,CuDef*
%ADD55RoundRect,0.135000X0.135000X0.185000X-0.135000X0.185000X-0.135000X-0.185000X0.135000X-0.185000X0*%
G04 #@! TD*
G04 #@! TA.AperFunction,SMDPad,CuDef*
%ADD56RoundRect,0.250000X0.250000X0.475000X-0.250000X0.475000X-0.250000X-0.475000X0.250000X-0.475000X0*%
G04 #@! TD*
G04 #@! TA.AperFunction,SMDPad,CuDef*
%ADD57RoundRect,0.218750X0.381250X-0.218750X0.381250X0.218750X-0.381250X0.218750X-0.381250X-0.218750X0*%
G04 #@! TD*
G04 #@! TA.AperFunction,SMDPad,CuDef*
%ADD58R,1.700000X2.500000*%
G04 #@! TD*
G04 #@! TA.AperFunction,SMDPad,CuDef*
%ADD59R,0.650000X0.300000*%
G04 #@! TD*
G04 #@! TA.AperFunction,SMDPad,CuDef*
%ADD60R,0.980000X3.400000*%
G04 #@! TD*
G04 #@! TA.AperFunction,SMDPad,CuDef*
%ADD61RoundRect,0.225000X-0.225000X-0.250000X0.225000X-0.250000X0.225000X0.250000X-0.225000X0.250000X0*%
G04 #@! TD*
G04 #@! TA.AperFunction,ViaPad*
%ADD62C,0.400000*%
G04 #@! TD*
G04 #@! TA.AperFunction,ViaPad*
%ADD63C,0.600000*%
G04 #@! TD*
G04 #@! TA.AperFunction,Conductor*
%ADD64C,0.200000*%
G04 #@! TD*
G04 #@! TA.AperFunction,Conductor*
%ADD65C,0.700000*%
G04 #@! TD*
G04 #@! TA.AperFunction,Conductor*
%ADD66C,1.000000*%
G04 #@! TD*
G04 #@! TA.AperFunction,Conductor*
%ADD67C,0.500000*%
G04 #@! TD*
G04 #@! TA.AperFunction,Conductor*
%ADD68C,0.300000*%
G04 #@! TD*
G04 #@! TA.AperFunction,Conductor*
%ADD69C,0.250000*%
G04 #@! TD*
G04 APERTURE END LIST*
D10*
G04 #@! TO.P,D2,1,K*
G04 #@! TO.N,Net-(D2-Pad1)*
X94180000Y-91990000D03*
G04 #@! TO.P,D2,2,A*
G04 #@! TO.N,GND*
X95580000Y-91990000D03*
G04 #@! TD*
D11*
G04 #@! TO.P,U5,EPAD,EPAD*
G04 #@! TO.N,GND*
X106690000Y-91710000D03*
X106690000Y-92960000D03*
X108690000Y-91710000D03*
X108690000Y-92960000D03*
X107690000Y-90460000D03*
X107690000Y-91710000D03*
X107690000Y-92960000D03*
X107690000Y-89210000D03*
X106690000Y-89210000D03*
X108690000Y-89210000D03*
X108690000Y-90460000D03*
X106690000Y-90460000D03*
G04 #@! TD*
D12*
G04 #@! TO.P,D4,1,K*
G04 #@! TO.N,Net-(D4-Pad1)*
X92125000Y-98110000D03*
G04 #@! TO.P,D4,2,A*
G04 #@! TO.N,+5VD*
X92125000Y-97140000D03*
G04 #@! TD*
D13*
G04 #@! TO.P,J7_1,1,Pin_1*
G04 #@! TO.N,/PHASE_U1*
X101560000Y-83840000D03*
D14*
G04 #@! TO.P,J7_1,2,Pin_2*
G04 #@! TO.N,/PHASE_V1*
X104100000Y-83840000D03*
G04 #@! TO.P,J7_1,3,Pin_3*
G04 #@! TO.N,/PHASE_W1*
X106640000Y-83840000D03*
G04 #@! TD*
D15*
G04 #@! TO.P,C1,1*
G04 #@! TO.N,GND*
X105665000Y-102780000D03*
G04 #@! TO.P,C1,2*
G04 #@! TO.N,VDD*
X104695000Y-102780000D03*
G04 #@! TD*
G04 #@! TO.P,C3,1*
G04 #@! TO.N,GND*
X105675000Y-104680000D03*
G04 #@! TO.P,C3,2*
G04 #@! TO.N,VDD*
X104705000Y-104680000D03*
G04 #@! TD*
D16*
G04 #@! TO.P,C18,1*
G04 #@! TO.N,GND*
X93475000Y-107930000D03*
G04 #@! TO.P,C18,2*
G04 #@! TO.N,/nRST*
X94445000Y-107930000D03*
G04 #@! TD*
D15*
G04 #@! TO.P,C19,1*
G04 #@! TO.N,GND*
X92495000Y-107930000D03*
G04 #@! TO.P,C19,2*
G04 #@! TO.N,/BOOT0*
X91525000Y-107930000D03*
G04 #@! TD*
D12*
G04 #@! TO.P,C23,1*
G04 #@! TO.N,+5VD*
X97010000Y-110705000D03*
G04 #@! TO.P,C23,2*
G04 #@! TO.N,GND*
X97010000Y-109735000D03*
G04 #@! TD*
D16*
G04 #@! TO.P,C24,1*
G04 #@! TO.N,VDD*
X102345000Y-111600000D03*
G04 #@! TO.P,C24,2*
G04 #@! TO.N,GND*
X103315000Y-111600000D03*
G04 #@! TD*
D17*
G04 #@! TO.P,C29,1*
G04 #@! TO.N,VSS*
X102617500Y-92880000D03*
G04 #@! TO.P,C29,2*
G04 #@! TO.N,GND*
X100742500Y-92880000D03*
G04 #@! TD*
D18*
G04 #@! TO.P,C30,1*
G04 #@! TO.N,/nSLEEP1*
X91990000Y-100075000D03*
G04 #@! TO.P,C30,2*
G04 #@! TO.N,GND*
X91990000Y-101045000D03*
G04 #@! TD*
D15*
G04 #@! TO.P,C31,1*
G04 #@! TO.N,/AOUT_W1*
X108525000Y-96950000D03*
G04 #@! TO.P,C31,2*
G04 #@! TO.N,GND*
X107555000Y-96950000D03*
G04 #@! TD*
D16*
G04 #@! TO.P,C32,1*
G04 #@! TO.N,/AOUT_V1*
X105615000Y-96950000D03*
G04 #@! TO.P,C32,2*
G04 #@! TO.N,GND*
X106585000Y-96950000D03*
G04 #@! TD*
G04 #@! TO.P,C35,1*
G04 #@! TO.N,/AOUT_U1*
X106865000Y-99550000D03*
G04 #@! TO.P,C35,2*
G04 #@! TO.N,GND*
X107835000Y-99550000D03*
G04 #@! TD*
G04 #@! TO.P,C40,1*
G04 #@! TO.N,GND*
X84035000Y-105240000D03*
G04 #@! TO.P,C40,2*
G04 #@! TO.N,VDD*
X85005000Y-105240000D03*
G04 #@! TD*
D18*
G04 #@! TO.P,C41,1*
G04 #@! TO.N,GND*
X85000000Y-103275000D03*
G04 #@! TO.P,C41,2*
G04 #@! TO.N,VDD*
X85000000Y-104245000D03*
G04 #@! TD*
G04 #@! TO.P,C42,1*
G04 #@! TO.N,GND*
X84000000Y-103275000D03*
G04 #@! TO.P,C42,2*
G04 #@! TO.N,VDD*
X84000000Y-104245000D03*
G04 #@! TD*
G04 #@! TO.P,D1,1,K*
G04 #@! TO.N,Net-(D1-Pad1)*
X92100000Y-89815000D03*
G04 #@! TO.P,D1,2,A*
G04 #@! TO.N,VS*
X92100000Y-90785000D03*
G04 #@! TD*
D15*
G04 #@! TO.P,D3,1,K*
G04 #@! TO.N,Net-(D3-Pad1)*
X99345000Y-112590000D03*
G04 #@! TO.P,D3,2,A*
G04 #@! TO.N,Net-(D3-Pad2)*
X98375000Y-112590000D03*
G04 #@! TD*
G04 #@! TO.P,D6,1,K*
G04 #@! TO.N,Net-(D6-Pad1)*
X89745000Y-104420000D03*
G04 #@! TO.P,D6,2,A*
G04 #@! TO.N,+3V3*
X88775000Y-104420000D03*
G04 #@! TD*
D19*
G04 #@! TO.P,D7,1,K*
G04 #@! TO.N,/CANH*
X105460000Y-109290000D03*
G04 #@! TO.P,D7,2,K*
G04 #@! TO.N,/CANL*
X105460000Y-111190000D03*
G04 #@! TO.P,D7,3,A*
G04 #@! TO.N,GND*
X107460000Y-110240000D03*
G04 #@! TD*
D16*
G04 #@! TO.P,D9,1,K*
G04 #@! TO.N,Net-(D9-Pad1)*
X108975000Y-86060000D03*
G04 #@! TO.P,D9,2,A*
G04 #@! TO.N,VDD*
X109945000Y-86060000D03*
G04 #@! TD*
D20*
G04 #@! TO.P,FB2,1*
G04 #@! TO.N,+3V3*
X86270000Y-103512500D03*
G04 #@! TO.P,FB2,2*
G04 #@! TO.N,VDD*
X86270000Y-105087500D03*
G04 #@! TD*
D21*
G04 #@! TO.P,FL1,1,1*
G04 #@! TO.N,Net-(FL1-Pad1)*
X102597500Y-109965000D03*
G04 #@! TO.P,FL1,2,2*
G04 #@! TO.N,Net-(FL1-Pad2)*
X102597500Y-110515000D03*
G04 #@! TO.P,FL1,3,3*
G04 #@! TO.N,/CANL*
X103822500Y-110515000D03*
G04 #@! TO.P,FL1,4,4*
G04 #@! TO.N,/CANH*
X103822500Y-109965000D03*
G04 #@! TD*
D22*
G04 #@! TO.P,H1,1,1*
G04 #@! TO.N,GND*
X85370000Y-109710000D03*
D23*
X86536726Y-108543274D03*
X84203274Y-108543274D03*
X87020000Y-109710000D03*
X83720000Y-109710000D03*
X86536726Y-110876726D03*
X85370000Y-111360000D03*
X84203274Y-110876726D03*
X85370000Y-108060000D03*
G04 #@! TD*
G04 #@! TO.P,H2,1,1*
G04 #@! TO.N,GND*
X114630000Y-91940000D03*
D22*
X114630000Y-90290000D03*
D23*
X116280000Y-90290000D03*
X113463274Y-89123274D03*
X115796726Y-91456726D03*
X113463274Y-91456726D03*
X112980000Y-90290000D03*
X115796726Y-89123274D03*
X114630000Y-88640000D03*
G04 #@! TD*
D24*
G04 #@! TO.P,J3,1,Pin_1*
G04 #@! TO.N,GND*
X104680000Y-116180000D03*
G04 #@! TO.P,J3,2,Pin_2*
G04 #@! TO.N,+3V3*
X103680000Y-116180000D03*
G04 #@! TO.P,J3,3,Pin_3*
G04 #@! TO.N,unconnected-(J3-Pad3)*
X102680000Y-116180000D03*
G04 #@! TO.P,J3,4,Pin_4*
G04 #@! TO.N,unconnected-(J3-Pad4)*
X101680000Y-116180000D03*
G04 #@! TO.P,J3,5,Pin_5*
G04 #@! TO.N,/RX1*
X100680000Y-116180000D03*
G04 #@! TO.P,J3,6,Pin_6*
G04 #@! TO.N,/TX1*
X99680000Y-116180000D03*
G04 #@! TO.P,J3,7,Pin_7*
G04 #@! TO.N,/BOOT0*
X98680000Y-116180000D03*
G04 #@! TO.P,J3,8,Pin_8*
G04 #@! TO.N,/nRST*
X97680000Y-116180000D03*
G04 #@! TO.P,J3,9,Pin_9*
G04 #@! TO.N,unconnected-(J3-Pad9)*
X96680000Y-116180000D03*
G04 #@! TO.P,J3,10,Pin_10*
G04 #@! TO.N,unconnected-(J3-Pad10)*
X95680000Y-116180000D03*
G04 #@! TD*
D25*
G04 #@! TO.P,J6,1,Pin_1*
G04 #@! TO.N,/CANH*
X112040000Y-110240000D03*
D26*
G04 #@! TO.P,J6,2,Pin_2*
G04 #@! TO.N,/CANL*
X112040000Y-112240000D03*
G04 #@! TD*
D25*
G04 #@! TO.P,J7,1,Pin_1*
G04 #@! TO.N,/CANH*
X116570000Y-103480000D03*
D26*
G04 #@! TO.P,J7,2,Pin_2*
G04 #@! TO.N,/CANL*
X116570000Y-105480000D03*
G04 #@! TD*
D27*
G04 #@! TO.P,J8,1,Pin_1*
G04 #@! TO.N,GND*
X114855000Y-95770000D03*
G04 #@! TO.P,J8,2,Pin_2*
G04 #@! TO.N,Net-(J8-Pad2)*
X114855000Y-96770000D03*
G04 #@! TO.P,J8,3,Pin_3*
G04 #@! TO.N,/SDA1*
X114855000Y-97770000D03*
G04 #@! TO.P,J8,4,Pin_4*
G04 #@! TO.N,/SCL1*
X114855000Y-98770000D03*
D28*
G04 #@! TO.P,J8,MP*
G04 #@! TO.N,N/C*
X117380000Y-94470000D03*
X117380000Y-100070000D03*
G04 #@! TD*
D29*
G04 #@! TO.P,Q2,1,B*
G04 #@! TO.N,Net-(D2-Pad1)*
X93280000Y-90680000D03*
G04 #@! TO.P,Q2,2,E*
G04 #@! TO.N,Net-(Q2-Pad2)*
X94280000Y-90680000D03*
G04 #@! TO.P,Q2,3,C*
G04 #@! TO.N,Net-(D1-Pad1)*
X93780000Y-89380000D03*
G04 #@! TD*
D30*
G04 #@! TO.P,Q6,1,G*
G04 #@! TO.N,/CANRX*
X97397800Y-112265000D03*
G04 #@! TO.P,Q6,2,S*
G04 #@! TO.N,VDD*
X97042200Y-112265000D03*
D31*
G04 #@! TO.P,Q6,3,D*
G04 #@! TO.N,Net-(D3-Pad2)*
X97220000Y-112665000D03*
G04 #@! TD*
D12*
G04 #@! TO.P,R2,1*
G04 #@! TO.N,GND*
X95470000Y-90785000D03*
G04 #@! TO.P,R2,2*
G04 #@! TO.N,Net-(Q2-Pad2)*
X95470000Y-89815000D03*
G04 #@! TD*
D15*
G04 #@! TO.P,R3,1*
G04 #@! TO.N,Net-(D2-Pad1)*
X93125000Y-91760000D03*
G04 #@! TO.P,R3,2*
G04 #@! TO.N,VS*
X92155000Y-91760000D03*
G04 #@! TD*
G04 #@! TO.P,R4,1*
G04 #@! TO.N,/nSLEEP1*
X92945000Y-99090000D03*
G04 #@! TO.P,R4,2*
G04 #@! TO.N,+5VD*
X91975000Y-99090000D03*
G04 #@! TD*
D12*
G04 #@! TO.P,R5,1*
G04 #@! TO.N,GND*
X92980000Y-101045000D03*
G04 #@! TO.P,R5,2*
G04 #@! TO.N,/nSLEEP1*
X92980000Y-100075000D03*
G04 #@! TD*
D15*
G04 #@! TO.P,R6,1*
G04 #@! TO.N,/VBAT*
X97655000Y-90740000D03*
G04 #@! TO.P,R6,2*
G04 #@! TO.N,VS*
X96685000Y-90740000D03*
G04 #@! TD*
D18*
G04 #@! TO.P,R9,1*
G04 #@! TO.N,/IN_UL1*
X111770000Y-92875000D03*
G04 #@! TO.P,R9,2*
G04 #@! TO.N,VDD*
X111770000Y-93845000D03*
G04 #@! TD*
D16*
G04 #@! TO.P,R12,1*
G04 #@! TO.N,/BOOT0*
X91525000Y-106890000D03*
G04 #@! TO.P,R12,2*
G04 #@! TO.N,GND*
X92495000Y-106890000D03*
G04 #@! TD*
D15*
G04 #@! TO.P,R13,1*
G04 #@! TO.N,/nRST*
X94445000Y-106900000D03*
G04 #@! TO.P,R13,2*
G04 #@! TO.N,VDD*
X93475000Y-106900000D03*
G04 #@! TD*
D16*
G04 #@! TO.P,R14,1*
G04 #@! TO.N,Net-(D3-Pad1)*
X100565000Y-112600000D03*
G04 #@! TO.P,R14,2*
G04 #@! TO.N,GND*
X101535000Y-112600000D03*
G04 #@! TD*
D18*
G04 #@! TO.P,R17,1*
G04 #@! TO.N,GND*
X90770000Y-102585000D03*
G04 #@! TO.P,R17,2*
G04 #@! TO.N,Net-(D6-Pad1)*
X90770000Y-103555000D03*
G04 #@! TD*
D15*
G04 #@! TO.P,R19,1*
G04 #@! TO.N,/CANH*
X103325000Y-108820000D03*
G04 #@! TO.P,R19,2*
G04 #@! TO.N,Net-(JP2-Pad2)*
X102355000Y-108820000D03*
G04 #@! TD*
D16*
G04 #@! TO.P,R20,1*
G04 #@! TO.N,GND*
X100285000Y-107890000D03*
G04 #@! TO.P,R20,2*
G04 #@! TO.N,/nCAN_EN*
X101255000Y-107890000D03*
G04 #@! TD*
D18*
G04 #@! TO.P,R21,1*
G04 #@! TO.N,VDD*
X109970000Y-87060000D03*
G04 #@! TO.P,R21,2*
G04 #@! TO.N,/nFAULT1*
X109970000Y-88030000D03*
G04 #@! TD*
D12*
G04 #@! TO.P,R22,1*
G04 #@! TO.N,/nFAULT1*
X108940000Y-88035000D03*
G04 #@! TO.P,R22,2*
G04 #@! TO.N,Net-(D9-Pad1)*
X108940000Y-87065000D03*
G04 #@! TD*
D18*
G04 #@! TO.P,R23,1*
G04 #@! TO.N,VDD*
X97625000Y-93215000D03*
G04 #@! TO.P,R23,2*
G04 #@! TO.N,/nCS1*
X97625000Y-94185000D03*
G04 #@! TD*
G04 #@! TO.P,R24,1*
G04 #@! TO.N,/DRV8316/SW_BK*
X103900000Y-92095000D03*
G04 #@! TO.P,R24,2*
G04 #@! TO.N,VSS*
X103900000Y-93065000D03*
G04 #@! TD*
D15*
G04 #@! TO.P,R26,1*
G04 #@! TO.N,/AOUT_W1*
X108525000Y-95930000D03*
G04 #@! TO.P,R26,2*
G04 #@! TO.N,Net-(R26-Pad2)*
X107555000Y-95930000D03*
G04 #@! TD*
D16*
G04 #@! TO.P,R27,1*
G04 #@! TO.N,/AOUT_V1*
X105605000Y-95930000D03*
G04 #@! TO.P,R27,2*
G04 #@! TO.N,Net-(R27-Pad2)*
X106575000Y-95930000D03*
G04 #@! TD*
G04 #@! TO.P,R28,1*
G04 #@! TO.N,/AOUT_U1*
X106865000Y-98550000D03*
G04 #@! TO.P,R28,2*
G04 #@! TO.N,Net-(R28-Pad2)*
X107835000Y-98550000D03*
G04 #@! TD*
D32*
G04 #@! TO.P,SW1,1,1*
G04 #@! TO.N,GND*
X94580000Y-111460000D03*
G04 #@! TO.P,SW1,2,2*
G04 #@! TO.N,/nRST*
X94580000Y-109160000D03*
G04 #@! TD*
G04 #@! TO.P,SW2,1,1*
G04 #@! TO.N,VDD*
X92010000Y-111460000D03*
G04 #@! TO.P,SW2,2,2*
G04 #@! TO.N,/BOOT0*
X92010000Y-109160000D03*
G04 #@! TD*
D33*
G04 #@! TO.P,U3,1,TXD*
G04 #@! TO.N,/CANTX*
X98130000Y-109235000D03*
G04 #@! TO.P,U3,2,VSS*
G04 #@! TO.N,GND*
X98130000Y-109885000D03*
G04 #@! TO.P,U3,3,VDD*
G04 #@! TO.N,+5VD*
X98130000Y-110535000D03*
G04 #@! TO.P,U3,4,RXD*
G04 #@! TO.N,/CANRX*
X98130000Y-111185000D03*
G04 #@! TO.P,U3,5,VIO*
G04 #@! TO.N,VDD*
X101230000Y-111185000D03*
G04 #@! TO.P,U3,6,CANL*
G04 #@! TO.N,Net-(FL1-Pad2)*
X101230000Y-110535000D03*
G04 #@! TO.P,U3,7,CANH*
G04 #@! TO.N,Net-(FL1-Pad1)*
X101230000Y-109885000D03*
G04 #@! TO.P,U3,8,STBY*
G04 #@! TO.N,/nCAN_EN*
X101230000Y-109235000D03*
D34*
G04 #@! TO.P,U3,9,VSS*
G04 #@! TO.N,GND*
X99680000Y-110210000D03*
G04 #@! TD*
D35*
G04 #@! TO.P,U6,1,VDDA*
G04 #@! TO.N,VDD*
X103510000Y-103990000D03*
G04 #@! TO.P,U6,2,LNA_IN*
G04 #@! TO.N,unconnected-(U6-Pad2)*
X103510000Y-103490000D03*
G04 #@! TO.P,U6,3,VDDA3P3*
G04 #@! TO.N,VDD*
X103510000Y-102990000D03*
G04 #@! TO.P,U6,4,VDDA3P3*
X103510000Y-102490000D03*
G04 #@! TO.P,U6,5,SENSOR_VP*
G04 #@! TO.N,/AOUT_U1*
X103510000Y-101990000D03*
G04 #@! TO.P,U6,6,SENSOR_CAPP*
G04 #@! TO.N,/AOUT_W1*
X103510000Y-101490000D03*
G04 #@! TO.P,U6,7,SENSOR_CAPN*
G04 #@! TO.N,/AOUT_V1*
X103510000Y-100990000D03*
G04 #@! TO.P,U6,8,SENSOR_VN*
G04 #@! TO.N,/nFAULT1*
X103510000Y-100490000D03*
G04 #@! TO.P,U6,9,EN*
G04 #@! TO.N,/nRST*
X103510000Y-99990000D03*
G04 #@! TO.P,U6,10,IO34*
G04 #@! TO.N,/ABI_A*
X103510000Y-99490000D03*
G04 #@! TO.P,U6,11,IO35*
G04 #@! TO.N,/ABI_I*
X103510000Y-98990000D03*
G04 #@! TO.P,U6,12,IO32*
G04 #@! TO.N,/IN_UH1*
X103510000Y-98490000D03*
D36*
G04 #@! TO.P,U6,13,IO33*
G04 #@! TO.N,/ABI_B*
X102810000Y-97790000D03*
G04 #@! TO.P,U6,14,IO25*
G04 #@! TO.N,/VREF1*
X102310000Y-97790000D03*
G04 #@! TO.P,U6,15,IO26*
G04 #@! TO.N,/IN_VH1*
X101810000Y-97790000D03*
G04 #@! TO.P,U6,16,IO27*
G04 #@! TO.N,/IN_WH1*
X101310000Y-97790000D03*
G04 #@! TO.P,U6,17,IO14*
G04 #@! TO.N,/SCLK*
X100810000Y-97790000D03*
G04 #@! TO.P,U6,18,IO12*
G04 #@! TO.N,/MISO*
X100310000Y-97790000D03*
G04 #@! TO.P,U6,19,VDD3P3_RTC*
G04 #@! TO.N,VDD*
X99810000Y-97790000D03*
G04 #@! TO.P,U6,20,IO13*
G04 #@! TO.N,/MOSI*
X99310000Y-97790000D03*
G04 #@! TO.P,U6,21,IO15*
G04 #@! TO.N,/nCS2*
X98810000Y-97790000D03*
G04 #@! TO.P,U6,22,IO2*
G04 #@! TO.N,/DRVOFF1*
X98310000Y-97790000D03*
G04 #@! TO.P,U6,23,IO0*
G04 #@! TO.N,/BOOT0*
X97810000Y-97790000D03*
G04 #@! TO.P,U6,24,IO4*
G04 #@! TO.N,/nCS1*
X97310000Y-97790000D03*
D35*
G04 #@! TO.P,U6,25,IO16*
G04 #@! TO.N,unconnected-(U6-Pad25)*
X96610000Y-98490000D03*
G04 #@! TO.P,U6,26,VDD_SDIO*
G04 #@! TO.N,unconnected-(U6-Pad26)*
X96610000Y-98990000D03*
G04 #@! TO.P,U6,27,IO17*
G04 #@! TO.N,unconnected-(U6-Pad27)*
X96610000Y-99490000D03*
G04 #@! TO.P,U6,28,SD2/IO9*
G04 #@! TO.N,/IO1*
X96610000Y-99990000D03*
G04 #@! TO.P,U6,29,SD3/IO10*
G04 #@! TO.N,/nCS3*
X96610000Y-100490000D03*
G04 #@! TO.P,U6,30,CMD*
G04 #@! TO.N,unconnected-(U6-Pad30)*
X96610000Y-100990000D03*
G04 #@! TO.P,U6,31,CLK*
G04 #@! TO.N,unconnected-(U6-Pad31)*
X96610000Y-101490000D03*
G04 #@! TO.P,U6,32,SD0*
G04 #@! TO.N,unconnected-(U6-Pad32)*
X96610000Y-101990000D03*
G04 #@! TO.P,U6,33,SD1*
G04 #@! TO.N,unconnected-(U6-Pad33)*
X96610000Y-102490000D03*
G04 #@! TO.P,U6,34,IO5*
G04 #@! TO.N,/CANTX*
X96610000Y-102990000D03*
G04 #@! TO.P,U6,35,IO18*
G04 #@! TO.N,/CANRX*
X96610000Y-103490000D03*
G04 #@! TO.P,U6,36,IO23*
G04 #@! TO.N,/nOTEVENT*
X96610000Y-103990000D03*
D36*
G04 #@! TO.P,U6,37,VDD3P3_CPU*
G04 #@! TO.N,VDD*
X97310000Y-104690000D03*
G04 #@! TO.P,U6,38,IO19*
G04 #@! TO.N,/VBAT*
X97810000Y-104690000D03*
G04 #@! TO.P,U6,39,IO22*
G04 #@! TO.N,/SCL1*
X98310000Y-104690000D03*
G04 #@! TO.P,U6,40,U0RXD/IO3*
G04 #@! TO.N,/RX1*
X98810000Y-104690000D03*
G04 #@! TO.P,U6,41,U0TXD/IO1*
G04 #@! TO.N,/TX1*
X99310000Y-104690000D03*
G04 #@! TO.P,U6,42,IO21*
G04 #@! TO.N,/SDA1*
X99810000Y-104690000D03*
G04 #@! TO.P,U6,43,VDDA*
G04 #@! TO.N,VDD*
X100310000Y-104690000D03*
G04 #@! TO.P,U6,44,XTAL_N_NC*
G04 #@! TO.N,unconnected-(U6-Pad44)*
X100810000Y-104690000D03*
G04 #@! TO.P,U6,45,XTAL_P_NC*
G04 #@! TO.N,unconnected-(U6-Pad45)*
X101310000Y-104690000D03*
G04 #@! TO.P,U6,46,VDDA*
G04 #@! TO.N,VDD*
X101810000Y-104690000D03*
G04 #@! TO.P,U6,47,CAP2_NC*
G04 #@! TO.N,unconnected-(U6-Pad47)*
X102310000Y-104690000D03*
G04 #@! TO.P,U6,48,CAP1_NC*
G04 #@! TO.N,unconnected-(U6-Pad48)*
X102810000Y-104690000D03*
D37*
G04 #@! TO.P,U6,49,GND*
G04 #@! TO.N,GND*
X100060000Y-101240000D03*
G04 #@! TD*
D38*
G04 #@! TO.P,U2,1,VOUT*
G04 #@! TO.N,+3V3*
X89970000Y-102035000D03*
D39*
G04 #@! TO.P,U2,2,GND*
G04 #@! TO.N,GND*
X89970000Y-101385000D03*
D40*
G04 #@! TO.P,U2,3,EN*
G04 #@! TO.N,+5VD*
X88890000Y-101385000D03*
D41*
G04 #@! TO.P,U2,4,VIN*
X88890000Y-102035000D03*
D42*
G04 #@! TO.P,U2,5,GND*
G04 #@! TO.N,GND*
X89430000Y-101710000D03*
G04 #@! TD*
D43*
G04 #@! TO.P,C17,1*
G04 #@! TO.N,+3V3*
X89497500Y-103120000D03*
G04 #@! TO.P,C17,2*
G04 #@! TO.N,GND*
X87922500Y-103120000D03*
G04 #@! TD*
D12*
G04 #@! TO.P,R1,1*
G04 #@! TO.N,/nCS2*
X98790000Y-95145000D03*
G04 #@! TO.P,R1,2*
G04 #@! TO.N,VDD*
X98790000Y-94175000D03*
G04 #@! TD*
D15*
G04 #@! TO.P,R10,1*
G04 #@! TO.N,/nCS3*
X106685000Y-103740000D03*
G04 #@! TO.P,R10,2*
G04 #@! TO.N,VDD*
X105715000Y-103740000D03*
G04 #@! TD*
D11*
G04 #@! TO.P,J5,1,Pin_1*
G04 #@! TO.N,VS*
X92060000Y-82145000D03*
X91435000Y-82610000D03*
X90665000Y-82770000D03*
D44*
X93000000Y-82310000D03*
D11*
X92205000Y-82735000D03*
X93515000Y-81520000D03*
G04 #@! TO.P,J5,2,Pin_2*
G04 #@! TO.N,GND*
X97755000Y-81455000D03*
D45*
X96000000Y-82310000D03*
D11*
X97770000Y-82315000D03*
X95095000Y-81955000D03*
X96930000Y-82325000D03*
X96895000Y-81500000D03*
X97755000Y-80595000D03*
X96035000Y-81185000D03*
X95180000Y-81135000D03*
X96885000Y-80720000D03*
D46*
G04 #@! TO.P,J5,3,Pin_3*
G04 #@! TO.N,/PHASE_U1*
X101000000Y-82310000D03*
D11*
X100020000Y-82180000D03*
X101635000Y-80520000D03*
X101625000Y-81285000D03*
X99975000Y-80485000D03*
X100795000Y-81255000D03*
X99985000Y-81350000D03*
X100845000Y-80485000D03*
G04 #@! TO.P,J5,4,Pin_4*
G04 #@! TO.N,/PHASE_V1*
X104965000Y-82710000D03*
X104300000Y-81235000D03*
X105110000Y-81175000D03*
X103460000Y-81555000D03*
X104995000Y-81900000D03*
X103450000Y-80785000D03*
D47*
X104000000Y-82310000D03*
D11*
G04 #@! TO.P,J5,5,Pin_5*
G04 #@! TO.N,/PHASE_W1*
X108490000Y-82580000D03*
D48*
X107000000Y-82310000D03*
D11*
X107885000Y-82085000D03*
X109230000Y-82755000D03*
X107795000Y-82765000D03*
X106580000Y-81510000D03*
G04 #@! TD*
D49*
G04 #@! TO.P,J1,1,Pin_1*
G04 #@! TO.N,GND*
X96950000Y-84560000D03*
D50*
G04 #@! TO.P,J1,2,Pin_2*
G04 #@! TO.N,VS*
X92025961Y-85428241D03*
G04 #@! TD*
D16*
G04 #@! TO.P,R7,1*
G04 #@! TO.N,GND*
X96695000Y-88710000D03*
G04 #@! TO.P,R7,2*
G04 #@! TO.N,/VBAT*
X97665000Y-88710000D03*
G04 #@! TD*
D15*
G04 #@! TO.P,C13,1*
G04 #@! TO.N,/VBAT*
X97665000Y-89730000D03*
G04 #@! TO.P,C13,2*
G04 #@! TO.N,GND*
X96695000Y-89730000D03*
G04 #@! TD*
D27*
G04 #@! TO.P,J4,1,Pin_1*
G04 #@! TO.N,GND*
X109585000Y-100220000D03*
G04 #@! TO.P,J4,2,Pin_2*
G04 #@! TO.N,VDD*
X109585000Y-101220000D03*
G04 #@! TO.P,J4,3,Pin_3*
G04 #@! TO.N,/MOSI*
X109585000Y-102220000D03*
G04 #@! TO.P,J4,4,Pin_4*
G04 #@! TO.N,/MISO*
X109585000Y-103220000D03*
G04 #@! TO.P,J4,5,Pin_5*
G04 #@! TO.N,/SCLK*
X109585000Y-104220000D03*
G04 #@! TO.P,J4,6,Pin_6*
G04 #@! TO.N,/nCS3*
X109585000Y-105220000D03*
D28*
G04 #@! TO.P,J4,MP*
G04 #@! TO.N,N/C*
X112110000Y-106520000D03*
X112110000Y-98920000D03*
G04 #@! TD*
D12*
G04 #@! TO.P,R29,1*
G04 #@! TO.N,VDD*
X97475000Y-107585000D03*
G04 #@! TO.P,R29,2*
G04 #@! TO.N,/SCL1*
X97475000Y-106615000D03*
G04 #@! TD*
D16*
G04 #@! TO.P,D5,1,K*
G04 #@! TO.N,Net-(D5-Pad1)*
X91890000Y-105025000D03*
G04 #@! TO.P,D5,2,A*
G04 #@! TO.N,Net-(D5-Pad2)*
X92860000Y-105025000D03*
G04 #@! TD*
D15*
G04 #@! TO.P,R18,1*
G04 #@! TO.N,/nOTEVENT*
X95410000Y-101625000D03*
G04 #@! TO.P,R18,2*
G04 #@! TO.N,VDD*
X94440000Y-101625000D03*
G04 #@! TD*
D51*
G04 #@! TO.P,Q4,1,G*
G04 #@! TO.N,/nOTEVENT*
X93325000Y-104002800D03*
G04 #@! TO.P,Q4,2,S*
G04 #@! TO.N,VDD*
X93325000Y-103647200D03*
D52*
G04 #@! TO.P,Q4,3,D*
G04 #@! TO.N,Net-(D5-Pad2)*
X92925000Y-103825000D03*
G04 #@! TD*
D12*
G04 #@! TO.P,R16,1*
G04 #@! TO.N,Net-(D5-Pad1)*
X91925000Y-103935000D03*
G04 #@! TO.P,R16,2*
G04 #@! TO.N,GND*
X91925000Y-102965000D03*
G04 #@! TD*
D15*
G04 #@! TO.P,R25,1*
G04 #@! TO.N,VDD*
X100910000Y-106225000D03*
G04 #@! TO.P,R25,2*
G04 #@! TO.N,/SDA1*
X99940000Y-106225000D03*
G04 #@! TD*
D53*
G04 #@! TO.P,R8,1*
G04 #@! TO.N,GND*
X93125000Y-97115000D03*
G04 #@! TO.P,R8,2*
G04 #@! TO.N,Net-(D4-Pad1)*
X93125000Y-98135000D03*
G04 #@! TD*
D54*
G04 #@! TO.P,C15,2*
G04 #@! TO.N,Net-(C15-Pad2)*
X83720000Y-96475000D03*
G04 #@! TO.P,C15,1*
G04 #@! TO.N,Net-(C15-Pad1)*
X84680000Y-96475000D03*
G04 #@! TD*
D53*
G04 #@! TO.P,R11,2*
G04 #@! TO.N,Net-(R11-Pad2)*
X90050000Y-96685000D03*
G04 #@! TO.P,R11,1*
G04 #@! TO.N,+5VD*
X90050000Y-95665000D03*
G04 #@! TD*
D55*
G04 #@! TO.P,R15,2*
G04 #@! TO.N,GND*
X89115000Y-97650000D03*
G04 #@! TO.P,R15,1*
G04 #@! TO.N,Net-(R11-Pad2)*
X90135000Y-97650000D03*
G04 #@! TD*
D56*
G04 #@! TO.P,C14,2*
G04 #@! TO.N,GND*
X82275000Y-94975000D03*
G04 #@! TO.P,C14,1*
G04 #@! TO.N,Net-(C14-Pad1)*
X84175000Y-94975000D03*
G04 #@! TD*
D57*
G04 #@! TO.P,FB1,1*
G04 #@! TO.N,VS*
X90125000Y-91862500D03*
G04 #@! TO.P,FB1,2*
G04 #@! TO.N,Net-(C14-Pad1)*
X90125000Y-89737500D03*
G04 #@! TD*
D58*
G04 #@! TO.P,U1,13,EP*
G04 #@! TO.N,GND*
X87350000Y-95325000D03*
D59*
G04 #@! TO.P,U1,12,PGOOD*
G04 #@! TO.N,/Buck_MAX20076/BUCK_PGOOD*
X88825000Y-94075000D03*
G04 #@! TO.P,U1,11,SYNC*
G04 #@! TO.N,unconnected-(U1-Pad11)*
X88825000Y-94575000D03*
G04 #@! TO.P,U1,10,BIAS*
G04 #@! TO.N,Net-(C16-Pad2)*
X88825000Y-95075000D03*
G04 #@! TO.P,U1,9,OUT*
G04 #@! TO.N,+5VD*
X88825000Y-95575000D03*
G04 #@! TO.P,U1,8,FB*
G04 #@! TO.N,Net-(R11-Pad2)*
X88825000Y-96075000D03*
G04 #@! TO.P,U1,7,AGND*
G04 #@! TO.N,GND*
X88825000Y-96575000D03*
G04 #@! TO.P,U1,6,PGND*
X85875000Y-96575000D03*
G04 #@! TO.P,U1,5,LX*
G04 #@! TO.N,Net-(C15-Pad1)*
X85875000Y-96075000D03*
G04 #@! TO.P,U1,4,SUP*
G04 #@! TO.N,Net-(C14-Pad1)*
X85875000Y-95575000D03*
G04 #@! TO.P,U1,3,BST*
G04 #@! TO.N,Net-(C15-Pad2)*
X85875000Y-95075000D03*
G04 #@! TO.P,U1,2,EN*
G04 #@! TO.N,Net-(C14-Pad1)*
X85875000Y-94575000D03*
G04 #@! TO.P,U1,1,SPS*
G04 #@! TO.N,unconnected-(U1-Pad1)*
X85875000Y-94075000D03*
G04 #@! TD*
D54*
G04 #@! TO.P,C16,2*
G04 #@! TO.N,Net-(C16-Pad2)*
X89995000Y-94650000D03*
G04 #@! TO.P,C16,1*
G04 #@! TO.N,GND*
X90955000Y-94650000D03*
G04 #@! TD*
D60*
G04 #@! TO.P,L1,2,2*
G04 #@! TO.N,+5VD*
X87560000Y-99450000D03*
G04 #@! TO.P,L1,1,1*
G04 #@! TO.N,Net-(C15-Pad1)*
X85190000Y-99450000D03*
G04 #@! TD*
D61*
G04 #@! TO.P,C20,2*
G04 #@! TO.N,GND*
X92850000Y-95900000D03*
G04 #@! TO.P,C20,1*
G04 #@! TO.N,+5VD*
X91300000Y-95900000D03*
G04 #@! TD*
D62*
G04 #@! TO.N,VDD*
X104760000Y-103740000D03*
X100300000Y-94700000D03*
X92350000Y-112460000D03*
X101090000Y-111620000D03*
X108740000Y-101430000D03*
X95900000Y-112260000D03*
X101140000Y-107060000D03*
X115550000Y-94330000D03*
G04 #@! TO.N,GND*
X100040000Y-109360000D03*
X106390000Y-104670000D03*
D63*
X99500000Y-87925000D03*
D62*
X105770000Y-97710000D03*
X91825000Y-102150000D03*
X114900000Y-95130000D03*
D63*
X92800000Y-94625000D03*
X87350000Y-95325000D03*
D62*
X96400000Y-109690000D03*
D63*
X86900000Y-94525000D03*
D62*
X104690000Y-114900000D03*
D63*
X87800000Y-96125000D03*
D62*
X107873284Y-100077310D03*
X103125000Y-112500000D03*
X101525000Y-101850000D03*
X98175000Y-99275000D03*
X93280000Y-108870000D03*
D63*
X87575000Y-102175000D03*
X86900000Y-96125000D03*
D62*
X91340000Y-102150000D03*
D63*
X87800000Y-94525000D03*
D62*
X108430000Y-110230000D03*
X106370000Y-102790000D03*
X100740000Y-91720000D03*
X95525000Y-111450000D03*
X109600000Y-99450000D03*
D63*
G04 #@! TO.N,VS*
X89500000Y-92675000D03*
X90725000Y-93025000D03*
D62*
X96970000Y-91830000D03*
D63*
X90125000Y-92650000D03*
D62*
G04 #@! TO.N,/VBAT*
X97282260Y-105525219D03*
X93921821Y-102984453D03*
G04 #@! TO.N,/nRST*
X97680000Y-114900000D03*
X105300500Y-99772985D03*
X94450000Y-106420000D03*
G04 #@! TO.N,/BOOT0*
X94000000Y-113875000D03*
X97809990Y-96910000D03*
X98690000Y-114890000D03*
X90710000Y-106730000D03*
G04 #@! TO.N,+5VD*
X90925000Y-99625000D03*
X96440000Y-110690000D03*
G04 #@! TO.N,+3V3*
X103680000Y-114900000D03*
X86750000Y-103210000D03*
G04 #@! TO.N,/VREF1*
X109447500Y-96612500D03*
X102650000Y-96609522D03*
G04 #@! TO.N,VSS*
X104390168Y-92834990D03*
G04 #@! TO.N,/nSLEEP1*
X93299990Y-100090000D03*
X110459098Y-89423907D03*
G04 #@! TO.N,/CANL*
X104290000Y-111500000D03*
G04 #@! TO.N,/TX1*
X98301100Y-106824776D03*
X99690000Y-114900000D03*
G04 #@! TO.N,/RX1*
X100680000Y-114900000D03*
X98844980Y-106041626D03*
G04 #@! TO.N,/nCS3*
X107499988Y-101350012D03*
X95990321Y-100498851D03*
G04 #@! TO.N,/SCLK*
X100932844Y-96550789D03*
X108681685Y-95040442D03*
G04 #@! TO.N,/MISO*
X110120000Y-94670000D03*
X100399876Y-96900000D03*
G04 #@! TO.N,/MOSI*
X99381464Y-97120486D03*
X99557017Y-94675010D03*
X109420000Y-95040000D03*
G04 #@! TO.N,/SCL1*
X114860000Y-99450000D03*
X98246719Y-106200000D03*
G04 #@! TO.N,/SDA1*
X99846396Y-105475220D03*
X113620000Y-98220000D03*
G04 #@! TO.N,Net-(J8-Pad2)*
X117340000Y-95890000D03*
D63*
G04 #@! TO.N,/PHASE_U1*
X106120000Y-87130000D03*
X105500000Y-87130000D03*
G04 #@! TO.N,/PHASE_V1*
X107660000Y-86400000D03*
X107710010Y-87100980D03*
D62*
G04 #@! TO.N,Net-(JP2-Pad2)*
X102350000Y-108230000D03*
G04 #@! TO.N,/nOTEVENT*
X95090300Y-99802578D03*
X93950000Y-105300500D03*
G04 #@! TO.N,/CANRX*
X97400000Y-111530000D03*
X95475010Y-103413843D03*
G04 #@! TO.N,/IN_UL1*
X110770000Y-92857109D03*
X110810000Y-93857120D03*
X110758143Y-91857097D03*
G04 #@! TO.N,/nFAULT1*
X105271800Y-100371800D03*
X111097780Y-88940010D03*
G04 #@! TO.N,/nCS1*
X96525000Y-94675000D03*
X107962956Y-94815382D03*
G04 #@! TO.N,/DRV8316/SW_BK*
X104690000Y-92284980D03*
G04 #@! TO.N,Net-(R26-Pad2)*
X106967036Y-95210010D03*
G04 #@! TO.N,Net-(R27-Pad2)*
X106367023Y-95210010D03*
G04 #@! TO.N,Net-(R28-Pad2)*
X108675000Y-97925000D03*
G04 #@! TO.N,/CANTX*
X95880000Y-108550000D03*
X95810007Y-102916057D03*
G04 #@! TO.N,/IN_WH1*
X111880000Y-95540000D03*
X101467633Y-96183831D03*
G04 #@! TO.N,/IN_VH1*
X112385907Y-95880086D03*
X101991327Y-96476677D03*
G04 #@! TO.N,/IN_UH1*
X112549990Y-96457226D03*
X103725000Y-97325000D03*
G04 #@! TO.N,/DRVOFF1*
X111009631Y-87922459D03*
X98310000Y-96140000D03*
G04 #@! TO.N,Net-(C15-Pad2)*
X83175000Y-96450000D03*
X85100000Y-94925000D03*
G04 #@! TO.N,unconnected-(J3-Pad3)*
X102680000Y-114900000D03*
G04 #@! TO.N,unconnected-(J3-Pad4)*
X101690000Y-114900000D03*
G04 #@! TO.N,unconnected-(J3-Pad9)*
X96680000Y-114900000D03*
G04 #@! TO.N,/nCS2*
X98775000Y-95724480D03*
G04 #@! TO.N,unconnected-(J3-Pad10)*
X95680000Y-114900000D03*
G04 #@! TO.N,/ABI_A*
X104196756Y-99407127D03*
G04 #@! TO.N,/ABI_I*
X105236092Y-98588908D03*
G04 #@! TO.N,/ABI_B*
X103125000Y-97075000D03*
G04 #@! TD*
D64*
G04 #@! TO.N,GND*
X95525000Y-111450000D02*
X94590000Y-111450000D01*
X94590000Y-111450000D02*
X94580000Y-111460000D01*
G04 #@! TO.N,/nOTEVENT*
X93950000Y-105300500D02*
X93950000Y-105200000D01*
X93454520Y-104704520D02*
X93454520Y-104667339D01*
X93950000Y-105200000D02*
X93454520Y-104704520D01*
X93454520Y-104667339D02*
X93350000Y-104562819D01*
X93350000Y-104562819D02*
X93350000Y-104075000D01*
G04 #@! TO.N,/SCL1*
X114855000Y-98770000D02*
X114855000Y-99445000D01*
X114855000Y-99445000D02*
X114860000Y-99450000D01*
D65*
G04 #@! TO.N,VS*
X90150000Y-92600000D02*
X90150000Y-91925000D01*
D64*
G04 #@! TO.N,Net-(C14-Pad1)*
X85875000Y-94575000D02*
X85456416Y-94575000D01*
X84724511Y-94425489D02*
X84175000Y-94975000D01*
X85456416Y-94575000D02*
X85306905Y-94425489D01*
X85306905Y-94425489D02*
X84724511Y-94425489D01*
D66*
G04 #@! TO.N,GND*
X96950000Y-84560000D02*
X96750000Y-84360000D01*
X96750000Y-84360000D02*
X96750000Y-83150000D01*
D64*
X89115000Y-97650000D02*
X89115000Y-97240000D01*
X88825000Y-96950000D02*
X88825000Y-96575000D01*
X89115000Y-97240000D02*
X88825000Y-96950000D01*
G04 #@! TO.N,+5VD*
X90925000Y-99625000D02*
X91050000Y-99625000D01*
X91585000Y-99090000D02*
X91975000Y-99090000D01*
X91050000Y-99625000D02*
X91585000Y-99090000D01*
D67*
X90537500Y-99287500D02*
X88640579Y-101184421D01*
X90975000Y-98850000D02*
X90537500Y-99287500D01*
X90537500Y-99287500D02*
X90587500Y-99287500D01*
X90587500Y-99287500D02*
X90925000Y-99625000D01*
X90975000Y-98400000D02*
X90975000Y-98850000D01*
X88640579Y-101184421D02*
X88640579Y-101970579D01*
X91300000Y-97225000D02*
X91300000Y-98075000D01*
X91300000Y-98075000D02*
X90850000Y-98525000D01*
X90850000Y-98525000D02*
X88485000Y-98525000D01*
X88485000Y-98525000D02*
X87560000Y-99450000D01*
D64*
G04 #@! TO.N,Net-(R11-Pad2)*
X90050000Y-96685000D02*
X90050000Y-97565000D01*
X90050000Y-97565000D02*
X90135000Y-97650000D01*
D67*
G04 #@! TO.N,Net-(C15-Pad1)*
X85190000Y-99450000D02*
X85190000Y-97174511D01*
X85190000Y-97174511D02*
X84680000Y-96664511D01*
X84680000Y-96664511D02*
X84680000Y-96475000D01*
D64*
G04 #@! TO.N,/nCS1*
X96525000Y-94675000D02*
X96550000Y-94675000D01*
X96550000Y-94675000D02*
X97040000Y-94185000D01*
X97040000Y-94185000D02*
X97625000Y-94185000D01*
G04 #@! TO.N,VDD*
X97625000Y-93215000D02*
X97160000Y-93215000D01*
X97160000Y-93215000D02*
X94520000Y-95855000D01*
X94520000Y-95855000D02*
X94520000Y-103680000D01*
G04 #@! TO.N,/nRST*
X94580000Y-109160000D02*
X94580000Y-109645000D01*
X94580000Y-109645000D02*
X93525000Y-110700000D01*
X93525000Y-110700000D02*
X93525000Y-112335000D01*
X94680000Y-113490000D02*
X96270000Y-113490000D01*
X93525000Y-112335000D02*
X94680000Y-113490000D01*
X96270000Y-113490000D02*
X97680000Y-114900000D01*
X94580000Y-109160000D02*
X94580000Y-108655000D01*
X94580000Y-108655000D02*
X94445000Y-108520000D01*
X94445000Y-108520000D02*
X94445000Y-107930000D01*
G04 #@! TO.N,/BOOT0*
X92010000Y-109160000D02*
X92010000Y-109660000D01*
X92010000Y-109660000D02*
X93075000Y-110725000D01*
X93075000Y-110725000D02*
X93075000Y-112950000D01*
X93075000Y-112950000D02*
X94000000Y-113875000D01*
X91525000Y-107930000D02*
X91525000Y-108350000D01*
X91525000Y-108350000D02*
X92010000Y-108835000D01*
X92010000Y-108835000D02*
X92010000Y-109160000D01*
D65*
G04 #@! TO.N,Net-(C14-Pad1)*
X90125000Y-89737500D02*
X88638478Y-89737500D01*
X84350000Y-94050000D02*
X84175000Y-94225000D01*
X88638478Y-89737500D02*
X84350000Y-94025978D01*
X84350000Y-94025978D02*
X84350000Y-94050000D01*
X84175000Y-94225000D02*
X84175000Y-94975000D01*
D68*
X85875000Y-95575000D02*
X85000481Y-95575000D01*
X85000481Y-95575000D02*
X85000000Y-95575481D01*
G04 #@! TO.N,Net-(C15-Pad2)*
X85875000Y-95075000D02*
X85250000Y-95075000D01*
X85250000Y-95075000D02*
X85100000Y-94925000D01*
G04 #@! TO.N,Net-(C14-Pad1)*
X84775481Y-95575481D02*
X85000000Y-95575481D01*
X84175000Y-94975000D02*
X84775481Y-95575481D01*
D64*
G04 #@! TO.N,/VBAT*
X97655000Y-90740000D02*
X97655000Y-91970000D01*
X93800000Y-95825000D02*
X93800000Y-102862632D01*
X97655000Y-91970000D02*
X93800000Y-95825000D01*
X93800000Y-102862632D02*
X93921821Y-102984453D01*
G04 #@! TO.N,/IN_UH1*
X103725000Y-97325000D02*
X103510000Y-97540000D01*
X103510000Y-97540000D02*
X103510000Y-98490000D01*
G04 #@! TO.N,/ABI_B*
X103125000Y-97075000D02*
X102810000Y-97390000D01*
X102810000Y-97390000D02*
X102810000Y-97790000D01*
G04 #@! TO.N,VDD*
X109585000Y-101220000D02*
X108950000Y-101220000D01*
X111995000Y-93845000D02*
X112975000Y-92865000D01*
X97625000Y-93215000D02*
X98240000Y-93215000D01*
D68*
X101930000Y-111185000D02*
X102345000Y-111600000D01*
X96650000Y-105350000D02*
X97310000Y-104690000D01*
X100310000Y-104690000D02*
X100310000Y-105173378D01*
D64*
X100100000Y-94700000D02*
X100100000Y-96134769D01*
D68*
X86377500Y-105087500D02*
X87140000Y-105850000D01*
X101810000Y-104690000D02*
X101810000Y-105390000D01*
X96650000Y-105850000D02*
X96650000Y-105350000D01*
D64*
X114440000Y-94330000D02*
X115550000Y-94330000D01*
X91690000Y-112460000D02*
X92350000Y-112460000D01*
D68*
X98611505Y-107585000D02*
X99136505Y-107060000D01*
D67*
X85157500Y-105087500D02*
X85005000Y-105240000D01*
D64*
X93350000Y-103622200D02*
X93345601Y-103626599D01*
X100300000Y-94700000D02*
X100100000Y-94700000D01*
D68*
X104695000Y-103675000D02*
X104760000Y-103740000D01*
D64*
X93425000Y-103475000D02*
X93350000Y-103550000D01*
D68*
X99136505Y-107060000D02*
X100840000Y-107060000D01*
X101230000Y-111480000D02*
X101090000Y-111620000D01*
D64*
X109970000Y-87060000D02*
X110882870Y-87060000D01*
X94520000Y-105850000D02*
X94520000Y-103680000D01*
X100100000Y-96134769D02*
X99900376Y-96334393D01*
X101120002Y-107040002D02*
X101140000Y-107060000D01*
D68*
X100885000Y-105610000D02*
X100835000Y-105560000D01*
D67*
X86270000Y-105087500D02*
X85157500Y-105087500D01*
D68*
X96985000Y-107585000D02*
X98611505Y-107585000D01*
X93530000Y-105850000D02*
X94520000Y-105850000D01*
D64*
X93350000Y-103550000D02*
X93350000Y-103622200D01*
D68*
X100835000Y-105560000D02*
X101980000Y-105560000D01*
D64*
X99900376Y-97286738D02*
X99810000Y-97377114D01*
X112975000Y-92865000D02*
X114440000Y-94330000D01*
D69*
X103510000Y-102990000D02*
X104485000Y-102990000D01*
D64*
X91635000Y-111635000D02*
X91635000Y-110705000D01*
X110882870Y-87060000D02*
X111597782Y-87774912D01*
D68*
X100885000Y-106225000D02*
X100885000Y-107015000D01*
D64*
X108950000Y-101220000D02*
X108740000Y-101430000D01*
D69*
X104015000Y-103990000D02*
X104705000Y-104680000D01*
D64*
X99810000Y-97377114D02*
X99810000Y-97790000D01*
D68*
X100885000Y-106225000D02*
X100885000Y-105610000D01*
D64*
X98790000Y-94175000D02*
X99905000Y-94175000D01*
D68*
X90170000Y-105850000D02*
X93530000Y-105850000D01*
X100885000Y-107015000D02*
X100840000Y-107060000D01*
D64*
X93825000Y-103475000D02*
X93425000Y-103475000D01*
D68*
X96650000Y-107250000D02*
X96985000Y-107585000D01*
D67*
X85000000Y-105235000D02*
X85005000Y-105240000D01*
D64*
X98240000Y-93215000D02*
X98790000Y-93765000D01*
D67*
X85000000Y-104245000D02*
X85000000Y-105235000D01*
D68*
X87140000Y-105850000D02*
X90170000Y-105850000D01*
X104760000Y-103740000D02*
X105715000Y-103740000D01*
D64*
X98790000Y-93765000D02*
X98790000Y-94175000D01*
D68*
X104705000Y-104680000D02*
X104705000Y-103795000D01*
D64*
X95900000Y-112260000D02*
X97013393Y-112260000D01*
D68*
X100840000Y-107060000D02*
X101140000Y-107060000D01*
D64*
X109970000Y-87060000D02*
X109970000Y-86085000D01*
X94030000Y-103680000D02*
X93825000Y-103475000D01*
D68*
X96650000Y-105850000D02*
X96650000Y-107250000D01*
D64*
X100100000Y-94370000D02*
X100100000Y-94700000D01*
X111597782Y-91487782D02*
X112975000Y-92865000D01*
D68*
X101230000Y-111185000D02*
X101230000Y-111480000D01*
D64*
X97013393Y-112260000D02*
X97018393Y-112265000D01*
X91635000Y-111635000D02*
X91635000Y-112405000D01*
D69*
X103510000Y-102490000D02*
X104405000Y-102490000D01*
D68*
X94520000Y-105850000D02*
X96650000Y-105850000D01*
D64*
X90170000Y-109240000D02*
X90170000Y-105850000D01*
D68*
X104705000Y-103795000D02*
X104760000Y-103740000D01*
D69*
X103510000Y-103990000D02*
X104015000Y-103990000D01*
D68*
X100310000Y-105173378D02*
X100696622Y-105560000D01*
D64*
X99905000Y-94175000D02*
X100100000Y-94370000D01*
D68*
X103825000Y-105560000D02*
X104705000Y-104680000D01*
X101230000Y-111185000D02*
X101930000Y-111185000D01*
D64*
X99900376Y-96334393D02*
X99900376Y-97286738D01*
D68*
X100696622Y-105560000D02*
X100835000Y-105560000D01*
X101810000Y-105390000D02*
X101980000Y-105560000D01*
D64*
X111597782Y-87774912D02*
X111597782Y-91487782D01*
X91635000Y-112405000D02*
X91690000Y-112460000D01*
D69*
X104405000Y-102490000D02*
X104695000Y-102780000D01*
D64*
X109970000Y-86085000D02*
X109945000Y-86060000D01*
X94520000Y-103680000D02*
X94030000Y-103680000D01*
D67*
X84000000Y-104245000D02*
X85000000Y-104245000D01*
D68*
X104695000Y-102780000D02*
X104695000Y-103675000D01*
D64*
X91635000Y-110705000D02*
X90170000Y-109240000D01*
D68*
X86270000Y-105087500D02*
X86377500Y-105087500D01*
D69*
X104485000Y-102990000D02*
X104695000Y-102780000D01*
D64*
X93475000Y-105905000D02*
X93530000Y-105850000D01*
X93475000Y-106900000D02*
X93475000Y-105905000D01*
D68*
X101980000Y-105560000D02*
X103825000Y-105560000D01*
D64*
X111770000Y-93845000D02*
X111995000Y-93845000D01*
G04 #@! TO.N,GND*
X93475000Y-107930000D02*
X93475000Y-108675000D01*
D68*
X91005000Y-94650000D02*
X92150000Y-94650000D01*
D64*
X108420000Y-110240000D02*
X108430000Y-110230000D01*
D66*
X96700000Y-85150000D02*
X94920000Y-86930000D01*
D64*
X96695000Y-88705000D02*
X94920000Y-86930000D01*
X102315000Y-112600000D02*
X102745000Y-112170000D01*
D67*
X90900000Y-102150000D02*
X90770000Y-102020000D01*
D68*
X100285000Y-109605000D02*
X99680000Y-110210000D01*
D65*
X87922500Y-102522500D02*
X87922500Y-103120000D01*
D67*
X91210000Y-102020000D02*
X91340000Y-102150000D01*
D64*
X96695000Y-89730000D02*
X96695000Y-88710000D01*
X90885000Y-101045000D02*
X90770000Y-101160000D01*
X89970000Y-101385000D02*
X89748588Y-101163588D01*
D66*
X87030000Y-87720000D02*
X85275000Y-89475000D01*
D64*
X107555000Y-96950000D02*
X106585000Y-96950000D01*
X93475000Y-108675000D02*
X93280000Y-108870000D01*
X105665000Y-102780000D02*
X106360000Y-102780000D01*
X105675000Y-104680000D02*
X106380000Y-104680000D01*
X91990000Y-101045000D02*
X90885000Y-101045000D01*
X93125000Y-97115000D02*
X93125000Y-96750000D01*
D67*
X85575000Y-102175000D02*
X85000000Y-102750000D01*
D64*
X109585000Y-99465000D02*
X109585000Y-100220000D01*
X92850000Y-96475000D02*
X92850000Y-95900000D01*
D67*
X90770000Y-102020000D02*
X91210000Y-102020000D01*
D64*
X92495000Y-107930000D02*
X93475000Y-107930000D01*
D68*
X92537500Y-94887500D02*
X92387500Y-94887500D01*
D64*
X106585000Y-96950000D02*
X105825000Y-97710000D01*
D67*
X83740000Y-105240000D02*
X84035000Y-105240000D01*
D64*
X102795000Y-112170000D02*
X103125000Y-112500000D01*
X114855000Y-95175000D02*
X114900000Y-95130000D01*
X91990000Y-101045000D02*
X92980000Y-101045000D01*
X92495000Y-106890000D02*
X92495000Y-107930000D01*
X106360000Y-102780000D02*
X106370000Y-102790000D01*
X104680000Y-114910000D02*
X104690000Y-114900000D01*
X106380000Y-104680000D02*
X106390000Y-104670000D01*
D67*
X90770000Y-102020000D02*
X90770000Y-101160000D01*
D68*
X97160000Y-109885000D02*
X98130000Y-109885000D01*
D64*
X107873284Y-100077310D02*
X107873284Y-99588284D01*
X109600000Y-99450000D02*
X109585000Y-99465000D01*
D68*
X92850000Y-95350000D02*
X92850000Y-95975000D01*
D67*
X85000000Y-102750000D02*
X85000000Y-103275000D01*
D66*
X85275000Y-90750000D02*
X82450000Y-93575000D01*
D64*
X91925000Y-102965000D02*
X91925000Y-102250000D01*
D68*
X92387500Y-94887500D02*
X92850000Y-95350000D01*
D64*
X95640000Y-90785000D02*
X96695000Y-89730000D01*
D68*
X87350000Y-95774022D02*
X87350000Y-95325000D01*
D66*
X94920000Y-86930000D02*
X94130000Y-87720000D01*
D64*
X95470000Y-90785000D02*
X95640000Y-90785000D01*
D68*
X98130000Y-109885000D02*
X99355000Y-109885000D01*
D67*
X84000000Y-103275000D02*
X83245000Y-103275000D01*
D66*
X97350000Y-85150000D02*
X96700000Y-85150000D01*
D68*
X99355000Y-109885000D02*
X99680000Y-110210000D01*
D67*
X90770000Y-101160000D02*
X90520000Y-100910000D01*
D64*
X107873284Y-99588284D02*
X107835000Y-99550000D01*
D68*
X92150000Y-94650000D02*
X92387500Y-94887500D01*
X100742500Y-91722500D02*
X100740000Y-91720000D01*
X100742500Y-92880000D02*
X100742500Y-91722500D01*
D64*
X104680000Y-116180000D02*
X104680000Y-114910000D01*
D67*
X89933588Y-100910000D02*
X89680000Y-101163588D01*
D64*
X93125000Y-96750000D02*
X92850000Y-96475000D01*
D67*
X90520000Y-100910000D02*
X89933588Y-100910000D01*
X90770000Y-102585000D02*
X90770000Y-102020000D01*
X84000000Y-103275000D02*
X85000000Y-103275000D01*
X87575000Y-102175000D02*
X85575000Y-102175000D01*
D64*
X95580000Y-91990000D02*
X95580000Y-90895000D01*
D68*
X97010000Y-109735000D02*
X97160000Y-109885000D01*
D64*
X105825000Y-97710000D02*
X105770000Y-97710000D01*
X89680000Y-101460000D02*
X89680000Y-101459990D01*
D66*
X85275000Y-89475000D02*
X85275000Y-90750000D01*
D64*
X96695000Y-88710000D02*
X96695000Y-88705000D01*
D67*
X83245000Y-103275000D02*
X83080000Y-103440000D01*
D65*
X87575000Y-102175000D02*
X87922500Y-102522500D01*
D64*
X101535000Y-112600000D02*
X102315000Y-112600000D01*
X91925000Y-102250000D02*
X91825000Y-102150000D01*
X114855000Y-95770000D02*
X114855000Y-95175000D01*
D67*
X89680000Y-101163588D02*
X89680000Y-101459990D01*
D68*
X88150978Y-96575000D02*
X88825000Y-96575000D01*
D67*
X83080000Y-103440000D02*
X83080000Y-104580000D01*
D64*
X89748588Y-101163588D02*
X89680000Y-101163588D01*
D68*
X85875000Y-96575000D02*
X86549022Y-96575000D01*
D64*
X102745000Y-112170000D02*
X102795000Y-112170000D01*
D66*
X82450000Y-93575000D02*
X82450000Y-94975000D01*
D67*
X91780000Y-102150000D02*
X90900000Y-102150000D01*
D68*
X86549022Y-96575000D02*
X87350000Y-95774022D01*
D66*
X94130000Y-87720000D02*
X87030000Y-87720000D01*
D64*
X107460000Y-110240000D02*
X108420000Y-110240000D01*
X96445000Y-109735000D02*
X96400000Y-109690000D01*
X97010000Y-109735000D02*
X96445000Y-109735000D01*
D68*
X87350000Y-95774022D02*
X88150978Y-96575000D01*
D64*
X102745000Y-112170000D02*
X103315000Y-111600000D01*
D68*
X92800000Y-94625000D02*
X92537500Y-94887500D01*
D67*
X83080000Y-104580000D02*
X83740000Y-105240000D01*
D64*
X89430000Y-101710000D02*
X89680000Y-101460000D01*
X95580000Y-90895000D02*
X95470000Y-90785000D01*
D68*
X100285000Y-107890000D02*
X100285000Y-109605000D01*
D64*
G04 #@! TO.N,VS*
X90315000Y-91760000D02*
X92155000Y-91760000D01*
X90150000Y-91925000D02*
X90315000Y-91760000D01*
D65*
X90725000Y-93025000D02*
X90300000Y-92600000D01*
D64*
X96685000Y-90740000D02*
X96685000Y-91545000D01*
D66*
X92025961Y-85428241D02*
X92025961Y-83284039D01*
D64*
X92155000Y-90840000D02*
X92100000Y-90785000D01*
D65*
X90300000Y-92600000D02*
X90150000Y-92600000D01*
D64*
X96685000Y-91545000D02*
X96970000Y-91830000D01*
D66*
X92025961Y-83284039D02*
X93000000Y-82310000D01*
X93000000Y-84590000D02*
X92240000Y-85350000D01*
D65*
X89575000Y-92600000D02*
X90150000Y-92600000D01*
D64*
X92155000Y-91760000D02*
X92155000Y-90840000D01*
D66*
X93000000Y-82310000D02*
X93000000Y-84590000D01*
D65*
X89500000Y-92675000D02*
X89575000Y-92600000D01*
D64*
G04 #@! TO.N,/VBAT*
X97667886Y-105525219D02*
X97282260Y-105525219D01*
X97665000Y-89730000D02*
X97665000Y-90730000D01*
X97665000Y-88710000D02*
X97665000Y-89730000D01*
X97810000Y-105383105D02*
X97667886Y-105525219D01*
X97810000Y-104690000D02*
X97810000Y-105383105D01*
X97665000Y-90730000D02*
X97655000Y-90740000D01*
G04 #@! TO.N,/nRST*
X104947184Y-99990000D02*
X103510000Y-99990000D01*
X94450000Y-106420000D02*
X94450000Y-106895000D01*
X94450000Y-106895000D02*
X94445000Y-106900000D01*
X105064895Y-99872289D02*
X104947184Y-99990000D01*
X94445000Y-106900000D02*
X94445000Y-107930000D01*
X105300500Y-99772985D02*
X105201196Y-99872289D01*
X105201196Y-99872289D02*
X105064895Y-99872289D01*
X97680000Y-114900000D02*
X97680000Y-116180000D01*
G04 #@! TO.N,/BOOT0*
X98690000Y-116170000D02*
X98680000Y-116180000D01*
X98690000Y-114890000D02*
X98690000Y-116170000D01*
X97810000Y-97790000D02*
X97810000Y-96910010D01*
X90870000Y-106890000D02*
X90710000Y-106730000D01*
X91525000Y-106890000D02*
X90870000Y-106890000D01*
X97810000Y-96910010D02*
X97809990Y-96910000D01*
X91525000Y-106890000D02*
X91525000Y-107930000D01*
D68*
G04 #@! TO.N,+5VD*
X90010480Y-95625480D02*
X90050000Y-95665000D01*
X89350000Y-95575000D02*
X89400480Y-95625480D01*
X88705000Y-102035000D02*
X88640579Y-101970579D01*
D64*
X91385000Y-97140000D02*
X91300000Y-97225000D01*
D68*
X97010000Y-110705000D02*
X97180000Y-110535000D01*
D67*
X90990000Y-95665000D02*
X91300000Y-95975000D01*
D68*
X88825000Y-95575000D02*
X89350000Y-95575000D01*
X96440000Y-110690000D02*
X96995000Y-110690000D01*
D67*
X91300000Y-95975000D02*
X91300000Y-97225000D01*
D68*
X96995000Y-110690000D02*
X97010000Y-110705000D01*
D64*
X92125000Y-97140000D02*
X91385000Y-97140000D01*
D68*
X89400480Y-95625480D02*
X90010480Y-95625480D01*
X97180000Y-110535000D02*
X98130000Y-110535000D01*
D67*
X90050000Y-95665000D02*
X90990000Y-95665000D01*
D68*
X88890000Y-102035000D02*
X88705000Y-102035000D01*
D67*
G04 #@! TO.N,+3V3*
X88775000Y-103935000D02*
X88775000Y-104420000D01*
X87177500Y-104420000D02*
X86270000Y-103512500D01*
X88775000Y-104420000D02*
X87177500Y-104420000D01*
X89497500Y-102642500D02*
X89880000Y-102260000D01*
D64*
X86447500Y-103512500D02*
X86750000Y-103210000D01*
X86270000Y-103512500D02*
X86447500Y-103512500D01*
X103680000Y-115660000D02*
X103680000Y-116180000D01*
X103680000Y-114900000D02*
X103680000Y-115660000D01*
D67*
X89497500Y-103120000D02*
X89497500Y-103212500D01*
X89497500Y-103212500D02*
X88775000Y-103935000D01*
X89497500Y-103120000D02*
X89497500Y-102642500D01*
D64*
G04 #@! TO.N,/VREF1*
X102650000Y-96609522D02*
X102310000Y-96949522D01*
X102310000Y-96949522D02*
X102310000Y-97790000D01*
D68*
G04 #@! TO.N,VSS*
X103900000Y-93065000D02*
X104160158Y-93065000D01*
X104160158Y-93065000D02*
X104390168Y-92834990D01*
X103900000Y-93065000D02*
X102802500Y-93065000D01*
X102802500Y-93065000D02*
X102617500Y-92880000D01*
D64*
G04 #@! TO.N,/nSLEEP1*
X93284990Y-100075000D02*
X93299990Y-100090000D01*
X91990000Y-100075000D02*
X92980000Y-100075000D01*
X92980000Y-99125000D02*
X92945000Y-99090000D01*
X92980000Y-100075000D02*
X93284990Y-100075000D01*
X92980000Y-100075000D02*
X92980000Y-99125000D01*
G04 #@! TO.N,/AOUT_W1*
X107700000Y-97775000D02*
X106427124Y-97775000D01*
X108525000Y-96950000D02*
X107700000Y-97775000D01*
X105635000Y-101490000D02*
X103510000Y-101490000D01*
X106200000Y-98002124D02*
X106200000Y-100925000D01*
X106427124Y-97775000D02*
X106200000Y-98002124D01*
X106200000Y-100925000D02*
X105635000Y-101490000D01*
X108525000Y-95930000D02*
X108525000Y-96950000D01*
G04 #@! TO.N,/AOUT_V1*
X105270489Y-97294511D02*
X105615000Y-96950000D01*
X105800000Y-100550000D02*
X105800000Y-98446416D01*
X105800000Y-98446416D02*
X105270489Y-97916905D01*
X105605000Y-96940000D02*
X105615000Y-96950000D01*
X105605000Y-95930000D02*
X105605000Y-96940000D01*
X105270489Y-97916905D02*
X105270489Y-97294511D01*
X103520002Y-101000002D02*
X105349998Y-101000002D01*
X103510000Y-100990000D02*
X103520002Y-101000002D01*
X105349998Y-101000002D02*
X105800000Y-100550000D01*
G04 #@! TO.N,/AOUT_U1*
X106865000Y-98550000D02*
X106865000Y-101405000D01*
X106865000Y-101405000D02*
X106280000Y-101990000D01*
X106280000Y-101990000D02*
X103510000Y-101990000D01*
G04 #@! TO.N,Net-(D1-Pad1)*
X93345000Y-89815000D02*
X93780000Y-89380000D01*
X92100000Y-89815000D02*
X93345000Y-89815000D01*
G04 #@! TO.N,Net-(D2-Pad1)*
X93125000Y-91760000D02*
X93125000Y-90835000D01*
X93125000Y-91760000D02*
X93950000Y-91760000D01*
X93125000Y-90835000D02*
X93280000Y-90680000D01*
X93950000Y-91760000D02*
X94180000Y-91990000D01*
G04 #@! TO.N,Net-(D3-Pad2)*
X98215000Y-112750000D02*
X97305000Y-112750000D01*
X97305000Y-112750000D02*
X97247001Y-112692001D01*
X98375000Y-112590000D02*
X98215000Y-112750000D01*
G04 #@! TO.N,Net-(D3-Pad1)*
X100555000Y-112590000D02*
X100565000Y-112600000D01*
X99345000Y-112590000D02*
X100555000Y-112590000D01*
G04 #@! TO.N,Net-(D4-Pad1)*
X92125000Y-98110000D02*
X93100000Y-98110000D01*
X93100000Y-98110000D02*
X93125000Y-98135000D01*
G04 #@! TO.N,Net-(D5-Pad2)*
X92860000Y-103890000D02*
X92897999Y-103852001D01*
X92860000Y-105025000D02*
X92860000Y-103890000D01*
G04 #@! TO.N,Net-(D5-Pad1)*
X91925000Y-104990000D02*
X91890000Y-105025000D01*
X91925000Y-103935000D02*
X91925000Y-104990000D01*
G04 #@! TO.N,Net-(D6-Pad1)*
X90770000Y-103555000D02*
X90770000Y-103940000D01*
X90290000Y-104420000D02*
X89745000Y-104420000D01*
X90770000Y-103940000D02*
X90290000Y-104420000D01*
D68*
G04 #@! TO.N,/CANH*
X105460000Y-109290000D02*
X104497500Y-109290000D01*
X115550000Y-103480000D02*
X114660000Y-104370000D01*
X104027500Y-108820000D02*
X104497500Y-109290000D01*
X104497500Y-109290000D02*
X103885001Y-109902499D01*
X114660000Y-107620000D02*
X112040000Y-110240000D01*
X103325000Y-108820000D02*
X104027500Y-108820000D01*
X116570000Y-103480000D02*
X115550000Y-103480000D01*
X114660000Y-104370000D02*
X114660000Y-107620000D01*
X111090000Y-109290000D02*
X105460000Y-109290000D01*
X112040000Y-110240000D02*
X111090000Y-109290000D01*
G04 #@! TO.N,/CANL*
X105460000Y-111190000D02*
X104497500Y-111190000D01*
X116570000Y-107710000D02*
X112040000Y-112240000D01*
X104497500Y-111190000D02*
X103885001Y-110577501D01*
X116570000Y-105480000D02*
X116570000Y-107710000D01*
X105460000Y-111190000D02*
X110990000Y-111190000D01*
X104497500Y-111292500D02*
X104497500Y-111190000D01*
X110990000Y-111190000D02*
X112040000Y-112240000D01*
X104290000Y-111500000D02*
X104497500Y-111292500D01*
D64*
G04 #@! TO.N,Net-(D9-Pad1)*
X108975000Y-87030000D02*
X108940000Y-87065000D01*
X108975000Y-86060000D02*
X108975000Y-87030000D01*
D68*
G04 #@! TO.N,Net-(FL1-Pad2)*
X101230000Y-110535000D02*
X102577500Y-110535000D01*
X102577500Y-110535000D02*
X102597500Y-110515000D01*
G04 #@! TO.N,Net-(FL1-Pad1)*
X101310000Y-109965000D02*
X101230000Y-109885000D01*
X102597500Y-109965000D02*
X101310000Y-109965000D01*
D64*
G04 #@! TO.N,/TX1*
X98808717Y-106600001D02*
X98583942Y-106824776D01*
X98583942Y-106824776D02*
X98301100Y-106824776D01*
X99690000Y-114900000D02*
X99690000Y-116170000D01*
X99344990Y-106327135D02*
X99072124Y-106600001D01*
X99072124Y-106600001D02*
X98808717Y-106600001D01*
X99310000Y-104690000D02*
X99344990Y-104724990D01*
X99344990Y-104724990D02*
X99344990Y-106327135D01*
X99690000Y-116170000D02*
X99680000Y-116180000D01*
G04 #@! TO.N,/RX1*
X98810000Y-104690000D02*
X98810000Y-106006646D01*
X98810000Y-106006646D02*
X98844980Y-106041626D01*
X100680000Y-114900000D02*
X100680000Y-116180000D01*
G04 #@! TO.N,/nCS3*
X95999172Y-100490000D02*
X95990321Y-100498851D01*
X109585000Y-105220000D02*
X108770000Y-105220000D01*
X108770000Y-105220000D02*
X107499988Y-103949988D01*
X107469976Y-103740000D02*
X107499988Y-103709988D01*
X107499988Y-103949988D02*
X107499988Y-103709988D01*
X106685000Y-103740000D02*
X107469976Y-103740000D01*
X96610000Y-100490000D02*
X95999172Y-100490000D01*
X107499988Y-103709988D02*
X107499988Y-101350012D01*
G04 #@! TO.N,/SCLK*
X110109968Y-96468725D02*
X110109968Y-98115032D01*
X100932844Y-95978616D02*
X100932844Y-96550789D01*
X110109968Y-98115032D02*
X108475000Y-99750000D01*
X108810000Y-104220000D02*
X109585000Y-104220000D01*
X108240489Y-103650489D02*
X108810000Y-104220000D01*
X102596088Y-94315372D02*
X100932844Y-95978616D01*
X108681685Y-95040442D02*
X110109968Y-96468725D01*
X108240489Y-100415927D02*
X108240489Y-103650489D01*
X108239457Y-94315372D02*
X102596088Y-94315372D01*
X108475000Y-99750000D02*
X108475000Y-100181416D01*
X100810000Y-97790000D02*
X100810000Y-97313607D01*
X100810000Y-97313607D02*
X100932844Y-97190763D01*
X108475000Y-100181416D02*
X108240489Y-100415927D01*
X100932844Y-97190763D02*
X100932844Y-96550789D01*
X108681685Y-94757600D02*
X108239457Y-94315372D01*
X108681685Y-95040442D02*
X108681685Y-94757600D01*
G04 #@! TO.N,/MISO*
X100399876Y-96900000D02*
X100310000Y-96989876D01*
X100500011Y-96300458D02*
X100500011Y-95845749D01*
X102465760Y-93880000D02*
X109330000Y-93880000D01*
X109585000Y-103220000D02*
X109996412Y-103220000D01*
X111060021Y-102156391D02*
X111060021Y-99717909D01*
X109996412Y-103220000D02*
X111060021Y-102156391D01*
X110909990Y-99567878D02*
X110909990Y-95519990D01*
X100310000Y-96989876D02*
X100310000Y-97790000D01*
X100399876Y-96900000D02*
X100399876Y-96400593D01*
X100500011Y-95845749D02*
X102465760Y-93880000D01*
X100399876Y-96400593D02*
X100500011Y-96300458D01*
X111060021Y-99717909D02*
X110909990Y-99567878D01*
X109330000Y-93880000D02*
X110120000Y-94670000D01*
X110120000Y-94730000D02*
X110120000Y-94670000D01*
X110909990Y-95519990D02*
X110120000Y-94730000D01*
G04 #@! TO.N,/MOSI*
X99381464Y-97120486D02*
X99386334Y-97115616D01*
X99386334Y-96282735D02*
X99557017Y-96112052D01*
X110509979Y-96129979D02*
X110509979Y-99733567D01*
X99381464Y-97318536D02*
X99310000Y-97390000D01*
X99381464Y-97120486D02*
X99381464Y-97318536D01*
X110660010Y-101919990D02*
X110360000Y-102220000D01*
X99386334Y-97115616D02*
X99386334Y-96282735D01*
X109420000Y-95040000D02*
X110509979Y-96129979D01*
X99557017Y-96112052D02*
X99557017Y-94675010D01*
X110360000Y-102220000D02*
X109585000Y-102220000D01*
X110509979Y-99733567D02*
X110660010Y-99883598D01*
X110660010Y-99883598D02*
X110660010Y-101919990D01*
X99310000Y-97390000D02*
X99310000Y-97790000D01*
G04 #@! TO.N,/SCL1*
X98310000Y-106136719D02*
X98246719Y-106200000D01*
X97475000Y-106615000D02*
X97890000Y-106200000D01*
X98310000Y-104690000D02*
X98310000Y-106136719D01*
X97890000Y-106200000D02*
X98246719Y-106200000D01*
G04 #@! TO.N,/SDA1*
X99846396Y-106156396D02*
X99915000Y-106225000D01*
X99846396Y-105475220D02*
X99846396Y-106156396D01*
X99810000Y-105438824D02*
X99846396Y-105475220D01*
X99810000Y-104690000D02*
X99810000Y-105438824D01*
X114070000Y-97770000D02*
X113620000Y-98220000D01*
X114855000Y-97770000D02*
X114070000Y-97770000D01*
G04 #@! TO.N,Net-(J8-Pad2)*
X116770000Y-95890000D02*
X117340000Y-95890000D01*
X114855000Y-96770000D02*
X115890000Y-96770000D01*
X115890000Y-96770000D02*
X116770000Y-95890000D01*
D67*
G04 #@! TO.N,/PHASE_U1*
X101000000Y-83280000D02*
X101560000Y-83840000D01*
D65*
X106120000Y-87130000D02*
X105500000Y-87130000D01*
D67*
X101000000Y-82310000D02*
X101000000Y-83280000D01*
D65*
X103860000Y-87130000D02*
X105500000Y-87130000D01*
X101560000Y-83840000D02*
X101560000Y-84830000D01*
X101560000Y-84830000D02*
X103860000Y-87130000D01*
D67*
G04 #@! TO.N,/PHASE_V1*
X104100000Y-83840000D02*
X104100000Y-83575000D01*
X104100000Y-83575000D02*
X104965000Y-82710000D01*
X107660000Y-87050970D02*
X107710010Y-87100980D01*
D65*
X107660000Y-86400000D02*
X107660000Y-87050970D01*
X105410000Y-85900000D02*
X107160000Y-85900000D01*
D67*
X104100000Y-83840000D02*
X104100000Y-84590000D01*
D65*
X104100000Y-84590000D02*
X105410000Y-85900000D01*
X107160000Y-85900000D02*
X107660000Y-86400000D01*
D67*
G04 #@! TO.N,/PHASE_W1*
X106640000Y-83840000D02*
X106720000Y-83840000D01*
X106720000Y-83840000D02*
X107795000Y-82765000D01*
D68*
G04 #@! TO.N,Net-(JP2-Pad2)*
X102355000Y-108820000D02*
X102355000Y-108235000D01*
X102355000Y-108235000D02*
X102350000Y-108230000D01*
D64*
G04 #@! TO.N,Net-(Q2-Pad2)*
X94865000Y-89815000D02*
X95470000Y-89815000D01*
X94280000Y-90400000D02*
X94865000Y-89815000D01*
X94280000Y-90680000D02*
X94280000Y-90400000D01*
G04 #@! TO.N,/nOTEVENT*
X95410000Y-101625000D02*
X95410000Y-101990000D01*
X95410000Y-101625000D02*
X95410000Y-100122278D01*
X95410000Y-101990000D02*
X94975000Y-102425000D01*
X95410000Y-100122278D02*
X95090300Y-99802578D01*
X94975000Y-103675000D02*
X94975000Y-102425000D01*
X95290000Y-103990000D02*
X94975000Y-103675000D01*
X96610000Y-103990000D02*
X95290000Y-103990000D01*
G04 #@! TO.N,/CANRX*
X98095000Y-111220000D02*
X98130000Y-111185000D01*
X97480000Y-111530000D02*
X97790000Y-111220000D01*
X96610000Y-103490000D02*
X95551167Y-103490000D01*
X98130000Y-111185000D02*
X98130000Y-111532800D01*
X98130000Y-111532800D02*
X97418401Y-112244399D01*
X97790000Y-111220000D02*
X98095000Y-111220000D01*
X95551167Y-103490000D02*
X95475010Y-103413843D01*
X97400000Y-111530000D02*
X97480000Y-111530000D01*
G04 #@! TO.N,/IN_UL1*
X110758143Y-92845252D02*
X110770000Y-92857109D01*
X111770000Y-92875000D02*
X110787891Y-92875000D01*
X110787891Y-92875000D02*
X110770000Y-92857109D01*
X110758143Y-91857097D02*
X110758143Y-92845252D01*
X110770000Y-93817120D02*
X110810000Y-93857120D01*
X110770000Y-92857109D02*
X110770000Y-93817120D01*
G04 #@! TO.N,/nCAN_EN*
X101230000Y-109235000D02*
X101230000Y-107915000D01*
X101230000Y-107915000D02*
X101255000Y-107890000D01*
G04 #@! TO.N,/nFAULT1*
X109970000Y-88325000D02*
X110585010Y-88940010D01*
X110585010Y-88940010D02*
X111097780Y-88940010D01*
X108940000Y-88035000D02*
X109965000Y-88035000D01*
X109965000Y-88035000D02*
X109970000Y-88030000D01*
X105271800Y-100371800D02*
X105153600Y-100490000D01*
X109970000Y-88030000D02*
X109970000Y-88325000D01*
X105153600Y-100490000D02*
X103510000Y-100490000D01*
G04 #@! TO.N,/nCS1*
X97300000Y-97780000D02*
X97300000Y-94925000D01*
X97300000Y-94925000D02*
X97625000Y-94600000D01*
X97625000Y-94600000D02*
X97625000Y-94185000D01*
X97310000Y-97790000D02*
X97300000Y-97780000D01*
D68*
G04 #@! TO.N,/DRV8316/SW_BK*
X104500020Y-92095000D02*
X104690000Y-92284980D01*
X103900000Y-92095000D02*
X104500020Y-92095000D01*
D64*
G04 #@! TO.N,Net-(R26-Pad2)*
X107555000Y-95930000D02*
X107555000Y-95797974D01*
X107555000Y-95797974D02*
X106967036Y-95210010D01*
G04 #@! TO.N,Net-(R27-Pad2)*
X106367023Y-95722023D02*
X106367023Y-95210010D01*
X106575000Y-95930000D02*
X106367023Y-95722023D01*
G04 #@! TO.N,Net-(R28-Pad2)*
X108325000Y-98550000D02*
X107835000Y-98550000D01*
X108675000Y-97925000D02*
X108675000Y-98200000D01*
X108675000Y-98200000D02*
X108325000Y-98550000D01*
G04 #@! TO.N,/CANTX*
X95883950Y-102990000D02*
X95810007Y-102916057D01*
X96610000Y-102990000D02*
X95883950Y-102990000D01*
X98045000Y-109235000D02*
X97360000Y-108550000D01*
X97360000Y-108550000D02*
X95880000Y-108550000D01*
X98130000Y-109235000D02*
X98045000Y-109235000D01*
G04 #@! TO.N,/IN_WH1*
X101438505Y-97248827D02*
X101438505Y-96212959D01*
X101438505Y-96212959D02*
X101467633Y-96183831D01*
X101310000Y-97377332D02*
X101438505Y-97248827D01*
X101310000Y-97790000D02*
X101310000Y-97377332D01*
G04 #@! TO.N,/IN_VH1*
X101810000Y-97790000D02*
X101838515Y-97761485D01*
X101838515Y-96629489D02*
X101991327Y-96476677D01*
X101838515Y-97761485D02*
X101838515Y-96629489D01*
D68*
G04 #@! TO.N,Net-(C15-Pad1)*
X85080000Y-96075000D02*
X84680000Y-96475000D01*
X85800000Y-96075000D02*
X85080000Y-96075000D01*
D64*
G04 #@! TO.N,/DRVOFF1*
X98310000Y-97790000D02*
X98310000Y-96140000D01*
D68*
G04 #@! TO.N,Net-(C15-Pad2)*
X83695000Y-96450000D02*
X83720000Y-96475000D01*
X83175000Y-96450000D02*
X83695000Y-96450000D01*
G04 #@! TO.N,Net-(C16-Pad2)*
X89570000Y-95075000D02*
X89995000Y-94650000D01*
X88825000Y-95075000D02*
X89570000Y-95075000D01*
D64*
G04 #@! TO.N,unconnected-(J3-Pad3)*
X102680000Y-116180000D02*
X102680000Y-114900000D01*
G04 #@! TO.N,unconnected-(J3-Pad4)*
X101690000Y-114900000D02*
X101690000Y-116170000D01*
X101690000Y-116170000D02*
X101680000Y-116180000D01*
D68*
G04 #@! TO.N,unconnected-(J3-Pad9)*
X96680000Y-116180000D02*
X96680000Y-114900000D01*
D64*
G04 #@! TO.N,/nCS2*
X98790000Y-95709480D02*
X98790000Y-95145000D01*
X98775000Y-95724480D02*
X98810000Y-95759480D01*
X98775000Y-95724480D02*
X98790000Y-95709480D01*
X98810000Y-95759480D02*
X98810000Y-97790000D01*
G04 #@! TO.N,unconnected-(J3-Pad10)*
X95680000Y-114900000D02*
X95680000Y-116180000D01*
G04 #@! TO.N,Net-(R11-Pad2)*
X89440000Y-96075000D02*
X90050000Y-96685000D01*
X88900000Y-96075000D02*
X89440000Y-96075000D01*
G04 #@! TO.N,/ABI_A*
X104113883Y-99490000D02*
X103510000Y-99490000D01*
X104196756Y-99407127D02*
X104113883Y-99490000D01*
G04 #@! TO.N,/ABI_I*
X103921973Y-98990000D02*
X103510000Y-98990000D01*
X105236092Y-98588908D02*
X104323065Y-98588908D01*
X104323065Y-98588908D02*
X103921973Y-98990000D01*
G04 #@! TD*
G04 #@! TA.AperFunction,Conductor*
G04 #@! TO.N,GND*
G36*
X96885370Y-83642803D02*
G01*
X96953477Y-83662854D01*
X96983129Y-83689423D01*
X97970976Y-84907147D01*
X98542075Y-85611143D01*
X98569458Y-85676646D01*
X98557079Y-85746555D01*
X98508870Y-85798674D01*
X98467702Y-85814315D01*
X96576397Y-86173011D01*
X95903845Y-86300564D01*
X95867157Y-86307522D01*
X95796502Y-86300564D01*
X95740826Y-86256511D01*
X95731822Y-86241729D01*
X95489815Y-85775000D01*
X94738919Y-84326844D01*
X94724779Y-84269764D01*
X94721119Y-83768245D01*
X94740624Y-83699980D01*
X94793939Y-83653096D01*
X94847207Y-83641325D01*
X96885370Y-83642803D01*
G37*
G04 #@! TD.AperFunction*
G04 #@! TD*
M02*
