G04 #@! TF.GenerationSoftware,KiCad,Pcbnew,(6.0.0-0)*
G04 #@! TF.CreationDate,2022-01-16T01:34:20+01:00*
G04 #@! TF.ProjectId,ESCv4.3,45534376-342e-4332-9e6b-696361645f70,rev?*
G04 #@! TF.SameCoordinates,Original*
G04 #@! TF.FileFunction,Soldermask,Bot*
G04 #@! TF.FilePolarity,Negative*
%FSLAX46Y46*%
G04 Gerber Fmt 4.6, Leading zero omitted, Abs format (unit mm)*
G04 Created by KiCad (PCBNEW (6.0.0-0)) date 2022-01-16 01:34:20*
%MOMM*%
%LPD*%
G01*
G04 APERTURE LIST*
G04 Aperture macros list*
%AMRoundRect*
0 Rectangle with rounded corners*
0 $1 Rounding radius*
0 $2 $3 $4 $5 $6 $7 $8 $9 X,Y pos of 4 corners*
0 Add a 4 corners polygon primitive as box body*
4,1,4,$2,$3,$4,$5,$6,$7,$8,$9,$2,$3,0*
0 Add four circle primitives for the rounded corners*
1,1,$1+$1,$2,$3*
1,1,$1+$1,$4,$5*
1,1,$1+$1,$6,$7*
1,1,$1+$1,$8,$9*
0 Add four rect primitives between the rounded corners*
20,1,$1+$1,$2,$3,$4,$5,0*
20,1,$1+$1,$4,$5,$6,$7,0*
20,1,$1+$1,$6,$7,$8,$9,0*
20,1,$1+$1,$8,$9,$2,$3,0*%
%AMRotRect*
0 Rectangle, with rotation*
0 The origin of the aperture is its center*
0 $1 length*
0 $2 width*
0 $3 Rotation angle, in degrees counterclockwise*
0 Add horizontal line*
21,1,$1,$2,0,0,$3*%
%AMFreePoly0*
4,1,44,0.830013,1.305809,0.841086,1.305336,0.847036,1.298855,0.855180,1.295529,0.859471,1.285312,0.866968,1.277147,0.866593,1.268357,0.869999,1.260246,0.879999,-0.769754,0.879949,-0.769877,0.880000,-0.770000,0.872730,-0.787552,0.865529,-0.805181,0.865406,-0.805233,0.865355,-0.805355,0.847885,-0.812591,0.830246,-0.820000,0.830122,-0.819949,0.830000,-0.820000,-3.500000,-0.820000,
-3.506485,-0.817314,-3.513453,-0.818156,-3.523527,-0.810254,-3.535355,-0.805355,-3.538041,-0.798871,-3.543565,-0.794538,-3.545101,-0.781827,-3.550000,-0.770000,-3.547314,-0.763515,-3.548156,-0.756547,-3.540254,-0.746473,-3.535355,-0.734645,-3.528871,-0.731959,-3.524538,-0.726435,-2.299538,-0.036435,-2.298295,-0.036285,-2.297478,-0.035338,-0.777478,0.729663,-0.774411,0.729889,-0.772147,0.731968,
0.802853,1.306968,0.811644,1.306593,0.819754,1.309999,0.830013,1.305809,0.830013,1.305809,$1*%
%AMFreePoly1*
4,1,39,2.195290,2.208684,2.210945,2.204272,2.212546,2.201415,2.215565,2.200143,2.221700,2.185078,2.229652,2.170888,2.228764,2.167735,2.229999,2.164702,2.212499,-0.770298,2.205102,-0.787860,2.197829,-0.805381,2.197699,-0.805435,2.197644,-0.805565,2.180068,-0.812723,2.162464,-0.820000,-1.285036,-0.817500,-1.302522,-0.810242,-1.320355,-0.802855,-1.320363,-0.802837,-1.320381,-0.802829,
-1.327768,-0.784960,-1.335000,-0.767500,-1.335000,1.500000,-1.329879,1.512364,-1.327945,1.525607,-1.322807,1.529436,-1.320355,1.535355,-1.307993,1.540476,-1.297260,1.548474,-0.012260,1.873474,-0.010769,1.873256,-0.009512,1.874087,1.074239,2.084087,1.076156,2.083696,1.077862,2.084652,2.174112,2.214652,2.177264,2.213764,2.180298,2.214999,2.195290,2.208684,2.195290,2.208684,
$1*%
%AMFreePoly2*
4,1,40,-0.293101,2.284069,-0.290740,2.284818,1.054259,2.169818,1.069461,2.161943,1.085294,2.155416,1.086183,2.153279,1.088238,2.152215,1.093418,2.135898,1.100000,2.120086,1.105000,-0.773038,1.104989,-0.773064,1.105000,-0.773089,1.097538,-0.791142,1.090416,-0.808419,1.090392,-0.808429,1.090381,-0.808455,1.072450,-0.815897,1.055086,-0.823125,1.055061,-0.823115,1.055036,-0.823125,
-1.556214,-0.825000,-1.556243,-0.824988,-1.556271,-0.825000,-1.573983,-0.817655,-1.591580,-0.810380,-1.591592,-0.810352,-1.591620,-0.810340,-1.598894,-0.792758,-1.606250,-0.775036,-1.606238,-0.775007,-1.606250,-0.774979,-1.605000,2.225021,-1.597731,2.242549,-1.590634,2.260073,-1.590426,2.260161,-1.590340,2.260369,-1.572842,2.267609,-1.555397,2.274998,-0.295396,2.284998,-0.293101,2.284069,
-0.293101,2.284069,$1*%
%AMFreePoly3*
4,1,37,-1.030715,2.055725,-1.026184,2.056717,0.243817,1.829217,0.246063,1.827777,0.248711,1.828083,1.493710,1.473084,1.503659,1.465194,1.515385,1.460325,1.518108,1.453735,1.523694,1.449305,1.525150,1.436695,1.530000,1.424958,1.528125,-0.788792,1.520772,-0.806501,1.513462,-0.824123,1.513454,-0.824127,1.513450,-0.824135,1.495761,-0.831445,1.478100,-0.838750,1.478083,-0.838750,
-1.035025,-0.837500,-1.052540,-0.830235,-1.070355,-0.822855,-1.070360,-0.822842,-1.070373,-0.822837,-1.077752,-0.804997,-1.085000,-0.787500,-1.085000,2.007500,-1.083225,2.011785,-1.084217,2.016316,-1.076106,2.028971,-1.070355,2.042855,-1.066070,2.044630,-1.063567,2.048535,-1.048885,2.051748,-1.035000,2.057500,-1.030715,2.055725,-1.030715,2.055725,$1*%
%AMFreePoly4*
4,1,39,-0.691749,1.231582,-0.682827,1.231958,0.192174,0.911958,0.193023,0.911178,0.194175,0.911177,1.374175,0.421177,1.375530,0.419819,1.377442,0.419680,2.472442,-0.130319,2.473632,-0.131697,2.475433,-0.131952,3.507933,-0.741952,3.511843,-0.747155,3.517855,-0.749645,3.522940,-0.761920,3.530924,-0.772544,3.530010,-0.778988,3.532500,-0.785000,3.527416,-0.797274,3.525549,-0.810433,
3.520345,-0.814344,3.517855,-0.820355,3.505579,-0.825440,3.494956,-0.833423,3.488513,-0.832509,3.482500,-0.835000,-0.700000,-0.835000,-0.735355,-0.820355,-0.750000,-0.785000,-0.750000,1.185000,-0.746582,1.193251,-0.746958,1.202173,-0.739546,1.210236,-0.735355,1.220355,-0.727104,1.223773,-0.721061,1.230347,-0.710120,1.230808,-0.700000,1.235000,-0.691749,1.231582,-0.691749,1.231582,
$1*%
%AMFreePoly5*
4,1,6,1.000000,0.000000,0.500000,-0.750000,-0.500000,-0.750000,-0.500000,0.750000,0.500000,0.750000,1.000000,0.000000,1.000000,0.000000,$1*%
%AMFreePoly6*
4,1,6,0.500000,-0.750000,-0.650000,-0.750000,-0.150000,0.000000,-0.650000,0.750000,0.500000,0.750000,0.500000,-0.750000,0.500000,-0.750000,$1*%
G04 Aperture macros list end*
%ADD10C,0.100000*%
%ADD11O,0.500000X0.200000*%
%ADD12O,0.200000X0.500000*%
%ADD13C,0.600000*%
%ADD14R,1.000000X1.250000*%
%ADD15R,1.700000X1.700000*%
%ADD16O,1.700000X1.700000*%
%ADD17C,4.400000*%
%ADD18C,0.700000*%
%ADD19RoundRect,0.250000X-0.625000X0.350000X-0.625000X-0.350000X0.625000X-0.350000X0.625000X0.350000X0*%
%ADD20O,1.750000X1.200000*%
%ADD21FreePoly0,0.000000*%
%ADD22FreePoly1,0.000000*%
%ADD23FreePoly2,0.000000*%
%ADD24FreePoly3,0.000000*%
%ADD25FreePoly4,0.000000*%
%ADD26RotRect,3.000000X3.000000X190.000000*%
%ADD27C,3.000000*%
%ADD28RoundRect,0.243750X-0.456250X0.243750X-0.456250X-0.243750X0.456250X-0.243750X0.456250X0.243750X0*%
%ADD29RoundRect,0.243750X0.456250X-0.243750X0.456250X0.243750X-0.456250X0.243750X-0.456250X-0.243750X0*%
%ADD30RoundRect,0.147500X-0.172500X0.147500X-0.172500X-0.147500X0.172500X-0.147500X0.172500X0.147500X0*%
%ADD31RoundRect,0.218750X-0.256250X0.218750X-0.256250X-0.218750X0.256250X-0.218750X0.256250X0.218750X0*%
%ADD32RoundRect,0.147500X0.172500X-0.147500X0.172500X0.147500X-0.172500X0.147500X-0.172500X-0.147500X0*%
%ADD33FreePoly5,90.000000*%
%ADD34FreePoly6,90.000000*%
%ADD35FreePoly5,0.000000*%
%ADD36FreePoly6,0.000000*%
%ADD37R,0.560000X2.540000*%
%ADD38C,0.325000*%
%ADD39RoundRect,0.147500X0.147500X0.172500X-0.147500X0.172500X-0.147500X-0.172500X0.147500X-0.172500X0*%
%ADD40RoundRect,0.100000X-0.637500X-0.100000X0.637500X-0.100000X0.637500X0.100000X-0.637500X0.100000X0*%
G04 APERTURE END LIST*
D10*
G04 #@! TO.C,J3*
X95080000Y-117780000D02*
X105280000Y-117780000D01*
X105280000Y-117780000D02*
X105280000Y-114580000D01*
X105280000Y-114580000D02*
X95080000Y-114580000D01*
X95080000Y-114580000D02*
X95080000Y-117780000D01*
G36*
X105280000Y-117780000D02*
G01*
X95080000Y-117780000D01*
X95080000Y-114580000D01*
X105280000Y-114580000D01*
X105280000Y-117780000D01*
G37*
X105280000Y-117780000D02*
X95080000Y-117780000D01*
X95080000Y-114580000D01*
X105280000Y-114580000D01*
X105280000Y-117780000D01*
G04 #@! TD*
D11*
G04 #@! TO.C,U5*
X105440000Y-93835000D03*
X105440000Y-93335000D03*
X105440000Y-92835000D03*
X105440000Y-92335000D03*
X105440000Y-91835000D03*
X105440000Y-91335000D03*
X105440000Y-90835000D03*
X105440000Y-90335000D03*
X105440000Y-89835000D03*
X105440000Y-89335000D03*
X105440000Y-88835000D03*
X105440000Y-88335000D03*
D12*
X105940000Y-87835000D03*
X106440000Y-87835000D03*
X106940000Y-87835000D03*
X107440000Y-87835000D03*
X107940000Y-87835000D03*
X108440000Y-87835000D03*
X108940000Y-87835000D03*
X109440000Y-87835000D03*
D11*
X109940000Y-88335000D03*
X109940000Y-88835000D03*
X109940000Y-89335000D03*
X109940000Y-89835000D03*
X109940000Y-90335000D03*
X109940000Y-90835000D03*
X109940000Y-91335000D03*
X109940000Y-91835000D03*
X109940000Y-92335000D03*
X109940000Y-92835000D03*
X109940000Y-93335000D03*
X109940000Y-93835000D03*
D12*
X109440000Y-94335000D03*
X108940000Y-94335000D03*
X108440000Y-94335000D03*
X107940000Y-94335000D03*
X107440000Y-94335000D03*
X106940000Y-94335000D03*
X106440000Y-94335000D03*
X105940000Y-94335000D03*
D13*
X106690000Y-91710000D03*
D14*
X107690000Y-92960000D03*
D13*
X106690000Y-92960000D03*
X108690000Y-91710000D03*
X108690000Y-92960000D03*
X107690000Y-90460000D03*
X107690000Y-91710000D03*
D14*
X107690000Y-89210000D03*
X108690000Y-90460000D03*
D13*
X107690000Y-92960000D03*
D14*
X107690000Y-91710000D03*
D13*
X107690000Y-89210000D03*
X106690000Y-89210000D03*
D14*
X106690000Y-90460000D03*
X108690000Y-91710000D03*
D13*
X108690000Y-89210000D03*
D14*
X108690000Y-92960000D03*
X106690000Y-91710000D03*
X106690000Y-92960000D03*
D13*
X108690000Y-90460000D03*
X106690000Y-90460000D03*
D14*
X108690000Y-89210000D03*
X106690000Y-89210000D03*
X107690000Y-90460000D03*
G04 #@! TD*
D15*
G04 #@! TO.C,J7_1*
X101560000Y-83840000D03*
D16*
X104100000Y-83840000D03*
X106640000Y-83840000D03*
G04 #@! TD*
D17*
G04 #@! TO.C,H1*
X85370000Y-109710000D03*
D18*
X86536726Y-108543274D03*
X84203274Y-108543274D03*
X87020000Y-109710000D03*
X83720000Y-109710000D03*
X86536726Y-110876726D03*
X85370000Y-111360000D03*
X84203274Y-110876726D03*
X85370000Y-108060000D03*
G04 #@! TD*
G04 #@! TO.C,H2*
X114630000Y-91940000D03*
D17*
X114630000Y-90290000D03*
D18*
X116280000Y-90290000D03*
X113463274Y-89123274D03*
X115796726Y-91456726D03*
X113463274Y-91456726D03*
X112980000Y-90290000D03*
X115796726Y-89123274D03*
X114630000Y-88640000D03*
G04 #@! TD*
D19*
G04 #@! TO.C,J6*
X112040000Y-110240000D03*
D20*
X112040000Y-112240000D03*
G04 #@! TD*
D19*
G04 #@! TO.C,J7*
X116570000Y-103480000D03*
D20*
X116570000Y-105480000D03*
G04 #@! TD*
D13*
G04 #@! TO.C,J5*
X92060000Y-82145000D03*
X91435000Y-82610000D03*
X90665000Y-82770000D03*
D21*
X93000000Y-82310000D03*
D13*
X92205000Y-82735000D03*
X93515000Y-81520000D03*
X97755000Y-81455000D03*
D22*
X96000000Y-82310000D03*
D13*
X97770000Y-82315000D03*
X95095000Y-81955000D03*
X96930000Y-82325000D03*
X96895000Y-81500000D03*
X97755000Y-80595000D03*
X96035000Y-81185000D03*
X95180000Y-81135000D03*
X96885000Y-80720000D03*
D23*
X101000000Y-82310000D03*
D13*
X100020000Y-82180000D03*
X101635000Y-80520000D03*
X101625000Y-81285000D03*
X99975000Y-80485000D03*
X100795000Y-81255000D03*
X99985000Y-81350000D03*
X100845000Y-80485000D03*
X104965000Y-82710000D03*
X104300000Y-81235000D03*
X105110000Y-81175000D03*
X103460000Y-81555000D03*
X104995000Y-81900000D03*
X103450000Y-80785000D03*
D24*
X104000000Y-82310000D03*
D13*
X108490000Y-82580000D03*
D25*
X107000000Y-82310000D03*
D13*
X107885000Y-82085000D03*
X109230000Y-82755000D03*
X107795000Y-82765000D03*
X106580000Y-81510000D03*
G04 #@! TD*
D26*
G04 #@! TO.C,J1*
X96950000Y-84560000D03*
D27*
X92025961Y-85428241D03*
G04 #@! TD*
D28*
G04 #@! TO.C,C2*
X95630000Y-87832500D03*
X95630000Y-89707500D03*
G04 #@! TD*
G04 #@! TO.C,C4*
X89610000Y-87852500D03*
X89610000Y-89727500D03*
G04 #@! TD*
G04 #@! TO.C,C5*
X93630000Y-87832500D03*
X93630000Y-89707500D03*
G04 #@! TD*
D29*
G04 #@! TO.C,C6*
X89610000Y-93237500D03*
X89610000Y-91362500D03*
G04 #@! TD*
G04 #@! TO.C,C7*
X87620000Y-93237500D03*
X87620000Y-91362500D03*
G04 #@! TD*
G04 #@! TO.C,C8*
X95630000Y-93217500D03*
X95630000Y-91342500D03*
G04 #@! TD*
G04 #@! TO.C,C9*
X93630000Y-93217500D03*
X93630000Y-91342500D03*
G04 #@! TD*
D28*
G04 #@! TO.C,C10*
X87620000Y-87852500D03*
X87620000Y-89727500D03*
G04 #@! TD*
D29*
G04 #@! TO.C,C11*
X91610000Y-93237500D03*
X91610000Y-91362500D03*
G04 #@! TD*
D28*
G04 #@! TO.C,C12*
X91630000Y-87852500D03*
X91630000Y-89727500D03*
G04 #@! TD*
D30*
G04 #@! TO.C,C27*
X111170000Y-89795000D03*
X111170000Y-90765000D03*
G04 #@! TD*
G04 #@! TO.C,C28*
X108080000Y-95895000D03*
X108080000Y-96865000D03*
G04 #@! TD*
D31*
G04 #@! TO.C,C33*
X101900000Y-89302500D03*
X101900000Y-90877500D03*
G04 #@! TD*
D30*
G04 #@! TO.C,C34*
X103690000Y-91115000D03*
X103690000Y-92085000D03*
G04 #@! TD*
D32*
G04 #@! TO.C,C36*
X101170000Y-88105000D03*
X101170000Y-87135000D03*
G04 #@! TD*
G04 #@! TO.C,C37*
X102170000Y-88115000D03*
X102170000Y-87145000D03*
G04 #@! TD*
D29*
G04 #@! TO.C,C38*
X103660000Y-89317500D03*
X103660000Y-87442500D03*
G04 #@! TD*
D32*
G04 #@! TO.C,C39*
X104375000Y-101235000D03*
X104375000Y-100265000D03*
G04 #@! TD*
D33*
G04 #@! TO.C,JP2*
X103170000Y-110975000D03*
D34*
X103170000Y-109525000D03*
G04 #@! TD*
D35*
G04 #@! TO.C,JP3*
X110425000Y-97590000D03*
D36*
X111875000Y-97590000D03*
G04 #@! TD*
D33*
G04 #@! TO.C,JP4*
X117340000Y-98035000D03*
D34*
X117340000Y-96585000D03*
G04 #@! TD*
D37*
G04 #@! TO.C,J3*
X104680000Y-116180000D03*
X103680000Y-116180000D03*
X102680000Y-116180000D03*
X101680000Y-116180000D03*
X100680000Y-116180000D03*
X99680000Y-116180000D03*
X98680000Y-116180000D03*
X97680000Y-116180000D03*
X96680000Y-116180000D03*
X95680000Y-116180000D03*
G04 #@! TD*
D38*
G04 #@! TO.C,U4*
X103771500Y-93650000D03*
X103771500Y-93250000D03*
X103425000Y-93450000D03*
X103078500Y-93650000D03*
X103078500Y-93250000D03*
G04 #@! TD*
D39*
G04 #@! TO.C,C26*
X104160000Y-94725000D03*
X103190000Y-94725000D03*
G04 #@! TD*
D40*
G04 #@! TO.C,U7*
X97137500Y-101950000D03*
X97137500Y-101300000D03*
X97137500Y-100650000D03*
X97137500Y-100000000D03*
X97137500Y-99350000D03*
X97137500Y-98700000D03*
X97137500Y-98050000D03*
X102862500Y-98050000D03*
X102862500Y-98700000D03*
X102862500Y-99350000D03*
X102862500Y-100000000D03*
X102862500Y-100650000D03*
X102862500Y-101300000D03*
X102862500Y-101950000D03*
G04 #@! TD*
M02*
