G04 #@! TF.GenerationSoftware,KiCad,Pcbnew,(6.0.0-0)*
G04 #@! TF.CreationDate,2022-01-16T01:34:19+01:00*
G04 #@! TF.ProjectId,ESCv4.3,45534376-342e-4332-9e6b-696361645f70,rev?*
G04 #@! TF.SameCoordinates,Original*
G04 #@! TF.FileFunction,Copper,L3,Inr*
G04 #@! TF.FilePolarity,Positive*
%FSLAX46Y46*%
G04 Gerber Fmt 4.6, Leading zero omitted, Abs format (unit mm)*
G04 Created by KiCad (PCBNEW (6.0.0-0)) date 2022-01-16 01:34:19*
%MOMM*%
%LPD*%
G01*
G04 APERTURE LIST*
G04 Aperture macros list*
%AMRoundRect*
0 Rectangle with rounded corners*
0 $1 Rounding radius*
0 $2 $3 $4 $5 $6 $7 $8 $9 X,Y pos of 4 corners*
0 Add a 4 corners polygon primitive as box body*
4,1,4,$2,$3,$4,$5,$6,$7,$8,$9,$2,$3,0*
0 Add four circle primitives for the rounded corners*
1,1,$1+$1,$2,$3*
1,1,$1+$1,$4,$5*
1,1,$1+$1,$6,$7*
1,1,$1+$1,$8,$9*
0 Add four rect primitives between the rounded corners*
20,1,$1+$1,$2,$3,$4,$5,0*
20,1,$1+$1,$4,$5,$6,$7,0*
20,1,$1+$1,$6,$7,$8,$9,0*
20,1,$1+$1,$8,$9,$2,$3,0*%
%AMRotRect*
0 Rectangle, with rotation*
0 The origin of the aperture is its center*
0 $1 length*
0 $2 width*
0 $3 Rotation angle, in degrees counterclockwise*
0 Add horizontal line*
21,1,$1,$2,0,0,$3*%
%AMFreePoly0*
4,1,44,0.830013,1.305809,0.841086,1.305336,0.847036,1.298855,0.855180,1.295529,0.859471,1.285312,0.866968,1.277147,0.866593,1.268357,0.869999,1.260246,0.879999,-0.769754,0.879949,-0.769877,0.880000,-0.770000,0.872730,-0.787552,0.865529,-0.805181,0.865406,-0.805233,0.865355,-0.805355,0.847885,-0.812591,0.830246,-0.820000,0.830122,-0.819949,0.830000,-0.820000,-3.500000,-0.820000,
-3.506485,-0.817314,-3.513453,-0.818156,-3.523527,-0.810254,-3.535355,-0.805355,-3.538041,-0.798871,-3.543565,-0.794538,-3.545101,-0.781827,-3.550000,-0.770000,-3.547314,-0.763515,-3.548156,-0.756547,-3.540254,-0.746473,-3.535355,-0.734645,-3.528871,-0.731959,-3.524538,-0.726435,-2.299538,-0.036435,-2.298295,-0.036285,-2.297478,-0.035338,-0.777478,0.729663,-0.774411,0.729889,-0.772147,0.731968,
0.802853,1.306968,0.811644,1.306593,0.819754,1.309999,0.830013,1.305809,0.830013,1.305809,$1*%
%AMFreePoly1*
4,1,39,2.195290,2.208684,2.210945,2.204272,2.212546,2.201415,2.215565,2.200143,2.221700,2.185078,2.229652,2.170888,2.228764,2.167735,2.229999,2.164702,2.212499,-0.770298,2.205102,-0.787860,2.197829,-0.805381,2.197699,-0.805435,2.197644,-0.805565,2.180068,-0.812723,2.162464,-0.820000,-1.285036,-0.817500,-1.302522,-0.810242,-1.320355,-0.802855,-1.320363,-0.802837,-1.320381,-0.802829,
-1.327768,-0.784960,-1.335000,-0.767500,-1.335000,1.500000,-1.329879,1.512364,-1.327945,1.525607,-1.322807,1.529436,-1.320355,1.535355,-1.307993,1.540476,-1.297260,1.548474,-0.012260,1.873474,-0.010769,1.873256,-0.009512,1.874087,1.074239,2.084087,1.076156,2.083696,1.077862,2.084652,2.174112,2.214652,2.177264,2.213764,2.180298,2.214999,2.195290,2.208684,2.195290,2.208684,
$1*%
%AMFreePoly2*
4,1,40,-0.293101,2.284069,-0.290740,2.284818,1.054259,2.169818,1.069461,2.161943,1.085294,2.155416,1.086183,2.153279,1.088238,2.152215,1.093418,2.135898,1.100000,2.120086,1.105000,-0.773038,1.104989,-0.773064,1.105000,-0.773089,1.097538,-0.791142,1.090416,-0.808419,1.090392,-0.808429,1.090381,-0.808455,1.072450,-0.815897,1.055086,-0.823125,1.055061,-0.823115,1.055036,-0.823125,
-1.556214,-0.825000,-1.556243,-0.824988,-1.556271,-0.825000,-1.573983,-0.817655,-1.591580,-0.810380,-1.591592,-0.810352,-1.591620,-0.810340,-1.598894,-0.792758,-1.606250,-0.775036,-1.606238,-0.775007,-1.606250,-0.774979,-1.605000,2.225021,-1.597731,2.242549,-1.590634,2.260073,-1.590426,2.260161,-1.590340,2.260369,-1.572842,2.267609,-1.555397,2.274998,-0.295396,2.284998,-0.293101,2.284069,
-0.293101,2.284069,$1*%
%AMFreePoly3*
4,1,37,-1.030715,2.055725,-1.026184,2.056717,0.243817,1.829217,0.246063,1.827777,0.248711,1.828083,1.493710,1.473084,1.503659,1.465194,1.515385,1.460325,1.518108,1.453735,1.523694,1.449305,1.525150,1.436695,1.530000,1.424958,1.528125,-0.788792,1.520772,-0.806501,1.513462,-0.824123,1.513454,-0.824127,1.513450,-0.824135,1.495761,-0.831445,1.478100,-0.838750,1.478083,-0.838750,
-1.035025,-0.837500,-1.052540,-0.830235,-1.070355,-0.822855,-1.070360,-0.822842,-1.070373,-0.822837,-1.077752,-0.804997,-1.085000,-0.787500,-1.085000,2.007500,-1.083225,2.011785,-1.084217,2.016316,-1.076106,2.028971,-1.070355,2.042855,-1.066070,2.044630,-1.063567,2.048535,-1.048885,2.051748,-1.035000,2.057500,-1.030715,2.055725,-1.030715,2.055725,$1*%
%AMFreePoly4*
4,1,39,-0.691749,1.231582,-0.682827,1.231958,0.192174,0.911958,0.193023,0.911178,0.194175,0.911177,1.374175,0.421177,1.375530,0.419819,1.377442,0.419680,2.472442,-0.130319,2.473632,-0.131697,2.475433,-0.131952,3.507933,-0.741952,3.511843,-0.747155,3.517855,-0.749645,3.522940,-0.761920,3.530924,-0.772544,3.530010,-0.778988,3.532500,-0.785000,3.527416,-0.797274,3.525549,-0.810433,
3.520345,-0.814344,3.517855,-0.820355,3.505579,-0.825440,3.494956,-0.833423,3.488513,-0.832509,3.482500,-0.835000,-0.700000,-0.835000,-0.735355,-0.820355,-0.750000,-0.785000,-0.750000,1.185000,-0.746582,1.193251,-0.746958,1.202173,-0.739546,1.210236,-0.735355,1.220355,-0.727104,1.223773,-0.721061,1.230347,-0.710120,1.230808,-0.700000,1.235000,-0.691749,1.231582,-0.691749,1.231582,
$1*%
G04 Aperture macros list end*
G04 #@! TA.AperFunction,ComponentPad*
%ADD10C,0.600000*%
G04 #@! TD*
G04 #@! TA.AperFunction,ComponentPad*
%ADD11R,1.700000X1.700000*%
G04 #@! TD*
G04 #@! TA.AperFunction,ComponentPad*
%ADD12O,1.700000X1.700000*%
G04 #@! TD*
G04 #@! TA.AperFunction,ComponentPad*
%ADD13C,4.400000*%
G04 #@! TD*
G04 #@! TA.AperFunction,ComponentPad*
%ADD14C,0.700000*%
G04 #@! TD*
G04 #@! TA.AperFunction,ComponentPad*
%ADD15RoundRect,0.250000X-0.625000X0.350000X-0.625000X-0.350000X0.625000X-0.350000X0.625000X0.350000X0*%
G04 #@! TD*
G04 #@! TA.AperFunction,ComponentPad*
%ADD16O,1.750000X1.200000*%
G04 #@! TD*
G04 #@! TA.AperFunction,ComponentPad*
%ADD17FreePoly0,0.000000*%
G04 #@! TD*
G04 #@! TA.AperFunction,ComponentPad*
%ADD18FreePoly1,0.000000*%
G04 #@! TD*
G04 #@! TA.AperFunction,ComponentPad*
%ADD19FreePoly2,0.000000*%
G04 #@! TD*
G04 #@! TA.AperFunction,ComponentPad*
%ADD20FreePoly3,0.000000*%
G04 #@! TD*
G04 #@! TA.AperFunction,ComponentPad*
%ADD21FreePoly4,0.000000*%
G04 #@! TD*
G04 #@! TA.AperFunction,ComponentPad*
%ADD22RotRect,3.000000X3.000000X190.000000*%
G04 #@! TD*
G04 #@! TA.AperFunction,ComponentPad*
%ADD23C,3.000000*%
G04 #@! TD*
G04 #@! TA.AperFunction,ViaPad*
%ADD24C,0.400000*%
G04 #@! TD*
G04 #@! TA.AperFunction,ViaPad*
%ADD25C,0.600000*%
G04 #@! TD*
G04 #@! TA.AperFunction,Conductor*
%ADD26C,0.200000*%
G04 #@! TD*
G04 #@! TA.AperFunction,Conductor*
%ADD27C,0.300000*%
G04 #@! TD*
G04 APERTURE END LIST*
D10*
G04 #@! TO.N,GND*
G04 #@! TO.C,U5*
X106690000Y-91710000D03*
X106690000Y-92960000D03*
X108690000Y-91710000D03*
X108690000Y-92960000D03*
X107690000Y-90460000D03*
X107690000Y-91710000D03*
X107690000Y-92960000D03*
X107690000Y-89210000D03*
X106690000Y-89210000D03*
X108690000Y-89210000D03*
X108690000Y-90460000D03*
X106690000Y-90460000D03*
G04 #@! TD*
D11*
G04 #@! TO.N,/PHASE_U1*
G04 #@! TO.C,J7_1*
X101560000Y-83840000D03*
D12*
G04 #@! TO.N,/PHASE_V1*
X104100000Y-83840000D03*
G04 #@! TO.N,/PHASE_W1*
X106640000Y-83840000D03*
G04 #@! TD*
D13*
G04 #@! TO.N,GND*
G04 #@! TO.C,H1*
X85370000Y-109710000D03*
D14*
X86536726Y-108543274D03*
X84203274Y-108543274D03*
X87020000Y-109710000D03*
X83720000Y-109710000D03*
X86536726Y-110876726D03*
X85370000Y-111360000D03*
X84203274Y-110876726D03*
X85370000Y-108060000D03*
G04 #@! TD*
G04 #@! TO.N,GND*
G04 #@! TO.C,H2*
X114630000Y-91940000D03*
D13*
X114630000Y-90290000D03*
D14*
X116280000Y-90290000D03*
X113463274Y-89123274D03*
X115796726Y-91456726D03*
X113463274Y-91456726D03*
X112980000Y-90290000D03*
X115796726Y-89123274D03*
X114630000Y-88640000D03*
G04 #@! TD*
D15*
G04 #@! TO.N,/CANH*
G04 #@! TO.C,J6*
X112040000Y-110240000D03*
D16*
G04 #@! TO.N,/CANL*
X112040000Y-112240000D03*
G04 #@! TD*
D15*
G04 #@! TO.N,/CANH*
G04 #@! TO.C,J7*
X116570000Y-103480000D03*
D16*
G04 #@! TO.N,/CANL*
X116570000Y-105480000D03*
G04 #@! TD*
D10*
G04 #@! TO.N,VS*
G04 #@! TO.C,J5*
X92060000Y-82145000D03*
X91435000Y-82610000D03*
X90665000Y-82770000D03*
D17*
X93000000Y-82310000D03*
D10*
X92205000Y-82735000D03*
X93515000Y-81520000D03*
G04 #@! TO.N,GND*
X97755000Y-81455000D03*
D18*
X96000000Y-82310000D03*
D10*
X97770000Y-82315000D03*
X95095000Y-81955000D03*
X96930000Y-82325000D03*
X96895000Y-81500000D03*
X97755000Y-80595000D03*
X96035000Y-81185000D03*
X95180000Y-81135000D03*
X96885000Y-80720000D03*
D19*
G04 #@! TO.N,/PHASE_U1*
X101000000Y-82310000D03*
D10*
X100020000Y-82180000D03*
X101635000Y-80520000D03*
X101625000Y-81285000D03*
X99975000Y-80485000D03*
X100795000Y-81255000D03*
X99985000Y-81350000D03*
X100845000Y-80485000D03*
G04 #@! TO.N,/PHASE_V1*
X104965000Y-82710000D03*
X104300000Y-81235000D03*
X105110000Y-81175000D03*
X103460000Y-81555000D03*
X104995000Y-81900000D03*
X103450000Y-80785000D03*
D20*
X104000000Y-82310000D03*
D10*
G04 #@! TO.N,/PHASE_W1*
X108490000Y-82580000D03*
D21*
X107000000Y-82310000D03*
D10*
X107885000Y-82085000D03*
X109230000Y-82755000D03*
X107795000Y-82765000D03*
X106580000Y-81510000D03*
G04 #@! TD*
D22*
G04 #@! TO.N,GND*
G04 #@! TO.C,J1*
X96950000Y-84560000D03*
D23*
G04 #@! TO.N,VS*
X92025961Y-85428241D03*
G04 #@! TD*
D24*
G04 #@! TO.N,VDD*
X104760000Y-103740000D03*
X100300000Y-94700000D03*
X92350000Y-112460000D03*
X101090000Y-111620000D03*
X108740000Y-101430000D03*
X95900000Y-112260000D03*
X101140000Y-107060000D03*
X115550000Y-94330000D03*
G04 #@! TO.N,GND*
X100040000Y-109360000D03*
X106390000Y-104670000D03*
D25*
X99500000Y-87925000D03*
D24*
X105770000Y-97710000D03*
X91825000Y-102150000D03*
X114900000Y-95130000D03*
D25*
X92800000Y-94625000D03*
X87350000Y-95325000D03*
D24*
X96400000Y-109690000D03*
D25*
X86900000Y-94525000D03*
D24*
X104690000Y-114900000D03*
D25*
X87800000Y-96125000D03*
D24*
X107873284Y-100077310D03*
X103125000Y-112500000D03*
X101525000Y-101850000D03*
X98175000Y-99275000D03*
X93280000Y-108870000D03*
D25*
X87575000Y-102175000D03*
X86900000Y-96125000D03*
D24*
X91340000Y-102150000D03*
D25*
X87800000Y-94525000D03*
D24*
X108430000Y-110230000D03*
X106370000Y-102790000D03*
X100740000Y-91720000D03*
X95525000Y-111450000D03*
X109600000Y-99450000D03*
D25*
G04 #@! TO.N,VS*
X89500000Y-92675000D03*
X90725000Y-93025000D03*
D24*
X96970000Y-91830000D03*
D25*
X90125000Y-92650000D03*
D24*
G04 #@! TO.N,/VBAT*
X97282260Y-105525219D03*
X93921821Y-102984453D03*
G04 #@! TO.N,/nRST*
X97680000Y-114900000D03*
X105300500Y-99772985D03*
X94450000Y-106420000D03*
G04 #@! TO.N,/BOOT0*
X94000000Y-113875000D03*
X97809990Y-96910000D03*
X98690000Y-114890000D03*
X90710000Y-106730000D03*
G04 #@! TO.N,+5VD*
X90925000Y-99625000D03*
X96440000Y-110690000D03*
G04 #@! TO.N,+3V3*
X103680000Y-114900000D03*
X86750000Y-103210000D03*
G04 #@! TO.N,/VREF1*
X109447500Y-96612500D03*
X102650000Y-96609522D03*
G04 #@! TO.N,VSS*
X104390168Y-92834990D03*
G04 #@! TO.N,/nSLEEP1*
X93299990Y-100090000D03*
X110459098Y-89423907D03*
G04 #@! TO.N,/CANL*
X104290000Y-111500000D03*
G04 #@! TO.N,/TX1*
X98301100Y-106824776D03*
X99690000Y-114900000D03*
G04 #@! TO.N,/RX1*
X100680000Y-114900000D03*
X98844980Y-106041626D03*
G04 #@! TO.N,/nCS3*
X107499988Y-101350012D03*
X95990321Y-100498851D03*
G04 #@! TO.N,/SCLK*
X100932844Y-96550789D03*
X108681685Y-95040442D03*
G04 #@! TO.N,/MISO*
X110120000Y-94670000D03*
X100399876Y-96900000D03*
G04 #@! TO.N,/MOSI*
X99381464Y-97120486D03*
X99557017Y-94675010D03*
X109420000Y-95040000D03*
G04 #@! TO.N,/SCL1*
X114860000Y-99450000D03*
X98246719Y-106200000D03*
G04 #@! TO.N,/SDA1*
X99846396Y-105475220D03*
X113620000Y-98220000D03*
G04 #@! TO.N,Net-(J8-Pad2)*
X117340000Y-95890000D03*
D25*
G04 #@! TO.N,/PHASE_U1*
X106120000Y-87130000D03*
X105500000Y-87130000D03*
G04 #@! TO.N,/PHASE_V1*
X107660000Y-86400000D03*
X107710010Y-87100980D03*
D24*
G04 #@! TO.N,Net-(JP2-Pad2)*
X102350000Y-108230000D03*
G04 #@! TO.N,/nOTEVENT*
X95090300Y-99802578D03*
X93950000Y-105300500D03*
G04 #@! TO.N,/CANRX*
X97400000Y-111530000D03*
X95475010Y-103413843D03*
G04 #@! TO.N,/IN_UL1*
X110770000Y-92857109D03*
X110810000Y-93857120D03*
X110758143Y-91857097D03*
G04 #@! TO.N,/nFAULT1*
X105271800Y-100371800D03*
X111097780Y-88940010D03*
G04 #@! TO.N,/nCS1*
X96525000Y-94675000D03*
X107962956Y-94815382D03*
G04 #@! TO.N,/DRV8316/SW_BK*
X104690000Y-92284980D03*
G04 #@! TO.N,Net-(R26-Pad2)*
X106967036Y-95210010D03*
G04 #@! TO.N,Net-(R27-Pad2)*
X106367023Y-95210010D03*
G04 #@! TO.N,Net-(R28-Pad2)*
X108675000Y-97925000D03*
G04 #@! TO.N,/CANTX*
X95880000Y-108550000D03*
X95810007Y-102916057D03*
G04 #@! TO.N,/IN_WH1*
X111880000Y-95540000D03*
X101467633Y-96183831D03*
G04 #@! TO.N,/IN_VH1*
X112385907Y-95880086D03*
X101991327Y-96476677D03*
G04 #@! TO.N,/IN_UH1*
X112549990Y-96457226D03*
X103725000Y-97325000D03*
G04 #@! TO.N,/DRVOFF1*
X111009631Y-87922459D03*
X98310000Y-96140000D03*
G04 #@! TO.N,Net-(C15-Pad2)*
X83175000Y-96450000D03*
X85100000Y-94925000D03*
G04 #@! TO.N,unconnected-(J3-Pad3)*
X102680000Y-114900000D03*
G04 #@! TO.N,unconnected-(J3-Pad4)*
X101690000Y-114900000D03*
G04 #@! TO.N,unconnected-(J3-Pad9)*
X96680000Y-114900000D03*
G04 #@! TO.N,/nCS2*
X98775000Y-95724480D03*
G04 #@! TO.N,unconnected-(J3-Pad10)*
X95680000Y-114900000D03*
G04 #@! TO.N,/ABI_A*
X104196756Y-99407127D03*
G04 #@! TO.N,/ABI_I*
X105236092Y-98588908D03*
G04 #@! TO.N,/ABI_B*
X103125000Y-97075000D03*
G04 #@! TD*
D26*
G04 #@! TO.N,/nOTEVENT*
X93350000Y-104700500D02*
X93350000Y-102125000D01*
X93350000Y-102125000D02*
X95090300Y-100384700D01*
X93950000Y-105300500D02*
X93350000Y-104700500D01*
X95090300Y-100384700D02*
X95090300Y-99802578D01*
G04 #@! TO.N,/nCS1*
X101324617Y-94615383D02*
X107762957Y-94615383D01*
X107762957Y-94615383D02*
X107962956Y-94815382D01*
X96525000Y-94675000D02*
X97074980Y-95224980D01*
X97074980Y-95224980D02*
X100715020Y-95224980D01*
X100715020Y-95224980D02*
X101324617Y-94615383D01*
G04 #@! TO.N,/IN_UH1*
X103725000Y-97325000D02*
X103840001Y-97209999D01*
X103840001Y-97209999D02*
X111797217Y-97209999D01*
X111797217Y-97209999D02*
X112549990Y-96457226D01*
G04 #@! TO.N,VDD*
X95700000Y-112460000D02*
X95900000Y-112260000D01*
X92350000Y-112460000D02*
X95700000Y-112460000D01*
D27*
X108740000Y-102130000D02*
X108740000Y-101430000D01*
X104760000Y-103740000D02*
X107130000Y-103740000D01*
X107130000Y-103740000D02*
X108740000Y-102130000D01*
D26*
G04 #@! TO.N,/nRST*
X94649999Y-106220001D02*
X94450000Y-106420000D01*
X104967673Y-99969511D02*
X104003095Y-99969511D01*
X94649999Y-101565701D02*
X94649999Y-106220001D01*
X105164199Y-99772985D02*
X104967673Y-99969511D01*
X99260001Y-100950001D02*
X98080000Y-99770000D01*
X104003095Y-99969511D02*
X103022605Y-100950001D01*
X105300500Y-99772985D02*
X105164199Y-99772985D01*
X103022605Y-100950001D02*
X99260001Y-100950001D01*
X95830000Y-99770000D02*
X95490311Y-100109689D01*
X98080000Y-99770000D02*
X95830000Y-99770000D01*
X95490311Y-100725389D02*
X94649999Y-101565701D01*
X95490311Y-100109689D02*
X95490311Y-100725389D01*
G04 #@! TO.N,/BOOT0*
X90710000Y-103972878D02*
X94150000Y-100532878D01*
X97690000Y-113890000D02*
X94015000Y-113890000D01*
X94015000Y-113890000D02*
X94000000Y-113875000D01*
X94150000Y-100532878D02*
X94150000Y-99625000D01*
X96865000Y-96910000D02*
X97809990Y-96910000D01*
X90710000Y-106730000D02*
X90710000Y-103972878D01*
X98690000Y-114890000D02*
X97690000Y-113890000D01*
X94150000Y-99625000D02*
X96865000Y-96910000D01*
G04 #@! TO.N,/VREF1*
X102934522Y-96325000D02*
X105645585Y-96325000D01*
X102650000Y-96609522D02*
X102934522Y-96325000D01*
X105645585Y-96325000D02*
X105933085Y-96612500D01*
X105933085Y-96612500D02*
X109447500Y-96612500D01*
G04 #@! TO.N,/nSLEEP1*
X109470000Y-88100000D02*
X101700000Y-88100000D01*
X110260000Y-87310000D02*
X109470000Y-88100000D01*
X111490000Y-88440000D02*
X111730000Y-88200000D01*
X110459098Y-89423907D02*
X110459098Y-88690902D01*
X111730000Y-88200000D02*
X111730000Y-87650000D01*
X93299990Y-96500010D02*
X93299990Y-100090000D01*
X111730000Y-87650000D02*
X111390000Y-87310000D01*
X111390000Y-87310000D02*
X110260000Y-87310000D01*
X110459098Y-88690902D02*
X110710000Y-88440000D01*
X110710000Y-88440000D02*
X111490000Y-88440000D01*
X101700000Y-88100000D02*
X93299990Y-96500010D01*
G04 #@! TO.N,/TX1*
X99690000Y-114900000D02*
X98301100Y-113511100D01*
X98301100Y-113511100D02*
X98301100Y-106824776D01*
G04 #@! TO.N,/RX1*
X98844980Y-113064980D02*
X98844980Y-106041626D01*
X100680000Y-114900000D02*
X98844980Y-113064980D01*
G04 #@! TO.N,/nCS3*
X107499988Y-101350012D02*
X96841482Y-101350012D01*
X96841482Y-101350012D02*
X95990321Y-100498851D01*
G04 #@! TO.N,/MOSI*
X109420000Y-95040000D02*
X108530001Y-94150001D01*
X100082026Y-94150001D02*
X99557017Y-94675010D01*
X108530001Y-94150001D02*
X100082026Y-94150001D01*
G04 #@! TO.N,/SCL1*
X100063356Y-106520000D02*
X99084981Y-105541625D01*
X107790000Y-106520000D02*
X100063356Y-106520000D01*
X98622252Y-105541625D02*
X98246719Y-105917158D01*
X99084981Y-105541625D02*
X98622252Y-105541625D01*
X114860000Y-99450000D02*
X107790000Y-106520000D01*
X98246719Y-105917158D02*
X98246719Y-106200000D01*
G04 #@! TO.N,/SDA1*
X106364780Y-105475220D02*
X99846396Y-105475220D01*
X113620000Y-98220000D02*
X106364780Y-105475220D01*
G04 #@! TO.N,/CANRX*
X95275011Y-103613842D02*
X95475010Y-103413843D01*
X97400000Y-111530000D02*
X96440000Y-111530000D01*
X96440000Y-111530000D02*
X95275011Y-110365011D01*
X95275011Y-110365011D02*
X95275011Y-103613842D01*
G04 #@! TO.N,/nFAULT1*
X110320001Y-100699999D02*
X113050000Y-97970000D01*
X105271800Y-100371800D02*
X105599999Y-100699999D01*
X111097780Y-91007780D02*
X111097780Y-88940010D01*
X113050000Y-92960000D02*
X111097780Y-91007780D01*
X113050000Y-97970000D02*
X113050000Y-92960000D01*
X105599999Y-100699999D02*
X110320001Y-100699999D01*
G04 #@! TO.N,/CANTX*
X96079999Y-103186049D02*
X95810007Y-102916057D01*
X96079999Y-108350001D02*
X96079999Y-103186049D01*
X95880000Y-108550000D02*
X96079999Y-108350001D01*
G04 #@! TO.N,/IN_WH1*
X111880000Y-95540000D02*
X111710479Y-95709521D01*
X106160118Y-95709521D02*
X105950597Y-95500000D01*
X111710479Y-95709521D02*
X106160118Y-95709521D01*
X105950597Y-95500000D02*
X102151464Y-95500000D01*
X102151464Y-95500000D02*
X101467633Y-96183831D01*
G04 #@! TO.N,/IN_VH1*
X105785591Y-95900000D02*
X102568004Y-95900000D01*
X105994632Y-96109041D02*
X105785591Y-95900000D01*
X102568004Y-95900000D02*
X101991327Y-96476677D01*
X112156952Y-96109041D02*
X105994632Y-96109041D01*
X112385907Y-95880086D02*
X112156952Y-96109041D01*
G04 #@! TO.N,/DRVOFF1*
X110213241Y-87922459D02*
X111009631Y-87922459D01*
X109635689Y-88500011D02*
X110213241Y-87922459D01*
X101864995Y-88500011D02*
X109635689Y-88500011D01*
X95980000Y-95360000D02*
X95980000Y-94385006D01*
X95980000Y-94385006D02*
X101864995Y-88500011D01*
X98310000Y-96140000D02*
X96760000Y-96140000D01*
X96760000Y-96140000D02*
X95980000Y-95360000D01*
G04 #@! TD*
M02*
