G04 #@! TF.GenerationSoftware,KiCad,Pcbnew,(6.0.0-0)*
G04 #@! TF.CreationDate,2022-01-16T01:34:20+01:00*
G04 #@! TF.ProjectId,ESCv4.3,45534376-342e-4332-9e6b-696361645f70,rev?*
G04 #@! TF.SameCoordinates,Original*
G04 #@! TF.FileFunction,Paste,Bot*
G04 #@! TF.FilePolarity,Positive*
%FSLAX46Y46*%
G04 Gerber Fmt 4.6, Leading zero omitted, Abs format (unit mm)*
G04 Created by KiCad (PCBNEW (6.0.0-0)) date 2022-01-16 01:34:20*
%MOMM*%
%LPD*%
G01*
G04 APERTURE LIST*
G04 Aperture macros list*
%AMRoundRect*
0 Rectangle with rounded corners*
0 $1 Rounding radius*
0 $2 $3 $4 $5 $6 $7 $8 $9 X,Y pos of 4 corners*
0 Add a 4 corners polygon primitive as box body*
4,1,4,$2,$3,$4,$5,$6,$7,$8,$9,$2,$3,0*
0 Add four circle primitives for the rounded corners*
1,1,$1+$1,$2,$3*
1,1,$1+$1,$4,$5*
1,1,$1+$1,$6,$7*
1,1,$1+$1,$8,$9*
0 Add four rect primitives between the rounded corners*
20,1,$1+$1,$2,$3,$4,$5,0*
20,1,$1+$1,$4,$5,$6,$7,0*
20,1,$1+$1,$6,$7,$8,$9,0*
20,1,$1+$1,$8,$9,$2,$3,0*%
G04 Aperture macros list end*
%ADD10C,0.100000*%
%ADD11O,0.500000X0.200000*%
%ADD12O,0.200000X0.500000*%
%ADD13RoundRect,0.243750X-0.456250X0.243750X-0.456250X-0.243750X0.456250X-0.243750X0.456250X0.243750X0*%
%ADD14RoundRect,0.243750X0.456250X-0.243750X0.456250X0.243750X-0.456250X0.243750X-0.456250X-0.243750X0*%
%ADD15RoundRect,0.147500X-0.172500X0.147500X-0.172500X-0.147500X0.172500X-0.147500X0.172500X0.147500X0*%
%ADD16RoundRect,0.218750X-0.256250X0.218750X-0.256250X-0.218750X0.256250X-0.218750X0.256250X0.218750X0*%
%ADD17RoundRect,0.147500X0.172500X-0.147500X0.172500X0.147500X-0.172500X0.147500X-0.172500X-0.147500X0*%
%ADD18R,0.250000X0.250000*%
%ADD19RoundRect,0.147500X0.147500X0.172500X-0.147500X0.172500X-0.147500X-0.172500X0.147500X-0.172500X0*%
%ADD20RoundRect,0.100000X-0.637500X-0.100000X0.637500X-0.100000X0.637500X0.100000X-0.637500X0.100000X0*%
G04 APERTURE END LIST*
D10*
G04 #@! TO.C,U5*
X109030000Y-88755000D02*
X107925000Y-88755000D01*
X107925000Y-88755000D02*
X107925000Y-90930000D01*
X107925000Y-90930000D02*
X109030000Y-90930000D01*
X109030000Y-90930000D02*
X109030000Y-88755000D01*
G36*
X109030000Y-90930000D02*
G01*
X107925000Y-90930000D01*
X107925000Y-88755000D01*
X109030000Y-88755000D01*
X109030000Y-90930000D01*
G37*
X109030000Y-90930000D02*
X107925000Y-90930000D01*
X107925000Y-88755000D01*
X109030000Y-88755000D01*
X109030000Y-90930000D01*
X107460000Y-88755000D02*
X106355000Y-88755000D01*
X106355000Y-88755000D02*
X106355000Y-90930000D01*
X106355000Y-90930000D02*
X107460000Y-90930000D01*
X107460000Y-90930000D02*
X107460000Y-88755000D01*
G36*
X107460000Y-90930000D02*
G01*
X106355000Y-90930000D01*
X106355000Y-88755000D01*
X107460000Y-88755000D01*
X107460000Y-90930000D01*
G37*
X107460000Y-90930000D02*
X106355000Y-90930000D01*
X106355000Y-88755000D01*
X107460000Y-88755000D01*
X107460000Y-90930000D01*
X107460000Y-91240000D02*
X106355000Y-91240000D01*
X106355000Y-91240000D02*
X106355000Y-93415000D01*
X106355000Y-93415000D02*
X107460000Y-93415000D01*
X107460000Y-93415000D02*
X107460000Y-91240000D01*
G36*
X107460000Y-93415000D02*
G01*
X106355000Y-93415000D01*
X106355000Y-91240000D01*
X107460000Y-91240000D01*
X107460000Y-93415000D01*
G37*
X107460000Y-93415000D02*
X106355000Y-93415000D01*
X106355000Y-91240000D01*
X107460000Y-91240000D01*
X107460000Y-93415000D01*
X109030000Y-91240000D02*
X107925000Y-91240000D01*
X107925000Y-91240000D02*
X107925000Y-93415000D01*
X107925000Y-93415000D02*
X109030000Y-93415000D01*
X109030000Y-93415000D02*
X109030000Y-91240000D01*
G36*
X109030000Y-93415000D02*
G01*
X107925000Y-93415000D01*
X107925000Y-91240000D01*
X109030000Y-91240000D01*
X109030000Y-93415000D01*
G37*
X109030000Y-93415000D02*
X107925000Y-93415000D01*
X107925000Y-91240000D01*
X109030000Y-91240000D01*
X109030000Y-93415000D01*
G04 #@! TD*
D11*
G04 #@! TO.C,U5*
X105440000Y-93835000D03*
X105440000Y-93335000D03*
X105440000Y-92835000D03*
X105440000Y-92335000D03*
X105440000Y-91835000D03*
X105440000Y-91335000D03*
X105440000Y-90835000D03*
X105440000Y-90335000D03*
X105440000Y-89835000D03*
X105440000Y-89335000D03*
X105440000Y-88835000D03*
X105440000Y-88335000D03*
D12*
X105940000Y-87835000D03*
X106440000Y-87835000D03*
X106940000Y-87835000D03*
X107440000Y-87835000D03*
X107940000Y-87835000D03*
X108440000Y-87835000D03*
X108940000Y-87835000D03*
X109440000Y-87835000D03*
D11*
X109940000Y-88335000D03*
X109940000Y-88835000D03*
X109940000Y-89335000D03*
X109940000Y-89835000D03*
X109940000Y-90335000D03*
X109940000Y-90835000D03*
X109940000Y-91335000D03*
X109940000Y-91835000D03*
X109940000Y-92335000D03*
X109940000Y-92835000D03*
X109940000Y-93335000D03*
X109940000Y-93835000D03*
D12*
X109440000Y-94335000D03*
X108940000Y-94335000D03*
X108440000Y-94335000D03*
X107940000Y-94335000D03*
X107440000Y-94335000D03*
X106940000Y-94335000D03*
X106440000Y-94335000D03*
X105940000Y-94335000D03*
G04 #@! TD*
D13*
G04 #@! TO.C,C2*
X95630000Y-87832500D03*
X95630000Y-89707500D03*
G04 #@! TD*
G04 #@! TO.C,C4*
X89610000Y-87852500D03*
X89610000Y-89727500D03*
G04 #@! TD*
G04 #@! TO.C,C5*
X93630000Y-87832500D03*
X93630000Y-89707500D03*
G04 #@! TD*
D14*
G04 #@! TO.C,C6*
X89610000Y-93237500D03*
X89610000Y-91362500D03*
G04 #@! TD*
G04 #@! TO.C,C7*
X87620000Y-93237500D03*
X87620000Y-91362500D03*
G04 #@! TD*
G04 #@! TO.C,C8*
X95630000Y-93217500D03*
X95630000Y-91342500D03*
G04 #@! TD*
G04 #@! TO.C,C9*
X93630000Y-93217500D03*
X93630000Y-91342500D03*
G04 #@! TD*
D13*
G04 #@! TO.C,C10*
X87620000Y-87852500D03*
X87620000Y-89727500D03*
G04 #@! TD*
D14*
G04 #@! TO.C,C11*
X91610000Y-93237500D03*
X91610000Y-91362500D03*
G04 #@! TD*
D13*
G04 #@! TO.C,C12*
X91630000Y-87852500D03*
X91630000Y-89727500D03*
G04 #@! TD*
D15*
G04 #@! TO.C,C27*
X111170000Y-89795000D03*
X111170000Y-90765000D03*
G04 #@! TD*
G04 #@! TO.C,C28*
X108080000Y-95895000D03*
X108080000Y-96865000D03*
G04 #@! TD*
D16*
G04 #@! TO.C,C33*
X101900000Y-89302500D03*
X101900000Y-90877500D03*
G04 #@! TD*
D15*
G04 #@! TO.C,C34*
X103690000Y-91115000D03*
X103690000Y-92085000D03*
G04 #@! TD*
D17*
G04 #@! TO.C,C36*
X101170000Y-88105000D03*
X101170000Y-87135000D03*
G04 #@! TD*
G04 #@! TO.C,C37*
X102170000Y-88115000D03*
X102170000Y-87145000D03*
G04 #@! TD*
D14*
G04 #@! TO.C,C38*
X103660000Y-89317500D03*
X103660000Y-87442500D03*
G04 #@! TD*
D17*
G04 #@! TO.C,C39*
X104375000Y-101235000D03*
X104375000Y-100265000D03*
G04 #@! TD*
D18*
G04 #@! TO.C,U4*
X103078500Y-93650000D03*
X103771500Y-93650000D03*
X103078500Y-93250000D03*
X103771500Y-93250000D03*
X103425000Y-93450000D03*
G04 #@! TD*
D19*
G04 #@! TO.C,C26*
X104160000Y-94725000D03*
X103190000Y-94725000D03*
G04 #@! TD*
D20*
G04 #@! TO.C,U7*
X97137500Y-101950000D03*
X97137500Y-101300000D03*
X97137500Y-100650000D03*
X97137500Y-100000000D03*
X97137500Y-99350000D03*
X97137500Y-98700000D03*
X97137500Y-98050000D03*
X102862500Y-98050000D03*
X102862500Y-98700000D03*
X102862500Y-99350000D03*
X102862500Y-100000000D03*
X102862500Y-100650000D03*
X102862500Y-101300000D03*
X102862500Y-101950000D03*
G04 #@! TD*
M02*
