G04 #@! TF.GenerationSoftware,KiCad,Pcbnew,(6.0.0-0)*
G04 #@! TF.CreationDate,2022-01-16T01:34:20+01:00*
G04 #@! TF.ProjectId,ESCv4.3,45534376-342e-4332-9e6b-696361645f70,rev?*
G04 #@! TF.SameCoordinates,Original*
G04 #@! TF.FileFunction,Legend,Bot*
G04 #@! TF.FilePolarity,Positive*
%FSLAX46Y46*%
G04 Gerber Fmt 4.6, Leading zero omitted, Abs format (unit mm)*
G04 Created by KiCad (PCBNEW (6.0.0-0)) date 2022-01-16 01:34:20*
%MOMM*%
%LPD*%
G01*
G04 APERTURE LIST*
%ADD10C,0.100000*%
%ADD11C,0.200000*%
%ADD12C,0.120000*%
%ADD13C,0.010000*%
G04 APERTURE END LIST*
D10*
X112581666Y-108975000D02*
X112615000Y-109008333D01*
X112715000Y-109041666D01*
X112781666Y-109041666D01*
X112881666Y-109008333D01*
X112948333Y-108941666D01*
X112981666Y-108875000D01*
X113015000Y-108741666D01*
X113015000Y-108641666D01*
X112981666Y-108508333D01*
X112948333Y-108441666D01*
X112881666Y-108375000D01*
X112781666Y-108341666D01*
X112715000Y-108341666D01*
X112615000Y-108375000D01*
X112581666Y-108408333D01*
X112315000Y-108841666D02*
X111981666Y-108841666D01*
X112381666Y-109041666D02*
X112148333Y-108341666D01*
X111915000Y-109041666D01*
X111681666Y-109041666D02*
X111681666Y-108341666D01*
X111281666Y-109041666D01*
X111281666Y-108341666D01*
X117050000Y-107275000D02*
X117083333Y-107308333D01*
X117183333Y-107341666D01*
X117250000Y-107341666D01*
X117350000Y-107308333D01*
X117416666Y-107241666D01*
X117450000Y-107175000D01*
X117483333Y-107041666D01*
X117483333Y-106941666D01*
X117450000Y-106808333D01*
X117416666Y-106741666D01*
X117350000Y-106675000D01*
X117250000Y-106641666D01*
X117183333Y-106641666D01*
X117083333Y-106675000D01*
X117050000Y-106708333D01*
X116783333Y-107141666D02*
X116450000Y-107141666D01*
X116850000Y-107341666D02*
X116616666Y-106641666D01*
X116383333Y-107341666D01*
X116150000Y-107341666D02*
X116150000Y-106641666D01*
X115750000Y-107341666D01*
X115750000Y-106641666D01*
X113408333Y-112131666D02*
X113408333Y-112465000D01*
X114108333Y-112465000D01*
X117908333Y-105331666D02*
X117908333Y-105665000D01*
X118608333Y-105665000D01*
X117908333Y-103706666D02*
X118608333Y-103706666D01*
X118275000Y-103706666D02*
X118275000Y-103306666D01*
X117908333Y-103306666D02*
X118608333Y-103306666D01*
X113383333Y-110481666D02*
X114083333Y-110481666D01*
X113750000Y-110481666D02*
X113750000Y-110081666D01*
X113383333Y-110081666D02*
X114083333Y-110081666D01*
D11*
X101227142Y-85192857D02*
X101227142Y-86164285D01*
X101284285Y-86278571D01*
X101341428Y-86335714D01*
X101455714Y-86392857D01*
X101684285Y-86392857D01*
X101798571Y-86335714D01*
X101855714Y-86278571D01*
X101912857Y-86164285D01*
X101912857Y-85192857D01*
X103700000Y-85142857D02*
X104100000Y-86342857D01*
X104500000Y-85142857D01*
X106175714Y-85142857D02*
X106461428Y-86342857D01*
X106690000Y-85485714D01*
X106918571Y-86342857D01*
X107204285Y-85142857D01*
X99827142Y-84865714D02*
X98912857Y-84865714D01*
D10*
X112313333Y-98773166D02*
X112080000Y-99473166D01*
X111846666Y-98773166D01*
X111613333Y-99473166D02*
X111613333Y-98773166D01*
X111446666Y-98773166D01*
X111346666Y-98806500D01*
X111280000Y-98873166D01*
X111246666Y-98939833D01*
X111213333Y-99073166D01*
X111213333Y-99173166D01*
X111246666Y-99306500D01*
X111280000Y-99373166D01*
X111346666Y-99439833D01*
X111446666Y-99473166D01*
X111613333Y-99473166D01*
X110913333Y-99473166D02*
X110913333Y-98773166D01*
X110746666Y-98773166D01*
X110646666Y-98806500D01*
X110580000Y-98873166D01*
X110546666Y-98939833D01*
X110513333Y-99073166D01*
X110513333Y-99173166D01*
X110546666Y-99306500D01*
X110580000Y-99373166D01*
X110646666Y-99439833D01*
X110746666Y-99473166D01*
X110913333Y-99473166D01*
X110246666Y-99273166D02*
X109913333Y-99273166D01*
X110313333Y-99473166D02*
X110080000Y-98773166D01*
X109846666Y-99473166D01*
X113063333Y-100133500D02*
X112796666Y-100133500D01*
X112963333Y-99900166D02*
X112963333Y-100500166D01*
X112930000Y-100566833D01*
X112863333Y-100600166D01*
X112796666Y-100600166D01*
X112463333Y-100600166D02*
X112530000Y-100566833D01*
X112563333Y-100533500D01*
X112596666Y-100466833D01*
X112596666Y-100266833D01*
X112563333Y-100200166D01*
X112530000Y-100166833D01*
X112463333Y-100133500D01*
X112363333Y-100133500D01*
X112296666Y-100166833D01*
X112263333Y-100200166D01*
X112230000Y-100266833D01*
X112230000Y-100466833D01*
X112263333Y-100533500D01*
X112296666Y-100566833D01*
X112363333Y-100600166D01*
X112463333Y-100600166D01*
X111496666Y-99900166D02*
X111263333Y-100600166D01*
X111030000Y-99900166D01*
X110396666Y-100600166D02*
X110630000Y-100266833D01*
X110796666Y-100600166D02*
X110796666Y-99900166D01*
X110530000Y-99900166D01*
X110463333Y-99933500D01*
X110430000Y-99966833D01*
X110396666Y-100033500D01*
X110396666Y-100133500D01*
X110430000Y-100200166D01*
X110463333Y-100233500D01*
X110530000Y-100266833D01*
X110796666Y-100266833D01*
X110096666Y-100233500D02*
X109863333Y-100233500D01*
X109763333Y-100600166D02*
X110096666Y-100600166D01*
X110096666Y-99900166D01*
X109763333Y-99900166D01*
X109230000Y-100233500D02*
X109463333Y-100233500D01*
X109463333Y-100600166D02*
X109463333Y-99900166D01*
X109130000Y-99900166D01*
X89118333Y-85853166D02*
X89118333Y-85386500D01*
X89118333Y-85453166D02*
X89085000Y-85419833D01*
X89018333Y-85386500D01*
X88918333Y-85386500D01*
X88851666Y-85419833D01*
X88818333Y-85486500D01*
X88818333Y-85853166D01*
X88818333Y-85486500D02*
X88785000Y-85419833D01*
X88718333Y-85386500D01*
X88618333Y-85386500D01*
X88551666Y-85419833D01*
X88518333Y-85486500D01*
X88518333Y-85853166D01*
X87885000Y-85853166D02*
X87885000Y-85486500D01*
X87918333Y-85419833D01*
X87985000Y-85386500D01*
X88118333Y-85386500D01*
X88185000Y-85419833D01*
X87885000Y-85819833D02*
X87951666Y-85853166D01*
X88118333Y-85853166D01*
X88185000Y-85819833D01*
X88218333Y-85753166D01*
X88218333Y-85686500D01*
X88185000Y-85619833D01*
X88118333Y-85586500D01*
X87951666Y-85586500D01*
X87885000Y-85553166D01*
X87618333Y-85853166D02*
X87251666Y-85386500D01*
X87618333Y-85386500D02*
X87251666Y-85853166D01*
X89185000Y-86280166D02*
X88751666Y-86280166D01*
X88985000Y-86546833D01*
X88885000Y-86546833D01*
X88818333Y-86580166D01*
X88785000Y-86613500D01*
X88751666Y-86680166D01*
X88751666Y-86846833D01*
X88785000Y-86913500D01*
X88818333Y-86946833D01*
X88885000Y-86980166D01*
X89085000Y-86980166D01*
X89151666Y-86946833D01*
X89185000Y-86913500D01*
X88118333Y-86280166D02*
X88451666Y-86280166D01*
X88485000Y-86613500D01*
X88451666Y-86580166D01*
X88385000Y-86546833D01*
X88218333Y-86546833D01*
X88151666Y-86580166D01*
X88118333Y-86613500D01*
X88085000Y-86680166D01*
X88085000Y-86846833D01*
X88118333Y-86913500D01*
X88151666Y-86946833D01*
X88218333Y-86980166D01*
X88385000Y-86980166D01*
X88451666Y-86946833D01*
X88485000Y-86913500D01*
X87885000Y-86280166D02*
X87651666Y-86980166D01*
X87418333Y-86280166D01*
X86718333Y-86280166D02*
X86285000Y-86280166D01*
X86518333Y-86546833D01*
X86418333Y-86546833D01*
X86351666Y-86580166D01*
X86318333Y-86613500D01*
X86285000Y-86680166D01*
X86285000Y-86846833D01*
X86318333Y-86913500D01*
X86351666Y-86946833D01*
X86418333Y-86980166D01*
X86618333Y-86980166D01*
X86685000Y-86946833D01*
X86718333Y-86913500D01*
X86018333Y-86780166D02*
X85685000Y-86780166D01*
X86085000Y-86980166D02*
X85851666Y-86280166D01*
X85618333Y-86980166D01*
X105000000Y-114015000D02*
X105033333Y-114081666D01*
X105033333Y-114181666D01*
X105000000Y-114281666D01*
X104933333Y-114348333D01*
X104866666Y-114381666D01*
X104733333Y-114415000D01*
X104633333Y-114415000D01*
X104500000Y-114381666D01*
X104433333Y-114348333D01*
X104366666Y-114281666D01*
X104333333Y-114181666D01*
X104333333Y-114115000D01*
X104366666Y-114015000D01*
X104400000Y-113981666D01*
X104633333Y-113981666D01*
X104633333Y-114115000D01*
X104333333Y-113681666D02*
X105033333Y-113681666D01*
X104333333Y-113281666D01*
X105033333Y-113281666D01*
X104333333Y-112948333D02*
X105033333Y-112948333D01*
X105033333Y-112781666D01*
X105000000Y-112681666D01*
X104933333Y-112615000D01*
X104866666Y-112581666D01*
X104733333Y-112548333D01*
X104633333Y-112548333D01*
X104500000Y-112581666D01*
X104433333Y-112615000D01*
X104366666Y-112681666D01*
X104333333Y-112781666D01*
X104333333Y-112948333D01*
X103625000Y-114398333D02*
X103625000Y-113865000D01*
X103358333Y-114131666D02*
X103891666Y-114131666D01*
X104058333Y-113598333D02*
X104058333Y-113165000D01*
X103791666Y-113398333D01*
X103791666Y-113298333D01*
X103758333Y-113231666D01*
X103725000Y-113198333D01*
X103658333Y-113165000D01*
X103491666Y-113165000D01*
X103425000Y-113198333D01*
X103391666Y-113231666D01*
X103358333Y-113298333D01*
X103358333Y-113498333D01*
X103391666Y-113565000D01*
X103425000Y-113598333D01*
X104058333Y-112965000D02*
X103358333Y-112731666D01*
X104058333Y-112498333D01*
X104058333Y-112331666D02*
X104058333Y-111898333D01*
X103791666Y-112131666D01*
X103791666Y-112031666D01*
X103758333Y-111965000D01*
X103725000Y-111931666D01*
X103658333Y-111898333D01*
X103491666Y-111898333D01*
X103425000Y-111931666D01*
X103391666Y-111965000D01*
X103358333Y-112031666D01*
X103358333Y-112231666D01*
X103391666Y-112298333D01*
X103425000Y-112331666D01*
X100383333Y-114040000D02*
X100716666Y-114273333D01*
X100383333Y-114440000D02*
X101083333Y-114440000D01*
X101083333Y-114173333D01*
X101050000Y-114106666D01*
X101016666Y-114073333D01*
X100950000Y-114040000D01*
X100850000Y-114040000D01*
X100783333Y-114073333D01*
X100750000Y-114106666D01*
X100716666Y-114173333D01*
X100716666Y-114440000D01*
X101083333Y-113806666D02*
X100383333Y-113340000D01*
X101083333Y-113340000D02*
X100383333Y-113806666D01*
X100008333Y-114423333D02*
X100008333Y-114023333D01*
X99308333Y-114223333D02*
X100008333Y-114223333D01*
X100008333Y-113856666D02*
X99308333Y-113390000D01*
X100008333Y-113390000D02*
X99308333Y-113856666D01*
X98725000Y-114156666D02*
X98691666Y-114056666D01*
X98658333Y-114023333D01*
X98591666Y-113990000D01*
X98491666Y-113990000D01*
X98425000Y-114023333D01*
X98391666Y-114056666D01*
X98358333Y-114123333D01*
X98358333Y-114390000D01*
X99058333Y-114390000D01*
X99058333Y-114156666D01*
X99025000Y-114090000D01*
X98991666Y-114056666D01*
X98925000Y-114023333D01*
X98858333Y-114023333D01*
X98791666Y-114056666D01*
X98758333Y-114090000D01*
X98725000Y-114156666D01*
X98725000Y-114390000D01*
X99058333Y-113556666D02*
X99058333Y-113423333D01*
X99025000Y-113356666D01*
X98958333Y-113290000D01*
X98825000Y-113256666D01*
X98591666Y-113256666D01*
X98458333Y-113290000D01*
X98391666Y-113356666D01*
X98358333Y-113423333D01*
X98358333Y-113556666D01*
X98391666Y-113623333D01*
X98458333Y-113690000D01*
X98591666Y-113723333D01*
X98825000Y-113723333D01*
X98958333Y-113690000D01*
X99025000Y-113623333D01*
X99058333Y-113556666D01*
X99058333Y-112823333D02*
X99058333Y-112690000D01*
X99025000Y-112623333D01*
X98958333Y-112556666D01*
X98825000Y-112523333D01*
X98591666Y-112523333D01*
X98458333Y-112556666D01*
X98391666Y-112623333D01*
X98358333Y-112690000D01*
X98358333Y-112823333D01*
X98391666Y-112890000D01*
X98458333Y-112956666D01*
X98591666Y-112990000D01*
X98825000Y-112990000D01*
X98958333Y-112956666D01*
X99025000Y-112890000D01*
X99058333Y-112823333D01*
X99058333Y-112323333D02*
X99058333Y-111923333D01*
X98358333Y-112123333D02*
X99058333Y-112123333D01*
X99058333Y-111556666D02*
X99058333Y-111490000D01*
X99025000Y-111423333D01*
X98991666Y-111390000D01*
X98925000Y-111356666D01*
X98791666Y-111323333D01*
X98625000Y-111323333D01*
X98491666Y-111356666D01*
X98425000Y-111390000D01*
X98391666Y-111423333D01*
X98358333Y-111490000D01*
X98358333Y-111556666D01*
X98391666Y-111623333D01*
X98425000Y-111656666D01*
X98491666Y-111690000D01*
X98625000Y-111723333D01*
X98791666Y-111723333D01*
X98925000Y-111690000D01*
X98991666Y-111656666D01*
X99025000Y-111623333D01*
X99058333Y-111556666D01*
X97825000Y-114381666D02*
X97358333Y-114381666D01*
X97758333Y-114381666D02*
X97791666Y-114348333D01*
X97825000Y-114281666D01*
X97825000Y-114181666D01*
X97791666Y-114115000D01*
X97725000Y-114081666D01*
X97358333Y-114081666D01*
X97358333Y-113348333D02*
X97691666Y-113581666D01*
X97358333Y-113748333D02*
X98058333Y-113748333D01*
X98058333Y-113481666D01*
X98025000Y-113415000D01*
X97991666Y-113381666D01*
X97925000Y-113348333D01*
X97825000Y-113348333D01*
X97758333Y-113381666D01*
X97725000Y-113415000D01*
X97691666Y-113481666D01*
X97691666Y-113748333D01*
X97391666Y-113081666D02*
X97358333Y-112981666D01*
X97358333Y-112815000D01*
X97391666Y-112748333D01*
X97425000Y-112715000D01*
X97491666Y-112681666D01*
X97558333Y-112681666D01*
X97625000Y-112715000D01*
X97658333Y-112748333D01*
X97691666Y-112815000D01*
X97725000Y-112948333D01*
X97758333Y-113015000D01*
X97791666Y-113048333D01*
X97858333Y-113081666D01*
X97925000Y-113081666D01*
X97991666Y-113048333D01*
X98025000Y-113015000D01*
X98058333Y-112948333D01*
X98058333Y-112781666D01*
X98025000Y-112681666D01*
X98058333Y-112481666D02*
X98058333Y-112081666D01*
X97358333Y-112281666D02*
X98058333Y-112281666D01*
X118403333Y-98883166D02*
X117970000Y-98883166D01*
X118203333Y-99149833D01*
X118103333Y-99149833D01*
X118036666Y-99183166D01*
X118003333Y-99216500D01*
X117970000Y-99283166D01*
X117970000Y-99449833D01*
X118003333Y-99516500D01*
X118036666Y-99549833D01*
X118103333Y-99583166D01*
X118303333Y-99583166D01*
X118370000Y-99549833D01*
X118403333Y-99516500D01*
X117670000Y-99516500D02*
X117636666Y-99549833D01*
X117670000Y-99583166D01*
X117703333Y-99549833D01*
X117670000Y-99516500D01*
X117670000Y-99583166D01*
X117403333Y-98883166D02*
X116970000Y-98883166D01*
X117203333Y-99149833D01*
X117103333Y-99149833D01*
X117036666Y-99183166D01*
X117003333Y-99216500D01*
X116970000Y-99283166D01*
X116970000Y-99449833D01*
X117003333Y-99516500D01*
X117036666Y-99549833D01*
X117103333Y-99583166D01*
X117303333Y-99583166D01*
X117370000Y-99549833D01*
X117403333Y-99516500D01*
X116770000Y-98883166D02*
X116536666Y-99583166D01*
X116303333Y-98883166D01*
X118936666Y-100243500D02*
X118670000Y-100243500D01*
X118836666Y-100010166D02*
X118836666Y-100610166D01*
X118803333Y-100676833D01*
X118736666Y-100710166D01*
X118670000Y-100710166D01*
X118336666Y-100710166D02*
X118403333Y-100676833D01*
X118436666Y-100643500D01*
X118470000Y-100576833D01*
X118470000Y-100376833D01*
X118436666Y-100310166D01*
X118403333Y-100276833D01*
X118336666Y-100243500D01*
X118236666Y-100243500D01*
X118170000Y-100276833D01*
X118136666Y-100310166D01*
X118103333Y-100376833D01*
X118103333Y-100576833D01*
X118136666Y-100643500D01*
X118170000Y-100676833D01*
X118236666Y-100710166D01*
X118336666Y-100710166D01*
X117270000Y-100710166D02*
X117270000Y-100010166D01*
X116970000Y-100076833D02*
X116936666Y-100043500D01*
X116870000Y-100010166D01*
X116703333Y-100010166D01*
X116636666Y-100043500D01*
X116603333Y-100076833D01*
X116570000Y-100143500D01*
X116570000Y-100210166D01*
X116603333Y-100310166D01*
X117003333Y-100710166D01*
X116570000Y-100710166D01*
X115870000Y-100643500D02*
X115903333Y-100676833D01*
X116003333Y-100710166D01*
X116070000Y-100710166D01*
X116170000Y-100676833D01*
X116236666Y-100610166D01*
X116270000Y-100543500D01*
X116303333Y-100410166D01*
X116303333Y-100310166D01*
X116270000Y-100176833D01*
X116236666Y-100110166D01*
X116170000Y-100043500D01*
X116070000Y-100010166D01*
X116003333Y-100010166D01*
X115903333Y-100043500D01*
X115870000Y-100076833D01*
D11*
X95470000Y-99192857D02*
X95470000Y-98392857D01*
X95470000Y-98621428D02*
X95412857Y-98507142D01*
X95355714Y-98450000D01*
X95241428Y-98392857D01*
X95127142Y-98392857D01*
X94555714Y-99192857D02*
X94670000Y-99135714D01*
X94727142Y-99078571D01*
X94784285Y-98964285D01*
X94784285Y-98621428D01*
X94727142Y-98507142D01*
X94670000Y-98450000D01*
X94555714Y-98392857D01*
X94384285Y-98392857D01*
X94270000Y-98450000D01*
X94212857Y-98507142D01*
X94155714Y-98621428D01*
X94155714Y-98964285D01*
X94212857Y-99078571D01*
X94270000Y-99135714D01*
X94384285Y-99192857D01*
X94555714Y-99192857D01*
X93641428Y-99192857D02*
X93641428Y-97992857D01*
X93641428Y-98450000D02*
X93527142Y-98392857D01*
X93298571Y-98392857D01*
X93184285Y-98450000D01*
X93127142Y-98507142D01*
X93070000Y-98621428D01*
X93070000Y-98964285D01*
X93127142Y-99078571D01*
X93184285Y-99135714D01*
X93298571Y-99192857D01*
X93527142Y-99192857D01*
X93641428Y-99135714D01*
X92384285Y-99192857D02*
X92498571Y-99135714D01*
X92555714Y-99078571D01*
X92612857Y-98964285D01*
X92612857Y-98621428D01*
X92555714Y-98507142D01*
X92498571Y-98450000D01*
X92384285Y-98392857D01*
X92212857Y-98392857D01*
X92098571Y-98450000D01*
X92041428Y-98507142D01*
X91984285Y-98621428D01*
X91984285Y-98964285D01*
X92041428Y-99078571D01*
X92098571Y-99135714D01*
X92212857Y-99192857D01*
X92384285Y-99192857D01*
X91470000Y-98564285D02*
X91070000Y-98564285D01*
X90898571Y-99192857D02*
X91470000Y-99192857D01*
X91470000Y-97992857D01*
X90898571Y-97992857D01*
X90441428Y-99135714D02*
X90270000Y-99192857D01*
X89984285Y-99192857D01*
X89870000Y-99135714D01*
X89812857Y-99078571D01*
X89755714Y-98964285D01*
X89755714Y-98850000D01*
X89812857Y-98735714D01*
X89870000Y-98678571D01*
X89984285Y-98621428D01*
X90212857Y-98564285D01*
X90327142Y-98507142D01*
X90384285Y-98450000D01*
X90441428Y-98335714D01*
X90441428Y-98221428D01*
X90384285Y-98107142D01*
X90327142Y-98050000D01*
X90212857Y-97992857D01*
X89927142Y-97992857D01*
X89755714Y-98050000D01*
X88555714Y-99078571D02*
X88612857Y-99135714D01*
X88784285Y-99192857D01*
X88898571Y-99192857D01*
X89070000Y-99135714D01*
X89184285Y-99021428D01*
X89241428Y-98907142D01*
X89298571Y-98678571D01*
X89298571Y-98507142D01*
X89241428Y-98278571D01*
X89184285Y-98164285D01*
X89070000Y-98050000D01*
X88898571Y-97992857D01*
X88784285Y-97992857D01*
X88612857Y-98050000D01*
X88555714Y-98107142D01*
X87127142Y-99192857D02*
X87127142Y-98392857D01*
X87127142Y-98507142D02*
X87070000Y-98450000D01*
X86955714Y-98392857D01*
X86784285Y-98392857D01*
X86670000Y-98450000D01*
X86612857Y-98564285D01*
X86612857Y-99192857D01*
X86612857Y-98564285D02*
X86555714Y-98450000D01*
X86441428Y-98392857D01*
X86270000Y-98392857D01*
X86155714Y-98450000D01*
X86098571Y-98564285D01*
X86098571Y-99192857D01*
X85527142Y-99192857D02*
X85527142Y-98392857D01*
X85527142Y-97992857D02*
X85584285Y-98050000D01*
X85527142Y-98107142D01*
X85470000Y-98050000D01*
X85527142Y-97992857D01*
X85527142Y-98107142D01*
X84441428Y-99135714D02*
X84555714Y-99192857D01*
X84784285Y-99192857D01*
X84898571Y-99135714D01*
X84955714Y-99078571D01*
X85012857Y-98964285D01*
X85012857Y-98621428D01*
X84955714Y-98507142D01*
X84898571Y-98450000D01*
X84784285Y-98392857D01*
X84555714Y-98392857D01*
X84441428Y-98450000D01*
X83927142Y-99192857D02*
X83927142Y-98392857D01*
X83927142Y-98621428D02*
X83870000Y-98507142D01*
X83812857Y-98450000D01*
X83698571Y-98392857D01*
X83584285Y-98392857D01*
X83012857Y-99192857D02*
X83127142Y-99135714D01*
X83184285Y-99078571D01*
X83241428Y-98964285D01*
X83241428Y-98621428D01*
X83184285Y-98507142D01*
X83127142Y-98450000D01*
X83012857Y-98392857D01*
X82841428Y-98392857D01*
X82727142Y-98450000D01*
X82670000Y-98507142D01*
X82612857Y-98621428D01*
X82612857Y-98964285D01*
X82670000Y-99078571D01*
X82727142Y-99135714D01*
X82841428Y-99192857D01*
X83012857Y-99192857D01*
D10*
X105641666Y-110026500D02*
X105675000Y-110059833D01*
X105775000Y-110093166D01*
X105841666Y-110093166D01*
X105941666Y-110059833D01*
X106008333Y-109993166D01*
X106041666Y-109926500D01*
X106075000Y-109793166D01*
X106075000Y-109693166D01*
X106041666Y-109559833D01*
X106008333Y-109493166D01*
X105941666Y-109426500D01*
X105841666Y-109393166D01*
X105775000Y-109393166D01*
X105675000Y-109426500D01*
X105641666Y-109459833D01*
X105375000Y-109893166D02*
X105041666Y-109893166D01*
X105441666Y-110093166D02*
X105208333Y-109393166D01*
X104975000Y-110093166D01*
X104741666Y-110093166D02*
X104741666Y-109393166D01*
X104341666Y-110093166D01*
X104341666Y-109393166D01*
X110075000Y-110753500D02*
X109808333Y-110753500D01*
X109975000Y-110520166D02*
X109975000Y-111120166D01*
X109941666Y-111186833D01*
X109875000Y-111220166D01*
X109808333Y-111220166D01*
X109308333Y-111186833D02*
X109375000Y-111220166D01*
X109508333Y-111220166D01*
X109575000Y-111186833D01*
X109608333Y-111120166D01*
X109608333Y-110853500D01*
X109575000Y-110786833D01*
X109508333Y-110753500D01*
X109375000Y-110753500D01*
X109308333Y-110786833D01*
X109275000Y-110853500D01*
X109275000Y-110920166D01*
X109608333Y-110986833D01*
X108975000Y-111220166D02*
X108975000Y-110753500D01*
X108975000Y-110886833D02*
X108941666Y-110820166D01*
X108908333Y-110786833D01*
X108841666Y-110753500D01*
X108775000Y-110753500D01*
X108541666Y-111220166D02*
X108541666Y-110753500D01*
X108541666Y-110820166D02*
X108508333Y-110786833D01*
X108441666Y-110753500D01*
X108341666Y-110753500D01*
X108275000Y-110786833D01*
X108241666Y-110853500D01*
X108241666Y-111220166D01*
X108241666Y-110853500D02*
X108208333Y-110786833D01*
X108141666Y-110753500D01*
X108041666Y-110753500D01*
X107975000Y-110786833D01*
X107941666Y-110853500D01*
X107941666Y-111220166D01*
X107608333Y-111220166D02*
X107608333Y-110753500D01*
X107608333Y-110520166D02*
X107641666Y-110553500D01*
X107608333Y-110586833D01*
X107575000Y-110553500D01*
X107608333Y-110520166D01*
X107608333Y-110586833D01*
X107275000Y-110753500D02*
X107275000Y-111220166D01*
X107275000Y-110820166D02*
X107241666Y-110786833D01*
X107175000Y-110753500D01*
X107075000Y-110753500D01*
X107008333Y-110786833D01*
X106975000Y-110853500D01*
X106975000Y-111220166D01*
X106341666Y-111220166D02*
X106341666Y-110853500D01*
X106375000Y-110786833D01*
X106441666Y-110753500D01*
X106575000Y-110753500D01*
X106641666Y-110786833D01*
X106341666Y-111186833D02*
X106408333Y-111220166D01*
X106575000Y-111220166D01*
X106641666Y-111186833D01*
X106675000Y-111120166D01*
X106675000Y-111053500D01*
X106641666Y-110986833D01*
X106575000Y-110953500D01*
X106408333Y-110953500D01*
X106341666Y-110920166D01*
X106108333Y-110753500D02*
X105841666Y-110753500D01*
X106008333Y-110520166D02*
X106008333Y-111120166D01*
X105975000Y-111186833D01*
X105908333Y-111220166D01*
X105841666Y-111220166D01*
X105608333Y-111220166D02*
X105608333Y-110753500D01*
X105608333Y-110520166D02*
X105641666Y-110553500D01*
X105608333Y-110586833D01*
X105575000Y-110553500D01*
X105608333Y-110520166D01*
X105608333Y-110586833D01*
X105175000Y-111220166D02*
X105241666Y-111186833D01*
X105275000Y-111153500D01*
X105308333Y-111086833D01*
X105308333Y-110886833D01*
X105275000Y-110820166D01*
X105241666Y-110786833D01*
X105175000Y-110753500D01*
X105075000Y-110753500D01*
X105008333Y-110786833D01*
X104975000Y-110820166D01*
X104941666Y-110886833D01*
X104941666Y-111086833D01*
X104975000Y-111153500D01*
X105008333Y-111186833D01*
X105075000Y-111220166D01*
X105175000Y-111220166D01*
X104641666Y-110753500D02*
X104641666Y-111220166D01*
X104641666Y-110820166D02*
X104608333Y-110786833D01*
X104541666Y-110753500D01*
X104441666Y-110753500D01*
X104375000Y-110786833D01*
X104341666Y-110853500D01*
X104341666Y-111220166D01*
D11*
X90137142Y-84895714D02*
X89222857Y-84895714D01*
X89680000Y-85352857D02*
X89680000Y-84438571D01*
D12*
X95528571Y-100897142D02*
X95314285Y-101497142D01*
X95100000Y-100897142D01*
X94800000Y-100682857D02*
X94757143Y-100640000D01*
X94671428Y-100597142D01*
X94457143Y-100597142D01*
X94371428Y-100640000D01*
X94328571Y-100682857D01*
X94285714Y-100768571D01*
X94285714Y-100854285D01*
X94328571Y-100982857D01*
X94842857Y-101497142D01*
X94285714Y-101497142D01*
X93900000Y-101411428D02*
X93857143Y-101454285D01*
X93900000Y-101497142D01*
X93942857Y-101454285D01*
X93900000Y-101411428D01*
X93900000Y-101497142D01*
X93300000Y-100597142D02*
X93214285Y-100597142D01*
X93128571Y-100640000D01*
X93085714Y-100682857D01*
X93042857Y-100768571D01*
X93000000Y-100940000D01*
X93000000Y-101154285D01*
X93042857Y-101325714D01*
X93085714Y-101411428D01*
X93128571Y-101454285D01*
X93214285Y-101497142D01*
X93300000Y-101497142D01*
X93385714Y-101454285D01*
X93428571Y-101411428D01*
X93471428Y-101325714D01*
X93514285Y-101154285D01*
X93514285Y-100940000D01*
X93471428Y-100768571D01*
X93428571Y-100682857D01*
X93385714Y-100640000D01*
X93300000Y-100597142D01*
X91200000Y-100811428D02*
X91285714Y-100768571D01*
X91457143Y-100768571D01*
X91542857Y-100811428D01*
X91628571Y-100897142D01*
X91671428Y-100982857D01*
X91671428Y-101154285D01*
X91628571Y-101240000D01*
X91542857Y-101325714D01*
X91457143Y-101368571D01*
X91285714Y-101368571D01*
X91200000Y-101325714D01*
X91371428Y-100468571D02*
X91585714Y-100511428D01*
X91800000Y-100640000D01*
X91928571Y-100854285D01*
X91971428Y-101068571D01*
X91928571Y-101282857D01*
X91800000Y-101497142D01*
X91585714Y-101625714D01*
X91371428Y-101668571D01*
X91157143Y-101625714D01*
X90942857Y-101497142D01*
X90814285Y-101282857D01*
X90771428Y-101068571D01*
X90814285Y-100854285D01*
X90942857Y-100640000D01*
X91157143Y-100511428D01*
X91371428Y-100468571D01*
X90428571Y-100682857D02*
X90385714Y-100640000D01*
X90300000Y-100597142D01*
X90085714Y-100597142D01*
X90000000Y-100640000D01*
X89957143Y-100682857D01*
X89914285Y-100768571D01*
X89914285Y-100854285D01*
X89957143Y-100982857D01*
X90471428Y-101497142D01*
X89914285Y-101497142D01*
X89357143Y-100597142D02*
X89271428Y-100597142D01*
X89185714Y-100640000D01*
X89142857Y-100682857D01*
X89100000Y-100768571D01*
X89057143Y-100940000D01*
X89057143Y-101154285D01*
X89100000Y-101325714D01*
X89142857Y-101411428D01*
X89185714Y-101454285D01*
X89271428Y-101497142D01*
X89357143Y-101497142D01*
X89442857Y-101454285D01*
X89485714Y-101411428D01*
X89528571Y-101325714D01*
X89571428Y-101154285D01*
X89571428Y-100940000D01*
X89528571Y-100768571D01*
X89485714Y-100682857D01*
X89442857Y-100640000D01*
X89357143Y-100597142D01*
X88714285Y-100682857D02*
X88671428Y-100640000D01*
X88585714Y-100597142D01*
X88371428Y-100597142D01*
X88285714Y-100640000D01*
X88242857Y-100682857D01*
X88200000Y-100768571D01*
X88200000Y-100854285D01*
X88242857Y-100982857D01*
X88757143Y-101497142D01*
X88200000Y-101497142D01*
X87857143Y-100682857D02*
X87814285Y-100640000D01*
X87728571Y-100597142D01*
X87514285Y-100597142D01*
X87428571Y-100640000D01*
X87385714Y-100682857D01*
X87342857Y-100768571D01*
X87342857Y-100854285D01*
X87385714Y-100982857D01*
X87900000Y-101497142D01*
X87342857Y-101497142D01*
X86271428Y-101497142D02*
X86271428Y-100897142D01*
X86271428Y-101068571D02*
X86228571Y-100982857D01*
X86185714Y-100940000D01*
X86100000Y-100897142D01*
X86014285Y-100897142D01*
X85328571Y-100897142D02*
X85328571Y-101497142D01*
X85714285Y-100897142D02*
X85714285Y-101368571D01*
X85671428Y-101454285D01*
X85585714Y-101497142D01*
X85457143Y-101497142D01*
X85371428Y-101454285D01*
X85328571Y-101411428D01*
X84900000Y-100897142D02*
X84900000Y-101497142D01*
X84900000Y-100982857D02*
X84857143Y-100940000D01*
X84771428Y-100897142D01*
X84642857Y-100897142D01*
X84557143Y-100940000D01*
X84514285Y-101025714D01*
X84514285Y-101497142D01*
X83700000Y-100897142D02*
X83700000Y-101625714D01*
X83742857Y-101711428D01*
X83785714Y-101754285D01*
X83871428Y-101797142D01*
X84000000Y-101797142D01*
X84085714Y-101754285D01*
X83700000Y-101454285D02*
X83785714Y-101497142D01*
X83957143Y-101497142D01*
X84042857Y-101454285D01*
X84085714Y-101411428D01*
X84128571Y-101325714D01*
X84128571Y-101068571D01*
X84085714Y-100982857D01*
X84042857Y-100940000D01*
X83957143Y-100897142D01*
X83785714Y-100897142D01*
X83700000Y-100940000D01*
X82928571Y-101454285D02*
X83014285Y-101497142D01*
X83185714Y-101497142D01*
X83271428Y-101454285D01*
X83314285Y-101368571D01*
X83314285Y-101025714D01*
X83271428Y-100940000D01*
X83185714Y-100897142D01*
X83014285Y-100897142D01*
X82928571Y-100940000D01*
X82885714Y-101025714D01*
X82885714Y-101111428D01*
X83314285Y-101197142D01*
X82500000Y-101497142D02*
X82500000Y-100897142D01*
X82500000Y-101068571D02*
X82457143Y-100982857D01*
X82414285Y-100940000D01*
X82328571Y-100897142D01*
X82242857Y-100897142D01*
G04 #@! TO.C,U5*
X104745902Y-93835000D02*
G75*
G03*
X104745902Y-93835000I-55902J0D01*
G01*
G04 #@! TO.C,C2*
X94920000Y-88511422D02*
X94920000Y-89028578D01*
X96340000Y-88511422D02*
X96340000Y-89028578D01*
G04 #@! TO.C,C4*
X90320000Y-88531422D02*
X90320000Y-89048578D01*
X88900000Y-88531422D02*
X88900000Y-89048578D01*
G04 #@! TO.C,C5*
X94340000Y-88511422D02*
X94340000Y-89028578D01*
X92920000Y-88511422D02*
X92920000Y-89028578D01*
G04 #@! TO.C,C6*
X90320000Y-92558578D02*
X90320000Y-92041422D01*
X88900000Y-92558578D02*
X88900000Y-92041422D01*
G04 #@! TO.C,C7*
X86910000Y-92558578D02*
X86910000Y-92041422D01*
X88330000Y-92558578D02*
X88330000Y-92041422D01*
G04 #@! TO.C,C8*
X94920000Y-92538578D02*
X94920000Y-92021422D01*
X96340000Y-92538578D02*
X96340000Y-92021422D01*
G04 #@! TO.C,C9*
X94340000Y-92538578D02*
X94340000Y-92021422D01*
X92920000Y-92538578D02*
X92920000Y-92021422D01*
G04 #@! TO.C,C10*
X88330000Y-88531422D02*
X88330000Y-89048578D01*
X86910000Y-88531422D02*
X86910000Y-89048578D01*
G04 #@! TO.C,C11*
X92320000Y-92558578D02*
X92320000Y-92041422D01*
X90900000Y-92558578D02*
X90900000Y-92041422D01*
G04 #@! TO.C,C12*
X92340000Y-88531422D02*
X92340000Y-89048578D01*
X90920000Y-88531422D02*
X90920000Y-89048578D01*
G04 #@! TO.C,C33*
X101390000Y-89927221D02*
X101390000Y-90252779D01*
X102410000Y-89927221D02*
X102410000Y-90252779D01*
G04 #@! TO.C,C38*
X104370000Y-88638578D02*
X104370000Y-88121422D01*
X102950000Y-88638578D02*
X102950000Y-88121422D01*
D13*
G04 #@! TO.C,G\u002A\u002A\u002A*
X93206019Y-102434391D02*
X93161073Y-102473653D01*
X93161073Y-102473653D02*
X93098740Y-102531918D01*
X93098740Y-102531918D02*
X93024880Y-102603319D01*
X93024880Y-102603319D02*
X92945352Y-102681987D01*
X92945352Y-102681987D02*
X92866017Y-102762056D01*
X92866017Y-102762056D02*
X92792735Y-102837657D01*
X92792735Y-102837657D02*
X92731366Y-102902924D01*
X92731366Y-102902924D02*
X92687771Y-102951988D01*
X92687771Y-102951988D02*
X92667808Y-102978981D01*
X92667808Y-102978981D02*
X92667167Y-102981263D01*
X92667167Y-102981263D02*
X92681767Y-102998246D01*
X92681767Y-102998246D02*
X92724002Y-103042758D01*
X92724002Y-103042758D02*
X92791524Y-103112445D01*
X92791524Y-103112445D02*
X92881986Y-103204951D01*
X92881986Y-103204951D02*
X92993039Y-103317921D01*
X92993039Y-103317921D02*
X93122336Y-103449001D01*
X93122336Y-103449001D02*
X93267529Y-103595834D01*
X93267529Y-103595834D02*
X93426270Y-103756067D01*
X93426270Y-103756067D02*
X93596212Y-103927343D01*
X93596212Y-103927343D02*
X93775006Y-104107308D01*
X93775006Y-104107308D02*
X93960306Y-104293607D01*
X93960306Y-104293607D02*
X94149762Y-104483885D01*
X94149762Y-104483885D02*
X94341028Y-104675787D01*
X94341028Y-104675787D02*
X94531755Y-104866957D01*
X94531755Y-104866957D02*
X94719596Y-105055041D01*
X94719596Y-105055041D02*
X94902203Y-105237684D01*
X94902203Y-105237684D02*
X95077228Y-105412530D01*
X95077228Y-105412530D02*
X95242324Y-105577225D01*
X95242324Y-105577225D02*
X95395142Y-105729413D01*
X95395142Y-105729413D02*
X95533335Y-105866740D01*
X95533335Y-105866740D02*
X95654555Y-105986849D01*
X95654555Y-105986849D02*
X95756454Y-106087388D01*
X95756454Y-106087388D02*
X95836685Y-106165999D01*
X95836685Y-106165999D02*
X95892899Y-106220329D01*
X95892899Y-106220329D02*
X95922750Y-106248021D01*
X95922750Y-106248021D02*
X95926982Y-106251167D01*
X95926982Y-106251167D02*
X95943465Y-106236617D01*
X95943465Y-106236617D02*
X95987170Y-106194727D01*
X95987170Y-106194727D02*
X96055427Y-106128133D01*
X96055427Y-106128133D02*
X96145565Y-106039474D01*
X96145565Y-106039474D02*
X96254917Y-105931386D01*
X96254917Y-105931386D02*
X96380813Y-105806507D01*
X96380813Y-105806507D02*
X96520583Y-105667475D01*
X96520583Y-105667475D02*
X96671559Y-105516928D01*
X96671559Y-105516928D02*
X96805146Y-105383438D01*
X96805146Y-105383438D02*
X97672681Y-104515709D01*
X97672681Y-104515709D02*
X97398021Y-104240438D01*
X97398021Y-104240438D02*
X97308925Y-104152814D01*
X97308925Y-104152814D02*
X97228354Y-104076708D01*
X97228354Y-104076708D02*
X97161623Y-104016890D01*
X97161623Y-104016890D02*
X97114046Y-103978133D01*
X97114046Y-103978133D02*
X97091450Y-103965167D01*
X97091450Y-103965167D02*
X97069762Y-103979676D01*
X97069762Y-103979676D02*
X97021796Y-104021012D01*
X97021796Y-104021012D02*
X96951027Y-104085888D01*
X96951027Y-104085888D02*
X96860929Y-104171014D01*
X96860929Y-104171014D02*
X96754976Y-104273105D01*
X96754976Y-104273105D02*
X96636645Y-104388872D01*
X96636645Y-104388872D02*
X96509409Y-104515027D01*
X96509409Y-104515027D02*
X96493144Y-104531270D01*
X96493144Y-104531270D02*
X95926749Y-105097374D01*
X95926749Y-105097374D02*
X94587938Y-103758687D01*
X94587938Y-103758687D02*
X94390183Y-103561185D01*
X94390183Y-103561185D02*
X94200772Y-103372471D01*
X94200772Y-103372471D02*
X94021863Y-103194670D01*
X94021863Y-103194670D02*
X93855613Y-103029904D01*
X93855613Y-103029904D02*
X93704182Y-102880300D01*
X93704182Y-102880300D02*
X93569727Y-102747980D01*
X93569727Y-102747980D02*
X93454408Y-102635070D01*
X93454408Y-102635070D02*
X93360383Y-102543693D01*
X93360383Y-102543693D02*
X93289810Y-102475974D01*
X93289810Y-102475974D02*
X93244848Y-102434037D01*
X93244848Y-102434037D02*
X93227716Y-102420000D01*
X93227716Y-102420000D02*
X93206019Y-102434391D01*
X93206019Y-102434391D02*
X93206019Y-102434391D01*
G36*
X93244848Y-102434037D02*
G01*
X93289810Y-102475974D01*
X93360383Y-102543693D01*
X93454408Y-102635070D01*
X93569727Y-102747980D01*
X93704182Y-102880300D01*
X93855613Y-103029904D01*
X94021863Y-103194670D01*
X94200772Y-103372471D01*
X94390183Y-103561185D01*
X94587938Y-103758687D01*
X95926749Y-105097374D01*
X96493144Y-104531270D01*
X96509409Y-104515027D01*
X96636645Y-104388872D01*
X96754976Y-104273105D01*
X96860929Y-104171014D01*
X96951027Y-104085888D01*
X97021796Y-104021012D01*
X97069762Y-103979676D01*
X97091450Y-103965167D01*
X97114046Y-103978133D01*
X97161623Y-104016890D01*
X97228354Y-104076708D01*
X97308925Y-104152814D01*
X97398021Y-104240438D01*
X97672681Y-104515709D01*
X96805146Y-105383438D01*
X96671559Y-105516928D01*
X96520583Y-105667475D01*
X96380813Y-105806507D01*
X96254917Y-105931386D01*
X96145565Y-106039474D01*
X96055427Y-106128133D01*
X95987170Y-106194727D01*
X95943465Y-106236617D01*
X95926982Y-106251167D01*
X95922750Y-106248021D01*
X95892899Y-106220329D01*
X95836685Y-106165999D01*
X95756454Y-106087388D01*
X95654555Y-105986849D01*
X95533335Y-105866740D01*
X95395142Y-105729413D01*
X95242324Y-105577225D01*
X95077228Y-105412530D01*
X94902203Y-105237684D01*
X94719596Y-105055041D01*
X94531755Y-104866957D01*
X94341028Y-104675787D01*
X94149762Y-104483885D01*
X93960306Y-104293607D01*
X93775006Y-104107308D01*
X93596212Y-103927343D01*
X93426270Y-103756067D01*
X93267529Y-103595834D01*
X93122336Y-103449001D01*
X92993039Y-103317921D01*
X92881986Y-103204951D01*
X92791524Y-103112445D01*
X92724002Y-103042758D01*
X92681767Y-102998246D01*
X92667167Y-102981263D01*
X92667808Y-102978981D01*
X92687771Y-102951988D01*
X92731366Y-102902924D01*
X92792735Y-102837657D01*
X92866017Y-102762056D01*
X92945352Y-102681987D01*
X93024880Y-102603319D01*
X93098740Y-102531918D01*
X93161073Y-102473653D01*
X93206019Y-102434391D01*
X93227716Y-102420000D01*
X93244848Y-102434037D01*
G37*
X93244848Y-102434037D02*
X93289810Y-102475974D01*
X93360383Y-102543693D01*
X93454408Y-102635070D01*
X93569727Y-102747980D01*
X93704182Y-102880300D01*
X93855613Y-103029904D01*
X94021863Y-103194670D01*
X94200772Y-103372471D01*
X94390183Y-103561185D01*
X94587938Y-103758687D01*
X95926749Y-105097374D01*
X96493144Y-104531270D01*
X96509409Y-104515027D01*
X96636645Y-104388872D01*
X96754976Y-104273105D01*
X96860929Y-104171014D01*
X96951027Y-104085888D01*
X97021796Y-104021012D01*
X97069762Y-103979676D01*
X97091450Y-103965167D01*
X97114046Y-103978133D01*
X97161623Y-104016890D01*
X97228354Y-104076708D01*
X97308925Y-104152814D01*
X97398021Y-104240438D01*
X97672681Y-104515709D01*
X96805146Y-105383438D01*
X96671559Y-105516928D01*
X96520583Y-105667475D01*
X96380813Y-105806507D01*
X96254917Y-105931386D01*
X96145565Y-106039474D01*
X96055427Y-106128133D01*
X95987170Y-106194727D01*
X95943465Y-106236617D01*
X95926982Y-106251167D01*
X95922750Y-106248021D01*
X95892899Y-106220329D01*
X95836685Y-106165999D01*
X95756454Y-106087388D01*
X95654555Y-105986849D01*
X95533335Y-105866740D01*
X95395142Y-105729413D01*
X95242324Y-105577225D01*
X95077228Y-105412530D01*
X94902203Y-105237684D01*
X94719596Y-105055041D01*
X94531755Y-104866957D01*
X94341028Y-104675787D01*
X94149762Y-104483885D01*
X93960306Y-104293607D01*
X93775006Y-104107308D01*
X93596212Y-103927343D01*
X93426270Y-103756067D01*
X93267529Y-103595834D01*
X93122336Y-103449001D01*
X92993039Y-103317921D01*
X92881986Y-103204951D01*
X92791524Y-103112445D01*
X92724002Y-103042758D01*
X92681767Y-102998246D01*
X92667167Y-102981263D01*
X92667808Y-102978981D01*
X92687771Y-102951988D01*
X92731366Y-102902924D01*
X92792735Y-102837657D01*
X92866017Y-102762056D01*
X92945352Y-102681987D01*
X93024880Y-102603319D01*
X93098740Y-102531918D01*
X93161073Y-102473653D01*
X93206019Y-102434391D01*
X93227716Y-102420000D01*
X93244848Y-102434037D01*
X90706622Y-102764126D02*
X90622495Y-102774037D01*
X90622495Y-102774037D02*
X90566457Y-102790482D01*
X90566457Y-102790482D02*
X90524299Y-102818315D01*
X90524299Y-102818315D02*
X90510878Y-102830957D01*
X90510878Y-102830957D02*
X90488726Y-102854998D01*
X90488726Y-102854998D02*
X90473052Y-102880613D01*
X90473052Y-102880613D02*
X90462382Y-102915634D01*
X90462382Y-102915634D02*
X90455240Y-102967893D01*
X90455240Y-102967893D02*
X90450152Y-103045220D01*
X90450152Y-103045220D02*
X90445642Y-103155446D01*
X90445642Y-103155446D02*
X90444667Y-103182479D01*
X90444667Y-103182479D02*
X90434083Y-103478416D01*
X90434083Y-103478416D02*
X90532861Y-103478375D01*
X90532861Y-103478375D02*
X90592748Y-103473975D01*
X90592748Y-103473975D02*
X90631889Y-103462867D01*
X90631889Y-103462867D02*
X90639118Y-103455896D01*
X90639118Y-103455896D02*
X90661626Y-103447841D01*
X90661626Y-103447841D02*
X90709674Y-103466349D01*
X90709674Y-103466349D02*
X90768325Y-103485683D01*
X90768325Y-103485683D02*
X90845925Y-103497577D01*
X90845925Y-103497577D02*
X90885503Y-103499370D01*
X90885503Y-103499370D02*
X90958247Y-103495742D01*
X90958247Y-103495742D02*
X91007274Y-103480340D01*
X91007274Y-103480340D02*
X91050867Y-103446700D01*
X91050867Y-103446700D02*
X91060128Y-103437628D01*
X91060128Y-103437628D02*
X91105496Y-103378487D01*
X91105496Y-103378487D02*
X91121458Y-103312433D01*
X91121458Y-103312433D02*
X91122000Y-103292553D01*
X91122000Y-103292553D02*
X91119289Y-103277408D01*
X91119289Y-103277408D02*
X90910333Y-103277408D01*
X90910333Y-103277408D02*
X90893826Y-103328149D01*
X90893826Y-103328149D02*
X90851745Y-103356439D01*
X90851745Y-103356439D02*
X90795250Y-103360870D01*
X90795250Y-103360870D02*
X90735502Y-103340031D01*
X90735502Y-103340031D02*
X90693375Y-103304816D01*
X90693375Y-103304816D02*
X90664611Y-103252394D01*
X90664611Y-103252394D02*
X90656333Y-103210446D01*
X90656333Y-103210446D02*
X90659965Y-103177587D01*
X90659965Y-103177587D02*
X90678873Y-103166476D01*
X90678873Y-103166476D02*
X90725075Y-103171509D01*
X90725075Y-103171509D02*
X90735708Y-103173420D01*
X90735708Y-103173420D02*
X90824152Y-103192819D01*
X90824152Y-103192819D02*
X90877767Y-103214374D01*
X90877767Y-103214374D02*
X90903994Y-103242518D01*
X90903994Y-103242518D02*
X90910333Y-103277408D01*
X90910333Y-103277408D02*
X91119289Y-103277408D01*
X91119289Y-103277408D02*
X91106618Y-103206632D01*
X91106618Y-103206632D02*
X91058730Y-103142629D01*
X91058730Y-103142629D02*
X90975729Y-103098044D01*
X90975729Y-103098044D02*
X90897432Y-103077452D01*
X90897432Y-103077452D02*
X90799276Y-103058170D01*
X90799276Y-103058170D02*
X90734917Y-103044145D01*
X90734917Y-103044145D02*
X90696547Y-103032830D01*
X90696547Y-103032830D02*
X90676355Y-103021676D01*
X90676355Y-103021676D02*
X90666532Y-103008136D01*
X90666532Y-103008136D02*
X90663642Y-103001183D01*
X90663642Y-103001183D02*
X90663197Y-102957070D01*
X90663197Y-102957070D02*
X90692609Y-102925633D01*
X90692609Y-102925633D02*
X90740737Y-102909001D01*
X90740737Y-102909001D02*
X90796441Y-102909301D01*
X90796441Y-102909301D02*
X90848580Y-102928662D01*
X90848580Y-102928662D02*
X90880530Y-102959750D01*
X90880530Y-102959750D02*
X90916196Y-102997102D01*
X90916196Y-102997102D02*
X90967513Y-103011533D01*
X90967513Y-103011533D02*
X90998099Y-103012667D01*
X90998099Y-103012667D02*
X91064180Y-103003629D01*
X91064180Y-103003629D02*
X91093051Y-102975134D01*
X91093051Y-102975134D02*
X91085836Y-102925107D01*
X91085836Y-102925107D02*
X91066370Y-102886773D01*
X91066370Y-102886773D02*
X91002743Y-102819845D01*
X91002743Y-102819845D02*
X90907395Y-102777753D01*
X90907395Y-102777753D02*
X90783687Y-102761645D01*
X90783687Y-102761645D02*
X90706622Y-102764126D01*
X90706622Y-102764126D02*
X90706622Y-102764126D01*
G36*
X91121458Y-103312433D02*
G01*
X91105496Y-103378487D01*
X91060128Y-103437628D01*
X91050867Y-103446700D01*
X91007274Y-103480340D01*
X90958247Y-103495742D01*
X90885503Y-103499370D01*
X90845925Y-103497577D01*
X90768325Y-103485683D01*
X90709674Y-103466349D01*
X90661626Y-103447841D01*
X90639118Y-103455896D01*
X90631889Y-103462867D01*
X90592748Y-103473975D01*
X90532861Y-103478375D01*
X90434083Y-103478416D01*
X90443667Y-103210446D01*
X90656333Y-103210446D01*
X90664611Y-103252394D01*
X90693375Y-103304816D01*
X90735502Y-103340031D01*
X90795250Y-103360870D01*
X90851745Y-103356439D01*
X90893826Y-103328149D01*
X90910333Y-103277408D01*
X90903994Y-103242518D01*
X90877767Y-103214374D01*
X90824152Y-103192819D01*
X90735708Y-103173420D01*
X90725075Y-103171509D01*
X90678873Y-103166476D01*
X90659965Y-103177587D01*
X90656333Y-103210446D01*
X90443667Y-103210446D01*
X90444667Y-103182479D01*
X90445642Y-103155446D01*
X90450152Y-103045220D01*
X90455240Y-102967893D01*
X90462382Y-102915634D01*
X90473052Y-102880613D01*
X90488726Y-102854998D01*
X90510878Y-102830957D01*
X90524299Y-102818315D01*
X90566457Y-102790482D01*
X90622495Y-102774037D01*
X90706622Y-102764126D01*
X90783687Y-102761645D01*
X90907395Y-102777753D01*
X91002743Y-102819845D01*
X91066370Y-102886773D01*
X91085836Y-102925107D01*
X91093051Y-102975134D01*
X91064180Y-103003629D01*
X90998099Y-103012667D01*
X90967513Y-103011533D01*
X90916196Y-102997102D01*
X90880530Y-102959750D01*
X90848580Y-102928662D01*
X90796441Y-102909301D01*
X90740737Y-102909001D01*
X90692609Y-102925633D01*
X90663197Y-102957070D01*
X90663642Y-103001183D01*
X90666532Y-103008136D01*
X90676355Y-103021676D01*
X90696547Y-103032830D01*
X90734917Y-103044145D01*
X90799276Y-103058170D01*
X90897432Y-103077452D01*
X90975729Y-103098044D01*
X91058730Y-103142629D01*
X91106618Y-103206632D01*
X91119289Y-103277408D01*
X91122000Y-103292553D01*
X91121458Y-103312433D01*
G37*
X91121458Y-103312433D02*
X91105496Y-103378487D01*
X91060128Y-103437628D01*
X91050867Y-103446700D01*
X91007274Y-103480340D01*
X90958247Y-103495742D01*
X90885503Y-103499370D01*
X90845925Y-103497577D01*
X90768325Y-103485683D01*
X90709674Y-103466349D01*
X90661626Y-103447841D01*
X90639118Y-103455896D01*
X90631889Y-103462867D01*
X90592748Y-103473975D01*
X90532861Y-103478375D01*
X90434083Y-103478416D01*
X90443667Y-103210446D01*
X90656333Y-103210446D01*
X90664611Y-103252394D01*
X90693375Y-103304816D01*
X90735502Y-103340031D01*
X90795250Y-103360870D01*
X90851745Y-103356439D01*
X90893826Y-103328149D01*
X90910333Y-103277408D01*
X90903994Y-103242518D01*
X90877767Y-103214374D01*
X90824152Y-103192819D01*
X90735708Y-103173420D01*
X90725075Y-103171509D01*
X90678873Y-103166476D01*
X90659965Y-103177587D01*
X90656333Y-103210446D01*
X90443667Y-103210446D01*
X90444667Y-103182479D01*
X90445642Y-103155446D01*
X90450152Y-103045220D01*
X90455240Y-102967893D01*
X90462382Y-102915634D01*
X90473052Y-102880613D01*
X90488726Y-102854998D01*
X90510878Y-102830957D01*
X90524299Y-102818315D01*
X90566457Y-102790482D01*
X90622495Y-102774037D01*
X90706622Y-102764126D01*
X90783687Y-102761645D01*
X90907395Y-102777753D01*
X91002743Y-102819845D01*
X91066370Y-102886773D01*
X91085836Y-102925107D01*
X91093051Y-102975134D01*
X91064180Y-103003629D01*
X90998099Y-103012667D01*
X90967513Y-103011533D01*
X90916196Y-102997102D01*
X90880530Y-102959750D01*
X90848580Y-102928662D01*
X90796441Y-102909301D01*
X90740737Y-102909001D01*
X90692609Y-102925633D01*
X90663197Y-102957070D01*
X90663642Y-103001183D01*
X90666532Y-103008136D01*
X90676355Y-103021676D01*
X90696547Y-103032830D01*
X90734917Y-103044145D01*
X90799276Y-103058170D01*
X90897432Y-103077452D01*
X90975729Y-103098044D01*
X91058730Y-103142629D01*
X91106618Y-103206632D01*
X91119289Y-103277408D01*
X91122000Y-103292553D01*
X91121458Y-103312433D01*
X84412693Y-104422575D02*
X84316617Y-104462860D01*
X84316617Y-104462860D02*
X84247209Y-104535602D01*
X84247209Y-104535602D02*
X84205290Y-104639960D01*
X84205290Y-104639960D02*
X84191672Y-104767974D01*
X84191672Y-104767974D02*
X84206781Y-104927753D01*
X84206781Y-104927753D02*
X84251079Y-105070657D01*
X84251079Y-105070657D02*
X84321113Y-105191642D01*
X84321113Y-105191642D02*
X84413427Y-105285667D01*
X84413427Y-105285667D02*
X84524569Y-105347687D01*
X84524569Y-105347687D02*
X84602667Y-105368052D01*
X84602667Y-105368052D02*
X84670257Y-105371416D01*
X84670257Y-105371416D02*
X84730078Y-105363459D01*
X84730078Y-105363459D02*
X84730903Y-105363213D01*
X84730903Y-105363213D02*
X84818811Y-105327603D01*
X84818811Y-105327603D02*
X84879232Y-105277351D01*
X84879232Y-105277351D02*
X84922584Y-105209262D01*
X84922584Y-105209262D02*
X84946275Y-105154724D01*
X84946275Y-105154724D02*
X84958363Y-105099469D01*
X84958363Y-105099469D02*
X84960943Y-105028491D01*
X84960943Y-105028491D02*
X84957923Y-104956300D01*
X84957923Y-104956300D02*
X84933354Y-104794423D01*
X84933354Y-104794423D02*
X84881463Y-104656706D01*
X84881463Y-104656706D02*
X84804957Y-104546611D01*
X84804957Y-104546611D02*
X84706545Y-104467597D01*
X84706545Y-104467597D02*
X84588937Y-104423124D01*
X84588937Y-104423124D02*
X84534617Y-104415589D01*
X84534617Y-104415589D02*
X84412693Y-104422575D01*
X84412693Y-104422575D02*
X84412693Y-104422575D01*
G36*
X84588937Y-104423124D02*
G01*
X84706545Y-104467597D01*
X84804957Y-104546611D01*
X84881463Y-104656706D01*
X84933354Y-104794423D01*
X84957923Y-104956300D01*
X84960943Y-105028491D01*
X84958363Y-105099469D01*
X84946275Y-105154724D01*
X84922584Y-105209262D01*
X84879232Y-105277351D01*
X84818811Y-105327603D01*
X84730903Y-105363213D01*
X84730078Y-105363459D01*
X84670257Y-105371416D01*
X84602667Y-105368052D01*
X84524569Y-105347687D01*
X84413427Y-105285667D01*
X84321113Y-105191642D01*
X84251079Y-105070657D01*
X84206781Y-104927753D01*
X84191672Y-104767974D01*
X84205290Y-104639960D01*
X84247209Y-104535602D01*
X84316617Y-104462860D01*
X84412693Y-104422575D01*
X84534617Y-104415589D01*
X84588937Y-104423124D01*
G37*
X84588937Y-104423124D02*
X84706545Y-104467597D01*
X84804957Y-104546611D01*
X84881463Y-104656706D01*
X84933354Y-104794423D01*
X84957923Y-104956300D01*
X84960943Y-105028491D01*
X84958363Y-105099469D01*
X84946275Y-105154724D01*
X84922584Y-105209262D01*
X84879232Y-105277351D01*
X84818811Y-105327603D01*
X84730903Y-105363213D01*
X84730078Y-105363459D01*
X84670257Y-105371416D01*
X84602667Y-105368052D01*
X84524569Y-105347687D01*
X84413427Y-105285667D01*
X84321113Y-105191642D01*
X84251079Y-105070657D01*
X84206781Y-104927753D01*
X84191672Y-104767974D01*
X84205290Y-104639960D01*
X84247209Y-104535602D01*
X84316617Y-104462860D01*
X84412693Y-104422575D01*
X84534617Y-104415589D01*
X84588937Y-104423124D01*
X86615628Y-102761698D02*
X86597982Y-102778434D01*
X86597982Y-102778434D02*
X86592655Y-102820341D01*
X86592655Y-102820341D02*
X86592333Y-102853917D01*
X86592333Y-102853917D02*
X86594061Y-102912476D01*
X86594061Y-102912476D02*
X86604787Y-102940303D01*
X86604787Y-102940303D02*
X86632828Y-102948992D01*
X86632828Y-102948992D02*
X86661125Y-102949840D01*
X86661125Y-102949840D02*
X86733897Y-102960697D01*
X86733897Y-102960697D02*
X86786358Y-102994592D01*
X86786358Y-102994592D02*
X86820952Y-103055969D01*
X86820952Y-103055969D02*
X86840125Y-103149271D01*
X86840125Y-103149271D02*
X86846320Y-103278940D01*
X86846320Y-103278940D02*
X86846333Y-103286442D01*
X86846333Y-103286442D02*
X86846333Y-103478334D01*
X86846333Y-103478334D02*
X87058000Y-103478334D01*
X87058000Y-103478334D02*
X87058000Y-102779834D01*
X87058000Y-102779834D02*
X86962750Y-102779834D01*
X86962750Y-102779834D02*
X86903141Y-102782652D01*
X86903141Y-102782652D02*
X86874966Y-102794232D01*
X86874966Y-102794232D02*
X86867522Y-102819259D01*
X86867522Y-102819259D02*
X86867500Y-102821529D01*
X86867500Y-102821529D02*
X86864942Y-102845533D01*
X86864942Y-102845533D02*
X86851009Y-102848215D01*
X86851009Y-102848215D02*
X86816311Y-102828285D01*
X86816311Y-102828285D02*
X86790463Y-102810946D01*
X86790463Y-102810946D02*
X86727824Y-102777807D01*
X86727824Y-102777807D02*
X86666869Y-102759770D01*
X86666869Y-102759770D02*
X86652880Y-102758667D01*
X86652880Y-102758667D02*
X86615628Y-102761698D01*
X86615628Y-102761698D02*
X86615628Y-102761698D01*
G36*
X86666869Y-102759770D02*
G01*
X86727824Y-102777807D01*
X86790463Y-102810946D01*
X86816311Y-102828285D01*
X86851009Y-102848215D01*
X86864942Y-102845533D01*
X86867500Y-102821529D01*
X86867522Y-102819259D01*
X86874966Y-102794232D01*
X86903141Y-102782652D01*
X86962750Y-102779834D01*
X87058000Y-102779834D01*
X87058000Y-103478334D01*
X86846333Y-103478334D01*
X86846333Y-103286442D01*
X86846320Y-103278940D01*
X86840125Y-103149271D01*
X86820952Y-103055969D01*
X86786358Y-102994592D01*
X86733897Y-102960697D01*
X86661125Y-102949840D01*
X86632828Y-102948992D01*
X86604787Y-102940303D01*
X86594061Y-102912476D01*
X86592333Y-102853917D01*
X86592655Y-102820341D01*
X86597982Y-102778434D01*
X86615628Y-102761698D01*
X86652880Y-102758667D01*
X86666869Y-102759770D01*
G37*
X86666869Y-102759770D02*
X86727824Y-102777807D01*
X86790463Y-102810946D01*
X86816311Y-102828285D01*
X86851009Y-102848215D01*
X86864942Y-102845533D01*
X86867500Y-102821529D01*
X86867522Y-102819259D01*
X86874966Y-102794232D01*
X86903141Y-102782652D01*
X86962750Y-102779834D01*
X87058000Y-102779834D01*
X87058000Y-103478334D01*
X86846333Y-103478334D01*
X86846333Y-103286442D01*
X86846320Y-103278940D01*
X86840125Y-103149271D01*
X86820952Y-103055969D01*
X86786358Y-102994592D01*
X86733897Y-102960697D01*
X86661125Y-102949840D01*
X86632828Y-102948992D01*
X86604787Y-102940303D01*
X86594061Y-102912476D01*
X86592333Y-102853917D01*
X86592655Y-102820341D01*
X86597982Y-102778434D01*
X86615628Y-102761698D01*
X86652880Y-102758667D01*
X86666869Y-102759770D01*
X89619167Y-103478334D02*
X89714417Y-103478334D01*
X89714417Y-103478334D02*
X89776320Y-103474501D01*
X89776320Y-103474501D02*
X89804914Y-103461025D01*
X89804914Y-103461025D02*
X89809667Y-103445047D01*
X89809667Y-103445047D02*
X89815095Y-103426694D01*
X89815095Y-103426694D02*
X89837068Y-103434655D01*
X89837068Y-103434655D02*
X89865438Y-103455631D01*
X89865438Y-103455631D02*
X89941562Y-103491285D01*
X89941562Y-103491285D02*
X90034594Y-103500163D01*
X90034594Y-103500163D02*
X90128804Y-103482444D01*
X90128804Y-103482444D02*
X90190678Y-103451875D01*
X90190678Y-103451875D02*
X90271795Y-103374376D01*
X90271795Y-103374376D02*
X90320613Y-103273138D01*
X90320613Y-103273138D02*
X90338661Y-103144827D01*
X90338661Y-103144827D02*
X90338796Y-103132391D01*
X90338796Y-103132391D02*
X90127167Y-103132391D01*
X90127167Y-103132391D02*
X90123155Y-103207777D01*
X90123155Y-103207777D02*
X90107702Y-103257790D01*
X90107702Y-103257790D02*
X90075676Y-103298914D01*
X90075676Y-103298914D02*
X90075212Y-103299379D01*
X90075212Y-103299379D02*
X90027176Y-103335167D01*
X90027176Y-103335167D02*
X89981367Y-103351264D01*
X89981367Y-103351264D02*
X89979000Y-103351334D01*
X89979000Y-103351334D02*
X89934136Y-103336955D01*
X89934136Y-103336955D02*
X89885545Y-103302076D01*
X89885545Y-103302076D02*
X89882788Y-103299379D01*
X89882788Y-103299379D02*
X89850552Y-103258261D01*
X89850552Y-103258261D02*
X89834943Y-103208436D01*
X89834943Y-103208436D02*
X89830834Y-103133418D01*
X89830834Y-103133418D02*
X89830833Y-103132391D01*
X89830833Y-103132391D02*
X89841920Y-103029345D01*
X89841920Y-103029345D02*
X89875841Y-102961143D01*
X89875841Y-102961143D02*
X89933595Y-102926363D01*
X89933595Y-102926363D02*
X89979000Y-102920945D01*
X89979000Y-102920945D02*
X90051208Y-102936765D01*
X90051208Y-102936765D02*
X90098999Y-102985174D01*
X90098999Y-102985174D02*
X90123370Y-103067593D01*
X90123370Y-103067593D02*
X90127167Y-103132391D01*
X90127167Y-103132391D02*
X90338796Y-103132391D01*
X90338796Y-103132391D02*
X90338833Y-103129084D01*
X90338833Y-103129084D02*
X90324042Y-102997624D01*
X90324042Y-102997624D02*
X90278649Y-102893601D01*
X90278649Y-102893601D02*
X90201121Y-102813679D01*
X90201121Y-102813679D02*
X90190678Y-102806292D01*
X90190678Y-102806292D02*
X90098511Y-102767185D01*
X90098511Y-102767185D02*
X89995096Y-102761255D01*
X89995096Y-102761255D02*
X89896493Y-102789329D01*
X89896493Y-102789329D02*
X89893282Y-102790960D01*
X89893282Y-102790960D02*
X89830833Y-102823254D01*
X89830833Y-102823254D02*
X89830833Y-102504667D01*
X89830833Y-102504667D02*
X89619167Y-102504667D01*
X89619167Y-102504667D02*
X89619167Y-103478334D01*
X89619167Y-103478334D02*
X89619167Y-103478334D01*
G36*
X90320613Y-103273138D02*
G01*
X90271795Y-103374376D01*
X90190678Y-103451875D01*
X90128804Y-103482444D01*
X90034594Y-103500163D01*
X89941562Y-103491285D01*
X89865438Y-103455631D01*
X89837068Y-103434655D01*
X89815095Y-103426694D01*
X89809667Y-103445047D01*
X89804914Y-103461025D01*
X89776320Y-103474501D01*
X89714417Y-103478334D01*
X89619167Y-103478334D01*
X89619167Y-103132391D01*
X89830833Y-103132391D01*
X89830834Y-103133418D01*
X89834943Y-103208436D01*
X89850552Y-103258261D01*
X89882788Y-103299379D01*
X89885545Y-103302076D01*
X89934136Y-103336955D01*
X89979000Y-103351334D01*
X89981367Y-103351264D01*
X90027176Y-103335167D01*
X90075212Y-103299379D01*
X90075676Y-103298914D01*
X90107702Y-103257790D01*
X90123155Y-103207777D01*
X90127167Y-103132391D01*
X90123370Y-103067593D01*
X90098999Y-102985174D01*
X90051208Y-102936765D01*
X89979000Y-102920945D01*
X89933595Y-102926363D01*
X89875841Y-102961143D01*
X89841920Y-103029345D01*
X89830833Y-103132391D01*
X89619167Y-103132391D01*
X89619167Y-102504667D01*
X89830833Y-102504667D01*
X89830833Y-102823254D01*
X89893282Y-102790960D01*
X89896493Y-102789329D01*
X89995096Y-102761255D01*
X90098511Y-102767185D01*
X90190678Y-102806292D01*
X90201121Y-102813679D01*
X90278649Y-102893601D01*
X90324042Y-102997624D01*
X90338833Y-103129084D01*
X90338796Y-103132391D01*
X90338661Y-103144827D01*
X90320613Y-103273138D01*
G37*
X90320613Y-103273138D02*
X90271795Y-103374376D01*
X90190678Y-103451875D01*
X90128804Y-103482444D01*
X90034594Y-103500163D01*
X89941562Y-103491285D01*
X89865438Y-103455631D01*
X89837068Y-103434655D01*
X89815095Y-103426694D01*
X89809667Y-103445047D01*
X89804914Y-103461025D01*
X89776320Y-103474501D01*
X89714417Y-103478334D01*
X89619167Y-103478334D01*
X89619167Y-103132391D01*
X89830833Y-103132391D01*
X89830834Y-103133418D01*
X89834943Y-103208436D01*
X89850552Y-103258261D01*
X89882788Y-103299379D01*
X89885545Y-103302076D01*
X89934136Y-103336955D01*
X89979000Y-103351334D01*
X89981367Y-103351264D01*
X90027176Y-103335167D01*
X90075212Y-103299379D01*
X90075676Y-103298914D01*
X90107702Y-103257790D01*
X90123155Y-103207777D01*
X90127167Y-103132391D01*
X90123370Y-103067593D01*
X90098999Y-102985174D01*
X90051208Y-102936765D01*
X89979000Y-102920945D01*
X89933595Y-102926363D01*
X89875841Y-102961143D01*
X89841920Y-103029345D01*
X89830833Y-103132391D01*
X89619167Y-103132391D01*
X89619167Y-102504667D01*
X89830833Y-102504667D01*
X89830833Y-102823254D01*
X89893282Y-102790960D01*
X89896493Y-102789329D01*
X89995096Y-102761255D01*
X90098511Y-102767185D01*
X90190678Y-102806292D01*
X90201121Y-102813679D01*
X90278649Y-102893601D01*
X90324042Y-102997624D01*
X90338833Y-103129084D01*
X90338796Y-103132391D01*
X90338661Y-103144827D01*
X90320613Y-103273138D01*
X88770494Y-104784846D02*
X88744069Y-104800408D01*
X88744069Y-104800408D02*
X88693217Y-104863617D01*
X88693217Y-104863617D02*
X88667761Y-104949588D01*
X88667761Y-104949588D02*
X88665713Y-105048803D01*
X88665713Y-105048803D02*
X88685081Y-105151743D01*
X88685081Y-105151743D02*
X88723877Y-105248888D01*
X88723877Y-105248888D02*
X88780110Y-105330721D01*
X88780110Y-105330721D02*
X88851792Y-105387721D01*
X88851792Y-105387721D02*
X88868473Y-105395583D01*
X88868473Y-105395583D02*
X88920013Y-105414677D01*
X88920013Y-105414677D02*
X88954059Y-105422895D01*
X88954059Y-105422895D02*
X88957029Y-105422784D01*
X88957029Y-105422784D02*
X88989356Y-105416793D01*
X88989356Y-105416793D02*
X89020787Y-105410784D01*
X89020787Y-105410784D02*
X89084100Y-105379399D01*
X89084100Y-105379399D02*
X89127169Y-105319030D01*
X89127169Y-105319030D02*
X89150187Y-105237767D01*
X89150187Y-105237767D02*
X89153351Y-105143698D01*
X89153351Y-105143698D02*
X89136854Y-105044912D01*
X89136854Y-105044912D02*
X89100892Y-104949498D01*
X89100892Y-104949498D02*
X89045660Y-104865543D01*
X89045660Y-104865543D02*
X89006721Y-104826833D01*
X89006721Y-104826833D02*
X88930809Y-104784009D01*
X88930809Y-104784009D02*
X88847164Y-104769520D01*
X88847164Y-104769520D02*
X88770494Y-104784846D01*
X88770494Y-104784846D02*
X88770494Y-104784846D01*
G36*
X88930809Y-104784009D02*
G01*
X89006721Y-104826833D01*
X89045660Y-104865543D01*
X89100892Y-104949498D01*
X89136854Y-105044912D01*
X89153351Y-105143698D01*
X89150187Y-105237767D01*
X89127169Y-105319030D01*
X89084100Y-105379399D01*
X89020787Y-105410784D01*
X88989356Y-105416793D01*
X88957029Y-105422784D01*
X88954059Y-105422895D01*
X88920013Y-105414677D01*
X88868473Y-105395583D01*
X88851792Y-105387721D01*
X88780110Y-105330721D01*
X88723877Y-105248888D01*
X88685081Y-105151743D01*
X88665713Y-105048803D01*
X88667761Y-104949588D01*
X88693217Y-104863617D01*
X88744069Y-104800408D01*
X88770494Y-104784846D01*
X88847164Y-104769520D01*
X88930809Y-104784009D01*
G37*
X88930809Y-104784009D02*
X89006721Y-104826833D01*
X89045660Y-104865543D01*
X89100892Y-104949498D01*
X89136854Y-105044912D01*
X89153351Y-105143698D01*
X89150187Y-105237767D01*
X89127169Y-105319030D01*
X89084100Y-105379399D01*
X89020787Y-105410784D01*
X88989356Y-105416793D01*
X88957029Y-105422784D01*
X88954059Y-105422895D01*
X88920013Y-105414677D01*
X88868473Y-105395583D01*
X88851792Y-105387721D01*
X88780110Y-105330721D01*
X88723877Y-105248888D01*
X88685081Y-105151743D01*
X88665713Y-105048803D01*
X88667761Y-104949588D01*
X88693217Y-104863617D01*
X88744069Y-104800408D01*
X88770494Y-104784846D01*
X88847164Y-104769520D01*
X88930809Y-104784009D01*
X87973897Y-102507190D02*
X87952625Y-102522898D01*
X87952625Y-102522898D02*
X87947169Y-102563998D01*
X87947169Y-102563998D02*
X87947000Y-102589334D01*
X87947000Y-102589334D02*
X87949583Y-102643660D01*
X87949583Y-102643660D02*
X87963145Y-102667811D01*
X87963145Y-102667811D02*
X87996408Y-102673887D01*
X87996408Y-102673887D02*
X88008031Y-102674000D01*
X88008031Y-102674000D02*
X88059687Y-102685381D01*
X88059687Y-102685381D02*
X88079813Y-102715108D01*
X88079813Y-102715108D02*
X88083262Y-102755924D01*
X88083262Y-102755924D02*
X88060265Y-102775200D01*
X88060265Y-102775200D02*
X88006972Y-102779833D01*
X88006972Y-102779833D02*
X87964091Y-102785695D01*
X87964091Y-102785695D02*
X87948565Y-102812210D01*
X87948565Y-102812210D02*
X87947000Y-102841992D01*
X87947000Y-102841992D02*
X87952542Y-102885648D01*
X87952542Y-102885648D02*
X87977879Y-102904810D01*
X87977879Y-102904810D02*
X88015792Y-102910784D01*
X88015792Y-102910784D02*
X88084583Y-102917417D01*
X88084583Y-102917417D02*
X88090490Y-103197875D01*
X88090490Y-103197875D02*
X88096396Y-103478334D01*
X88096396Y-103478334D02*
X88284438Y-103478334D01*
X88284438Y-103478334D02*
X88290344Y-103197875D01*
X88290344Y-103197875D02*
X88296250Y-102917417D01*
X88296250Y-102917417D02*
X88354458Y-102910719D01*
X88354458Y-102910719D02*
X88396683Y-102898566D01*
X88396683Y-102898566D02*
X88411582Y-102866174D01*
X88411582Y-102866174D02*
X88412667Y-102841928D01*
X88412667Y-102841928D02*
X88407258Y-102797912D01*
X88407258Y-102797912D02*
X88382065Y-102781696D01*
X88382065Y-102781696D02*
X88349167Y-102779834D01*
X88349167Y-102779834D02*
X88304519Y-102774761D01*
X88304519Y-102774761D02*
X88287796Y-102750587D01*
X88287796Y-102750587D02*
X88285667Y-102714942D01*
X88285667Y-102714942D02*
X88278162Y-102652961D01*
X88278162Y-102652961D02*
X88262796Y-102607317D01*
X88262796Y-102607317D02*
X88219338Y-102563333D01*
X88219338Y-102563333D02*
X88148133Y-102527983D01*
X88148133Y-102527983D02*
X88063697Y-102507448D01*
X88063697Y-102507448D02*
X88021763Y-102504667D01*
X88021763Y-102504667D02*
X87973897Y-102507190D01*
X87973897Y-102507190D02*
X87973897Y-102507190D01*
G36*
X88063697Y-102507448D02*
G01*
X88148133Y-102527983D01*
X88219338Y-102563333D01*
X88262796Y-102607317D01*
X88278162Y-102652961D01*
X88285667Y-102714942D01*
X88287796Y-102750587D01*
X88304519Y-102774761D01*
X88349167Y-102779834D01*
X88382065Y-102781696D01*
X88407258Y-102797912D01*
X88412667Y-102841928D01*
X88411582Y-102866174D01*
X88396683Y-102898566D01*
X88354458Y-102910719D01*
X88296250Y-102917417D01*
X88290344Y-103197875D01*
X88284438Y-103478334D01*
X88096396Y-103478334D01*
X88090490Y-103197875D01*
X88084583Y-102917417D01*
X88015792Y-102910784D01*
X87977879Y-102904810D01*
X87952542Y-102885648D01*
X87947000Y-102841992D01*
X87948565Y-102812210D01*
X87964091Y-102785695D01*
X88006972Y-102779833D01*
X88060265Y-102775200D01*
X88083262Y-102755924D01*
X88079813Y-102715108D01*
X88059687Y-102685381D01*
X88008031Y-102674000D01*
X87996408Y-102673887D01*
X87963145Y-102667811D01*
X87949583Y-102643660D01*
X87947000Y-102589334D01*
X87947169Y-102563998D01*
X87952625Y-102522898D01*
X87973897Y-102507190D01*
X88021763Y-102504667D01*
X88063697Y-102507448D01*
G37*
X88063697Y-102507448D02*
X88148133Y-102527983D01*
X88219338Y-102563333D01*
X88262796Y-102607317D01*
X88278162Y-102652961D01*
X88285667Y-102714942D01*
X88287796Y-102750587D01*
X88304519Y-102774761D01*
X88349167Y-102779834D01*
X88382065Y-102781696D01*
X88407258Y-102797912D01*
X88412667Y-102841928D01*
X88411582Y-102866174D01*
X88396683Y-102898566D01*
X88354458Y-102910719D01*
X88296250Y-102917417D01*
X88290344Y-103197875D01*
X88284438Y-103478334D01*
X88096396Y-103478334D01*
X88090490Y-103197875D01*
X88084583Y-102917417D01*
X88015792Y-102910784D01*
X87977879Y-102904810D01*
X87952542Y-102885648D01*
X87947000Y-102841992D01*
X87948565Y-102812210D01*
X87964091Y-102785695D01*
X88006972Y-102779833D01*
X88060265Y-102775200D01*
X88083262Y-102755924D01*
X88079813Y-102715108D01*
X88059687Y-102685381D01*
X88008031Y-102674000D01*
X87996408Y-102673887D01*
X87963145Y-102667811D01*
X87949583Y-102643660D01*
X87947000Y-102589334D01*
X87947169Y-102563998D01*
X87952625Y-102522898D01*
X87973897Y-102507190D01*
X88021763Y-102504667D01*
X88063697Y-102507448D01*
X87072407Y-104775296D02*
X87019989Y-104789797D01*
X87019989Y-104789797D02*
X87009052Y-104795959D01*
X87009052Y-104795959D02*
X86981560Y-104830006D01*
X86981560Y-104830006D02*
X86957735Y-104880753D01*
X86957735Y-104880753D02*
X86943522Y-104931612D01*
X86943522Y-104931612D02*
X86944864Y-104965998D01*
X86944864Y-104965998D02*
X86947046Y-104968990D01*
X86947046Y-104968990D02*
X86974520Y-104976578D01*
X86974520Y-104976578D02*
X87031331Y-104980967D01*
X87031331Y-104980967D02*
X87106895Y-104982428D01*
X87106895Y-104982428D02*
X87190626Y-104981231D01*
X87190626Y-104981231D02*
X87271939Y-104977647D01*
X87271939Y-104977647D02*
X87340248Y-104971946D01*
X87340248Y-104971946D02*
X87384968Y-104964398D01*
X87384968Y-104964398D02*
X87396667Y-104957510D01*
X87396667Y-104957510D02*
X87382709Y-104930403D01*
X87382709Y-104930403D02*
X87346816Y-104885921D01*
X87346816Y-104885921D02*
X87314490Y-104851677D01*
X87314490Y-104851677D02*
X87259537Y-104801979D01*
X87259537Y-104801979D02*
X87212939Y-104777420D01*
X87212939Y-104777420D02*
X87157032Y-104769748D01*
X87157032Y-104769748D02*
X87138619Y-104769500D01*
X87138619Y-104769500D02*
X87072407Y-104775296D01*
X87072407Y-104775296D02*
X87072407Y-104775296D01*
G36*
X87157032Y-104769748D02*
G01*
X87212939Y-104777420D01*
X87259537Y-104801979D01*
X87314490Y-104851677D01*
X87346816Y-104885921D01*
X87382709Y-104930403D01*
X87396667Y-104957510D01*
X87384968Y-104964398D01*
X87340248Y-104971946D01*
X87271939Y-104977647D01*
X87190626Y-104981231D01*
X87106895Y-104982428D01*
X87031331Y-104980967D01*
X86974520Y-104976578D01*
X86947046Y-104968990D01*
X86944864Y-104965998D01*
X86943522Y-104931612D01*
X86957735Y-104880753D01*
X86981560Y-104830006D01*
X87009052Y-104795959D01*
X87019989Y-104789797D01*
X87072407Y-104775296D01*
X87138619Y-104769500D01*
X87157032Y-104769748D01*
G37*
X87157032Y-104769748D02*
X87212939Y-104777420D01*
X87259537Y-104801979D01*
X87314490Y-104851677D01*
X87346816Y-104885921D01*
X87382709Y-104930403D01*
X87396667Y-104957510D01*
X87384968Y-104964398D01*
X87340248Y-104971946D01*
X87271939Y-104977647D01*
X87190626Y-104981231D01*
X87106895Y-104982428D01*
X87031331Y-104980967D01*
X86974520Y-104976578D01*
X86947046Y-104968990D01*
X86944864Y-104965998D01*
X86943522Y-104931612D01*
X86957735Y-104880753D01*
X86981560Y-104830006D01*
X87009052Y-104795959D01*
X87019989Y-104789797D01*
X87072407Y-104775296D01*
X87138619Y-104769500D01*
X87157032Y-104769748D01*
X89046377Y-102771690D02*
X88995844Y-102797889D01*
X88995844Y-102797889D02*
X88986113Y-102804419D01*
X88986113Y-102804419D02*
X88896076Y-102882527D01*
X88896076Y-102882527D02*
X88842373Y-102972089D01*
X88842373Y-102972089D02*
X88819768Y-103074590D01*
X88819768Y-103074590D02*
X88809447Y-103182000D01*
X88809447Y-103182000D02*
X89055557Y-103182000D01*
X89055557Y-103182000D02*
X89160934Y-103182481D01*
X89160934Y-103182481D02*
X89231081Y-103184707D01*
X89231081Y-103184707D02*
X89273099Y-103189858D01*
X89273099Y-103189858D02*
X89294086Y-103199109D01*
X89294086Y-103199109D02*
X89301143Y-103213640D01*
X89301143Y-103213640D02*
X89301667Y-103222822D01*
X89301667Y-103222822D02*
X89283838Y-103283289D01*
X89283838Y-103283289D02*
X89237107Y-103323710D01*
X89237107Y-103323710D02*
X89171606Y-103340418D01*
X89171606Y-103340418D02*
X89097470Y-103329748D01*
X89097470Y-103329748D02*
X89057283Y-103311234D01*
X89057283Y-103311234D02*
X88978238Y-103279210D01*
X88978238Y-103279210D02*
X88896342Y-103266667D01*
X88896342Y-103266667D02*
X88810937Y-103266667D01*
X88810937Y-103266667D02*
X88851071Y-103335387D01*
X88851071Y-103335387D02*
X88922909Y-103419043D01*
X88922909Y-103419043D02*
X89019075Y-103475347D01*
X89019075Y-103475347D02*
X89129612Y-103501776D01*
X89129612Y-103501776D02*
X89244563Y-103495811D01*
X89244563Y-103495811D02*
X89344330Y-103460255D01*
X89344330Y-103460255D02*
X89402825Y-103415919D01*
X89402825Y-103415919D02*
X89456106Y-103354767D01*
X89456106Y-103354767D02*
X89466545Y-103338547D01*
X89466545Y-103338547D02*
X89494068Y-103282846D01*
X89494068Y-103282846D02*
X89507366Y-103225845D01*
X89507366Y-103225845D02*
X89509601Y-103150502D01*
X89509601Y-103150502D02*
X89508225Y-103113885D01*
X89508225Y-103113885D02*
X89490394Y-103003804D01*
X89490394Y-103003804D02*
X89301275Y-103003804D01*
X89301275Y-103003804D02*
X89298566Y-103032474D01*
X89298566Y-103032474D02*
X89258410Y-103048950D01*
X89258410Y-103048950D02*
X89178941Y-103054909D01*
X89178941Y-103054909D02*
X89164083Y-103055000D01*
X89164083Y-103055000D02*
X89084237Y-103052341D01*
X89084237Y-103052341D02*
X89040396Y-103043530D01*
X89040396Y-103043530D02*
X89026518Y-103027316D01*
X89026518Y-103027316D02*
X89026500Y-103026531D01*
X89026500Y-103026531D02*
X89044824Y-102978171D01*
X89044824Y-102978171D02*
X89091148Y-102943967D01*
X89091148Y-102943967D02*
X89152502Y-102927417D01*
X89152502Y-102927417D02*
X89215918Y-102932022D01*
X89215918Y-102932022D02*
X89268405Y-102961262D01*
X89268405Y-102961262D02*
X89301275Y-103003804D01*
X89301275Y-103003804D02*
X89490394Y-103003804D01*
X89490394Y-103003804D02*
X89486954Y-102982574D01*
X89486954Y-102982574D02*
X89436870Y-102882209D01*
X89436870Y-102882209D02*
X89357535Y-102812326D01*
X89357535Y-102812326D02*
X89248514Y-102772459D01*
X89248514Y-102772459D02*
X89180243Y-102763456D01*
X89180243Y-102763456D02*
X89101726Y-102761503D01*
X89101726Y-102761503D02*
X89046377Y-102771690D01*
X89046377Y-102771690D02*
X89046377Y-102771690D01*
G36*
X89509601Y-103150502D02*
G01*
X89507366Y-103225845D01*
X89494068Y-103282846D01*
X89466545Y-103338547D01*
X89456106Y-103354767D01*
X89402825Y-103415919D01*
X89344330Y-103460255D01*
X89244563Y-103495811D01*
X89129612Y-103501776D01*
X89019075Y-103475347D01*
X88922909Y-103419043D01*
X88851071Y-103335387D01*
X88810937Y-103266667D01*
X88896342Y-103266667D01*
X88978238Y-103279210D01*
X89057283Y-103311234D01*
X89097470Y-103329748D01*
X89171606Y-103340418D01*
X89237107Y-103323710D01*
X89283838Y-103283289D01*
X89301667Y-103222822D01*
X89301143Y-103213640D01*
X89294086Y-103199109D01*
X89273099Y-103189858D01*
X89231081Y-103184707D01*
X89160934Y-103182481D01*
X89055557Y-103182000D01*
X88809447Y-103182000D01*
X88819768Y-103074590D01*
X88830367Y-103026531D01*
X89026500Y-103026531D01*
X89026518Y-103027316D01*
X89040396Y-103043530D01*
X89084237Y-103052341D01*
X89164083Y-103055000D01*
X89178941Y-103054909D01*
X89258410Y-103048950D01*
X89298566Y-103032474D01*
X89301275Y-103003804D01*
X89268405Y-102961262D01*
X89215918Y-102932022D01*
X89152502Y-102927417D01*
X89091148Y-102943967D01*
X89044824Y-102978171D01*
X89026500Y-103026531D01*
X88830367Y-103026531D01*
X88842373Y-102972089D01*
X88896076Y-102882527D01*
X88986113Y-102804419D01*
X88995844Y-102797889D01*
X89046377Y-102771690D01*
X89101726Y-102761503D01*
X89180243Y-102763456D01*
X89248514Y-102772459D01*
X89357535Y-102812326D01*
X89436870Y-102882209D01*
X89486954Y-102982574D01*
X89490394Y-103003804D01*
X89508225Y-103113885D01*
X89509601Y-103150502D01*
G37*
X89509601Y-103150502D02*
X89507366Y-103225845D01*
X89494068Y-103282846D01*
X89466545Y-103338547D01*
X89456106Y-103354767D01*
X89402825Y-103415919D01*
X89344330Y-103460255D01*
X89244563Y-103495811D01*
X89129612Y-103501776D01*
X89019075Y-103475347D01*
X88922909Y-103419043D01*
X88851071Y-103335387D01*
X88810937Y-103266667D01*
X88896342Y-103266667D01*
X88978238Y-103279210D01*
X89057283Y-103311234D01*
X89097470Y-103329748D01*
X89171606Y-103340418D01*
X89237107Y-103323710D01*
X89283838Y-103283289D01*
X89301667Y-103222822D01*
X89301143Y-103213640D01*
X89294086Y-103199109D01*
X89273099Y-103189858D01*
X89231081Y-103184707D01*
X89160934Y-103182481D01*
X89055557Y-103182000D01*
X88809447Y-103182000D01*
X88819768Y-103074590D01*
X88830367Y-103026531D01*
X89026500Y-103026531D01*
X89026518Y-103027316D01*
X89040396Y-103043530D01*
X89084237Y-103052341D01*
X89164083Y-103055000D01*
X89178941Y-103054909D01*
X89258410Y-103048950D01*
X89298566Y-103032474D01*
X89301275Y-103003804D01*
X89268405Y-102961262D01*
X89215918Y-102932022D01*
X89152502Y-102927417D01*
X89091148Y-102943967D01*
X89044824Y-102978171D01*
X89026500Y-103026531D01*
X88830367Y-103026531D01*
X88842373Y-102972089D01*
X88896076Y-102882527D01*
X88986113Y-102804419D01*
X88995844Y-102797889D01*
X89046377Y-102771690D01*
X89101726Y-102761503D01*
X89180243Y-102763456D01*
X89248514Y-102772459D01*
X89357535Y-102812326D01*
X89436870Y-102882209D01*
X89486954Y-102982574D01*
X89490394Y-103003804D01*
X89508225Y-103113885D01*
X89509601Y-103150502D01*
X84838736Y-103649923D02*
X84542345Y-103650256D01*
X84542345Y-103650256D02*
X84275084Y-103650888D01*
X84275084Y-103650888D02*
X84035302Y-103651861D01*
X84035302Y-103651861D02*
X83821350Y-103653214D01*
X83821350Y-103653214D02*
X83631576Y-103654986D01*
X83631576Y-103654986D02*
X83464331Y-103657218D01*
X83464331Y-103657218D02*
X83317963Y-103659949D01*
X83317963Y-103659949D02*
X83190823Y-103663220D01*
X83190823Y-103663220D02*
X83081260Y-103667070D01*
X83081260Y-103667070D02*
X82987624Y-103671540D01*
X82987624Y-103671540D02*
X82908265Y-103676668D01*
X82908265Y-103676668D02*
X82841531Y-103682495D01*
X82841531Y-103682495D02*
X82785772Y-103689061D01*
X82785772Y-103689061D02*
X82739339Y-103696405D01*
X82739339Y-103696405D02*
X82700580Y-103704568D01*
X82700580Y-103704568D02*
X82667846Y-103713589D01*
X82667846Y-103713589D02*
X82639485Y-103723508D01*
X82639485Y-103723508D02*
X82613847Y-103734366D01*
X82613847Y-103734366D02*
X82589283Y-103746202D01*
X82589283Y-103746202D02*
X82564141Y-103759055D01*
X82564141Y-103759055D02*
X82536771Y-103772966D01*
X82536771Y-103772966D02*
X82518495Y-103781884D01*
X82518495Y-103781884D02*
X82322468Y-103898275D01*
X82322468Y-103898275D02*
X82153169Y-104046096D01*
X82153169Y-104046096D02*
X82013144Y-104222031D01*
X82013144Y-104222031D02*
X81904942Y-104422762D01*
X81904942Y-104422762D02*
X81831109Y-104644971D01*
X81831109Y-104644971D02*
X81820999Y-104690202D01*
X81820999Y-104690202D02*
X81792287Y-104908358D01*
X81792287Y-104908358D02*
X81800119Y-105116590D01*
X81800119Y-105116590D02*
X81845566Y-105322760D01*
X81845566Y-105322760D02*
X81929696Y-105534729D01*
X81929696Y-105534729D02*
X81938372Y-105552667D01*
X81938372Y-105552667D02*
X82032249Y-105709304D01*
X82032249Y-105709304D02*
X82153419Y-105858352D01*
X82153419Y-105858352D02*
X82291912Y-105989508D01*
X82291912Y-105989508D02*
X82437756Y-106092466D01*
X82437756Y-106092466D02*
X82486000Y-106118599D01*
X82486000Y-106118599D02*
X82514328Y-106133258D01*
X82514328Y-106133258D02*
X82539270Y-106146810D01*
X82539270Y-106146810D02*
X82562499Y-106159301D01*
X82562499Y-106159301D02*
X82585684Y-106170775D01*
X82585684Y-106170775D02*
X82610497Y-106181276D01*
X82610497Y-106181276D02*
X82638606Y-106190849D01*
X82638606Y-106190849D02*
X82671684Y-106199539D01*
X82671684Y-106199539D02*
X82711400Y-106207390D01*
X82711400Y-106207390D02*
X82759424Y-106214448D01*
X82759424Y-106214448D02*
X82817429Y-106220756D01*
X82817429Y-106220756D02*
X82887083Y-106226359D01*
X82887083Y-106226359D02*
X82970057Y-106231302D01*
X82970057Y-106231302D02*
X83068022Y-106235630D01*
X83068022Y-106235630D02*
X83182648Y-106239386D01*
X83182648Y-106239386D02*
X83315606Y-106242617D01*
X83315606Y-106242617D02*
X83468567Y-106245365D01*
X83468567Y-106245365D02*
X83643200Y-106247677D01*
X83643200Y-106247677D02*
X83841176Y-106249596D01*
X83841176Y-106249596D02*
X84064166Y-106251168D01*
X84064166Y-106251168D02*
X84313840Y-106252436D01*
X84313840Y-106252436D02*
X84591869Y-106253446D01*
X84591869Y-106253446D02*
X84899922Y-106254241D01*
X84899922Y-106254241D02*
X85239672Y-106254868D01*
X85239672Y-106254868D02*
X85612788Y-106255370D01*
X85612788Y-106255370D02*
X86020940Y-106255791D01*
X86020940Y-106255791D02*
X86465799Y-106256177D01*
X86465799Y-106256177D02*
X86949036Y-106256573D01*
X86949036Y-106256573D02*
X87472320Y-106257022D01*
X87472320Y-106257022D02*
X87675280Y-106257210D01*
X87675280Y-106257210D02*
X88124811Y-106257581D01*
X88124811Y-106257581D02*
X88564311Y-106257835D01*
X88564311Y-106257835D02*
X88991812Y-106257976D01*
X88991812Y-106257976D02*
X89405345Y-106258007D01*
X89405345Y-106258007D02*
X89802943Y-106257931D01*
X89802943Y-106257931D02*
X90182639Y-106257751D01*
X90182639Y-106257751D02*
X90542465Y-106257470D01*
X90542465Y-106257470D02*
X90880452Y-106257091D01*
X90880452Y-106257091D02*
X91194633Y-106256618D01*
X91194633Y-106256618D02*
X91483041Y-106256054D01*
X91483041Y-106256054D02*
X91743708Y-106255401D01*
X91743708Y-106255401D02*
X91974665Y-106254663D01*
X91974665Y-106254663D02*
X92173946Y-106253843D01*
X92173946Y-106253843D02*
X92339583Y-106252945D01*
X92339583Y-106252945D02*
X92469607Y-106251970D01*
X92469607Y-106251970D02*
X92562051Y-106250923D01*
X92562051Y-106250923D02*
X92614948Y-106249807D01*
X92614948Y-106249807D02*
X92624833Y-106249323D01*
X92624833Y-106249323D02*
X92820694Y-106221820D01*
X92820694Y-106221820D02*
X92993947Y-106169066D01*
X92993947Y-106169066D02*
X93157340Y-106086045D01*
X93157340Y-106086045D02*
X93305131Y-105982217D01*
X93305131Y-105982217D02*
X89624480Y-105982217D01*
X89624480Y-105982217D02*
X89600391Y-105989865D01*
X89600391Y-105989865D02*
X89545962Y-105993651D01*
X89545962Y-105993651D02*
X89474577Y-105992801D01*
X89474577Y-105992801D02*
X89333629Y-105986584D01*
X89333629Y-105986584D02*
X89282803Y-105747677D01*
X89282803Y-105747677D02*
X89231976Y-105508770D01*
X89231976Y-105508770D02*
X89187446Y-105549240D01*
X89187446Y-105549240D02*
X89114768Y-105602759D01*
X89114768Y-105602759D02*
X89035433Y-105631253D01*
X89035433Y-105631253D02*
X88933565Y-105640135D01*
X88933565Y-105640135D02*
X88920862Y-105640150D01*
X88920862Y-105640150D02*
X88771671Y-105620475D01*
X88771671Y-105620475D02*
X88690358Y-105585135D01*
X88690358Y-105585135D02*
X88285667Y-105585135D01*
X88285667Y-105585135D02*
X88276176Y-105602276D01*
X88276176Y-105602276D02*
X88242654Y-105611979D01*
X88242654Y-105611979D02*
X88177526Y-105615872D01*
X88177526Y-105615872D02*
X88141277Y-105616167D01*
X88141277Y-105616167D02*
X87996886Y-105616167D01*
X87996886Y-105616167D02*
X87905218Y-105185419D01*
X87905218Y-105185419D02*
X87724376Y-105185419D01*
X87724376Y-105185419D02*
X87710679Y-105311319D01*
X87710679Y-105311319D02*
X87671489Y-105425117D01*
X87671489Y-105425117D02*
X87606221Y-105520028D01*
X87606221Y-105520028D02*
X87515188Y-105588802D01*
X87515188Y-105588802D02*
X87391816Y-105631149D01*
X87391816Y-105631149D02*
X87250767Y-105644297D01*
X87250767Y-105644297D02*
X87104762Y-105628504D01*
X87104762Y-105628504D02*
X86987762Y-105590863D01*
X86987762Y-105590863D02*
X86585131Y-105590863D01*
X86585131Y-105590863D02*
X86578134Y-105605807D01*
X86578134Y-105605807D02*
X86551515Y-105613279D01*
X86551515Y-105613279D02*
X86497266Y-105615870D01*
X86497266Y-105615870D02*
X86424904Y-105616167D01*
X86424904Y-105616167D02*
X86256668Y-105616167D01*
X86256668Y-105616167D02*
X86231574Y-105494459D01*
X86231574Y-105494459D02*
X86214285Y-105411457D01*
X86214285Y-105411457D02*
X86192634Y-105308681D01*
X86192634Y-105308681D02*
X86171174Y-105207738D01*
X86171174Y-105207738D02*
X86170249Y-105203417D01*
X86170249Y-105203417D02*
X86134019Y-105034084D01*
X86134019Y-105034084D02*
X85825478Y-105028238D01*
X85825478Y-105028238D02*
X85702668Y-105025934D01*
X85702668Y-105025934D02*
X85615507Y-105022373D01*
X85615507Y-105022373D02*
X85557349Y-105014458D01*
X85557349Y-105014458D02*
X85521548Y-104999093D01*
X85521548Y-104999093D02*
X85510139Y-104984376D01*
X85510139Y-104984376D02*
X85299155Y-104984376D01*
X85299155Y-104984376D02*
X85296584Y-105082386D01*
X85296584Y-105082386D02*
X85267978Y-105249914D01*
X85267978Y-105249914D02*
X85208225Y-105388801D01*
X85208225Y-105388801D02*
X85117397Y-105498962D01*
X85117397Y-105498962D02*
X84995566Y-105580314D01*
X84995566Y-105580314D02*
X84842803Y-105632773D01*
X84842803Y-105632773D02*
X84824917Y-105636612D01*
X84824917Y-105636612D02*
X84658429Y-105654998D01*
X84658429Y-105654998D02*
X84496662Y-105638335D01*
X84496662Y-105638335D02*
X84448373Y-105627022D01*
X84448373Y-105627022D02*
X84285915Y-105564072D01*
X84285915Y-105564072D02*
X84146613Y-105467831D01*
X84146613Y-105467831D02*
X84032667Y-105341788D01*
X84032667Y-105341788D02*
X83946280Y-105189436D01*
X83946280Y-105189436D02*
X83889651Y-105014265D01*
X83889651Y-105014265D02*
X83885676Y-104982916D01*
X83885676Y-104982916D02*
X83711689Y-104982916D01*
X83711689Y-104982916D02*
X83710007Y-105060190D01*
X83710007Y-105060190D02*
X83703200Y-105160066D01*
X83703200Y-105160066D02*
X83691651Y-105232826D01*
X83691651Y-105232826D02*
X83671666Y-105293673D01*
X83671666Y-105293673D02*
X83639554Y-105357813D01*
X83639554Y-105357813D02*
X83636347Y-105363550D01*
X83636347Y-105363550D02*
X83581927Y-105443032D01*
X83581927Y-105443032D02*
X83516945Y-105513669D01*
X83516945Y-105513669D02*
X83484289Y-105540549D01*
X83484289Y-105540549D02*
X83370266Y-105599286D01*
X83370266Y-105599286D02*
X83232294Y-105636256D01*
X83232294Y-105636256D02*
X83083304Y-105650475D01*
X83083304Y-105650475D02*
X82936226Y-105640961D01*
X82936226Y-105640961D02*
X82803992Y-105606730D01*
X82803992Y-105606730D02*
X82775279Y-105594436D01*
X82775279Y-105594436D02*
X82669397Y-105524848D01*
X82669397Y-105524848D02*
X82570030Y-105422843D01*
X82570030Y-105422843D02*
X82484972Y-105298318D01*
X82484972Y-105298318D02*
X82422014Y-105161170D01*
X82422014Y-105161170D02*
X82413232Y-105134625D01*
X82413232Y-105134625D02*
X82407803Y-105110973D01*
X82407803Y-105110973D02*
X82414866Y-105096825D01*
X82414866Y-105096825D02*
X82442299Y-105089741D01*
X82442299Y-105089741D02*
X82497978Y-105087280D01*
X82497978Y-105087280D02*
X82566946Y-105087000D01*
X82566946Y-105087000D02*
X82651034Y-105087740D01*
X82651034Y-105087740D02*
X82702154Y-105091765D01*
X82702154Y-105091765D02*
X82729668Y-105101782D01*
X82729668Y-105101782D02*
X82742940Y-105120496D01*
X82742940Y-105120496D02*
X82748591Y-105139513D01*
X82748591Y-105139513D02*
X82780538Y-105202022D01*
X82780538Y-105202022D02*
X82839061Y-105267481D01*
X82839061Y-105267481D02*
X82911125Y-105323902D01*
X82911125Y-105323902D02*
X82983697Y-105359293D01*
X82983697Y-105359293D02*
X82989225Y-105360881D01*
X82989225Y-105360881D02*
X83097624Y-105369237D01*
X83097624Y-105369237D02*
X83205818Y-105340136D01*
X83205818Y-105340136D02*
X83277113Y-105296960D01*
X83277113Y-105296960D02*
X83332214Y-105229095D01*
X83332214Y-105229095D02*
X83368755Y-105132271D01*
X83368755Y-105132271D02*
X83384198Y-105016713D01*
X83384198Y-105016713D02*
X83376580Y-104896134D01*
X83376580Y-104896134D02*
X83335950Y-104739222D01*
X83335950Y-104739222D02*
X83270595Y-104608992D01*
X83270595Y-104608992D02*
X83183587Y-104508725D01*
X83183587Y-104508725D02*
X83078000Y-104441705D01*
X83078000Y-104441705D02*
X82956906Y-104411212D01*
X82956906Y-104411212D02*
X82921094Y-104409667D01*
X82921094Y-104409667D02*
X82824136Y-104428482D01*
X82824136Y-104428482D02*
X82744907Y-104480337D01*
X82744907Y-104480337D02*
X82692130Y-104558351D01*
X82692130Y-104558351D02*
X82679271Y-104600471D01*
X82679271Y-104600471D02*
X82664181Y-104674250D01*
X82664181Y-104674250D02*
X82348417Y-104674250D01*
X82348417Y-104674250D02*
X82341755Y-104605063D01*
X82341755Y-104605063D02*
X82347853Y-104538737D01*
X82347853Y-104538737D02*
X82373159Y-104455239D01*
X82373159Y-104455239D02*
X82386822Y-104422882D01*
X82386822Y-104422882D02*
X82460096Y-104306475D01*
X82460096Y-104306475D02*
X82560096Y-104220634D01*
X82560096Y-104220634D02*
X82688322Y-104164561D01*
X82688322Y-104164561D02*
X82846277Y-104137459D01*
X82846277Y-104137459D02*
X82929391Y-104134500D01*
X82929391Y-104134500D02*
X83111651Y-104152116D01*
X83111651Y-104152116D02*
X83271351Y-104205403D01*
X83271351Y-104205403D02*
X83409728Y-104295024D01*
X83409728Y-104295024D02*
X83528020Y-104421639D01*
X83528020Y-104421639D02*
X83564104Y-104473574D01*
X83564104Y-104473574D02*
X83646795Y-104630887D01*
X83646795Y-104630887D02*
X83695242Y-104797662D01*
X83695242Y-104797662D02*
X83711689Y-104982916D01*
X83711689Y-104982916D02*
X83885676Y-104982916D01*
X83885676Y-104982916D02*
X83864983Y-104819767D01*
X83864983Y-104819767D02*
X83865972Y-104703293D01*
X83865972Y-104703293D02*
X83888292Y-104540923D01*
X83888292Y-104540923D02*
X83937569Y-104408446D01*
X83937569Y-104408446D02*
X84016729Y-104300906D01*
X84016729Y-104300906D02*
X84128695Y-104213347D01*
X84128695Y-104213347D02*
X84168473Y-104190581D01*
X84168473Y-104190581D02*
X84212408Y-104170166D01*
X84212408Y-104170166D02*
X84259830Y-104156832D01*
X84259830Y-104156832D02*
X84320983Y-104149160D01*
X84320983Y-104149160D02*
X84406112Y-104145729D01*
X84406112Y-104145729D02*
X84496833Y-104145084D01*
X84496833Y-104145084D02*
X84604252Y-104145798D01*
X84604252Y-104145798D02*
X84680187Y-104149170D01*
X84680187Y-104149170D02*
X84735480Y-104157039D01*
X84735480Y-104157039D02*
X84780975Y-104171247D01*
X84780975Y-104171247D02*
X84827512Y-104193634D01*
X84827512Y-104193634D02*
X84847714Y-104204663D01*
X84847714Y-104204663D02*
X85001145Y-104312978D01*
X85001145Y-104312978D02*
X85125224Y-104449449D01*
X85125224Y-104449449D02*
X85217733Y-104609733D01*
X85217733Y-104609733D02*
X85276450Y-104789489D01*
X85276450Y-104789489D02*
X85299155Y-104984376D01*
X85299155Y-104984376D02*
X85510139Y-104984376D01*
X85510139Y-104984376D02*
X85501461Y-104973183D01*
X85501461Y-104973183D02*
X85490442Y-104933631D01*
X85490442Y-104933631D02*
X85481845Y-104877341D01*
X85481845Y-104877341D02*
X85480383Y-104867456D01*
X85480383Y-104867456D02*
X85465693Y-104769500D01*
X85465693Y-104769500D02*
X86063167Y-104769500D01*
X86063167Y-104769500D02*
X86061135Y-104711292D01*
X86061135Y-104711292D02*
X86055081Y-104655774D01*
X86055081Y-104655774D02*
X86042085Y-104582026D01*
X86042085Y-104582026D02*
X86034561Y-104547250D01*
X86034561Y-104547250D02*
X86010019Y-104441417D01*
X86010019Y-104441417D02*
X85651867Y-104430834D01*
X85651867Y-104430834D02*
X85293716Y-104420250D01*
X85293716Y-104420250D02*
X85266588Y-104303834D01*
X85266588Y-104303834D02*
X85251554Y-104237271D01*
X85251554Y-104237271D02*
X85241319Y-104188070D01*
X85241319Y-104188070D02*
X85238564Y-104171172D01*
X85238564Y-104171172D02*
X85258524Y-104166930D01*
X85258524Y-104166930D02*
X85315129Y-104163551D01*
X85315129Y-104163551D02*
X85402698Y-104161152D01*
X85402698Y-104161152D02*
X85515547Y-104159846D01*
X85515547Y-104159846D02*
X85647996Y-104159748D01*
X85647996Y-104159748D02*
X85761542Y-104160589D01*
X85761542Y-104160589D02*
X86285417Y-104166250D01*
X86285417Y-104166250D02*
X86426652Y-104840900D01*
X86426652Y-104840900D02*
X86461321Y-105006207D01*
X86461321Y-105006207D02*
X86493681Y-105159935D01*
X86493681Y-105159935D02*
X86522596Y-105296728D01*
X86522596Y-105296728D02*
X86546929Y-105411229D01*
X86546929Y-105411229D02*
X86565543Y-105498081D01*
X86565543Y-105498081D02*
X86577300Y-105551927D01*
X86577300Y-105551927D02*
X86580513Y-105565858D01*
X86580513Y-105565858D02*
X86585131Y-105590863D01*
X86585131Y-105590863D02*
X86987762Y-105590863D01*
X86987762Y-105590863D02*
X86966525Y-105584031D01*
X86966525Y-105584031D02*
X86952167Y-105577316D01*
X86952167Y-105577316D02*
X86875019Y-105533431D01*
X86875019Y-105533431D02*
X86819138Y-105481718D01*
X86819138Y-105481718D02*
X86767307Y-105406168D01*
X86767307Y-105406168D02*
X86766311Y-105404500D01*
X86766311Y-105404500D02*
X86696872Y-105288084D01*
X86696872Y-105288084D02*
X86849384Y-105281790D01*
X86849384Y-105281790D02*
X86930173Y-105279714D01*
X86930173Y-105279714D02*
X86980752Y-105283646D01*
X86980752Y-105283646D02*
X87013129Y-105296454D01*
X87013129Y-105296454D02*
X87039312Y-105321010D01*
X87039312Y-105321010D02*
X87045823Y-105328746D01*
X87045823Y-105328746D02*
X87115345Y-105386411D01*
X87115345Y-105386411D02*
X87195104Y-105412296D01*
X87195104Y-105412296D02*
X87276078Y-105409009D01*
X87276078Y-105409009D02*
X87349245Y-105379160D01*
X87349245Y-105379160D02*
X87405582Y-105325358D01*
X87405582Y-105325358D02*
X87436066Y-105250211D01*
X87436066Y-105250211D02*
X87439000Y-105215051D01*
X87439000Y-105215051D02*
X87437427Y-105199814D01*
X87437427Y-105199814D02*
X87428926Y-105188638D01*
X87428926Y-105188638D02*
X87407821Y-105180894D01*
X87407821Y-105180894D02*
X87368436Y-105175955D01*
X87368436Y-105175955D02*
X87305098Y-105173190D01*
X87305098Y-105173190D02*
X87212130Y-105171972D01*
X87212130Y-105171972D02*
X87083858Y-105171672D01*
X87083858Y-105171672D02*
X87047417Y-105171667D01*
X87047417Y-105171667D02*
X86655833Y-105171667D01*
X86655833Y-105171667D02*
X86656298Y-105018209D01*
X86656298Y-105018209D02*
X86671724Y-104863229D01*
X86671724Y-104863229D02*
X86716927Y-104738334D01*
X86716927Y-104738334D02*
X86791840Y-104643584D01*
X86791840Y-104643584D02*
X86896397Y-104579039D01*
X86896397Y-104579039D02*
X87030530Y-104544758D01*
X87030530Y-104544758D02*
X87187062Y-104540378D01*
X87187062Y-104540378D02*
X87284601Y-104551226D01*
X87284601Y-104551226D02*
X87362006Y-104575030D01*
X87362006Y-104575030D02*
X87430943Y-104611903D01*
X87430943Y-104611903D02*
X87535935Y-104696521D01*
X87535935Y-104696521D02*
X87618359Y-104802968D01*
X87618359Y-104802968D02*
X87677631Y-104924457D01*
X87677631Y-104924457D02*
X87713165Y-105054203D01*
X87713165Y-105054203D02*
X87724376Y-105185419D01*
X87724376Y-105185419D02*
X87905218Y-105185419D01*
X87905218Y-105185419D02*
X87844858Y-104901792D01*
X87844858Y-104901792D02*
X87809172Y-104733651D01*
X87809172Y-104733651D02*
X87776470Y-104578688D01*
X87776470Y-104578688D02*
X87747761Y-104441761D01*
X87747761Y-104441761D02*
X87724057Y-104327728D01*
X87724057Y-104327728D02*
X87706369Y-104241446D01*
X87706369Y-104241446D02*
X87695707Y-104187774D01*
X87695707Y-104187774D02*
X87692915Y-104171542D01*
X87692915Y-104171542D02*
X87712333Y-104163707D01*
X87712333Y-104163707D02*
X87763344Y-104158035D01*
X87763344Y-104158035D02*
X87835217Y-104155678D01*
X87835217Y-104155678D02*
X87840764Y-104155667D01*
X87840764Y-104155667D02*
X87918828Y-104156823D01*
X87918828Y-104156823D02*
X87964493Y-104162272D01*
X87964493Y-104162272D02*
X87987670Y-104174986D01*
X87987670Y-104174986D02*
X87998273Y-104197939D01*
X87998273Y-104197939D02*
X87999589Y-104203292D01*
X87999589Y-104203292D02*
X88013849Y-104266873D01*
X88013849Y-104266873D02*
X88033925Y-104359448D01*
X88033925Y-104359448D02*
X88058583Y-104475051D01*
X88058583Y-104475051D02*
X88086587Y-104607719D01*
X88086587Y-104607719D02*
X88116704Y-104751487D01*
X88116704Y-104751487D02*
X88147699Y-104900390D01*
X88147699Y-104900390D02*
X88178336Y-105048463D01*
X88178336Y-105048463D02*
X88207380Y-105189742D01*
X88207380Y-105189742D02*
X88233597Y-105318262D01*
X88233597Y-105318262D02*
X88255753Y-105428058D01*
X88255753Y-105428058D02*
X88272611Y-105513166D01*
X88272611Y-105513166D02*
X88282938Y-105567622D01*
X88282938Y-105567622D02*
X88285667Y-105585135D01*
X88285667Y-105585135D02*
X88690358Y-105585135D01*
X88690358Y-105585135D02*
X88642087Y-105564156D01*
X88642087Y-105564156D02*
X88533957Y-105472978D01*
X88533957Y-105472978D02*
X88449131Y-105348725D01*
X88449131Y-105348725D02*
X88389457Y-105193183D01*
X88389457Y-105193183D02*
X88370451Y-105108817D01*
X88370451Y-105108817D02*
X88356421Y-104951981D01*
X88356421Y-104951981D02*
X88373339Y-104815637D01*
X88373339Y-104815637D02*
X88419411Y-104703017D01*
X88419411Y-104703017D02*
X88492843Y-104617356D01*
X88492843Y-104617356D02*
X88591841Y-104561886D01*
X88591841Y-104561886D02*
X88685068Y-104541716D01*
X88685068Y-104541716D02*
X88821221Y-104540446D01*
X88821221Y-104540446D02*
X88928960Y-104566528D01*
X88928960Y-104566528D02*
X89001641Y-104610891D01*
X89001641Y-104610891D02*
X89062695Y-104662265D01*
X89062695Y-104662265D02*
X89052713Y-104610049D01*
X89052713Y-104610049D02*
X89049351Y-104582589D01*
X89049351Y-104582589D02*
X89058235Y-104566979D01*
X89058235Y-104566979D02*
X89088032Y-104559876D01*
X89088032Y-104559876D02*
X89147412Y-104557938D01*
X89147412Y-104557938D02*
X89188074Y-104557861D01*
X89188074Y-104557861D02*
X89333417Y-104557889D01*
X89333417Y-104557889D02*
X89483426Y-105261653D01*
X89483426Y-105261653D02*
X89518635Y-105428506D01*
X89518635Y-105428506D02*
X89550386Y-105582210D01*
X89550386Y-105582210D02*
X89577719Y-105717865D01*
X89577719Y-105717865D02*
X89599675Y-105830571D01*
X89599675Y-105830571D02*
X89615296Y-105915428D01*
X89615296Y-105915428D02*
X89623621Y-105967536D01*
X89623621Y-105967536D02*
X89624480Y-105982217D01*
X89624480Y-105982217D02*
X93305131Y-105982217D01*
X93305131Y-105982217D02*
X93307039Y-105980877D01*
X93307039Y-105980877D02*
X93465085Y-105830458D01*
X93465085Y-105830458D02*
X93596682Y-105649359D01*
X93596682Y-105649359D02*
X93699089Y-105441971D01*
X93699089Y-105441971D02*
X93759048Y-105256598D01*
X93759048Y-105256598D02*
X93779561Y-105129334D01*
X93779561Y-105129334D02*
X93198927Y-105129334D01*
X93198927Y-105129334D02*
X93184266Y-105229875D01*
X93184266Y-105229875D02*
X93147853Y-105369686D01*
X93147853Y-105369686D02*
X93082999Y-105480446D01*
X93082999Y-105480446D02*
X92988665Y-105562817D01*
X92988665Y-105562817D02*
X92863811Y-105617462D01*
X92863811Y-105617462D02*
X92707399Y-105645042D01*
X92707399Y-105645042D02*
X92529583Y-105646825D01*
X92529583Y-105646825D02*
X92421384Y-105637164D01*
X92421384Y-105637164D02*
X92336562Y-105618096D01*
X92336562Y-105618096D02*
X92276299Y-105593347D01*
X92276299Y-105593347D02*
X91902047Y-105593347D01*
X91902047Y-105593347D02*
X91892324Y-105607589D01*
X91892324Y-105607589D02*
X91860892Y-105614191D01*
X91860892Y-105614191D02*
X91799292Y-105616077D01*
X91799292Y-105616077D02*
X91760721Y-105616167D01*
X91760721Y-105616167D02*
X91679962Y-105614412D01*
X91679962Y-105614412D02*
X91632155Y-105607717D01*
X91632155Y-105607717D02*
X91613232Y-105596917D01*
X91613232Y-105596917D02*
X91376000Y-105596917D01*
X91376000Y-105596917D02*
X91356626Y-105606405D01*
X91356626Y-105606405D02*
X91305641Y-105613280D01*
X91305641Y-105613280D02*
X91233748Y-105616152D01*
X91233748Y-105616152D02*
X91227833Y-105616167D01*
X91227833Y-105616167D02*
X91154797Y-105615220D01*
X91154797Y-105615220D02*
X91101876Y-105612728D01*
X91101876Y-105612728D02*
X91079783Y-105609215D01*
X91079783Y-105609215D02*
X91079667Y-105608928D01*
X91079667Y-105608928D02*
X91074735Y-105572405D01*
X91074735Y-105572405D02*
X91061419Y-105504484D01*
X91061419Y-105504484D02*
X91041935Y-105414539D01*
X91041935Y-105414539D02*
X91018502Y-105311941D01*
X91018502Y-105311941D02*
X90993336Y-105206061D01*
X90993336Y-105206061D02*
X90968657Y-105106271D01*
X90968657Y-105106271D02*
X90946680Y-105021944D01*
X90946680Y-105021944D02*
X90929625Y-104962450D01*
X90929625Y-104962450D02*
X90921259Y-104939495D01*
X90921259Y-104939495D02*
X90868575Y-104862971D01*
X90868575Y-104862971D02*
X90805835Y-104809112D01*
X90805835Y-104809112D02*
X90740278Y-104779029D01*
X90740278Y-104779029D02*
X90679147Y-104773832D01*
X90679147Y-104773832D02*
X90629683Y-104794630D01*
X90629683Y-104794630D02*
X90599126Y-104842533D01*
X90599126Y-104842533D02*
X90592833Y-104889153D01*
X90592833Y-104889153D02*
X90597112Y-104937020D01*
X90597112Y-104937020D02*
X90608859Y-105016441D01*
X90608859Y-105016441D02*
X90626446Y-105117630D01*
X90626446Y-105117630D02*
X90648240Y-105230798D01*
X90648240Y-105230798D02*
X90656333Y-105270332D01*
X90656333Y-105270332D02*
X90678766Y-105379513D01*
X90678766Y-105379513D02*
X90697720Y-105474266D01*
X90697720Y-105474266D02*
X90711660Y-105546718D01*
X90711660Y-105546718D02*
X90719051Y-105588994D01*
X90719051Y-105588994D02*
X90719833Y-105595924D01*
X90719833Y-105595924D02*
X90700463Y-105605913D01*
X90700463Y-105605913D02*
X90649497Y-105613145D01*
X90649497Y-105613145D02*
X90577653Y-105616152D01*
X90577653Y-105616152D02*
X90572070Y-105616167D01*
X90572070Y-105616167D02*
X90494021Y-105615015D01*
X90494021Y-105615015D02*
X90448387Y-105609579D01*
X90448387Y-105609579D02*
X90425268Y-105596887D01*
X90425268Y-105596887D02*
X90414766Y-105573966D01*
X90414766Y-105573966D02*
X90413456Y-105568542D01*
X90413456Y-105568542D02*
X90404923Y-105529672D01*
X90404923Y-105529672D02*
X90389808Y-105459486D01*
X90389808Y-105459486D02*
X90370280Y-105368088D01*
X90370280Y-105368088D02*
X90349394Y-105269781D01*
X90349394Y-105269781D02*
X90317515Y-105128840D01*
X90317515Y-105128840D02*
X90287966Y-105022539D01*
X90287966Y-105022539D02*
X90257724Y-104943526D01*
X90257724Y-104943526D02*
X90223765Y-104884447D01*
X90223765Y-104884447D02*
X90183067Y-104837950D01*
X90183067Y-104837950D02*
X90165348Y-104822171D01*
X90165348Y-104822171D02*
X90093602Y-104779977D01*
X90093602Y-104779977D02*
X90026494Y-104771662D01*
X90026494Y-104771662D02*
X89972172Y-104794523D01*
X89972172Y-104794523D02*
X89938786Y-104845854D01*
X89938786Y-104845854D02*
X89932309Y-104899530D01*
X89932309Y-104899530D02*
X89937668Y-104946258D01*
X89937668Y-104946258D02*
X89950500Y-105024555D01*
X89950500Y-105024555D02*
X89969058Y-105124672D01*
X89969058Y-105124672D02*
X89991594Y-105236862D01*
X89991594Y-105236862D02*
X89999351Y-105273672D01*
X89999351Y-105273672D02*
X90022193Y-105382140D01*
X90022193Y-105382140D02*
X90041463Y-105476196D01*
X90041463Y-105476196D02*
X90055578Y-105547916D01*
X90055578Y-105547916D02*
X90062956Y-105589378D01*
X90062956Y-105589378D02*
X90063667Y-105595740D01*
X90063667Y-105595740D02*
X90044296Y-105605819D01*
X90044296Y-105605819D02*
X89993331Y-105613117D01*
X89993331Y-105613117D02*
X89921487Y-105616152D01*
X89921487Y-105616152D02*
X89915903Y-105616167D01*
X89915903Y-105616167D02*
X89837845Y-105615013D01*
X89837845Y-105615013D02*
X89792193Y-105609569D01*
X89792193Y-105609569D02*
X89769039Y-105596864D01*
X89769039Y-105596864D02*
X89758477Y-105573924D01*
X89758477Y-105573924D02*
X89757164Y-105568542D01*
X89757164Y-105568542D02*
X89724846Y-105423526D01*
X89724846Y-105423526D02*
X89694254Y-105277386D01*
X89694254Y-105277386D02*
X89666810Y-105137770D01*
X89666810Y-105137770D02*
X89643934Y-105012325D01*
X89643934Y-105012325D02*
X89627049Y-104908697D01*
X89627049Y-104908697D02*
X89617576Y-104834533D01*
X89617576Y-104834533D02*
X89616043Y-104809472D01*
X89616043Y-104809472D02*
X89626535Y-104711965D01*
X89626535Y-104711965D02*
X89664085Y-104640861D01*
X89664085Y-104640861D02*
X89734663Y-104585855D01*
X89734663Y-104585855D02*
X89750615Y-104577240D01*
X89750615Y-104577240D02*
X89858596Y-104543362D01*
X89858596Y-104543362D02*
X89978581Y-104541007D01*
X89978581Y-104541007D02*
X90096682Y-104568205D01*
X90096682Y-104568205D02*
X90199009Y-104622989D01*
X90199009Y-104622989D02*
X90224426Y-104644388D01*
X90224426Y-104644388D02*
X90269346Y-104686588D01*
X90269346Y-104686588D02*
X90344306Y-104611627D01*
X90344306Y-104611627D02*
X90392585Y-104567771D01*
X90392585Y-104567771D02*
X90435713Y-104545404D01*
X90435713Y-104545404D02*
X90492004Y-104537455D01*
X90492004Y-104537455D02*
X90538480Y-104536667D01*
X90538480Y-104536667D02*
X90661747Y-104549564D01*
X90661747Y-104549564D02*
X90771928Y-104585341D01*
X90771928Y-104585341D02*
X90851351Y-104636005D01*
X90851351Y-104636005D02*
X90878693Y-104656952D01*
X90878693Y-104656952D02*
X90888159Y-104644844D01*
X90888159Y-104644844D02*
X90889167Y-104614031D01*
X90889167Y-104614031D02*
X90891245Y-104583716D01*
X90891245Y-104583716D02*
X90903901Y-104566901D01*
X90903901Y-104566901D02*
X90936762Y-104559610D01*
X90936762Y-104559610D02*
X90999460Y-104557868D01*
X90999460Y-104557868D02*
X91025306Y-104557834D01*
X91025306Y-104557834D02*
X91161446Y-104557834D01*
X91161446Y-104557834D02*
X91194599Y-104711292D01*
X91194599Y-104711292D02*
X91220810Y-104833668D01*
X91220810Y-104833668D02*
X91248674Y-104965579D01*
X91248674Y-104965579D02*
X91276828Y-105100367D01*
X91276828Y-105100367D02*
X91303908Y-105231370D01*
X91303908Y-105231370D02*
X91328550Y-105351930D01*
X91328550Y-105351930D02*
X91349389Y-105455387D01*
X91349389Y-105455387D02*
X91365063Y-105535082D01*
X91365063Y-105535082D02*
X91374205Y-105584356D01*
X91374205Y-105584356D02*
X91376000Y-105596917D01*
X91376000Y-105596917D02*
X91613232Y-105596917D01*
X91613232Y-105596917D02*
X91608014Y-105593939D01*
X91608014Y-105593939D02*
X91600282Y-105579125D01*
X91600282Y-105579125D02*
X91590198Y-105539674D01*
X91590198Y-105539674D02*
X91573869Y-105468163D01*
X91573869Y-105468163D02*
X91552819Y-105371953D01*
X91552819Y-105371953D02*
X91528569Y-105258409D01*
X91528569Y-105258409D02*
X91502644Y-105134893D01*
X91502644Y-105134893D02*
X91476566Y-105008768D01*
X91476566Y-105008768D02*
X91451857Y-104887398D01*
X91451857Y-104887398D02*
X91430040Y-104778146D01*
X91430040Y-104778146D02*
X91412638Y-104688375D01*
X91412638Y-104688375D02*
X91401174Y-104625447D01*
X91401174Y-104625447D02*
X91397167Y-104596980D01*
X91397167Y-104596980D02*
X91402185Y-104576089D01*
X91402185Y-104576089D02*
X91423237Y-104564228D01*
X91423237Y-104564228D02*
X91469312Y-104558958D01*
X91469312Y-104558958D02*
X91541532Y-104557834D01*
X91541532Y-104557834D02*
X91685898Y-104557834D01*
X91685898Y-104557834D02*
X91786594Y-105039375D01*
X91786594Y-105039375D02*
X91815868Y-105179111D01*
X91815868Y-105179111D02*
X91842779Y-105307083D01*
X91842779Y-105307083D02*
X91865942Y-105416754D01*
X91865942Y-105416754D02*
X91883977Y-105501584D01*
X91883977Y-105501584D02*
X91895499Y-105555037D01*
X91895499Y-105555037D02*
X91898523Y-105568542D01*
X91898523Y-105568542D02*
X91902047Y-105593347D01*
X91902047Y-105593347D02*
X92276299Y-105593347D01*
X92276299Y-105593347D02*
X92256453Y-105585197D01*
X92256453Y-105585197D02*
X92244654Y-105579287D01*
X92244654Y-105579287D02*
X92129422Y-105503660D01*
X92129422Y-105503660D02*
X92051423Y-105410897D01*
X92051423Y-105410897D02*
X92007292Y-105295854D01*
X92007292Y-105295854D02*
X91994643Y-105197213D01*
X91994643Y-105197213D02*
X91999254Y-105074207D01*
X91999254Y-105074207D02*
X92029259Y-104975811D01*
X92029259Y-104975811D02*
X92088515Y-104897484D01*
X92088515Y-104897484D02*
X92180881Y-104834682D01*
X92180881Y-104834682D02*
X92310215Y-104782863D01*
X92310215Y-104782863D02*
X92359011Y-104768150D01*
X92359011Y-104768150D02*
X92450355Y-104739309D01*
X92450355Y-104739309D02*
X92540580Y-104706134D01*
X92540580Y-104706134D02*
X92603667Y-104678813D01*
X92603667Y-104678813D02*
X92663963Y-104644266D01*
X92663963Y-104644266D02*
X92694342Y-104610487D01*
X92694342Y-104610487D02*
X92705205Y-104567751D01*
X92705205Y-104567751D02*
X92694312Y-104500016D01*
X92694312Y-104500016D02*
X92652624Y-104448156D01*
X92652624Y-104448156D02*
X92588812Y-104412736D01*
X92588812Y-104412736D02*
X92511551Y-104394325D01*
X92511551Y-104394325D02*
X92429512Y-104393490D01*
X92429512Y-104393490D02*
X92351370Y-104410797D01*
X92351370Y-104410797D02*
X92285797Y-104446814D01*
X92285797Y-104446814D02*
X92241466Y-104502109D01*
X92241466Y-104502109D02*
X92230073Y-104536679D01*
X92230073Y-104536679D02*
X92217375Y-104600167D01*
X92217375Y-104600167D02*
X91905167Y-104600167D01*
X91905167Y-104600167D02*
X91905632Y-104541959D01*
X91905632Y-104541959D02*
X91925403Y-104443224D01*
X91925403Y-104443224D02*
X91954481Y-104387902D01*
X91954481Y-104387902D02*
X91648669Y-104387902D01*
X91648669Y-104387902D02*
X91640458Y-104401933D01*
X91640458Y-104401933D02*
X91611608Y-104407582D01*
X91611608Y-104407582D02*
X91553791Y-104407320D01*
X91553791Y-104407320D02*
X91501782Y-104405354D01*
X91501782Y-104405354D02*
X91347317Y-104399084D01*
X91347317Y-104399084D02*
X91320222Y-104282667D01*
X91320222Y-104282667D02*
X91305338Y-104218483D01*
X91305338Y-104218483D02*
X91295122Y-104173987D01*
X91295122Y-104173987D02*
X91292230Y-104160959D01*
X91292230Y-104160959D02*
X91311204Y-104158413D01*
X91311204Y-104158413D02*
X91362164Y-104156538D01*
X91362164Y-104156538D02*
X91434767Y-104155685D01*
X91434767Y-104155685D02*
X91447728Y-104155667D01*
X91447728Y-104155667D02*
X91604122Y-104155667D01*
X91604122Y-104155667D02*
X91618506Y-104235042D01*
X91618506Y-104235042D02*
X91631377Y-104301841D01*
X91631377Y-104301841D02*
X91643554Y-104358731D01*
X91643554Y-104358731D02*
X91644569Y-104363020D01*
X91644569Y-104363020D02*
X91648669Y-104387902D01*
X91648669Y-104387902D02*
X91954481Y-104387902D01*
X91954481Y-104387902D02*
X91977472Y-104344164D01*
X91977472Y-104344164D02*
X92053245Y-104255410D01*
X92053245Y-104255410D02*
X92144127Y-104187596D01*
X92144127Y-104187596D02*
X92216797Y-104156940D01*
X92216797Y-104156940D02*
X92322189Y-104138944D01*
X92322189Y-104138944D02*
X92447685Y-104134244D01*
X92447685Y-104134244D02*
X92575808Y-104142192D01*
X92575808Y-104142192D02*
X92689083Y-104162143D01*
X92689083Y-104162143D02*
X92733772Y-104176066D01*
X92733772Y-104176066D02*
X92860505Y-104241685D01*
X92860505Y-104241685D02*
X92951056Y-104329034D01*
X92951056Y-104329034D02*
X93006225Y-104439238D01*
X93006225Y-104439238D02*
X93026812Y-104573424D01*
X93026812Y-104573424D02*
X93027000Y-104589038D01*
X93027000Y-104589038D02*
X93010793Y-104702548D01*
X93010793Y-104702548D02*
X92960867Y-104798235D01*
X92960867Y-104798235D02*
X92875261Y-104878084D01*
X92875261Y-104878084D02*
X92752017Y-104944083D01*
X92752017Y-104944083D02*
X92636656Y-104984808D01*
X92636656Y-104984808D02*
X92501666Y-105029950D01*
X92501666Y-105029950D02*
X92401906Y-105073672D01*
X92401906Y-105073672D02*
X92339918Y-105114718D01*
X92339918Y-105114718D02*
X92320527Y-105140746D01*
X92320527Y-105140746D02*
X92308809Y-105219131D01*
X92308809Y-105219131D02*
X92333728Y-105286602D01*
X92333728Y-105286602D02*
X92390239Y-105339623D01*
X92390239Y-105339623D02*
X92473294Y-105374657D01*
X92473294Y-105374657D02*
X92577844Y-105388167D01*
X92577844Y-105388167D02*
X92665288Y-105382341D01*
X92665288Y-105382341D02*
X92746677Y-105355388D01*
X92746677Y-105355388D02*
X92816371Y-105305055D01*
X92816371Y-105305055D02*
X92863831Y-105241233D01*
X92863831Y-105241233D02*
X92878833Y-105181916D01*
X92878833Y-105181916D02*
X92880828Y-105155254D01*
X92880828Y-105155254D02*
X92892733Y-105139582D01*
X92892733Y-105139582D02*
X92923428Y-105131983D01*
X92923428Y-105131983D02*
X92981793Y-105129539D01*
X92981793Y-105129539D02*
X93038880Y-105129334D01*
X93038880Y-105129334D02*
X93198927Y-105129334D01*
X93198927Y-105129334D02*
X93779561Y-105129334D01*
X93779561Y-105129334D02*
X93782754Y-105109526D01*
X93782754Y-105109526D02*
X93787717Y-104940956D01*
X93787717Y-104940956D02*
X93774789Y-104766913D01*
X93774789Y-104766913D02*
X93744820Y-104603425D01*
X93744820Y-104603425D02*
X93719907Y-104519590D01*
X93719907Y-104519590D02*
X93622311Y-104303450D01*
X93622311Y-104303450D02*
X93491686Y-104113249D01*
X93491686Y-104113249D02*
X93329629Y-103950566D01*
X93329629Y-103950566D02*
X93137735Y-103816981D01*
X93137735Y-103816981D02*
X92917600Y-103714075D01*
X92917600Y-103714075D02*
X92900000Y-103707639D01*
X92900000Y-103707639D02*
X92762417Y-103658250D01*
X92762417Y-103658250D02*
X87867751Y-103652650D01*
X87867751Y-103652650D02*
X87321238Y-103651998D01*
X87321238Y-103651998D02*
X86815408Y-103651367D01*
X86815408Y-103651367D02*
X86348610Y-103650797D01*
X86348610Y-103650797D02*
X85919194Y-103650328D01*
X85919194Y-103650328D02*
X85525511Y-103649999D01*
X85525511Y-103649999D02*
X85165908Y-103649851D01*
X85165908Y-103649851D02*
X84838736Y-103649923D01*
X84838736Y-103649923D02*
X84838736Y-103649923D01*
G36*
X92993947Y-106169066D02*
G01*
X92820694Y-106221820D01*
X92624833Y-106249323D01*
X92614948Y-106249807D01*
X92562051Y-106250923D01*
X92469607Y-106251970D01*
X92339583Y-106252945D01*
X92173946Y-106253843D01*
X91974665Y-106254663D01*
X91743708Y-106255401D01*
X91483041Y-106256054D01*
X91194633Y-106256618D01*
X90880452Y-106257091D01*
X90542465Y-106257470D01*
X90182639Y-106257751D01*
X89802943Y-106257931D01*
X89405345Y-106258007D01*
X88991812Y-106257976D01*
X88564311Y-106257835D01*
X88124811Y-106257581D01*
X87675280Y-106257210D01*
X87472320Y-106257022D01*
X86949036Y-106256573D01*
X86465799Y-106256177D01*
X86020940Y-106255791D01*
X85612788Y-106255370D01*
X85239672Y-106254868D01*
X84899922Y-106254241D01*
X84591869Y-106253446D01*
X84313840Y-106252436D01*
X84064166Y-106251168D01*
X83841176Y-106249596D01*
X83643200Y-106247677D01*
X83468567Y-106245365D01*
X83315606Y-106242617D01*
X83182648Y-106239386D01*
X83068022Y-106235630D01*
X82970057Y-106231302D01*
X82887083Y-106226359D01*
X82817429Y-106220756D01*
X82759424Y-106214448D01*
X82711400Y-106207390D01*
X82671684Y-106199539D01*
X82638606Y-106190849D01*
X82610497Y-106181276D01*
X82585684Y-106170775D01*
X82562499Y-106159301D01*
X82539270Y-106146810D01*
X82514328Y-106133258D01*
X82486000Y-106118599D01*
X82437756Y-106092466D01*
X82291912Y-105989508D01*
X82153419Y-105858352D01*
X82032249Y-105709304D01*
X81938372Y-105552667D01*
X81929696Y-105534729D01*
X81845566Y-105322760D01*
X81800119Y-105116590D01*
X81792287Y-104908358D01*
X81820999Y-104690202D01*
X81831109Y-104644971D01*
X81844369Y-104605063D01*
X82341755Y-104605063D01*
X82348417Y-104674250D01*
X82664181Y-104674250D01*
X82679271Y-104600471D01*
X82692130Y-104558351D01*
X82744907Y-104480337D01*
X82824136Y-104428482D01*
X82921094Y-104409667D01*
X82956906Y-104411212D01*
X83078000Y-104441705D01*
X83183587Y-104508725D01*
X83270595Y-104608992D01*
X83335950Y-104739222D01*
X83376580Y-104896134D01*
X83384198Y-105016713D01*
X83368755Y-105132271D01*
X83332214Y-105229095D01*
X83277113Y-105296960D01*
X83205818Y-105340136D01*
X83097624Y-105369237D01*
X82989225Y-105360881D01*
X82983697Y-105359293D01*
X82911125Y-105323902D01*
X82839061Y-105267481D01*
X82780538Y-105202022D01*
X82748591Y-105139513D01*
X82742940Y-105120496D01*
X82729668Y-105101782D01*
X82702154Y-105091765D01*
X82651034Y-105087740D01*
X82566946Y-105087000D01*
X82497978Y-105087280D01*
X82442299Y-105089741D01*
X82414866Y-105096825D01*
X82407803Y-105110973D01*
X82413232Y-105134625D01*
X82422014Y-105161170D01*
X82484972Y-105298318D01*
X82570030Y-105422843D01*
X82669397Y-105524848D01*
X82775279Y-105594436D01*
X82803992Y-105606730D01*
X82936226Y-105640961D01*
X83083304Y-105650475D01*
X83232294Y-105636256D01*
X83370266Y-105599286D01*
X83484289Y-105540549D01*
X83516945Y-105513669D01*
X83581927Y-105443032D01*
X83636347Y-105363550D01*
X83639554Y-105357813D01*
X83671666Y-105293673D01*
X83691651Y-105232826D01*
X83703200Y-105160066D01*
X83710007Y-105060190D01*
X83711689Y-104982916D01*
X83697204Y-104819767D01*
X83864983Y-104819767D01*
X83885676Y-104982916D01*
X83889651Y-105014265D01*
X83946280Y-105189436D01*
X84032667Y-105341788D01*
X84146613Y-105467831D01*
X84285915Y-105564072D01*
X84448373Y-105627022D01*
X84496662Y-105638335D01*
X84658429Y-105654998D01*
X84824917Y-105636612D01*
X84842803Y-105632773D01*
X84995566Y-105580314D01*
X85117397Y-105498962D01*
X85208225Y-105388801D01*
X85267978Y-105249914D01*
X85296584Y-105082386D01*
X85299155Y-104984376D01*
X85276450Y-104789489D01*
X85217733Y-104609733D01*
X85125224Y-104449449D01*
X85001145Y-104312978D01*
X84847714Y-104204663D01*
X84827512Y-104193634D01*
X84780975Y-104171247D01*
X84780735Y-104171172D01*
X85238564Y-104171172D01*
X85241319Y-104188070D01*
X85251554Y-104237271D01*
X85266588Y-104303834D01*
X85293716Y-104420250D01*
X85651867Y-104430834D01*
X86010019Y-104441417D01*
X86034561Y-104547250D01*
X86042085Y-104582026D01*
X86055081Y-104655774D01*
X86061135Y-104711292D01*
X86063167Y-104769500D01*
X85465693Y-104769500D01*
X85480383Y-104867456D01*
X85481845Y-104877341D01*
X85490442Y-104933631D01*
X85501461Y-104973183D01*
X85510139Y-104984376D01*
X85521548Y-104999093D01*
X85557349Y-105014458D01*
X85615507Y-105022373D01*
X85702668Y-105025934D01*
X85825478Y-105028238D01*
X86134019Y-105034084D01*
X86170249Y-105203417D01*
X86171174Y-105207738D01*
X86192634Y-105308681D01*
X86214285Y-105411457D01*
X86231574Y-105494459D01*
X86256668Y-105616167D01*
X86424904Y-105616167D01*
X86497266Y-105615870D01*
X86551515Y-105613279D01*
X86578134Y-105605807D01*
X86585131Y-105590863D01*
X86580513Y-105565858D01*
X86577300Y-105551927D01*
X86565543Y-105498081D01*
X86546929Y-105411229D01*
X86522596Y-105296728D01*
X86496161Y-105171667D01*
X86655833Y-105171667D01*
X87047417Y-105171667D01*
X87083858Y-105171672D01*
X87212130Y-105171972D01*
X87305098Y-105173190D01*
X87368436Y-105175955D01*
X87407821Y-105180894D01*
X87428926Y-105188638D01*
X87437427Y-105199814D01*
X87439000Y-105215051D01*
X87436066Y-105250211D01*
X87405582Y-105325358D01*
X87349245Y-105379160D01*
X87276078Y-105409009D01*
X87195104Y-105412296D01*
X87115345Y-105386411D01*
X87045823Y-105328746D01*
X87039312Y-105321010D01*
X87013129Y-105296454D01*
X86980752Y-105283646D01*
X86930173Y-105279714D01*
X86849384Y-105281790D01*
X86696872Y-105288084D01*
X86766311Y-105404500D01*
X86767307Y-105406168D01*
X86819138Y-105481718D01*
X86875019Y-105533431D01*
X86952167Y-105577316D01*
X86966525Y-105584031D01*
X86987762Y-105590863D01*
X87104762Y-105628504D01*
X87250767Y-105644297D01*
X87391816Y-105631149D01*
X87515188Y-105588802D01*
X87606221Y-105520028D01*
X87671489Y-105425117D01*
X87710679Y-105311319D01*
X87724376Y-105185419D01*
X87713165Y-105054203D01*
X87677631Y-104924457D01*
X87618359Y-104802968D01*
X87535935Y-104696521D01*
X87430943Y-104611903D01*
X87362006Y-104575030D01*
X87284601Y-104551226D01*
X87187062Y-104540378D01*
X87030530Y-104544758D01*
X86896397Y-104579039D01*
X86791840Y-104643584D01*
X86716927Y-104738334D01*
X86671724Y-104863229D01*
X86656298Y-105018209D01*
X86655833Y-105171667D01*
X86496161Y-105171667D01*
X86493681Y-105159935D01*
X86461321Y-105006207D01*
X86426652Y-104840900D01*
X86286525Y-104171542D01*
X87692915Y-104171542D01*
X87695707Y-104187774D01*
X87706369Y-104241446D01*
X87724057Y-104327728D01*
X87747761Y-104441761D01*
X87776470Y-104578688D01*
X87809172Y-104733651D01*
X87844858Y-104901792D01*
X87905218Y-105185419D01*
X87996886Y-105616167D01*
X88141277Y-105616167D01*
X88177526Y-105615872D01*
X88242654Y-105611979D01*
X88276176Y-105602276D01*
X88285667Y-105585135D01*
X88282938Y-105567622D01*
X88272611Y-105513166D01*
X88255753Y-105428058D01*
X88233597Y-105318262D01*
X88207380Y-105189742D01*
X88178336Y-105048463D01*
X88158373Y-104951981D01*
X88356421Y-104951981D01*
X88370451Y-105108817D01*
X88389457Y-105193183D01*
X88449131Y-105348725D01*
X88533957Y-105472978D01*
X88642087Y-105564156D01*
X88690358Y-105585135D01*
X88771671Y-105620475D01*
X88920862Y-105640150D01*
X88933565Y-105640135D01*
X89035433Y-105631253D01*
X89114768Y-105602759D01*
X89187446Y-105549240D01*
X89231976Y-105508770D01*
X89282803Y-105747677D01*
X89333629Y-105986584D01*
X89474577Y-105992801D01*
X89545962Y-105993651D01*
X89600391Y-105989865D01*
X89624480Y-105982217D01*
X89623621Y-105967536D01*
X89615296Y-105915428D01*
X89599675Y-105830571D01*
X89577719Y-105717865D01*
X89550386Y-105582210D01*
X89518635Y-105428506D01*
X89483426Y-105261653D01*
X89387043Y-104809472D01*
X89616043Y-104809472D01*
X89617576Y-104834533D01*
X89627049Y-104908697D01*
X89643934Y-105012325D01*
X89666810Y-105137770D01*
X89694254Y-105277386D01*
X89724846Y-105423526D01*
X89757164Y-105568542D01*
X89758477Y-105573924D01*
X89769039Y-105596864D01*
X89792193Y-105609569D01*
X89837845Y-105615013D01*
X89915903Y-105616167D01*
X89921487Y-105616152D01*
X89993331Y-105613117D01*
X90044296Y-105605819D01*
X90063667Y-105595740D01*
X90062956Y-105589378D01*
X90055578Y-105547916D01*
X90041463Y-105476196D01*
X90022193Y-105382140D01*
X89999351Y-105273672D01*
X89991594Y-105236862D01*
X89969058Y-105124672D01*
X89950500Y-105024555D01*
X89937668Y-104946258D01*
X89932309Y-104899530D01*
X89938786Y-104845854D01*
X89972172Y-104794523D01*
X90026494Y-104771662D01*
X90093602Y-104779977D01*
X90165348Y-104822171D01*
X90183067Y-104837950D01*
X90223765Y-104884447D01*
X90257724Y-104943526D01*
X90287966Y-105022539D01*
X90317515Y-105128840D01*
X90349394Y-105269781D01*
X90370280Y-105368088D01*
X90389808Y-105459486D01*
X90404923Y-105529672D01*
X90413456Y-105568542D01*
X90414766Y-105573966D01*
X90425268Y-105596887D01*
X90448387Y-105609579D01*
X90494021Y-105615015D01*
X90572070Y-105616167D01*
X90577653Y-105616152D01*
X90649497Y-105613145D01*
X90700463Y-105605913D01*
X90719833Y-105595924D01*
X90719051Y-105588994D01*
X90711660Y-105546718D01*
X90697720Y-105474266D01*
X90678766Y-105379513D01*
X90656333Y-105270332D01*
X90648240Y-105230798D01*
X90626446Y-105117630D01*
X90608859Y-105016441D01*
X90597112Y-104937020D01*
X90592833Y-104889153D01*
X90599126Y-104842533D01*
X90629683Y-104794630D01*
X90679147Y-104773832D01*
X90740278Y-104779029D01*
X90805835Y-104809112D01*
X90868575Y-104862971D01*
X90921259Y-104939495D01*
X90929625Y-104962450D01*
X90946680Y-105021944D01*
X90968657Y-105106271D01*
X90993336Y-105206061D01*
X91018502Y-105311941D01*
X91041935Y-105414539D01*
X91061419Y-105504484D01*
X91074735Y-105572405D01*
X91079667Y-105608928D01*
X91079783Y-105609215D01*
X91101876Y-105612728D01*
X91154797Y-105615220D01*
X91227833Y-105616167D01*
X91233748Y-105616152D01*
X91305641Y-105613280D01*
X91356626Y-105606405D01*
X91376000Y-105596917D01*
X91374205Y-105584356D01*
X91365063Y-105535082D01*
X91349389Y-105455387D01*
X91328550Y-105351930D01*
X91303908Y-105231370D01*
X91276828Y-105100367D01*
X91248674Y-104965579D01*
X91220810Y-104833668D01*
X91194599Y-104711292D01*
X91169903Y-104596980D01*
X91397167Y-104596980D01*
X91401174Y-104625447D01*
X91412638Y-104688375D01*
X91430040Y-104778146D01*
X91451857Y-104887398D01*
X91476566Y-105008768D01*
X91502644Y-105134893D01*
X91528569Y-105258409D01*
X91552819Y-105371953D01*
X91573869Y-105468163D01*
X91590198Y-105539674D01*
X91600282Y-105579125D01*
X91608014Y-105593939D01*
X91613232Y-105596917D01*
X91632155Y-105607717D01*
X91679962Y-105614412D01*
X91760721Y-105616167D01*
X91799292Y-105616077D01*
X91860892Y-105614191D01*
X91892324Y-105607589D01*
X91902047Y-105593347D01*
X91898523Y-105568542D01*
X91895499Y-105555037D01*
X91883977Y-105501584D01*
X91865942Y-105416754D01*
X91842779Y-105307083D01*
X91815868Y-105179111D01*
X91786594Y-105039375D01*
X91694750Y-104600167D01*
X91905167Y-104600167D01*
X92217375Y-104600167D01*
X92230073Y-104536679D01*
X92241466Y-104502109D01*
X92285797Y-104446814D01*
X92351370Y-104410797D01*
X92429512Y-104393490D01*
X92511551Y-104394325D01*
X92588812Y-104412736D01*
X92652624Y-104448156D01*
X92694312Y-104500016D01*
X92705205Y-104567751D01*
X92694342Y-104610487D01*
X92663963Y-104644266D01*
X92603667Y-104678813D01*
X92540580Y-104706134D01*
X92450355Y-104739309D01*
X92359011Y-104768150D01*
X92310215Y-104782863D01*
X92180881Y-104834682D01*
X92088515Y-104897484D01*
X92029259Y-104975811D01*
X91999254Y-105074207D01*
X91994643Y-105197213D01*
X92007292Y-105295854D01*
X92051423Y-105410897D01*
X92129422Y-105503660D01*
X92244654Y-105579287D01*
X92256453Y-105585197D01*
X92276299Y-105593347D01*
X92336562Y-105618096D01*
X92421384Y-105637164D01*
X92529583Y-105646825D01*
X92707399Y-105645042D01*
X92863811Y-105617462D01*
X92988665Y-105562817D01*
X93082999Y-105480446D01*
X93147853Y-105369686D01*
X93184266Y-105229875D01*
X93198927Y-105129334D01*
X93038880Y-105129334D01*
X92981793Y-105129539D01*
X92923428Y-105131983D01*
X92892733Y-105139582D01*
X92880828Y-105155254D01*
X92878833Y-105181916D01*
X92863831Y-105241233D01*
X92816371Y-105305055D01*
X92746677Y-105355388D01*
X92665288Y-105382341D01*
X92577844Y-105388167D01*
X92473294Y-105374657D01*
X92390239Y-105339623D01*
X92333728Y-105286602D01*
X92308809Y-105219131D01*
X92320527Y-105140746D01*
X92339918Y-105114718D01*
X92401906Y-105073672D01*
X92501666Y-105029950D01*
X92636656Y-104984808D01*
X92752017Y-104944083D01*
X92875261Y-104878084D01*
X92960867Y-104798235D01*
X93010793Y-104702548D01*
X93027000Y-104589038D01*
X93026812Y-104573424D01*
X93006225Y-104439238D01*
X92951056Y-104329034D01*
X92860505Y-104241685D01*
X92733772Y-104176066D01*
X92689083Y-104162143D01*
X92575808Y-104142192D01*
X92447685Y-104134244D01*
X92322189Y-104138944D01*
X92216797Y-104156940D01*
X92144127Y-104187596D01*
X92053245Y-104255410D01*
X91977472Y-104344164D01*
X91954481Y-104387902D01*
X91925403Y-104443224D01*
X91905632Y-104541959D01*
X91905167Y-104600167D01*
X91694750Y-104600167D01*
X91685898Y-104557834D01*
X91541532Y-104557834D01*
X91469312Y-104558958D01*
X91423237Y-104564228D01*
X91402185Y-104576089D01*
X91397167Y-104596980D01*
X91169903Y-104596980D01*
X91161446Y-104557834D01*
X91025306Y-104557834D01*
X90999460Y-104557868D01*
X90936762Y-104559610D01*
X90903901Y-104566901D01*
X90891245Y-104583716D01*
X90889167Y-104614031D01*
X90888159Y-104644844D01*
X90878693Y-104656952D01*
X90851351Y-104636005D01*
X90771928Y-104585341D01*
X90661747Y-104549564D01*
X90538480Y-104536667D01*
X90492004Y-104537455D01*
X90435713Y-104545404D01*
X90392585Y-104567771D01*
X90344306Y-104611627D01*
X90269346Y-104686588D01*
X90224426Y-104644388D01*
X90199009Y-104622989D01*
X90096682Y-104568205D01*
X89978581Y-104541007D01*
X89858596Y-104543362D01*
X89750615Y-104577240D01*
X89734663Y-104585855D01*
X89664085Y-104640861D01*
X89626535Y-104711965D01*
X89616043Y-104809472D01*
X89387043Y-104809472D01*
X89333417Y-104557889D01*
X89188074Y-104557861D01*
X89147412Y-104557938D01*
X89088032Y-104559876D01*
X89058235Y-104566979D01*
X89049351Y-104582589D01*
X89052713Y-104610049D01*
X89062695Y-104662265D01*
X89001641Y-104610891D01*
X88928960Y-104566528D01*
X88821221Y-104540446D01*
X88685068Y-104541716D01*
X88591841Y-104561886D01*
X88492843Y-104617356D01*
X88419411Y-104703017D01*
X88373339Y-104815637D01*
X88356421Y-104951981D01*
X88158373Y-104951981D01*
X88147699Y-104900390D01*
X88116704Y-104751487D01*
X88086587Y-104607719D01*
X88058583Y-104475051D01*
X88033925Y-104359448D01*
X88013849Y-104266873D01*
X87999589Y-104203292D01*
X87998273Y-104197939D01*
X87987670Y-104174986D01*
X87964493Y-104162272D01*
X87953489Y-104160959D01*
X91292230Y-104160959D01*
X91295122Y-104173987D01*
X91305338Y-104218483D01*
X91320222Y-104282667D01*
X91347317Y-104399084D01*
X91501782Y-104405354D01*
X91553791Y-104407320D01*
X91611608Y-104407582D01*
X91640458Y-104401933D01*
X91648669Y-104387902D01*
X91644569Y-104363020D01*
X91643554Y-104358731D01*
X91631377Y-104301841D01*
X91618506Y-104235042D01*
X91604122Y-104155667D01*
X91447728Y-104155667D01*
X91434767Y-104155685D01*
X91362164Y-104156538D01*
X91311204Y-104158413D01*
X91292230Y-104160959D01*
X87953489Y-104160959D01*
X87918828Y-104156823D01*
X87840764Y-104155667D01*
X87835217Y-104155678D01*
X87763344Y-104158035D01*
X87712333Y-104163707D01*
X87692915Y-104171542D01*
X86286525Y-104171542D01*
X86285417Y-104166250D01*
X85761542Y-104160589D01*
X85647996Y-104159748D01*
X85515547Y-104159846D01*
X85402698Y-104161152D01*
X85315129Y-104163551D01*
X85258524Y-104166930D01*
X85238564Y-104171172D01*
X84780735Y-104171172D01*
X84735480Y-104157039D01*
X84680187Y-104149170D01*
X84604252Y-104145798D01*
X84496833Y-104145084D01*
X84406112Y-104145729D01*
X84320983Y-104149160D01*
X84259830Y-104156832D01*
X84212408Y-104170166D01*
X84168473Y-104190581D01*
X84128695Y-104213347D01*
X84016729Y-104300906D01*
X83937569Y-104408446D01*
X83888292Y-104540923D01*
X83865972Y-104703293D01*
X83864983Y-104819767D01*
X83697204Y-104819767D01*
X83695242Y-104797662D01*
X83646795Y-104630887D01*
X83564104Y-104473574D01*
X83528020Y-104421639D01*
X83409728Y-104295024D01*
X83271351Y-104205403D01*
X83111651Y-104152116D01*
X82929391Y-104134500D01*
X82846277Y-104137459D01*
X82688322Y-104164561D01*
X82560096Y-104220634D01*
X82460096Y-104306475D01*
X82386822Y-104422882D01*
X82373159Y-104455239D01*
X82347853Y-104538737D01*
X82341755Y-104605063D01*
X81844369Y-104605063D01*
X81904942Y-104422762D01*
X82013144Y-104222031D01*
X82153169Y-104046096D01*
X82322468Y-103898275D01*
X82518495Y-103781884D01*
X82536771Y-103772966D01*
X82564141Y-103759055D01*
X82589283Y-103746202D01*
X82613847Y-103734366D01*
X82639485Y-103723508D01*
X82667846Y-103713589D01*
X82700580Y-103704568D01*
X82739339Y-103696405D01*
X82785772Y-103689061D01*
X82841531Y-103682495D01*
X82908265Y-103676668D01*
X82987624Y-103671540D01*
X83081260Y-103667070D01*
X83190823Y-103663220D01*
X83317963Y-103659949D01*
X83464331Y-103657218D01*
X83631576Y-103654986D01*
X83821350Y-103653214D01*
X84035302Y-103651861D01*
X84275084Y-103650888D01*
X84542345Y-103650256D01*
X84838736Y-103649923D01*
X85165908Y-103649851D01*
X85525511Y-103649999D01*
X85919194Y-103650328D01*
X86348610Y-103650797D01*
X86815408Y-103651367D01*
X87321238Y-103651998D01*
X87867751Y-103652650D01*
X92762417Y-103658250D01*
X92900000Y-103707639D01*
X92917600Y-103714075D01*
X93137735Y-103816981D01*
X93329629Y-103950566D01*
X93491686Y-104113249D01*
X93622311Y-104303450D01*
X93719907Y-104519590D01*
X93744820Y-104603425D01*
X93774789Y-104766913D01*
X93787717Y-104940956D01*
X93782754Y-105109526D01*
X93779561Y-105129334D01*
X93759048Y-105256598D01*
X93699089Y-105441971D01*
X93596682Y-105649359D01*
X93465085Y-105830458D01*
X93307039Y-105980877D01*
X93305131Y-105982217D01*
X93157340Y-106086045D01*
X92993947Y-106169066D01*
G37*
X92993947Y-106169066D02*
X92820694Y-106221820D01*
X92624833Y-106249323D01*
X92614948Y-106249807D01*
X92562051Y-106250923D01*
X92469607Y-106251970D01*
X92339583Y-106252945D01*
X92173946Y-106253843D01*
X91974665Y-106254663D01*
X91743708Y-106255401D01*
X91483041Y-106256054D01*
X91194633Y-106256618D01*
X90880452Y-106257091D01*
X90542465Y-106257470D01*
X90182639Y-106257751D01*
X89802943Y-106257931D01*
X89405345Y-106258007D01*
X88991812Y-106257976D01*
X88564311Y-106257835D01*
X88124811Y-106257581D01*
X87675280Y-106257210D01*
X87472320Y-106257022D01*
X86949036Y-106256573D01*
X86465799Y-106256177D01*
X86020940Y-106255791D01*
X85612788Y-106255370D01*
X85239672Y-106254868D01*
X84899922Y-106254241D01*
X84591869Y-106253446D01*
X84313840Y-106252436D01*
X84064166Y-106251168D01*
X83841176Y-106249596D01*
X83643200Y-106247677D01*
X83468567Y-106245365D01*
X83315606Y-106242617D01*
X83182648Y-106239386D01*
X83068022Y-106235630D01*
X82970057Y-106231302D01*
X82887083Y-106226359D01*
X82817429Y-106220756D01*
X82759424Y-106214448D01*
X82711400Y-106207390D01*
X82671684Y-106199539D01*
X82638606Y-106190849D01*
X82610497Y-106181276D01*
X82585684Y-106170775D01*
X82562499Y-106159301D01*
X82539270Y-106146810D01*
X82514328Y-106133258D01*
X82486000Y-106118599D01*
X82437756Y-106092466D01*
X82291912Y-105989508D01*
X82153419Y-105858352D01*
X82032249Y-105709304D01*
X81938372Y-105552667D01*
X81929696Y-105534729D01*
X81845566Y-105322760D01*
X81800119Y-105116590D01*
X81792287Y-104908358D01*
X81820999Y-104690202D01*
X81831109Y-104644971D01*
X81844369Y-104605063D01*
X82341755Y-104605063D01*
X82348417Y-104674250D01*
X82664181Y-104674250D01*
X82679271Y-104600471D01*
X82692130Y-104558351D01*
X82744907Y-104480337D01*
X82824136Y-104428482D01*
X82921094Y-104409667D01*
X82956906Y-104411212D01*
X83078000Y-104441705D01*
X83183587Y-104508725D01*
X83270595Y-104608992D01*
X83335950Y-104739222D01*
X83376580Y-104896134D01*
X83384198Y-105016713D01*
X83368755Y-105132271D01*
X83332214Y-105229095D01*
X83277113Y-105296960D01*
X83205818Y-105340136D01*
X83097624Y-105369237D01*
X82989225Y-105360881D01*
X82983697Y-105359293D01*
X82911125Y-105323902D01*
X82839061Y-105267481D01*
X82780538Y-105202022D01*
X82748591Y-105139513D01*
X82742940Y-105120496D01*
X82729668Y-105101782D01*
X82702154Y-105091765D01*
X82651034Y-105087740D01*
X82566946Y-105087000D01*
X82497978Y-105087280D01*
X82442299Y-105089741D01*
X82414866Y-105096825D01*
X82407803Y-105110973D01*
X82413232Y-105134625D01*
X82422014Y-105161170D01*
X82484972Y-105298318D01*
X82570030Y-105422843D01*
X82669397Y-105524848D01*
X82775279Y-105594436D01*
X82803992Y-105606730D01*
X82936226Y-105640961D01*
X83083304Y-105650475D01*
X83232294Y-105636256D01*
X83370266Y-105599286D01*
X83484289Y-105540549D01*
X83516945Y-105513669D01*
X83581927Y-105443032D01*
X83636347Y-105363550D01*
X83639554Y-105357813D01*
X83671666Y-105293673D01*
X83691651Y-105232826D01*
X83703200Y-105160066D01*
X83710007Y-105060190D01*
X83711689Y-104982916D01*
X83697204Y-104819767D01*
X83864983Y-104819767D01*
X83885676Y-104982916D01*
X83889651Y-105014265D01*
X83946280Y-105189436D01*
X84032667Y-105341788D01*
X84146613Y-105467831D01*
X84285915Y-105564072D01*
X84448373Y-105627022D01*
X84496662Y-105638335D01*
X84658429Y-105654998D01*
X84824917Y-105636612D01*
X84842803Y-105632773D01*
X84995566Y-105580314D01*
X85117397Y-105498962D01*
X85208225Y-105388801D01*
X85267978Y-105249914D01*
X85296584Y-105082386D01*
X85299155Y-104984376D01*
X85276450Y-104789489D01*
X85217733Y-104609733D01*
X85125224Y-104449449D01*
X85001145Y-104312978D01*
X84847714Y-104204663D01*
X84827512Y-104193634D01*
X84780975Y-104171247D01*
X84780735Y-104171172D01*
X85238564Y-104171172D01*
X85241319Y-104188070D01*
X85251554Y-104237271D01*
X85266588Y-104303834D01*
X85293716Y-104420250D01*
X85651867Y-104430834D01*
X86010019Y-104441417D01*
X86034561Y-104547250D01*
X86042085Y-104582026D01*
X86055081Y-104655774D01*
X86061135Y-104711292D01*
X86063167Y-104769500D01*
X85465693Y-104769500D01*
X85480383Y-104867456D01*
X85481845Y-104877341D01*
X85490442Y-104933631D01*
X85501461Y-104973183D01*
X85510139Y-104984376D01*
X85521548Y-104999093D01*
X85557349Y-105014458D01*
X85615507Y-105022373D01*
X85702668Y-105025934D01*
X85825478Y-105028238D01*
X86134019Y-105034084D01*
X86170249Y-105203417D01*
X86171174Y-105207738D01*
X86192634Y-105308681D01*
X86214285Y-105411457D01*
X86231574Y-105494459D01*
X86256668Y-105616167D01*
X86424904Y-105616167D01*
X86497266Y-105615870D01*
X86551515Y-105613279D01*
X86578134Y-105605807D01*
X86585131Y-105590863D01*
X86580513Y-105565858D01*
X86577300Y-105551927D01*
X86565543Y-105498081D01*
X86546929Y-105411229D01*
X86522596Y-105296728D01*
X86496161Y-105171667D01*
X86655833Y-105171667D01*
X87047417Y-105171667D01*
X87083858Y-105171672D01*
X87212130Y-105171972D01*
X87305098Y-105173190D01*
X87368436Y-105175955D01*
X87407821Y-105180894D01*
X87428926Y-105188638D01*
X87437427Y-105199814D01*
X87439000Y-105215051D01*
X87436066Y-105250211D01*
X87405582Y-105325358D01*
X87349245Y-105379160D01*
X87276078Y-105409009D01*
X87195104Y-105412296D01*
X87115345Y-105386411D01*
X87045823Y-105328746D01*
X87039312Y-105321010D01*
X87013129Y-105296454D01*
X86980752Y-105283646D01*
X86930173Y-105279714D01*
X86849384Y-105281790D01*
X86696872Y-105288084D01*
X86766311Y-105404500D01*
X86767307Y-105406168D01*
X86819138Y-105481718D01*
X86875019Y-105533431D01*
X86952167Y-105577316D01*
X86966525Y-105584031D01*
X86987762Y-105590863D01*
X87104762Y-105628504D01*
X87250767Y-105644297D01*
X87391816Y-105631149D01*
X87515188Y-105588802D01*
X87606221Y-105520028D01*
X87671489Y-105425117D01*
X87710679Y-105311319D01*
X87724376Y-105185419D01*
X87713165Y-105054203D01*
X87677631Y-104924457D01*
X87618359Y-104802968D01*
X87535935Y-104696521D01*
X87430943Y-104611903D01*
X87362006Y-104575030D01*
X87284601Y-104551226D01*
X87187062Y-104540378D01*
X87030530Y-104544758D01*
X86896397Y-104579039D01*
X86791840Y-104643584D01*
X86716927Y-104738334D01*
X86671724Y-104863229D01*
X86656298Y-105018209D01*
X86655833Y-105171667D01*
X86496161Y-105171667D01*
X86493681Y-105159935D01*
X86461321Y-105006207D01*
X86426652Y-104840900D01*
X86286525Y-104171542D01*
X87692915Y-104171542D01*
X87695707Y-104187774D01*
X87706369Y-104241446D01*
X87724057Y-104327728D01*
X87747761Y-104441761D01*
X87776470Y-104578688D01*
X87809172Y-104733651D01*
X87844858Y-104901792D01*
X87905218Y-105185419D01*
X87996886Y-105616167D01*
X88141277Y-105616167D01*
X88177526Y-105615872D01*
X88242654Y-105611979D01*
X88276176Y-105602276D01*
X88285667Y-105585135D01*
X88282938Y-105567622D01*
X88272611Y-105513166D01*
X88255753Y-105428058D01*
X88233597Y-105318262D01*
X88207380Y-105189742D01*
X88178336Y-105048463D01*
X88158373Y-104951981D01*
X88356421Y-104951981D01*
X88370451Y-105108817D01*
X88389457Y-105193183D01*
X88449131Y-105348725D01*
X88533957Y-105472978D01*
X88642087Y-105564156D01*
X88690358Y-105585135D01*
X88771671Y-105620475D01*
X88920862Y-105640150D01*
X88933565Y-105640135D01*
X89035433Y-105631253D01*
X89114768Y-105602759D01*
X89187446Y-105549240D01*
X89231976Y-105508770D01*
X89282803Y-105747677D01*
X89333629Y-105986584D01*
X89474577Y-105992801D01*
X89545962Y-105993651D01*
X89600391Y-105989865D01*
X89624480Y-105982217D01*
X89623621Y-105967536D01*
X89615296Y-105915428D01*
X89599675Y-105830571D01*
X89577719Y-105717865D01*
X89550386Y-105582210D01*
X89518635Y-105428506D01*
X89483426Y-105261653D01*
X89387043Y-104809472D01*
X89616043Y-104809472D01*
X89617576Y-104834533D01*
X89627049Y-104908697D01*
X89643934Y-105012325D01*
X89666810Y-105137770D01*
X89694254Y-105277386D01*
X89724846Y-105423526D01*
X89757164Y-105568542D01*
X89758477Y-105573924D01*
X89769039Y-105596864D01*
X89792193Y-105609569D01*
X89837845Y-105615013D01*
X89915903Y-105616167D01*
X89921487Y-105616152D01*
X89993331Y-105613117D01*
X90044296Y-105605819D01*
X90063667Y-105595740D01*
X90062956Y-105589378D01*
X90055578Y-105547916D01*
X90041463Y-105476196D01*
X90022193Y-105382140D01*
X89999351Y-105273672D01*
X89991594Y-105236862D01*
X89969058Y-105124672D01*
X89950500Y-105024555D01*
X89937668Y-104946258D01*
X89932309Y-104899530D01*
X89938786Y-104845854D01*
X89972172Y-104794523D01*
X90026494Y-104771662D01*
X90093602Y-104779977D01*
X90165348Y-104822171D01*
X90183067Y-104837950D01*
X90223765Y-104884447D01*
X90257724Y-104943526D01*
X90287966Y-105022539D01*
X90317515Y-105128840D01*
X90349394Y-105269781D01*
X90370280Y-105368088D01*
X90389808Y-105459486D01*
X90404923Y-105529672D01*
X90413456Y-105568542D01*
X90414766Y-105573966D01*
X90425268Y-105596887D01*
X90448387Y-105609579D01*
X90494021Y-105615015D01*
X90572070Y-105616167D01*
X90577653Y-105616152D01*
X90649497Y-105613145D01*
X90700463Y-105605913D01*
X90719833Y-105595924D01*
X90719051Y-105588994D01*
X90711660Y-105546718D01*
X90697720Y-105474266D01*
X90678766Y-105379513D01*
X90656333Y-105270332D01*
X90648240Y-105230798D01*
X90626446Y-105117630D01*
X90608859Y-105016441D01*
X90597112Y-104937020D01*
X90592833Y-104889153D01*
X90599126Y-104842533D01*
X90629683Y-104794630D01*
X90679147Y-104773832D01*
X90740278Y-104779029D01*
X90805835Y-104809112D01*
X90868575Y-104862971D01*
X90921259Y-104939495D01*
X90929625Y-104962450D01*
X90946680Y-105021944D01*
X90968657Y-105106271D01*
X90993336Y-105206061D01*
X91018502Y-105311941D01*
X91041935Y-105414539D01*
X91061419Y-105504484D01*
X91074735Y-105572405D01*
X91079667Y-105608928D01*
X91079783Y-105609215D01*
X91101876Y-105612728D01*
X91154797Y-105615220D01*
X91227833Y-105616167D01*
X91233748Y-105616152D01*
X91305641Y-105613280D01*
X91356626Y-105606405D01*
X91376000Y-105596917D01*
X91374205Y-105584356D01*
X91365063Y-105535082D01*
X91349389Y-105455387D01*
X91328550Y-105351930D01*
X91303908Y-105231370D01*
X91276828Y-105100367D01*
X91248674Y-104965579D01*
X91220810Y-104833668D01*
X91194599Y-104711292D01*
X91169903Y-104596980D01*
X91397167Y-104596980D01*
X91401174Y-104625447D01*
X91412638Y-104688375D01*
X91430040Y-104778146D01*
X91451857Y-104887398D01*
X91476566Y-105008768D01*
X91502644Y-105134893D01*
X91528569Y-105258409D01*
X91552819Y-105371953D01*
X91573869Y-105468163D01*
X91590198Y-105539674D01*
X91600282Y-105579125D01*
X91608014Y-105593939D01*
X91613232Y-105596917D01*
X91632155Y-105607717D01*
X91679962Y-105614412D01*
X91760721Y-105616167D01*
X91799292Y-105616077D01*
X91860892Y-105614191D01*
X91892324Y-105607589D01*
X91902047Y-105593347D01*
X91898523Y-105568542D01*
X91895499Y-105555037D01*
X91883977Y-105501584D01*
X91865942Y-105416754D01*
X91842779Y-105307083D01*
X91815868Y-105179111D01*
X91786594Y-105039375D01*
X91694750Y-104600167D01*
X91905167Y-104600167D01*
X92217375Y-104600167D01*
X92230073Y-104536679D01*
X92241466Y-104502109D01*
X92285797Y-104446814D01*
X92351370Y-104410797D01*
X92429512Y-104393490D01*
X92511551Y-104394325D01*
X92588812Y-104412736D01*
X92652624Y-104448156D01*
X92694312Y-104500016D01*
X92705205Y-104567751D01*
X92694342Y-104610487D01*
X92663963Y-104644266D01*
X92603667Y-104678813D01*
X92540580Y-104706134D01*
X92450355Y-104739309D01*
X92359011Y-104768150D01*
X92310215Y-104782863D01*
X92180881Y-104834682D01*
X92088515Y-104897484D01*
X92029259Y-104975811D01*
X91999254Y-105074207D01*
X91994643Y-105197213D01*
X92007292Y-105295854D01*
X92051423Y-105410897D01*
X92129422Y-105503660D01*
X92244654Y-105579287D01*
X92256453Y-105585197D01*
X92276299Y-105593347D01*
X92336562Y-105618096D01*
X92421384Y-105637164D01*
X92529583Y-105646825D01*
X92707399Y-105645042D01*
X92863811Y-105617462D01*
X92988665Y-105562817D01*
X93082999Y-105480446D01*
X93147853Y-105369686D01*
X93184266Y-105229875D01*
X93198927Y-105129334D01*
X93038880Y-105129334D01*
X92981793Y-105129539D01*
X92923428Y-105131983D01*
X92892733Y-105139582D01*
X92880828Y-105155254D01*
X92878833Y-105181916D01*
X92863831Y-105241233D01*
X92816371Y-105305055D01*
X92746677Y-105355388D01*
X92665288Y-105382341D01*
X92577844Y-105388167D01*
X92473294Y-105374657D01*
X92390239Y-105339623D01*
X92333728Y-105286602D01*
X92308809Y-105219131D01*
X92320527Y-105140746D01*
X92339918Y-105114718D01*
X92401906Y-105073672D01*
X92501666Y-105029950D01*
X92636656Y-104984808D01*
X92752017Y-104944083D01*
X92875261Y-104878084D01*
X92960867Y-104798235D01*
X93010793Y-104702548D01*
X93027000Y-104589038D01*
X93026812Y-104573424D01*
X93006225Y-104439238D01*
X92951056Y-104329034D01*
X92860505Y-104241685D01*
X92733772Y-104176066D01*
X92689083Y-104162143D01*
X92575808Y-104142192D01*
X92447685Y-104134244D01*
X92322189Y-104138944D01*
X92216797Y-104156940D01*
X92144127Y-104187596D01*
X92053245Y-104255410D01*
X91977472Y-104344164D01*
X91954481Y-104387902D01*
X91925403Y-104443224D01*
X91905632Y-104541959D01*
X91905167Y-104600167D01*
X91694750Y-104600167D01*
X91685898Y-104557834D01*
X91541532Y-104557834D01*
X91469312Y-104558958D01*
X91423237Y-104564228D01*
X91402185Y-104576089D01*
X91397167Y-104596980D01*
X91169903Y-104596980D01*
X91161446Y-104557834D01*
X91025306Y-104557834D01*
X90999460Y-104557868D01*
X90936762Y-104559610D01*
X90903901Y-104566901D01*
X90891245Y-104583716D01*
X90889167Y-104614031D01*
X90888159Y-104644844D01*
X90878693Y-104656952D01*
X90851351Y-104636005D01*
X90771928Y-104585341D01*
X90661747Y-104549564D01*
X90538480Y-104536667D01*
X90492004Y-104537455D01*
X90435713Y-104545404D01*
X90392585Y-104567771D01*
X90344306Y-104611627D01*
X90269346Y-104686588D01*
X90224426Y-104644388D01*
X90199009Y-104622989D01*
X90096682Y-104568205D01*
X89978581Y-104541007D01*
X89858596Y-104543362D01*
X89750615Y-104577240D01*
X89734663Y-104585855D01*
X89664085Y-104640861D01*
X89626535Y-104711965D01*
X89616043Y-104809472D01*
X89387043Y-104809472D01*
X89333417Y-104557889D01*
X89188074Y-104557861D01*
X89147412Y-104557938D01*
X89088032Y-104559876D01*
X89058235Y-104566979D01*
X89049351Y-104582589D01*
X89052713Y-104610049D01*
X89062695Y-104662265D01*
X89001641Y-104610891D01*
X88928960Y-104566528D01*
X88821221Y-104540446D01*
X88685068Y-104541716D01*
X88591841Y-104561886D01*
X88492843Y-104617356D01*
X88419411Y-104703017D01*
X88373339Y-104815637D01*
X88356421Y-104951981D01*
X88158373Y-104951981D01*
X88147699Y-104900390D01*
X88116704Y-104751487D01*
X88086587Y-104607719D01*
X88058583Y-104475051D01*
X88033925Y-104359448D01*
X88013849Y-104266873D01*
X87999589Y-104203292D01*
X87998273Y-104197939D01*
X87987670Y-104174986D01*
X87964493Y-104162272D01*
X87953489Y-104160959D01*
X91292230Y-104160959D01*
X91295122Y-104173987D01*
X91305338Y-104218483D01*
X91320222Y-104282667D01*
X91347317Y-104399084D01*
X91501782Y-104405354D01*
X91553791Y-104407320D01*
X91611608Y-104407582D01*
X91640458Y-104401933D01*
X91648669Y-104387902D01*
X91644569Y-104363020D01*
X91643554Y-104358731D01*
X91631377Y-104301841D01*
X91618506Y-104235042D01*
X91604122Y-104155667D01*
X91447728Y-104155667D01*
X91434767Y-104155685D01*
X91362164Y-104156538D01*
X91311204Y-104158413D01*
X91292230Y-104160959D01*
X87953489Y-104160959D01*
X87918828Y-104156823D01*
X87840764Y-104155667D01*
X87835217Y-104155678D01*
X87763344Y-104158035D01*
X87712333Y-104163707D01*
X87692915Y-104171542D01*
X86286525Y-104171542D01*
X86285417Y-104166250D01*
X85761542Y-104160589D01*
X85647996Y-104159748D01*
X85515547Y-104159846D01*
X85402698Y-104161152D01*
X85315129Y-104163551D01*
X85258524Y-104166930D01*
X85238564Y-104171172D01*
X84780735Y-104171172D01*
X84735480Y-104157039D01*
X84680187Y-104149170D01*
X84604252Y-104145798D01*
X84496833Y-104145084D01*
X84406112Y-104145729D01*
X84320983Y-104149160D01*
X84259830Y-104156832D01*
X84212408Y-104170166D01*
X84168473Y-104190581D01*
X84128695Y-104213347D01*
X84016729Y-104300906D01*
X83937569Y-104408446D01*
X83888292Y-104540923D01*
X83865972Y-104703293D01*
X83864983Y-104819767D01*
X83697204Y-104819767D01*
X83695242Y-104797662D01*
X83646795Y-104630887D01*
X83564104Y-104473574D01*
X83528020Y-104421639D01*
X83409728Y-104295024D01*
X83271351Y-104205403D01*
X83111651Y-104152116D01*
X82929391Y-104134500D01*
X82846277Y-104137459D01*
X82688322Y-104164561D01*
X82560096Y-104220634D01*
X82460096Y-104306475D01*
X82386822Y-104422882D01*
X82373159Y-104455239D01*
X82347853Y-104538737D01*
X82341755Y-104605063D01*
X81844369Y-104605063D01*
X81904942Y-104422762D01*
X82013144Y-104222031D01*
X82153169Y-104046096D01*
X82322468Y-103898275D01*
X82518495Y-103781884D01*
X82536771Y-103772966D01*
X82564141Y-103759055D01*
X82589283Y-103746202D01*
X82613847Y-103734366D01*
X82639485Y-103723508D01*
X82667846Y-103713589D01*
X82700580Y-103704568D01*
X82739339Y-103696405D01*
X82785772Y-103689061D01*
X82841531Y-103682495D01*
X82908265Y-103676668D01*
X82987624Y-103671540D01*
X83081260Y-103667070D01*
X83190823Y-103663220D01*
X83317963Y-103659949D01*
X83464331Y-103657218D01*
X83631576Y-103654986D01*
X83821350Y-103653214D01*
X84035302Y-103651861D01*
X84275084Y-103650888D01*
X84542345Y-103650256D01*
X84838736Y-103649923D01*
X85165908Y-103649851D01*
X85525511Y-103649999D01*
X85919194Y-103650328D01*
X86348610Y-103650797D01*
X86815408Y-103651367D01*
X87321238Y-103651998D01*
X87867751Y-103652650D01*
X92762417Y-103658250D01*
X92900000Y-103707639D01*
X92917600Y-103714075D01*
X93137735Y-103816981D01*
X93329629Y-103950566D01*
X93491686Y-104113249D01*
X93622311Y-104303450D01*
X93719907Y-104519590D01*
X93744820Y-104603425D01*
X93774789Y-104766913D01*
X93787717Y-104940956D01*
X93782754Y-105109526D01*
X93779561Y-105129334D01*
X93759048Y-105256598D01*
X93699089Y-105441971D01*
X93596682Y-105649359D01*
X93465085Y-105830458D01*
X93307039Y-105980877D01*
X93305131Y-105982217D01*
X93157340Y-106086045D01*
X92993947Y-106169066D01*
X91371952Y-102778676D02*
X91307542Y-102820378D01*
X91307542Y-102820378D02*
X91238417Y-102882088D01*
X91238417Y-102882088D02*
X91231525Y-103180211D01*
X91231525Y-103180211D02*
X91224634Y-103478334D01*
X91224634Y-103478334D02*
X91439500Y-103478334D01*
X91439500Y-103478334D02*
X91439500Y-103244109D01*
X91439500Y-103244109D02*
X91441427Y-103120267D01*
X91441427Y-103120267D02*
X91448510Y-103032769D01*
X91448510Y-103032769D02*
X91462707Y-102975748D01*
X91462707Y-102975748D02*
X91485974Y-102943334D01*
X91485974Y-102943334D02*
X91520266Y-102929660D01*
X91520266Y-102929660D02*
X91544878Y-102928000D01*
X91544878Y-102928000D02*
X91594906Y-102935312D01*
X91594906Y-102935312D02*
X91630472Y-102960892D01*
X91630472Y-102960892D02*
X91653736Y-103010207D01*
X91653736Y-103010207D02*
X91666863Y-103088723D01*
X91666863Y-103088723D02*
X91672015Y-103201909D01*
X91672015Y-103201909D02*
X91672333Y-103250210D01*
X91672333Y-103250210D02*
X91672333Y-103478334D01*
X91672333Y-103478334D02*
X91882697Y-103478334D01*
X91882697Y-103478334D02*
X91888640Y-103221305D01*
X91888640Y-103221305D02*
X91892998Y-103099727D01*
X91892998Y-103099727D02*
X91901127Y-103015026D01*
X91901127Y-103015026D02*
X91915453Y-102961765D01*
X91915453Y-102961765D02*
X91938400Y-102934510D01*
X91938400Y-102934510D02*
X91972392Y-102927824D01*
X91972392Y-102927824D02*
X92016192Y-102935339D01*
X92016192Y-102935339D02*
X92057987Y-102957939D01*
X92057987Y-102957939D02*
X92087495Y-103004662D01*
X92087495Y-103004662D02*
X92106126Y-103080338D01*
X92106126Y-103080338D02*
X92115288Y-103189798D01*
X92115288Y-103189798D02*
X92116833Y-103280409D01*
X92116833Y-103280409D02*
X92116833Y-103478334D01*
X92116833Y-103478334D02*
X92307333Y-103478334D01*
X92307333Y-103478334D02*
X92307333Y-102779834D01*
X92307333Y-102779834D02*
X92212083Y-102779834D01*
X92212083Y-102779834D02*
X92150928Y-102783373D01*
X92150928Y-102783373D02*
X92122403Y-102796267D01*
X92122403Y-102796267D02*
X92116833Y-102814864D01*
X92116833Y-102814864D02*
X92113413Y-102837197D01*
X92113413Y-102837197D02*
X92096370Y-102830540D01*
X92096370Y-102830540D02*
X92075359Y-102812361D01*
X92075359Y-102812361D02*
X92011700Y-102778494D01*
X92011700Y-102778494D02*
X91927376Y-102763594D01*
X91927376Y-102763594D02*
X91840258Y-102769106D01*
X91840258Y-102769106D02*
X91781674Y-102788603D01*
X91781674Y-102788603D02*
X91737154Y-102817347D01*
X91737154Y-102817347D02*
X91715164Y-102842763D01*
X91715164Y-102842763D02*
X91714667Y-102845759D01*
X91714667Y-102845759D02*
X91700778Y-102847924D01*
X91700778Y-102847924D02*
X91665921Y-102826521D01*
X91665921Y-102826521D02*
X91649543Y-102813465D01*
X91649543Y-102813465D02*
X91563688Y-102766906D01*
X91563688Y-102766906D02*
X91466984Y-102755394D01*
X91466984Y-102755394D02*
X91371952Y-102778676D01*
X91371952Y-102778676D02*
X91371952Y-102778676D01*
G36*
X91563688Y-102766906D02*
G01*
X91649543Y-102813465D01*
X91665921Y-102826521D01*
X91700778Y-102847924D01*
X91714667Y-102845759D01*
X91715164Y-102842763D01*
X91737154Y-102817347D01*
X91781674Y-102788603D01*
X91840258Y-102769106D01*
X91927376Y-102763594D01*
X92011700Y-102778494D01*
X92075359Y-102812361D01*
X92096370Y-102830540D01*
X92113413Y-102837197D01*
X92116833Y-102814864D01*
X92122403Y-102796267D01*
X92150928Y-102783373D01*
X92212083Y-102779834D01*
X92307333Y-102779834D01*
X92307333Y-103478334D01*
X92116833Y-103478334D01*
X92116833Y-103280409D01*
X92115288Y-103189798D01*
X92106126Y-103080338D01*
X92087495Y-103004662D01*
X92057987Y-102957939D01*
X92016192Y-102935339D01*
X91972392Y-102927824D01*
X91938400Y-102934510D01*
X91915453Y-102961765D01*
X91901127Y-103015026D01*
X91892998Y-103099727D01*
X91888640Y-103221305D01*
X91882697Y-103478334D01*
X91672333Y-103478334D01*
X91672333Y-103250210D01*
X91672015Y-103201909D01*
X91666863Y-103088723D01*
X91653736Y-103010207D01*
X91630472Y-102960892D01*
X91594906Y-102935312D01*
X91544878Y-102928000D01*
X91520266Y-102929660D01*
X91485974Y-102943334D01*
X91462707Y-102975748D01*
X91448510Y-103032769D01*
X91441427Y-103120267D01*
X91439500Y-103244109D01*
X91439500Y-103478334D01*
X91224634Y-103478334D01*
X91231525Y-103180211D01*
X91238417Y-102882088D01*
X91307542Y-102820378D01*
X91371952Y-102778676D01*
X91466984Y-102755394D01*
X91563688Y-102766906D01*
G37*
X91563688Y-102766906D02*
X91649543Y-102813465D01*
X91665921Y-102826521D01*
X91700778Y-102847924D01*
X91714667Y-102845759D01*
X91715164Y-102842763D01*
X91737154Y-102817347D01*
X91781674Y-102788603D01*
X91840258Y-102769106D01*
X91927376Y-102763594D01*
X92011700Y-102778494D01*
X92075359Y-102812361D01*
X92096370Y-102830540D01*
X92113413Y-102837197D01*
X92116833Y-102814864D01*
X92122403Y-102796267D01*
X92150928Y-102783373D01*
X92212083Y-102779834D01*
X92307333Y-102779834D01*
X92307333Y-103478334D01*
X92116833Y-103478334D01*
X92116833Y-103280409D01*
X92115288Y-103189798D01*
X92106126Y-103080338D01*
X92087495Y-103004662D01*
X92057987Y-102957939D01*
X92016192Y-102935339D01*
X91972392Y-102927824D01*
X91938400Y-102934510D01*
X91915453Y-102961765D01*
X91901127Y-103015026D01*
X91892998Y-103099727D01*
X91888640Y-103221305D01*
X91882697Y-103478334D01*
X91672333Y-103478334D01*
X91672333Y-103250210D01*
X91672015Y-103201909D01*
X91666863Y-103088723D01*
X91653736Y-103010207D01*
X91630472Y-102960892D01*
X91594906Y-102935312D01*
X91544878Y-102928000D01*
X91520266Y-102929660D01*
X91485974Y-102943334D01*
X91462707Y-102975748D01*
X91448510Y-103032769D01*
X91441427Y-103120267D01*
X91439500Y-103244109D01*
X91439500Y-103478334D01*
X91224634Y-103478334D01*
X91231525Y-103180211D01*
X91238417Y-102882088D01*
X91307542Y-102820378D01*
X91371952Y-102778676D01*
X91466984Y-102755394D01*
X91563688Y-102766906D01*
X87432636Y-102771003D02*
X87347283Y-102796648D01*
X87347283Y-102796648D02*
X87317520Y-102813811D01*
X87317520Y-102813811D02*
X87255042Y-102879447D01*
X87255042Y-102879447D02*
X87203296Y-102970032D01*
X87203296Y-102970032D02*
X87170725Y-103068242D01*
X87170725Y-103068242D02*
X87163833Y-103129084D01*
X87163833Y-103129084D02*
X87179035Y-103222799D01*
X87179035Y-103222799D02*
X87219012Y-103320375D01*
X87219012Y-103320375D02*
X87275318Y-103404487D01*
X87275318Y-103404487D02*
X87317520Y-103444356D01*
X87317520Y-103444356D02*
X87383258Y-103473712D01*
X87383258Y-103473712D02*
X87473385Y-103491009D01*
X87473385Y-103491009D02*
X87571391Y-103495118D01*
X87571391Y-103495118D02*
X87660766Y-103484906D01*
X87660766Y-103484906D02*
X87704633Y-103470874D01*
X87704633Y-103470874D02*
X87794271Y-103409181D01*
X87794271Y-103409181D02*
X87857023Y-103323196D01*
X87857023Y-103323196D02*
X87892775Y-103221421D01*
X87892775Y-103221421D02*
X87901411Y-103112358D01*
X87901411Y-103112358D02*
X87899230Y-103099704D01*
X87899230Y-103099704D02*
X87691788Y-103099704D01*
X87691788Y-103099704D02*
X87688220Y-103154683D01*
X87688220Y-103154683D02*
X87676747Y-103234683D01*
X87676747Y-103234683D02*
X87655559Y-103285600D01*
X87655559Y-103285600D02*
X87630414Y-103312517D01*
X87630414Y-103312517D02*
X87562015Y-103346229D01*
X87562015Y-103346229D02*
X87493091Y-103342846D01*
X87493091Y-103342846D02*
X87458333Y-103324202D01*
X87458333Y-103324202D02*
X87403072Y-103255484D01*
X87403072Y-103255484D02*
X87377336Y-103158068D01*
X87377336Y-103158068D02*
X87375500Y-103118263D01*
X87375500Y-103118263D02*
X87384518Y-103046044D01*
X87384518Y-103046044D02*
X87418318Y-102989069D01*
X87418318Y-102989069D02*
X87437372Y-102968705D01*
X87437372Y-102968705D02*
X87495244Y-102921579D01*
X87495244Y-102921579D02*
X87544989Y-102911419D01*
X87544989Y-102911419D02*
X87597483Y-102938365D01*
X87597483Y-102938365D02*
X87633673Y-102971250D01*
X87633673Y-102971250D02*
X87670531Y-103012029D01*
X87670531Y-103012029D02*
X87688255Y-103049303D01*
X87688255Y-103049303D02*
X87691788Y-103099704D01*
X87691788Y-103099704D02*
X87899230Y-103099704D01*
X87899230Y-103099704D02*
X87882818Y-103004508D01*
X87882818Y-103004508D02*
X87836881Y-102906374D01*
X87836881Y-102906374D02*
X87763485Y-102826456D01*
X87763485Y-102826456D02*
X87713745Y-102794564D01*
X87713745Y-102794564D02*
X87632485Y-102769154D01*
X87632485Y-102769154D02*
X87533242Y-102761569D01*
X87533242Y-102761569D02*
X87432636Y-102771003D01*
X87432636Y-102771003D02*
X87432636Y-102771003D01*
G36*
X87892775Y-103221421D02*
G01*
X87857023Y-103323196D01*
X87794271Y-103409181D01*
X87704633Y-103470874D01*
X87660766Y-103484906D01*
X87571391Y-103495118D01*
X87473385Y-103491009D01*
X87383258Y-103473712D01*
X87317520Y-103444356D01*
X87275318Y-103404487D01*
X87219012Y-103320375D01*
X87179035Y-103222799D01*
X87163833Y-103129084D01*
X87165059Y-103118263D01*
X87375500Y-103118263D01*
X87377336Y-103158068D01*
X87403072Y-103255484D01*
X87458333Y-103324202D01*
X87493091Y-103342846D01*
X87562015Y-103346229D01*
X87630414Y-103312517D01*
X87655559Y-103285600D01*
X87676747Y-103234683D01*
X87688220Y-103154683D01*
X87691788Y-103099704D01*
X87688255Y-103049303D01*
X87670531Y-103012029D01*
X87633673Y-102971250D01*
X87597483Y-102938365D01*
X87544989Y-102911419D01*
X87495244Y-102921579D01*
X87437372Y-102968705D01*
X87418318Y-102989069D01*
X87384518Y-103046044D01*
X87375500Y-103118263D01*
X87165059Y-103118263D01*
X87170725Y-103068242D01*
X87203296Y-102970032D01*
X87255042Y-102879447D01*
X87317520Y-102813811D01*
X87347283Y-102796648D01*
X87432636Y-102771003D01*
X87533242Y-102761569D01*
X87632485Y-102769154D01*
X87713745Y-102794564D01*
X87763485Y-102826456D01*
X87836881Y-102906374D01*
X87882818Y-103004508D01*
X87899230Y-103099704D01*
X87901411Y-103112358D01*
X87892775Y-103221421D01*
G37*
X87892775Y-103221421D02*
X87857023Y-103323196D01*
X87794271Y-103409181D01*
X87704633Y-103470874D01*
X87660766Y-103484906D01*
X87571391Y-103495118D01*
X87473385Y-103491009D01*
X87383258Y-103473712D01*
X87317520Y-103444356D01*
X87275318Y-103404487D01*
X87219012Y-103320375D01*
X87179035Y-103222799D01*
X87163833Y-103129084D01*
X87165059Y-103118263D01*
X87375500Y-103118263D01*
X87377336Y-103158068D01*
X87403072Y-103255484D01*
X87458333Y-103324202D01*
X87493091Y-103342846D01*
X87562015Y-103346229D01*
X87630414Y-103312517D01*
X87655559Y-103285600D01*
X87676747Y-103234683D01*
X87688220Y-103154683D01*
X87691788Y-103099704D01*
X87688255Y-103049303D01*
X87670531Y-103012029D01*
X87633673Y-102971250D01*
X87597483Y-102938365D01*
X87544989Y-102911419D01*
X87495244Y-102921579D01*
X87437372Y-102968705D01*
X87418318Y-102989069D01*
X87384518Y-103046044D01*
X87375500Y-103118263D01*
X87165059Y-103118263D01*
X87170725Y-103068242D01*
X87203296Y-102970032D01*
X87255042Y-102879447D01*
X87317520Y-102813811D01*
X87347283Y-102796648D01*
X87432636Y-102771003D01*
X87533242Y-102761569D01*
X87632485Y-102769154D01*
X87713745Y-102794564D01*
X87763485Y-102826456D01*
X87836881Y-102906374D01*
X87882818Y-103004508D01*
X87899230Y-103099704D01*
X87901411Y-103112358D01*
X87892775Y-103221421D01*
D12*
G04 #@! TO.C,U4*
X104228007Y-93960000D02*
G75*
G03*
X104228007Y-93960000I-68007J0D01*
G01*
G04 #@! TO.C,U7*
X100000000Y-102610000D02*
X102200000Y-102610000D01*
X100000000Y-102610000D02*
X96400000Y-102610000D01*
X100000000Y-97390000D02*
X97800000Y-97390000D01*
X100000000Y-97390000D02*
X102200000Y-97390000D01*
G04 #@! TD*
M02*
