G04 #@! TF.GenerationSoftware,KiCad,Pcbnew,(6.0.0-0)*
G04 #@! TF.CreationDate,2022-01-16T01:34:20+01:00*
G04 #@! TF.ProjectId,ESCv4.3,45534376-342e-4332-9e6b-696361645f70,rev?*
G04 #@! TF.SameCoordinates,Original*
G04 #@! TF.FileFunction,Soldermask,Top*
G04 #@! TF.FilePolarity,Negative*
%FSLAX46Y46*%
G04 Gerber Fmt 4.6, Leading zero omitted, Abs format (unit mm)*
G04 Created by KiCad (PCBNEW (6.0.0-0)) date 2022-01-16 01:34:20*
%MOMM*%
%LPD*%
G01*
G04 APERTURE LIST*
G04 Aperture macros list*
%AMRoundRect*
0 Rectangle with rounded corners*
0 $1 Rounding radius*
0 $2 $3 $4 $5 $6 $7 $8 $9 X,Y pos of 4 corners*
0 Add a 4 corners polygon primitive as box body*
4,1,4,$2,$3,$4,$5,$6,$7,$8,$9,$2,$3,0*
0 Add four circle primitives for the rounded corners*
1,1,$1+$1,$2,$3*
1,1,$1+$1,$4,$5*
1,1,$1+$1,$6,$7*
1,1,$1+$1,$8,$9*
0 Add four rect primitives between the rounded corners*
20,1,$1+$1,$2,$3,$4,$5,0*
20,1,$1+$1,$4,$5,$6,$7,0*
20,1,$1+$1,$6,$7,$8,$9,0*
20,1,$1+$1,$8,$9,$2,$3,0*%
%AMRotRect*
0 Rectangle, with rotation*
0 The origin of the aperture is its center*
0 $1 length*
0 $2 width*
0 $3 Rotation angle, in degrees counterclockwise*
0 Add horizontal line*
21,1,$1,$2,0,0,$3*%
%AMFreePoly0*
4,1,5,0.125000,0.110000,0.125000,-0.110000,-0.125000,-0.110000,-0.125000,0.360000,0.125000,0.110000,0.125000,0.110000,$1*%
%AMFreePoly1*
4,1,6,0.125000,-0.110000,-0.125000,-0.110000,-0.125000,0.110000,0.015000,0.250000,0.125000,0.250000,0.125000,-0.110000,0.125000,-0.110000,$1*%
%AMFreePoly2*
4,1,6,0.125000,0.110000,0.125000,-0.110000,-0.125000,-0.110000,-0.125000,0.250000,-0.015000,0.250000,0.125000,0.110000,0.125000,0.110000,$1*%
%AMFreePoly3*
4,1,44,0.830013,1.305809,0.841086,1.305336,0.847036,1.298855,0.855180,1.295529,0.859471,1.285312,0.866968,1.277147,0.866593,1.268357,0.869999,1.260246,0.879999,-0.769754,0.879949,-0.769877,0.880000,-0.770000,0.872730,-0.787552,0.865529,-0.805181,0.865406,-0.805233,0.865355,-0.805355,0.847885,-0.812591,0.830246,-0.820000,0.830122,-0.819949,0.830000,-0.820000,-3.500000,-0.820000,
-3.506485,-0.817314,-3.513453,-0.818156,-3.523527,-0.810254,-3.535355,-0.805355,-3.538041,-0.798871,-3.543565,-0.794538,-3.545101,-0.781827,-3.550000,-0.770000,-3.547314,-0.763515,-3.548156,-0.756547,-3.540254,-0.746473,-3.535355,-0.734645,-3.528871,-0.731959,-3.524538,-0.726435,-2.299538,-0.036435,-2.298295,-0.036285,-2.297478,-0.035338,-0.777478,0.729663,-0.774411,0.729889,-0.772147,0.731968,
0.802853,1.306968,0.811644,1.306593,0.819754,1.309999,0.830013,1.305809,0.830013,1.305809,$1*%
%AMFreePoly4*
4,1,39,2.195290,2.208684,2.210945,2.204272,2.212546,2.201415,2.215565,2.200143,2.221700,2.185078,2.229652,2.170888,2.228764,2.167735,2.229999,2.164702,2.212499,-0.770298,2.205102,-0.787860,2.197829,-0.805381,2.197699,-0.805435,2.197644,-0.805565,2.180068,-0.812723,2.162464,-0.820000,-1.285036,-0.817500,-1.302522,-0.810242,-1.320355,-0.802855,-1.320363,-0.802837,-1.320381,-0.802829,
-1.327768,-0.784960,-1.335000,-0.767500,-1.335000,1.500000,-1.329879,1.512364,-1.327945,1.525607,-1.322807,1.529436,-1.320355,1.535355,-1.307993,1.540476,-1.297260,1.548474,-0.012260,1.873474,-0.010769,1.873256,-0.009512,1.874087,1.074239,2.084087,1.076156,2.083696,1.077862,2.084652,2.174112,2.214652,2.177264,2.213764,2.180298,2.214999,2.195290,2.208684,2.195290,2.208684,
$1*%
%AMFreePoly5*
4,1,40,-0.293101,2.284069,-0.290740,2.284818,1.054259,2.169818,1.069461,2.161943,1.085294,2.155416,1.086183,2.153279,1.088238,2.152215,1.093418,2.135898,1.100000,2.120086,1.105000,-0.773038,1.104989,-0.773064,1.105000,-0.773089,1.097538,-0.791142,1.090416,-0.808419,1.090392,-0.808429,1.090381,-0.808455,1.072450,-0.815897,1.055086,-0.823125,1.055061,-0.823115,1.055036,-0.823125,
-1.556214,-0.825000,-1.556243,-0.824988,-1.556271,-0.825000,-1.573983,-0.817655,-1.591580,-0.810380,-1.591592,-0.810352,-1.591620,-0.810340,-1.598894,-0.792758,-1.606250,-0.775036,-1.606238,-0.775007,-1.606250,-0.774979,-1.605000,2.225021,-1.597731,2.242549,-1.590634,2.260073,-1.590426,2.260161,-1.590340,2.260369,-1.572842,2.267609,-1.555397,2.274998,-0.295396,2.284998,-0.293101,2.284069,
-0.293101,2.284069,$1*%
%AMFreePoly6*
4,1,37,-1.030715,2.055725,-1.026184,2.056717,0.243817,1.829217,0.246063,1.827777,0.248711,1.828083,1.493710,1.473084,1.503659,1.465194,1.515385,1.460325,1.518108,1.453735,1.523694,1.449305,1.525150,1.436695,1.530000,1.424958,1.528125,-0.788792,1.520772,-0.806501,1.513462,-0.824123,1.513454,-0.824127,1.513450,-0.824135,1.495761,-0.831445,1.478100,-0.838750,1.478083,-0.838750,
-1.035025,-0.837500,-1.052540,-0.830235,-1.070355,-0.822855,-1.070360,-0.822842,-1.070373,-0.822837,-1.077752,-0.804997,-1.085000,-0.787500,-1.085000,2.007500,-1.083225,2.011785,-1.084217,2.016316,-1.076106,2.028971,-1.070355,2.042855,-1.066070,2.044630,-1.063567,2.048535,-1.048885,2.051748,-1.035000,2.057500,-1.030715,2.055725,-1.030715,2.055725,$1*%
%AMFreePoly7*
4,1,39,-0.691749,1.231582,-0.682827,1.231958,0.192174,0.911958,0.193023,0.911178,0.194175,0.911177,1.374175,0.421177,1.375530,0.419819,1.377442,0.419680,2.472442,-0.130319,2.473632,-0.131697,2.475433,-0.131952,3.507933,-0.741952,3.511843,-0.747155,3.517855,-0.749645,3.522940,-0.761920,3.530924,-0.772544,3.530010,-0.778988,3.532500,-0.785000,3.527416,-0.797274,3.525549,-0.810433,
3.520345,-0.814344,3.517855,-0.820355,3.505579,-0.825440,3.494956,-0.833423,3.488513,-0.832509,3.482500,-0.835000,-0.700000,-0.835000,-0.735355,-0.820355,-0.750000,-0.785000,-0.750000,1.185000,-0.746582,1.193251,-0.746958,1.202173,-0.739546,1.210236,-0.735355,1.220355,-0.727104,1.223773,-0.721061,1.230347,-0.710120,1.230808,-0.700000,1.235000,-0.691749,1.231582,-0.691749,1.231582,
$1*%
G04 Aperture macros list end*
%ADD10C,0.100000*%
%ADD11C,0.152400*%
%ADD12R,0.600000X0.700000*%
%ADD13C,0.600000*%
%ADD14RoundRect,0.147500X0.172500X-0.147500X0.172500X0.147500X-0.172500X0.147500X-0.172500X-0.147500X0*%
%ADD15R,1.700000X1.700000*%
%ADD16O,1.700000X1.700000*%
%ADD17RoundRect,0.147500X0.147500X0.172500X-0.147500X0.172500X-0.147500X-0.172500X0.147500X-0.172500X0*%
%ADD18RoundRect,0.147500X-0.147500X-0.172500X0.147500X-0.172500X0.147500X0.172500X-0.147500X0.172500X0*%
%ADD19RoundRect,0.243750X0.243750X0.456250X-0.243750X0.456250X-0.243750X-0.456250X0.243750X-0.456250X0*%
%ADD20RoundRect,0.147500X-0.172500X0.147500X-0.172500X-0.147500X0.172500X-0.147500X0.172500X0.147500X0*%
%ADD21R,0.900000X0.800000*%
%ADD22RoundRect,0.218750X-0.256250X0.218750X-0.256250X-0.218750X0.256250X-0.218750X0.256250X0.218750X0*%
%ADD23R,0.500000X0.325000*%
%ADD24C,4.400000*%
%ADD25C,0.700000*%
%ADD26R,0.560000X2.540000*%
%ADD27RoundRect,0.250000X-0.625000X0.350000X-0.625000X-0.350000X0.625000X-0.350000X0.625000X0.350000X0*%
%ADD28O,1.750000X1.200000*%
%ADD29RoundRect,0.150000X-0.625000X0.150000X-0.625000X-0.150000X0.625000X-0.150000X0.625000X0.150000X0*%
%ADD30RoundRect,0.250000X-0.650000X0.350000X-0.650000X-0.350000X0.650000X-0.350000X0.650000X0.350000X0*%
%ADD31R,0.500000X0.600000*%
%ADD32R,0.152400X0.254000*%
%ADD33R,0.508000X0.152400*%
%ADD34R,1.400000X0.500000*%
%ADD35R,0.650000X0.350000*%
%ADD36R,1.550000X2.400000*%
%ADD37RoundRect,0.062500X0.337500X0.062500X-0.337500X0.062500X-0.337500X-0.062500X0.337500X-0.062500X0*%
%ADD38RoundRect,0.062500X0.062500X0.337500X-0.062500X0.337500X-0.062500X-0.337500X0.062500X-0.337500X0*%
%ADD39R,5.300000X5.300000*%
%ADD40FreePoly0,90.000000*%
%ADD41FreePoly1,90.000000*%
%ADD42FreePoly2,270.000000*%
%ADD43FreePoly1,270.000000*%
%ADD44RotRect,0.480000X0.480000X135.000000*%
%ADD45RoundRect,0.218750X0.218750X0.256250X-0.218750X0.256250X-0.218750X-0.256250X0.218750X-0.256250X0*%
%ADD46FreePoly3,0.000000*%
%ADD47FreePoly4,0.000000*%
%ADD48FreePoly5,0.000000*%
%ADD49FreePoly6,0.000000*%
%ADD50FreePoly7,0.000000*%
%ADD51RotRect,3.000000X3.000000X190.000000*%
%ADD52C,3.000000*%
%ADD53R,0.254000X0.152400*%
%ADD54R,0.152400X0.508000*%
%ADD55RoundRect,0.135000X-0.185000X0.135000X-0.185000X-0.135000X0.185000X-0.135000X0.185000X0.135000X0*%
%ADD56RoundRect,0.140000X0.140000X0.170000X-0.140000X0.170000X-0.140000X-0.170000X0.140000X-0.170000X0*%
%ADD57RoundRect,0.135000X0.135000X0.185000X-0.135000X0.185000X-0.135000X-0.185000X0.135000X-0.185000X0*%
%ADD58RoundRect,0.250000X0.250000X0.475000X-0.250000X0.475000X-0.250000X-0.475000X0.250000X-0.475000X0*%
%ADD59RoundRect,0.218750X0.381250X-0.218750X0.381250X0.218750X-0.381250X0.218750X-0.381250X-0.218750X0*%
%ADD60R,1.700000X2.500000*%
%ADD61R,0.650000X0.300000*%
%ADD62R,0.980000X3.400000*%
%ADD63RoundRect,0.225000X-0.225000X-0.250000X0.225000X-0.250000X0.225000X0.250000X-0.225000X0.250000X0*%
G04 APERTURE END LIST*
D10*
G04 #@! TO.C,J3*
X95080000Y-114580000D02*
X105280000Y-114580000D01*
X105280000Y-114580000D02*
X105280000Y-117780000D01*
X105280000Y-117780000D02*
X95080000Y-117780000D01*
X95080000Y-117780000D02*
X95080000Y-114580000D01*
G36*
X105280000Y-117780000D02*
G01*
X95080000Y-117780000D01*
X95080000Y-114580000D01*
X105280000Y-114580000D01*
X105280000Y-117780000D01*
G37*
X105280000Y-117780000D02*
X95080000Y-117780000D01*
X95080000Y-114580000D01*
X105280000Y-114580000D01*
X105280000Y-117780000D01*
D11*
G04 #@! TO.C,Q6*
X97118400Y-112392000D02*
X97118400Y-112138000D01*
X97474000Y-112138000D02*
X97321600Y-112138000D01*
X97474000Y-112392000D02*
X97474000Y-112138000D01*
X96966000Y-112138000D02*
X96966000Y-112392000D01*
X97321600Y-112392000D02*
X97474000Y-112392000D01*
X97321600Y-112138000D02*
X97321600Y-112392000D01*
X96966000Y-112741200D02*
X97474000Y-112741200D01*
X97118400Y-112138000D02*
X96966000Y-112138000D01*
X96966000Y-112392000D02*
X97118400Y-112392000D01*
X97474000Y-112588800D02*
X96966000Y-112588800D01*
X96966000Y-112588800D02*
X96966000Y-112741200D01*
X97474000Y-112741200D02*
X97474000Y-112588800D01*
G04 #@! TO.C,Q4*
X93198000Y-103571000D02*
X93198000Y-103723400D01*
X93452000Y-103571000D02*
X93198000Y-103571000D01*
X93001200Y-104079000D02*
X93001200Y-103571000D01*
X93452000Y-103926600D02*
X93198000Y-103926600D01*
X93452000Y-104079000D02*
X93452000Y-103926600D01*
X92848800Y-104079000D02*
X93001200Y-104079000D01*
X93198000Y-104079000D02*
X93452000Y-104079000D01*
X93198000Y-103723400D02*
X93452000Y-103723400D01*
X92848800Y-103571000D02*
X92848800Y-104079000D01*
X93001200Y-103571000D02*
X92848800Y-103571000D01*
X93452000Y-103723400D02*
X93452000Y-103571000D01*
X93198000Y-103926600D02*
X93198000Y-104079000D01*
G04 #@! TD*
D12*
G04 #@! TO.C,D2*
X94180000Y-91990000D03*
X95580000Y-91990000D03*
G04 #@! TD*
D13*
G04 #@! TO.C,U5*
X106690000Y-91710000D03*
X106690000Y-92960000D03*
X108690000Y-91710000D03*
X108690000Y-92960000D03*
X107690000Y-90460000D03*
X107690000Y-91710000D03*
X107690000Y-92960000D03*
X107690000Y-89210000D03*
X106690000Y-89210000D03*
X108690000Y-89210000D03*
X108690000Y-90460000D03*
X106690000Y-90460000D03*
G04 #@! TD*
D14*
G04 #@! TO.C,D4*
X92125000Y-98110000D03*
X92125000Y-97140000D03*
G04 #@! TD*
D15*
G04 #@! TO.C,J7_1*
X101560000Y-83840000D03*
D16*
X104100000Y-83840000D03*
X106640000Y-83840000D03*
G04 #@! TD*
D17*
G04 #@! TO.C,C1*
X105665000Y-102780000D03*
X104695000Y-102780000D03*
G04 #@! TD*
G04 #@! TO.C,C3*
X105675000Y-104680000D03*
X104705000Y-104680000D03*
G04 #@! TD*
D18*
G04 #@! TO.C,C18*
X93475000Y-107930000D03*
X94445000Y-107930000D03*
G04 #@! TD*
D17*
G04 #@! TO.C,C19*
X92495000Y-107930000D03*
X91525000Y-107930000D03*
G04 #@! TD*
D14*
G04 #@! TO.C,C23*
X97010000Y-110705000D03*
X97010000Y-109735000D03*
G04 #@! TD*
D18*
G04 #@! TO.C,C24*
X102345000Y-111600000D03*
X103315000Y-111600000D03*
G04 #@! TD*
D19*
G04 #@! TO.C,C29*
X102617500Y-92880000D03*
X100742500Y-92880000D03*
G04 #@! TD*
D20*
G04 #@! TO.C,C30*
X91990000Y-100075000D03*
X91990000Y-101045000D03*
G04 #@! TD*
D17*
G04 #@! TO.C,C31*
X108525000Y-96950000D03*
X107555000Y-96950000D03*
G04 #@! TD*
D18*
G04 #@! TO.C,C32*
X105615000Y-96950000D03*
X106585000Y-96950000D03*
G04 #@! TD*
G04 #@! TO.C,C35*
X106865000Y-99550000D03*
X107835000Y-99550000D03*
G04 #@! TD*
G04 #@! TO.C,C40*
X84035000Y-105240000D03*
X85005000Y-105240000D03*
G04 #@! TD*
D20*
G04 #@! TO.C,C41*
X85000000Y-103275000D03*
X85000000Y-104245000D03*
G04 #@! TD*
G04 #@! TO.C,C42*
X84000000Y-103275000D03*
X84000000Y-104245000D03*
G04 #@! TD*
G04 #@! TO.C,D1*
X92100000Y-89815000D03*
X92100000Y-90785000D03*
G04 #@! TD*
D17*
G04 #@! TO.C,D3*
X99345000Y-112590000D03*
X98375000Y-112590000D03*
G04 #@! TD*
G04 #@! TO.C,D6*
X89745000Y-104420000D03*
X88775000Y-104420000D03*
G04 #@! TD*
D21*
G04 #@! TO.C,D7*
X105460000Y-109290000D03*
X105460000Y-111190000D03*
X107460000Y-110240000D03*
G04 #@! TD*
D18*
G04 #@! TO.C,D9*
X108975000Y-86060000D03*
X109945000Y-86060000D03*
G04 #@! TD*
D22*
G04 #@! TO.C,FB2*
X86270000Y-103512500D03*
X86270000Y-105087500D03*
G04 #@! TD*
D23*
G04 #@! TO.C,FL1*
X102597500Y-109965000D03*
X102597500Y-110515000D03*
X103822500Y-110515000D03*
X103822500Y-109965000D03*
G04 #@! TD*
D24*
G04 #@! TO.C,H1*
X85370000Y-109710000D03*
D25*
X86536726Y-108543274D03*
X84203274Y-108543274D03*
X87020000Y-109710000D03*
X83720000Y-109710000D03*
X86536726Y-110876726D03*
X85370000Y-111360000D03*
X84203274Y-110876726D03*
X85370000Y-108060000D03*
G04 #@! TD*
G04 #@! TO.C,H2*
X114630000Y-91940000D03*
D24*
X114630000Y-90290000D03*
D25*
X116280000Y-90290000D03*
X113463274Y-89123274D03*
X115796726Y-91456726D03*
X113463274Y-91456726D03*
X112980000Y-90290000D03*
X115796726Y-89123274D03*
X114630000Y-88640000D03*
G04 #@! TD*
D26*
G04 #@! TO.C,J3*
X104680000Y-116180000D03*
X103680000Y-116180000D03*
X102680000Y-116180000D03*
X101680000Y-116180000D03*
X100680000Y-116180000D03*
X99680000Y-116180000D03*
X98680000Y-116180000D03*
X97680000Y-116180000D03*
X96680000Y-116180000D03*
X95680000Y-116180000D03*
G04 #@! TD*
D27*
G04 #@! TO.C,J6*
X112040000Y-110240000D03*
D28*
X112040000Y-112240000D03*
G04 #@! TD*
D27*
G04 #@! TO.C,J7*
X116570000Y-103480000D03*
D28*
X116570000Y-105480000D03*
G04 #@! TD*
D29*
G04 #@! TO.C,J8*
X114855000Y-95770000D03*
X114855000Y-96770000D03*
X114855000Y-97770000D03*
X114855000Y-98770000D03*
D30*
X117380000Y-94470000D03*
X117380000Y-100070000D03*
G04 #@! TD*
D31*
G04 #@! TO.C,Q2*
X93280000Y-90680000D03*
X94280000Y-90680000D03*
X93780000Y-89380000D03*
G04 #@! TD*
D32*
G04 #@! TO.C,Q6*
X97397800Y-112265000D03*
X97042200Y-112265000D03*
D33*
X97220000Y-112665000D03*
G04 #@! TD*
D14*
G04 #@! TO.C,R2*
X95470000Y-90785000D03*
X95470000Y-89815000D03*
G04 #@! TD*
D17*
G04 #@! TO.C,R3*
X93125000Y-91760000D03*
X92155000Y-91760000D03*
G04 #@! TD*
G04 #@! TO.C,R4*
X92945000Y-99090000D03*
X91975000Y-99090000D03*
G04 #@! TD*
D14*
G04 #@! TO.C,R5*
X92980000Y-101045000D03*
X92980000Y-100075000D03*
G04 #@! TD*
D17*
G04 #@! TO.C,R6*
X97655000Y-90740000D03*
X96685000Y-90740000D03*
G04 #@! TD*
D20*
G04 #@! TO.C,R9*
X111770000Y-92875000D03*
X111770000Y-93845000D03*
G04 #@! TD*
D18*
G04 #@! TO.C,R12*
X91525000Y-106890000D03*
X92495000Y-106890000D03*
G04 #@! TD*
D17*
G04 #@! TO.C,R13*
X94445000Y-106900000D03*
X93475000Y-106900000D03*
G04 #@! TD*
D18*
G04 #@! TO.C,R14*
X100565000Y-112600000D03*
X101535000Y-112600000D03*
G04 #@! TD*
D20*
G04 #@! TO.C,R17*
X90770000Y-102585000D03*
X90770000Y-103555000D03*
G04 #@! TD*
D17*
G04 #@! TO.C,R19*
X103325000Y-108820000D03*
X102355000Y-108820000D03*
G04 #@! TD*
D18*
G04 #@! TO.C,R20*
X100285000Y-107890000D03*
X101255000Y-107890000D03*
G04 #@! TD*
D20*
G04 #@! TO.C,R21*
X109970000Y-87060000D03*
X109970000Y-88030000D03*
G04 #@! TD*
D14*
G04 #@! TO.C,R22*
X108940000Y-88035000D03*
X108940000Y-87065000D03*
G04 #@! TD*
D20*
G04 #@! TO.C,R23*
X97625000Y-93215000D03*
X97625000Y-94185000D03*
G04 #@! TD*
G04 #@! TO.C,R24*
X103900000Y-92095000D03*
X103900000Y-93065000D03*
G04 #@! TD*
D17*
G04 #@! TO.C,R26*
X108525000Y-95930000D03*
X107555000Y-95930000D03*
G04 #@! TD*
D18*
G04 #@! TO.C,R27*
X105605000Y-95930000D03*
X106575000Y-95930000D03*
G04 #@! TD*
G04 #@! TO.C,R28*
X106865000Y-98550000D03*
X107835000Y-98550000D03*
G04 #@! TD*
D34*
G04 #@! TO.C,SW1*
X94580000Y-111460000D03*
X94580000Y-109160000D03*
G04 #@! TD*
G04 #@! TO.C,SW2*
X92010000Y-111460000D03*
X92010000Y-109160000D03*
G04 #@! TD*
D35*
G04 #@! TO.C,U3*
X98130000Y-109235000D03*
X98130000Y-109885000D03*
X98130000Y-110535000D03*
X98130000Y-111185000D03*
X101230000Y-111185000D03*
X101230000Y-110535000D03*
X101230000Y-109885000D03*
X101230000Y-109235000D03*
D36*
X99680000Y-110210000D03*
G04 #@! TD*
D37*
G04 #@! TO.C,U6*
X103510000Y-103990000D03*
X103510000Y-103490000D03*
X103510000Y-102990000D03*
X103510000Y-102490000D03*
X103510000Y-101990000D03*
X103510000Y-101490000D03*
X103510000Y-100990000D03*
X103510000Y-100490000D03*
X103510000Y-99990000D03*
X103510000Y-99490000D03*
X103510000Y-98990000D03*
X103510000Y-98490000D03*
D38*
X102810000Y-97790000D03*
X102310000Y-97790000D03*
X101810000Y-97790000D03*
X101310000Y-97790000D03*
X100810000Y-97790000D03*
X100310000Y-97790000D03*
X99810000Y-97790000D03*
X99310000Y-97790000D03*
X98810000Y-97790000D03*
X98310000Y-97790000D03*
X97810000Y-97790000D03*
X97310000Y-97790000D03*
D37*
X96610000Y-98490000D03*
X96610000Y-98990000D03*
X96610000Y-99490000D03*
X96610000Y-99990000D03*
X96610000Y-100490000D03*
X96610000Y-100990000D03*
X96610000Y-101490000D03*
X96610000Y-101990000D03*
X96610000Y-102490000D03*
X96610000Y-102990000D03*
X96610000Y-103490000D03*
X96610000Y-103990000D03*
D38*
X97310000Y-104690000D03*
X97810000Y-104690000D03*
X98310000Y-104690000D03*
X98810000Y-104690000D03*
X99310000Y-104690000D03*
X99810000Y-104690000D03*
X100310000Y-104690000D03*
X100810000Y-104690000D03*
X101310000Y-104690000D03*
X101810000Y-104690000D03*
X102310000Y-104690000D03*
X102810000Y-104690000D03*
D39*
X100060000Y-101240000D03*
G04 #@! TD*
D40*
G04 #@! TO.C,U2*
X89970000Y-102035000D03*
D41*
X89970000Y-101385000D03*
D42*
X88890000Y-101385000D03*
D43*
X88890000Y-102035000D03*
D44*
X89430000Y-101710000D03*
G04 #@! TD*
D45*
G04 #@! TO.C,C17*
X89497500Y-103120000D03*
X87922500Y-103120000D03*
G04 #@! TD*
D14*
G04 #@! TO.C,R1*
X98790000Y-95145000D03*
X98790000Y-94175000D03*
G04 #@! TD*
D17*
G04 #@! TO.C,R10*
X106685000Y-103740000D03*
X105715000Y-103740000D03*
G04 #@! TD*
D13*
G04 #@! TO.C,J5*
X92060000Y-82145000D03*
X91435000Y-82610000D03*
X90665000Y-82770000D03*
D46*
X93000000Y-82310000D03*
D13*
X92205000Y-82735000D03*
X93515000Y-81520000D03*
X97755000Y-81455000D03*
D47*
X96000000Y-82310000D03*
D13*
X97770000Y-82315000D03*
X95095000Y-81955000D03*
X96930000Y-82325000D03*
X96895000Y-81500000D03*
X97755000Y-80595000D03*
X96035000Y-81185000D03*
X95180000Y-81135000D03*
X96885000Y-80720000D03*
D48*
X101000000Y-82310000D03*
D13*
X100020000Y-82180000D03*
X101635000Y-80520000D03*
X101625000Y-81285000D03*
X99975000Y-80485000D03*
X100795000Y-81255000D03*
X99985000Y-81350000D03*
X100845000Y-80485000D03*
X104965000Y-82710000D03*
X104300000Y-81235000D03*
X105110000Y-81175000D03*
X103460000Y-81555000D03*
X104995000Y-81900000D03*
X103450000Y-80785000D03*
D49*
X104000000Y-82310000D03*
D13*
X108490000Y-82580000D03*
D50*
X107000000Y-82310000D03*
D13*
X107885000Y-82085000D03*
X109230000Y-82755000D03*
X107795000Y-82765000D03*
X106580000Y-81510000D03*
G04 #@! TD*
D51*
G04 #@! TO.C,J1*
X96950000Y-84560000D03*
D52*
X92025961Y-85428241D03*
G04 #@! TD*
D18*
G04 #@! TO.C,R7*
X96695000Y-88710000D03*
X97665000Y-88710000D03*
G04 #@! TD*
D17*
G04 #@! TO.C,C13*
X97665000Y-89730000D03*
X96695000Y-89730000D03*
G04 #@! TD*
D29*
G04 #@! TO.C,J4*
X109585000Y-100220000D03*
X109585000Y-101220000D03*
X109585000Y-102220000D03*
X109585000Y-103220000D03*
X109585000Y-104220000D03*
X109585000Y-105220000D03*
D30*
X112110000Y-106520000D03*
X112110000Y-98920000D03*
G04 #@! TD*
D14*
G04 #@! TO.C,R29*
X97475000Y-107585000D03*
X97475000Y-106615000D03*
G04 #@! TD*
D18*
G04 #@! TO.C,D5*
X91890000Y-105025000D03*
X92860000Y-105025000D03*
G04 #@! TD*
D17*
G04 #@! TO.C,R18*
X95410000Y-101625000D03*
X94440000Y-101625000D03*
G04 #@! TD*
D53*
G04 #@! TO.C,Q4*
X93325000Y-104002800D03*
X93325000Y-103647200D03*
D54*
X92925000Y-103825000D03*
G04 #@! TD*
D14*
G04 #@! TO.C,R16*
X91925000Y-103935000D03*
X91925000Y-102965000D03*
G04 #@! TD*
D17*
G04 #@! TO.C,R25*
X100910000Y-106225000D03*
X99940000Y-106225000D03*
G04 #@! TD*
D55*
G04 #@! TO.C,R8*
X93125000Y-97115000D03*
X93125000Y-98135000D03*
G04 #@! TD*
D56*
G04 #@! TO.C,C15*
X83720000Y-96475000D03*
X84680000Y-96475000D03*
G04 #@! TD*
D55*
G04 #@! TO.C,R11*
X90050000Y-96685000D03*
X90050000Y-95665000D03*
G04 #@! TD*
D57*
G04 #@! TO.C,R15*
X89115000Y-97650000D03*
X90135000Y-97650000D03*
G04 #@! TD*
D58*
G04 #@! TO.C,C14*
X82275000Y-94975000D03*
X84175000Y-94975000D03*
G04 #@! TD*
D59*
G04 #@! TO.C,FB1*
X90125000Y-91862500D03*
X90125000Y-89737500D03*
G04 #@! TD*
D60*
G04 #@! TO.C,U1*
X87350000Y-95325000D03*
D61*
X88825000Y-94075000D03*
X88825000Y-94575000D03*
X88825000Y-95075000D03*
X88825000Y-95575000D03*
X88825000Y-96075000D03*
X88825000Y-96575000D03*
X85875000Y-96575000D03*
X85875000Y-96075000D03*
X85875000Y-95575000D03*
X85875000Y-95075000D03*
X85875000Y-94575000D03*
X85875000Y-94075000D03*
G04 #@! TD*
D56*
G04 #@! TO.C,C16*
X89995000Y-94650000D03*
X90955000Y-94650000D03*
G04 #@! TD*
D62*
G04 #@! TO.C,L1*
X87560000Y-99450000D03*
X85190000Y-99450000D03*
G04 #@! TD*
D63*
G04 #@! TO.C,C20*
X92850000Y-95900000D03*
X91300000Y-95900000D03*
G04 #@! TD*
M02*
