M48
; DRILL file {KiCad (6.0.0-0)} date Sunday, 16 January 2022 at 01:34:30
; FORMAT={-:-/ absolute / metric / decimal}
; #@! TF.CreationDate,2022-01-16T01:34:30+01:00
; #@! TF.GenerationSoftware,Kicad,Pcbnew,(6.0.0-0)
; #@! TF.FileFunction,Plated,1,4,PTH
FMAT,2
METRIC
; #@! TA.AperFunction,Plated,PTH,ViaDrill
T1C0.200
; #@! TA.AperFunction,Plated,PTH,ViaDrill
T2C0.300
; #@! TA.AperFunction,Plated,PTH,ComponentDrill
T3C0.300
; #@! TA.AperFunction,Plated,PTH,ComponentDrill
T4C0.400
; #@! TA.AperFunction,Plated,PTH,ComponentDrill
T5C0.750
; #@! TA.AperFunction,Plated,PTH,ComponentDrill
T6C1.000
; #@! TA.AperFunction,Plated,PTH,ComponentDrill
T7C1.800
; #@! TA.AperFunction,Plated,PTH,ComponentDrill
T8C2.200
%
G90
G05
T1
X83.175Y-96.45
X85.1Y-94.925
X86.75Y-103.21
X90.71Y-106.73
X90.925Y-99.625
X91.34Y-102.15
X91.825Y-102.15
X92.35Y-112.46
X93.28Y-108.87
X93.3Y-100.09
X93.922Y-102.984
X93.95Y-105.3
X94.0Y-113.875
X94.45Y-106.42
X95.09Y-99.803
X95.475Y-103.414
X95.525Y-111.45
X95.68Y-114.9
X95.81Y-102.916
X95.88Y-108.55
X95.9Y-112.26
X95.99Y-100.499
X96.4Y-109.69
X96.44Y-110.69
X96.525Y-94.675
X96.68Y-114.9
X96.97Y-91.83
X97.282Y-105.525
X97.4Y-111.53
X97.68Y-114.9
X97.81Y-96.91
X98.175Y-99.275
X98.247Y-106.2
X98.301Y-106.825
X98.31Y-96.14
X98.69Y-114.89
X98.775Y-95.724
X98.845Y-106.042
X99.381Y-97.12
X99.557Y-94.675
X99.69Y-114.9
X99.846Y-105.475
X100.04Y-109.36
X100.3Y-94.7
X100.4Y-96.9
X100.68Y-114.9
X100.74Y-91.72
X100.933Y-96.551
X101.09Y-111.62
X101.14Y-107.06
X101.468Y-96.184
X101.525Y-101.85
X101.69Y-114.9
X101.991Y-96.477
X102.35Y-108.23
X102.65Y-96.61
X102.68Y-114.9
X103.125Y-97.075
X103.125Y-112.5
X103.68Y-114.9
X103.725Y-97.325
X104.197Y-99.407
X104.29Y-111.5
X104.39Y-92.835
X104.69Y-92.285
X104.69Y-114.9
X104.76Y-103.74
X105.236Y-98.589
X105.272Y-100.372
X105.3Y-99.773
X105.77Y-97.71
X106.367Y-95.21
X106.37Y-102.79
X106.39Y-104.67
X106.967Y-95.21
X107.5Y-101.35
X107.873Y-100.077
X107.963Y-94.815
X108.43Y-110.23
X108.675Y-97.925
X108.682Y-95.04
X108.74Y-101.43
X109.42Y-95.04
X109.447Y-96.612
X109.6Y-99.45
X110.12Y-94.67
X110.459Y-89.424
X110.758Y-91.857
X110.77Y-92.857
X110.81Y-93.857
X111.01Y-87.922
X111.098Y-88.94
X111.88Y-95.54
X112.386Y-95.88
X112.55Y-96.457
X113.62Y-98.22
X114.86Y-99.45
X114.9Y-95.13
X115.55Y-94.33
X117.34Y-95.89
T2
X86.9Y-94.525
X86.9Y-96.125
X87.35Y-95.325
X87.575Y-102.175
X87.8Y-94.525
X87.8Y-96.125
X89.5Y-92.675
X90.125Y-92.65
X90.725Y-93.025
X92.8Y-94.625
X99.5Y-87.925
X105.5Y-87.13
X106.12Y-87.13
X107.66Y-86.4
X107.71Y-87.101
T3
X90.665Y-82.77
X91.435Y-82.61
X92.06Y-82.145
X92.205Y-82.735
X93.515Y-81.52
X95.095Y-81.955
X95.18Y-81.135
X96.035Y-81.185
X96.885Y-80.72
X96.895Y-81.5
X96.93Y-82.325
X97.755Y-80.595
X97.755Y-81.455
X97.77Y-82.315
X99.975Y-80.485
X99.985Y-81.35
X100.02Y-82.18
X100.795Y-81.255
X100.845Y-80.485
X101.625Y-81.285
X101.635Y-80.52
X103.45Y-80.785
X103.46Y-81.555
X104.3Y-81.235
X104.965Y-82.71
X104.995Y-81.9
X105.11Y-81.175
X106.58Y-81.51
X106.69Y-89.21
X106.69Y-90.46
X106.69Y-91.71
X106.69Y-92.96
X107.69Y-89.21
X107.69Y-90.46
X107.69Y-91.71
X107.69Y-92.96
X107.795Y-82.765
X107.885Y-82.085
X108.49Y-82.58
X108.69Y-89.21
X108.69Y-90.46
X108.69Y-91.71
X108.69Y-92.96
X109.23Y-82.755
T4
X83.72Y-109.71
X84.203Y-108.543
X84.203Y-110.877
X85.37Y-108.06
X85.37Y-111.36
X86.537Y-108.543
X86.537Y-110.877
X87.02Y-109.71
X112.98Y-90.29
X113.463Y-89.123
X113.463Y-91.457
X114.63Y-88.64
X114.63Y-91.94
X115.797Y-89.123
X115.797Y-91.457
X116.28Y-90.29
T5
X112.04Y-110.24
X112.04Y-112.24
X116.57Y-103.48
X116.57Y-105.48
T6
X93.0Y-82.31
X96.0Y-82.31
X101.0Y-82.31
X101.56Y-83.84
X104.0Y-82.31
X104.1Y-83.84
X106.64Y-83.84
X107.0Y-82.31
T7
X92.026Y-85.428
X96.95Y-84.56
T8
X85.37Y-109.71
X114.63Y-90.29
T0
M30
