G04 #@! TF.GenerationSoftware,KiCad,Pcbnew,(6.0.0-0)*
G04 #@! TF.CreationDate,2022-01-16T01:34:20+01:00*
G04 #@! TF.ProjectId,ESCv4.3,45534376-342e-4332-9e6b-696361645f70,rev?*
G04 #@! TF.SameCoordinates,Original*
G04 #@! TF.FileFunction,Paste,Top*
G04 #@! TF.FilePolarity,Positive*
%FSLAX46Y46*%
G04 Gerber Fmt 4.6, Leading zero omitted, Abs format (unit mm)*
G04 Created by KiCad (PCBNEW (6.0.0-0)) date 2022-01-16 01:34:20*
%MOMM*%
%LPD*%
G01*
G04 APERTURE LIST*
G04 Aperture macros list*
%AMRoundRect*
0 Rectangle with rounded corners*
0 $1 Rounding radius*
0 $2 $3 $4 $5 $6 $7 $8 $9 X,Y pos of 4 corners*
0 Add a 4 corners polygon primitive as box body*
4,1,4,$2,$3,$4,$5,$6,$7,$8,$9,$2,$3,0*
0 Add four circle primitives for the rounded corners*
1,1,$1+$1,$2,$3*
1,1,$1+$1,$4,$5*
1,1,$1+$1,$6,$7*
1,1,$1+$1,$8,$9*
0 Add four rect primitives between the rounded corners*
20,1,$1+$1,$2,$3,$4,$5,0*
20,1,$1+$1,$4,$5,$6,$7,0*
20,1,$1+$1,$6,$7,$8,$9,0*
20,1,$1+$1,$8,$9,$2,$3,0*%
%AMRotRect*
0 Rectangle, with rotation*
0 The origin of the aperture is its center*
0 $1 length*
0 $2 width*
0 $3 Rotation angle, in degrees counterclockwise*
0 Add horizontal line*
21,1,$1,$2,0,0,$3*%
%AMFreePoly0*
4,1,5,0.125000,0.110000,0.125000,-0.110000,-0.125000,-0.110000,-0.125000,0.360000,0.125000,0.110000,0.125000,0.110000,$1*%
%AMFreePoly1*
4,1,6,0.125000,-0.110000,-0.125000,-0.110000,-0.125000,0.110000,0.015000,0.250000,0.125000,0.250000,0.125000,-0.110000,0.125000,-0.110000,$1*%
%AMFreePoly2*
4,1,6,0.125000,0.110000,0.125000,-0.110000,-0.125000,-0.110000,-0.125000,0.250000,-0.015000,0.250000,0.125000,0.110000,0.125000,0.110000,$1*%
G04 Aperture macros list end*
%ADD10C,0.152400*%
%ADD11R,0.600000X0.700000*%
%ADD12RoundRect,0.147500X0.172500X-0.147500X0.172500X0.147500X-0.172500X0.147500X-0.172500X-0.147500X0*%
%ADD13RoundRect,0.147500X0.147500X0.172500X-0.147500X0.172500X-0.147500X-0.172500X0.147500X-0.172500X0*%
%ADD14RoundRect,0.147500X-0.147500X-0.172500X0.147500X-0.172500X0.147500X0.172500X-0.147500X0.172500X0*%
%ADD15RoundRect,0.243750X0.243750X0.456250X-0.243750X0.456250X-0.243750X-0.456250X0.243750X-0.456250X0*%
%ADD16RoundRect,0.147500X-0.172500X0.147500X-0.172500X-0.147500X0.172500X-0.147500X0.172500X0.147500X0*%
%ADD17R,0.900000X0.800000*%
%ADD18RoundRect,0.218750X-0.256250X0.218750X-0.256250X-0.218750X0.256250X-0.218750X0.256250X0.218750X0*%
%ADD19R,0.500000X0.325000*%
%ADD20RoundRect,0.150000X-0.625000X0.150000X-0.625000X-0.150000X0.625000X-0.150000X0.625000X0.150000X0*%
%ADD21RoundRect,0.250000X-0.650000X0.350000X-0.650000X-0.350000X0.650000X-0.350000X0.650000X0.350000X0*%
%ADD22R,0.500000X0.600000*%
%ADD23R,0.152400X0.254000*%
%ADD24R,0.508000X0.152400*%
%ADD25R,1.400000X0.500000*%
%ADD26R,0.600000X1.000000*%
%ADD27R,0.650000X0.350000*%
%ADD28RoundRect,0.250000X0.285000X0.285000X-0.285000X0.285000X-0.285000X-0.285000X0.285000X-0.285000X0*%
%ADD29RoundRect,0.062500X0.337500X0.062500X-0.337500X0.062500X-0.337500X-0.062500X0.337500X-0.062500X0*%
%ADD30RoundRect,0.062500X0.062500X0.337500X-0.062500X0.337500X-0.062500X-0.337500X0.062500X-0.337500X0*%
%ADD31FreePoly0,90.000000*%
%ADD32FreePoly1,90.000000*%
%ADD33FreePoly2,270.000000*%
%ADD34FreePoly1,270.000000*%
%ADD35RotRect,0.480000X0.480000X135.000000*%
%ADD36RoundRect,0.218750X0.218750X0.256250X-0.218750X0.256250X-0.218750X-0.256250X0.218750X-0.256250X0*%
%ADD37R,0.254000X0.152400*%
%ADD38R,0.152400X0.508000*%
%ADD39RoundRect,0.135000X-0.185000X0.135000X-0.185000X-0.135000X0.185000X-0.135000X0.185000X0.135000X0*%
%ADD40RoundRect,0.140000X0.140000X0.170000X-0.140000X0.170000X-0.140000X-0.170000X0.140000X-0.170000X0*%
%ADD41RoundRect,0.135000X0.135000X0.185000X-0.135000X0.185000X-0.135000X-0.185000X0.135000X-0.185000X0*%
%ADD42RoundRect,0.250000X0.250000X0.475000X-0.250000X0.475000X-0.250000X-0.475000X0.250000X-0.475000X0*%
%ADD43RoundRect,0.218750X0.381250X-0.218750X0.381250X0.218750X-0.381250X0.218750X-0.381250X-0.218750X0*%
%ADD44R,0.650000X0.300000*%
%ADD45R,0.700000X1.100000*%
%ADD46R,0.980000X3.400000*%
%ADD47RoundRect,0.225000X-0.225000X-0.250000X0.225000X-0.250000X0.225000X0.250000X-0.225000X0.250000X0*%
G04 APERTURE END LIST*
D10*
G04 #@! TO.C,Q6*
X97474000Y-112392000D02*
X97474000Y-112138000D01*
X97321600Y-112392000D02*
X97474000Y-112392000D01*
X97118400Y-112138000D02*
X96966000Y-112138000D01*
X96966000Y-112138000D02*
X96966000Y-112392000D01*
X97321600Y-112138000D02*
X97321600Y-112392000D01*
X97118400Y-112392000D02*
X97118400Y-112138000D01*
X96966000Y-112392000D02*
X97118400Y-112392000D01*
X97474000Y-112138000D02*
X97321600Y-112138000D01*
G04 #@! TO.C,Q4*
X93198000Y-103926600D02*
X93198000Y-104079000D01*
X93452000Y-103723400D02*
X93452000Y-103571000D01*
X93198000Y-103571000D02*
X93198000Y-103723400D01*
X93198000Y-103723400D02*
X93452000Y-103723400D01*
X93452000Y-103571000D02*
X93198000Y-103571000D01*
X93452000Y-104079000D02*
X93452000Y-103926600D01*
X93452000Y-103926600D02*
X93198000Y-103926600D01*
X93198000Y-104079000D02*
X93452000Y-104079000D01*
G04 #@! TD*
D11*
G04 #@! TO.C,D2*
X94180000Y-91990000D03*
X95580000Y-91990000D03*
G04 #@! TD*
D12*
G04 #@! TO.C,D4*
X92125000Y-98110000D03*
X92125000Y-97140000D03*
G04 #@! TD*
D13*
G04 #@! TO.C,C1*
X105665000Y-102780000D03*
X104695000Y-102780000D03*
G04 #@! TD*
G04 #@! TO.C,C3*
X105675000Y-104680000D03*
X104705000Y-104680000D03*
G04 #@! TD*
D14*
G04 #@! TO.C,C18*
X93475000Y-107930000D03*
X94445000Y-107930000D03*
G04 #@! TD*
D13*
G04 #@! TO.C,C19*
X92495000Y-107930000D03*
X91525000Y-107930000D03*
G04 #@! TD*
D12*
G04 #@! TO.C,C23*
X97010000Y-110705000D03*
X97010000Y-109735000D03*
G04 #@! TD*
D14*
G04 #@! TO.C,C24*
X102345000Y-111600000D03*
X103315000Y-111600000D03*
G04 #@! TD*
D15*
G04 #@! TO.C,C29*
X102617500Y-92880000D03*
X100742500Y-92880000D03*
G04 #@! TD*
D16*
G04 #@! TO.C,C30*
X91990000Y-100075000D03*
X91990000Y-101045000D03*
G04 #@! TD*
D13*
G04 #@! TO.C,C31*
X108525000Y-96950000D03*
X107555000Y-96950000D03*
G04 #@! TD*
D14*
G04 #@! TO.C,C32*
X105615000Y-96950000D03*
X106585000Y-96950000D03*
G04 #@! TD*
G04 #@! TO.C,C35*
X106865000Y-99550000D03*
X107835000Y-99550000D03*
G04 #@! TD*
G04 #@! TO.C,C40*
X84035000Y-105240000D03*
X85005000Y-105240000D03*
G04 #@! TD*
D16*
G04 #@! TO.C,C41*
X85000000Y-103275000D03*
X85000000Y-104245000D03*
G04 #@! TD*
G04 #@! TO.C,C42*
X84000000Y-103275000D03*
X84000000Y-104245000D03*
G04 #@! TD*
G04 #@! TO.C,D1*
X92100000Y-89815000D03*
X92100000Y-90785000D03*
G04 #@! TD*
D13*
G04 #@! TO.C,D3*
X99345000Y-112590000D03*
X98375000Y-112590000D03*
G04 #@! TD*
G04 #@! TO.C,D6*
X89745000Y-104420000D03*
X88775000Y-104420000D03*
G04 #@! TD*
D17*
G04 #@! TO.C,D7*
X105460000Y-109290000D03*
X105460000Y-111190000D03*
X107460000Y-110240000D03*
G04 #@! TD*
D14*
G04 #@! TO.C,D9*
X108975000Y-86060000D03*
X109945000Y-86060000D03*
G04 #@! TD*
D18*
G04 #@! TO.C,FB2*
X86270000Y-103512500D03*
X86270000Y-105087500D03*
G04 #@! TD*
D19*
G04 #@! TO.C,FL1*
X102597500Y-109965000D03*
X102597500Y-110515000D03*
X103822500Y-110515000D03*
X103822500Y-109965000D03*
G04 #@! TD*
D20*
G04 #@! TO.C,J8*
X114855000Y-95770000D03*
X114855000Y-96770000D03*
X114855000Y-97770000D03*
X114855000Y-98770000D03*
D21*
X117380000Y-94470000D03*
X117380000Y-100070000D03*
G04 #@! TD*
D22*
G04 #@! TO.C,Q2*
X93280000Y-90680000D03*
X94280000Y-90680000D03*
X93780000Y-89380000D03*
G04 #@! TD*
D23*
G04 #@! TO.C,Q6*
X97397800Y-112265000D03*
X97042200Y-112265000D03*
D24*
X97220000Y-112665000D03*
G04 #@! TD*
D12*
G04 #@! TO.C,R2*
X95470000Y-90785000D03*
X95470000Y-89815000D03*
G04 #@! TD*
D13*
G04 #@! TO.C,R3*
X93125000Y-91760000D03*
X92155000Y-91760000D03*
G04 #@! TD*
G04 #@! TO.C,R4*
X92945000Y-99090000D03*
X91975000Y-99090000D03*
G04 #@! TD*
D12*
G04 #@! TO.C,R5*
X92980000Y-101045000D03*
X92980000Y-100075000D03*
G04 #@! TD*
D13*
G04 #@! TO.C,R6*
X97655000Y-90740000D03*
X96685000Y-90740000D03*
G04 #@! TD*
D16*
G04 #@! TO.C,R9*
X111770000Y-92875000D03*
X111770000Y-93845000D03*
G04 #@! TD*
D14*
G04 #@! TO.C,R12*
X91525000Y-106890000D03*
X92495000Y-106890000D03*
G04 #@! TD*
D13*
G04 #@! TO.C,R13*
X94445000Y-106900000D03*
X93475000Y-106900000D03*
G04 #@! TD*
D14*
G04 #@! TO.C,R14*
X100565000Y-112600000D03*
X101535000Y-112600000D03*
G04 #@! TD*
D16*
G04 #@! TO.C,R17*
X90770000Y-102585000D03*
X90770000Y-103555000D03*
G04 #@! TD*
D13*
G04 #@! TO.C,R19*
X103325000Y-108820000D03*
X102355000Y-108820000D03*
G04 #@! TD*
D14*
G04 #@! TO.C,R20*
X100285000Y-107890000D03*
X101255000Y-107890000D03*
G04 #@! TD*
D16*
G04 #@! TO.C,R21*
X109970000Y-87060000D03*
X109970000Y-88030000D03*
G04 #@! TD*
D12*
G04 #@! TO.C,R22*
X108940000Y-88035000D03*
X108940000Y-87065000D03*
G04 #@! TD*
D16*
G04 #@! TO.C,R23*
X97625000Y-93215000D03*
X97625000Y-94185000D03*
G04 #@! TD*
G04 #@! TO.C,R24*
X103900000Y-92095000D03*
X103900000Y-93065000D03*
G04 #@! TD*
D13*
G04 #@! TO.C,R26*
X108525000Y-95930000D03*
X107555000Y-95930000D03*
G04 #@! TD*
D14*
G04 #@! TO.C,R27*
X105605000Y-95930000D03*
X106575000Y-95930000D03*
G04 #@! TD*
G04 #@! TO.C,R28*
X106865000Y-98550000D03*
X107835000Y-98550000D03*
G04 #@! TD*
D25*
G04 #@! TO.C,SW1*
X94580000Y-111460000D03*
X94580000Y-109160000D03*
G04 #@! TD*
G04 #@! TO.C,SW2*
X92010000Y-111460000D03*
X92010000Y-109160000D03*
G04 #@! TD*
D26*
G04 #@! TO.C,U3*
X99292500Y-110810000D03*
X99292500Y-109610000D03*
X100067500Y-110810000D03*
X100067500Y-109610000D03*
D27*
X98130000Y-109235000D03*
X98130000Y-109885000D03*
X98130000Y-110535000D03*
X98130000Y-111185000D03*
X101230000Y-111185000D03*
X101230000Y-110535000D03*
X101230000Y-109885000D03*
X101230000Y-109235000D03*
G04 #@! TD*
D28*
G04 #@! TO.C,U6*
X100720000Y-103220000D03*
X98080000Y-103220000D03*
X99400000Y-99260000D03*
X98080000Y-100580000D03*
X98080000Y-101900000D03*
X100720000Y-101900000D03*
X102040000Y-103220000D03*
X102040000Y-101900000D03*
X102040000Y-100580000D03*
X100720000Y-99260000D03*
X99400000Y-101900000D03*
X102040000Y-99260000D03*
X98080000Y-99260000D03*
X100720000Y-100580000D03*
X99400000Y-103220000D03*
X99400000Y-100580000D03*
D29*
X103510000Y-103990000D03*
X103510000Y-103490000D03*
X103510000Y-102990000D03*
X103510000Y-102490000D03*
X103510000Y-101990000D03*
X103510000Y-101490000D03*
X103510000Y-100990000D03*
X103510000Y-100490000D03*
X103510000Y-99990000D03*
X103510000Y-99490000D03*
X103510000Y-98990000D03*
X103510000Y-98490000D03*
D30*
X102810000Y-97790000D03*
X102310000Y-97790000D03*
X101810000Y-97790000D03*
X101310000Y-97790000D03*
X100810000Y-97790000D03*
X100310000Y-97790000D03*
X99810000Y-97790000D03*
X99310000Y-97790000D03*
X98810000Y-97790000D03*
X98310000Y-97790000D03*
X97810000Y-97790000D03*
X97310000Y-97790000D03*
D29*
X96610000Y-98490000D03*
X96610000Y-98990000D03*
X96610000Y-99490000D03*
X96610000Y-99990000D03*
X96610000Y-100490000D03*
X96610000Y-100990000D03*
X96610000Y-101490000D03*
X96610000Y-101990000D03*
X96610000Y-102490000D03*
X96610000Y-102990000D03*
X96610000Y-103490000D03*
X96610000Y-103990000D03*
D30*
X97310000Y-104690000D03*
X97810000Y-104690000D03*
X98310000Y-104690000D03*
X98810000Y-104690000D03*
X99310000Y-104690000D03*
X99810000Y-104690000D03*
X100310000Y-104690000D03*
X100810000Y-104690000D03*
X101310000Y-104690000D03*
X101810000Y-104690000D03*
X102310000Y-104690000D03*
X102810000Y-104690000D03*
G04 #@! TD*
D31*
G04 #@! TO.C,U2*
X89970000Y-102035000D03*
D32*
X89970000Y-101385000D03*
D33*
X88890000Y-101385000D03*
D34*
X88890000Y-102035000D03*
D35*
X89430000Y-101710000D03*
G04 #@! TD*
D36*
G04 #@! TO.C,C17*
X89497500Y-103120000D03*
X87922500Y-103120000D03*
G04 #@! TD*
D12*
G04 #@! TO.C,R1*
X98790000Y-95145000D03*
X98790000Y-94175000D03*
G04 #@! TD*
D13*
G04 #@! TO.C,R10*
X106685000Y-103740000D03*
X105715000Y-103740000D03*
G04 #@! TD*
D14*
G04 #@! TO.C,R7*
X96695000Y-88710000D03*
X97665000Y-88710000D03*
G04 #@! TD*
D13*
G04 #@! TO.C,C13*
X97665000Y-89730000D03*
X96695000Y-89730000D03*
G04 #@! TD*
D20*
G04 #@! TO.C,J4*
X109585000Y-100220000D03*
X109585000Y-101220000D03*
X109585000Y-102220000D03*
X109585000Y-103220000D03*
X109585000Y-104220000D03*
X109585000Y-105220000D03*
D21*
X112110000Y-106520000D03*
X112110000Y-98920000D03*
G04 #@! TD*
D12*
G04 #@! TO.C,R29*
X97475000Y-107585000D03*
X97475000Y-106615000D03*
G04 #@! TD*
D14*
G04 #@! TO.C,D5*
X91890000Y-105025000D03*
X92860000Y-105025000D03*
G04 #@! TD*
D13*
G04 #@! TO.C,R18*
X95410000Y-101625000D03*
X94440000Y-101625000D03*
G04 #@! TD*
D37*
G04 #@! TO.C,Q4*
X93325000Y-104002800D03*
X93325000Y-103647200D03*
D38*
X92925000Y-103825000D03*
G04 #@! TD*
D12*
G04 #@! TO.C,R16*
X91925000Y-103935000D03*
X91925000Y-102965000D03*
G04 #@! TD*
D13*
G04 #@! TO.C,R25*
X100910000Y-106225000D03*
X99940000Y-106225000D03*
G04 #@! TD*
D39*
G04 #@! TO.C,R8*
X93125000Y-97115000D03*
X93125000Y-98135000D03*
G04 #@! TD*
D40*
G04 #@! TO.C,C15*
X83720000Y-96475000D03*
X84680000Y-96475000D03*
G04 #@! TD*
D39*
G04 #@! TO.C,R11*
X90050000Y-96685000D03*
X90050000Y-95665000D03*
G04 #@! TD*
D41*
G04 #@! TO.C,R15*
X89115000Y-97650000D03*
X90135000Y-97650000D03*
G04 #@! TD*
D42*
G04 #@! TO.C,C14*
X82275000Y-94975000D03*
X84175000Y-94975000D03*
G04 #@! TD*
D43*
G04 #@! TO.C,FB1*
X90125000Y-91862500D03*
X90125000Y-89737500D03*
G04 #@! TD*
D44*
G04 #@! TO.C,U1*
X88825000Y-94075000D03*
X88825000Y-94575000D03*
X88825000Y-95075000D03*
X88825000Y-95575000D03*
X88825000Y-96075000D03*
X88825000Y-96575000D03*
X85875000Y-96575000D03*
X85875000Y-96075000D03*
X85875000Y-95575000D03*
X85875000Y-95075000D03*
X85875000Y-94575000D03*
X85875000Y-94075000D03*
D45*
X87750000Y-94725000D03*
X87750000Y-95925000D03*
X86950000Y-94725000D03*
X86950000Y-95925000D03*
G04 #@! TD*
D40*
G04 #@! TO.C,C16*
X89995000Y-94650000D03*
X90955000Y-94650000D03*
G04 #@! TD*
D46*
G04 #@! TO.C,L1*
X87560000Y-99450000D03*
X85190000Y-99450000D03*
G04 #@! TD*
D47*
G04 #@! TO.C,C20*
X92850000Y-95900000D03*
X91300000Y-95900000D03*
G04 #@! TD*
M02*
