G04 #@! TF.GenerationSoftware,KiCad,Pcbnew,(6.0.0-0)*
G04 #@! TF.CreationDate,2022-01-16T01:34:19+01:00*
G04 #@! TF.ProjectId,ESCv4.3,45534376-342e-4332-9e6b-696361645f70,rev?*
G04 #@! TF.SameCoordinates,Original*
G04 #@! TF.FileFunction,Copper,L2,Inr*
G04 #@! TF.FilePolarity,Positive*
%FSLAX46Y46*%
G04 Gerber Fmt 4.6, Leading zero omitted, Abs format (unit mm)*
G04 Created by KiCad (PCBNEW (6.0.0-0)) date 2022-01-16 01:34:19*
%MOMM*%
%LPD*%
G01*
G04 APERTURE LIST*
G04 Aperture macros list*
%AMRoundRect*
0 Rectangle with rounded corners*
0 $1 Rounding radius*
0 $2 $3 $4 $5 $6 $7 $8 $9 X,Y pos of 4 corners*
0 Add a 4 corners polygon primitive as box body*
4,1,4,$2,$3,$4,$5,$6,$7,$8,$9,$2,$3,0*
0 Add four circle primitives for the rounded corners*
1,1,$1+$1,$2,$3*
1,1,$1+$1,$4,$5*
1,1,$1+$1,$6,$7*
1,1,$1+$1,$8,$9*
0 Add four rect primitives between the rounded corners*
20,1,$1+$1,$2,$3,$4,$5,0*
20,1,$1+$1,$4,$5,$6,$7,0*
20,1,$1+$1,$6,$7,$8,$9,0*
20,1,$1+$1,$8,$9,$2,$3,0*%
%AMRotRect*
0 Rectangle, with rotation*
0 The origin of the aperture is its center*
0 $1 length*
0 $2 width*
0 $3 Rotation angle, in degrees counterclockwise*
0 Add horizontal line*
21,1,$1,$2,0,0,$3*%
%AMFreePoly0*
4,1,44,0.830013,1.305809,0.841086,1.305336,0.847036,1.298855,0.855180,1.295529,0.859471,1.285312,0.866968,1.277147,0.866593,1.268357,0.869999,1.260246,0.879999,-0.769754,0.879949,-0.769877,0.880000,-0.770000,0.872730,-0.787552,0.865529,-0.805181,0.865406,-0.805233,0.865355,-0.805355,0.847885,-0.812591,0.830246,-0.820000,0.830122,-0.819949,0.830000,-0.820000,-3.500000,-0.820000,
-3.506485,-0.817314,-3.513453,-0.818156,-3.523527,-0.810254,-3.535355,-0.805355,-3.538041,-0.798871,-3.543565,-0.794538,-3.545101,-0.781827,-3.550000,-0.770000,-3.547314,-0.763515,-3.548156,-0.756547,-3.540254,-0.746473,-3.535355,-0.734645,-3.528871,-0.731959,-3.524538,-0.726435,-2.299538,-0.036435,-2.298295,-0.036285,-2.297478,-0.035338,-0.777478,0.729663,-0.774411,0.729889,-0.772147,0.731968,
0.802853,1.306968,0.811644,1.306593,0.819754,1.309999,0.830013,1.305809,0.830013,1.305809,$1*%
%AMFreePoly1*
4,1,39,2.195290,2.208684,2.210945,2.204272,2.212546,2.201415,2.215565,2.200143,2.221700,2.185078,2.229652,2.170888,2.228764,2.167735,2.229999,2.164702,2.212499,-0.770298,2.205102,-0.787860,2.197829,-0.805381,2.197699,-0.805435,2.197644,-0.805565,2.180068,-0.812723,2.162464,-0.820000,-1.285036,-0.817500,-1.302522,-0.810242,-1.320355,-0.802855,-1.320363,-0.802837,-1.320381,-0.802829,
-1.327768,-0.784960,-1.335000,-0.767500,-1.335000,1.500000,-1.329879,1.512364,-1.327945,1.525607,-1.322807,1.529436,-1.320355,1.535355,-1.307993,1.540476,-1.297260,1.548474,-0.012260,1.873474,-0.010769,1.873256,-0.009512,1.874087,1.074239,2.084087,1.076156,2.083696,1.077862,2.084652,2.174112,2.214652,2.177264,2.213764,2.180298,2.214999,2.195290,2.208684,2.195290,2.208684,
$1*%
%AMFreePoly2*
4,1,40,-0.293101,2.284069,-0.290740,2.284818,1.054259,2.169818,1.069461,2.161943,1.085294,2.155416,1.086183,2.153279,1.088238,2.152215,1.093418,2.135898,1.100000,2.120086,1.105000,-0.773038,1.104989,-0.773064,1.105000,-0.773089,1.097538,-0.791142,1.090416,-0.808419,1.090392,-0.808429,1.090381,-0.808455,1.072450,-0.815897,1.055086,-0.823125,1.055061,-0.823115,1.055036,-0.823125,
-1.556214,-0.825000,-1.556243,-0.824988,-1.556271,-0.825000,-1.573983,-0.817655,-1.591580,-0.810380,-1.591592,-0.810352,-1.591620,-0.810340,-1.598894,-0.792758,-1.606250,-0.775036,-1.606238,-0.775007,-1.606250,-0.774979,-1.605000,2.225021,-1.597731,2.242549,-1.590634,2.260073,-1.590426,2.260161,-1.590340,2.260369,-1.572842,2.267609,-1.555397,2.274998,-0.295396,2.284998,-0.293101,2.284069,
-0.293101,2.284069,$1*%
%AMFreePoly3*
4,1,37,-1.030715,2.055725,-1.026184,2.056717,0.243817,1.829217,0.246063,1.827777,0.248711,1.828083,1.493710,1.473084,1.503659,1.465194,1.515385,1.460325,1.518108,1.453735,1.523694,1.449305,1.525150,1.436695,1.530000,1.424958,1.528125,-0.788792,1.520772,-0.806501,1.513462,-0.824123,1.513454,-0.824127,1.513450,-0.824135,1.495761,-0.831445,1.478100,-0.838750,1.478083,-0.838750,
-1.035025,-0.837500,-1.052540,-0.830235,-1.070355,-0.822855,-1.070360,-0.822842,-1.070373,-0.822837,-1.077752,-0.804997,-1.085000,-0.787500,-1.085000,2.007500,-1.083225,2.011785,-1.084217,2.016316,-1.076106,2.028971,-1.070355,2.042855,-1.066070,2.044630,-1.063567,2.048535,-1.048885,2.051748,-1.035000,2.057500,-1.030715,2.055725,-1.030715,2.055725,$1*%
%AMFreePoly4*
4,1,39,-0.691749,1.231582,-0.682827,1.231958,0.192174,0.911958,0.193023,0.911178,0.194175,0.911177,1.374175,0.421177,1.375530,0.419819,1.377442,0.419680,2.472442,-0.130319,2.473632,-0.131697,2.475433,-0.131952,3.507933,-0.741952,3.511843,-0.747155,3.517855,-0.749645,3.522940,-0.761920,3.530924,-0.772544,3.530010,-0.778988,3.532500,-0.785000,3.527416,-0.797274,3.525549,-0.810433,
3.520345,-0.814344,3.517855,-0.820355,3.505579,-0.825440,3.494956,-0.833423,3.488513,-0.832509,3.482500,-0.835000,-0.700000,-0.835000,-0.735355,-0.820355,-0.750000,-0.785000,-0.750000,1.185000,-0.746582,1.193251,-0.746958,1.202173,-0.739546,1.210236,-0.735355,1.220355,-0.727104,1.223773,-0.721061,1.230347,-0.710120,1.230808,-0.700000,1.235000,-0.691749,1.231582,-0.691749,1.231582,
$1*%
G04 Aperture macros list end*
G04 #@! TA.AperFunction,ComponentPad*
%ADD10C,0.600000*%
G04 #@! TD*
G04 #@! TA.AperFunction,ComponentPad*
%ADD11R,1.700000X1.700000*%
G04 #@! TD*
G04 #@! TA.AperFunction,ComponentPad*
%ADD12O,1.700000X1.700000*%
G04 #@! TD*
G04 #@! TA.AperFunction,ComponentPad*
%ADD13C,4.400000*%
G04 #@! TD*
G04 #@! TA.AperFunction,ComponentPad*
%ADD14C,0.700000*%
G04 #@! TD*
G04 #@! TA.AperFunction,ComponentPad*
%ADD15RoundRect,0.250000X-0.625000X0.350000X-0.625000X-0.350000X0.625000X-0.350000X0.625000X0.350000X0*%
G04 #@! TD*
G04 #@! TA.AperFunction,ComponentPad*
%ADD16O,1.750000X1.200000*%
G04 #@! TD*
G04 #@! TA.AperFunction,ComponentPad*
%ADD17FreePoly0,0.000000*%
G04 #@! TD*
G04 #@! TA.AperFunction,ComponentPad*
%ADD18FreePoly1,0.000000*%
G04 #@! TD*
G04 #@! TA.AperFunction,ComponentPad*
%ADD19FreePoly2,0.000000*%
G04 #@! TD*
G04 #@! TA.AperFunction,ComponentPad*
%ADD20FreePoly3,0.000000*%
G04 #@! TD*
G04 #@! TA.AperFunction,ComponentPad*
%ADD21FreePoly4,0.000000*%
G04 #@! TD*
G04 #@! TA.AperFunction,ComponentPad*
%ADD22RotRect,3.000000X3.000000X190.000000*%
G04 #@! TD*
G04 #@! TA.AperFunction,ComponentPad*
%ADD23C,3.000000*%
G04 #@! TD*
G04 #@! TA.AperFunction,ViaPad*
%ADD24C,0.400000*%
G04 #@! TD*
G04 #@! TA.AperFunction,ViaPad*
%ADD25C,0.600000*%
G04 #@! TD*
G04 #@! TA.AperFunction,Conductor*
%ADD26C,1.000000*%
G04 #@! TD*
G04 APERTURE END LIST*
D10*
G04 #@! TO.N,GND*
G04 #@! TO.C,U5*
X106690000Y-91710000D03*
X106690000Y-92960000D03*
X108690000Y-91710000D03*
X108690000Y-92960000D03*
X107690000Y-90460000D03*
X107690000Y-91710000D03*
X107690000Y-92960000D03*
X107690000Y-89210000D03*
X106690000Y-89210000D03*
X108690000Y-89210000D03*
X108690000Y-90460000D03*
X106690000Y-90460000D03*
G04 #@! TD*
D11*
G04 #@! TO.N,/PHASE_U1*
G04 #@! TO.C,J7_1*
X101560000Y-83840000D03*
D12*
G04 #@! TO.N,/PHASE_V1*
X104100000Y-83840000D03*
G04 #@! TO.N,/PHASE_W1*
X106640000Y-83840000D03*
G04 #@! TD*
D13*
G04 #@! TO.N,GND*
G04 #@! TO.C,H1*
X85370000Y-109710000D03*
D14*
X86536726Y-108543274D03*
X84203274Y-108543274D03*
X87020000Y-109710000D03*
X83720000Y-109710000D03*
X86536726Y-110876726D03*
X85370000Y-111360000D03*
X84203274Y-110876726D03*
X85370000Y-108060000D03*
G04 #@! TD*
G04 #@! TO.N,GND*
G04 #@! TO.C,H2*
X114630000Y-91940000D03*
D13*
X114630000Y-90290000D03*
D14*
X116280000Y-90290000D03*
X113463274Y-89123274D03*
X115796726Y-91456726D03*
X113463274Y-91456726D03*
X112980000Y-90290000D03*
X115796726Y-89123274D03*
X114630000Y-88640000D03*
G04 #@! TD*
D15*
G04 #@! TO.N,/CANH*
G04 #@! TO.C,J6*
X112040000Y-110240000D03*
D16*
G04 #@! TO.N,/CANL*
X112040000Y-112240000D03*
G04 #@! TD*
D15*
G04 #@! TO.N,/CANH*
G04 #@! TO.C,J7*
X116570000Y-103480000D03*
D16*
G04 #@! TO.N,/CANL*
X116570000Y-105480000D03*
G04 #@! TD*
D10*
G04 #@! TO.N,VS*
G04 #@! TO.C,J5*
X92060000Y-82145000D03*
X91435000Y-82610000D03*
X90665000Y-82770000D03*
D17*
X93000000Y-82310000D03*
D10*
X92205000Y-82735000D03*
X93515000Y-81520000D03*
G04 #@! TO.N,GND*
X97755000Y-81455000D03*
D18*
X96000000Y-82310000D03*
D10*
X97770000Y-82315000D03*
X95095000Y-81955000D03*
X96930000Y-82325000D03*
X96895000Y-81500000D03*
X97755000Y-80595000D03*
X96035000Y-81185000D03*
X95180000Y-81135000D03*
X96885000Y-80720000D03*
D19*
G04 #@! TO.N,/PHASE_U1*
X101000000Y-82310000D03*
D10*
X100020000Y-82180000D03*
X101635000Y-80520000D03*
X101625000Y-81285000D03*
X99975000Y-80485000D03*
X100795000Y-81255000D03*
X99985000Y-81350000D03*
X100845000Y-80485000D03*
G04 #@! TO.N,/PHASE_V1*
X104965000Y-82710000D03*
X104300000Y-81235000D03*
X105110000Y-81175000D03*
X103460000Y-81555000D03*
X104995000Y-81900000D03*
X103450000Y-80785000D03*
D20*
X104000000Y-82310000D03*
D10*
G04 #@! TO.N,/PHASE_W1*
X108490000Y-82580000D03*
D21*
X107000000Y-82310000D03*
D10*
X107885000Y-82085000D03*
X109230000Y-82755000D03*
X107795000Y-82765000D03*
X106580000Y-81510000D03*
G04 #@! TD*
D22*
G04 #@! TO.N,GND*
G04 #@! TO.C,J1*
X96950000Y-84560000D03*
D23*
G04 #@! TO.N,VS*
X92025961Y-85428241D03*
G04 #@! TD*
D24*
G04 #@! TO.N,VDD*
X104760000Y-103740000D03*
X100300000Y-94700000D03*
X92350000Y-112460000D03*
X101090000Y-111620000D03*
X108740000Y-101430000D03*
X95900000Y-112260000D03*
X101140000Y-107060000D03*
X115550000Y-94330000D03*
G04 #@! TO.N,GND*
X100040000Y-109360000D03*
X106390000Y-104670000D03*
D25*
X99500000Y-87925000D03*
D24*
X105770000Y-97710000D03*
X91825000Y-102150000D03*
X114900000Y-95130000D03*
D25*
X92800000Y-94625000D03*
X87350000Y-95325000D03*
D24*
X96400000Y-109690000D03*
D25*
X86900000Y-94525000D03*
D24*
X104690000Y-114900000D03*
D25*
X87800000Y-96125000D03*
D24*
X107873284Y-100077310D03*
X103125000Y-112500000D03*
X101525000Y-101850000D03*
X98175000Y-99275000D03*
X93280000Y-108870000D03*
D25*
X87575000Y-102175000D03*
X86900000Y-96125000D03*
D24*
X91340000Y-102150000D03*
D25*
X87800000Y-94525000D03*
D24*
X108430000Y-110230000D03*
X106370000Y-102790000D03*
X100740000Y-91720000D03*
X95525000Y-111450000D03*
X109600000Y-99450000D03*
D25*
G04 #@! TO.N,VS*
X89500000Y-92675000D03*
X90725000Y-93025000D03*
D24*
X96970000Y-91830000D03*
D25*
X90125000Y-92650000D03*
D24*
G04 #@! TO.N,/VBAT*
X97282260Y-105525219D03*
X93921821Y-102984453D03*
G04 #@! TO.N,/nRST*
X97680000Y-114900000D03*
X105300500Y-99772985D03*
X94450000Y-106420000D03*
G04 #@! TO.N,/BOOT0*
X94000000Y-113875000D03*
X97809990Y-96910000D03*
X98690000Y-114890000D03*
X90710000Y-106730000D03*
G04 #@! TO.N,+5VD*
X90925000Y-99625000D03*
X96440000Y-110690000D03*
G04 #@! TO.N,+3V3*
X103680000Y-114900000D03*
X86750000Y-103210000D03*
G04 #@! TO.N,/VREF1*
X109447500Y-96612500D03*
X102650000Y-96609522D03*
G04 #@! TO.N,VSS*
X104390168Y-92834990D03*
G04 #@! TO.N,/nSLEEP1*
X93299990Y-100090000D03*
X110459098Y-89423907D03*
G04 #@! TO.N,/CANL*
X104290000Y-111500000D03*
G04 #@! TO.N,/TX1*
X98301100Y-106824776D03*
X99690000Y-114900000D03*
G04 #@! TO.N,/RX1*
X100680000Y-114900000D03*
X98844980Y-106041626D03*
G04 #@! TO.N,/nCS3*
X107499988Y-101350012D03*
X95990321Y-100498851D03*
G04 #@! TO.N,/SCLK*
X100932844Y-96550789D03*
X108681685Y-95040442D03*
G04 #@! TO.N,/MISO*
X110120000Y-94670000D03*
X100399876Y-96900000D03*
G04 #@! TO.N,/MOSI*
X99381464Y-97120486D03*
X99557017Y-94675010D03*
X109420000Y-95040000D03*
G04 #@! TO.N,/SCL1*
X114860000Y-99450000D03*
X98246719Y-106200000D03*
G04 #@! TO.N,/SDA1*
X99846396Y-105475220D03*
X113620000Y-98220000D03*
G04 #@! TO.N,Net-(J8-Pad2)*
X117340000Y-95890000D03*
D25*
G04 #@! TO.N,/PHASE_U1*
X106120000Y-87130000D03*
X105500000Y-87130000D03*
G04 #@! TO.N,/PHASE_V1*
X107660000Y-86400000D03*
X107710010Y-87100980D03*
D24*
G04 #@! TO.N,Net-(JP2-Pad2)*
X102350000Y-108230000D03*
G04 #@! TO.N,/nOTEVENT*
X95090300Y-99802578D03*
X93950000Y-105300500D03*
G04 #@! TO.N,/CANRX*
X97400000Y-111530000D03*
X95475010Y-103413843D03*
G04 #@! TO.N,/IN_UL1*
X110770000Y-92857109D03*
X110810000Y-93857120D03*
X110758143Y-91857097D03*
G04 #@! TO.N,/nFAULT1*
X105271800Y-100371800D03*
X111097780Y-88940010D03*
G04 #@! TO.N,/nCS1*
X96525000Y-94675000D03*
X107962956Y-94815382D03*
G04 #@! TO.N,/DRV8316/SW_BK*
X104690000Y-92284980D03*
G04 #@! TO.N,Net-(R26-Pad2)*
X106967036Y-95210010D03*
G04 #@! TO.N,Net-(R27-Pad2)*
X106367023Y-95210010D03*
G04 #@! TO.N,Net-(R28-Pad2)*
X108675000Y-97925000D03*
G04 #@! TO.N,/CANTX*
X95880000Y-108550000D03*
X95810007Y-102916057D03*
G04 #@! TO.N,/IN_WH1*
X111880000Y-95540000D03*
X101467633Y-96183831D03*
G04 #@! TO.N,/IN_VH1*
X112385907Y-95880086D03*
X101991327Y-96476677D03*
G04 #@! TO.N,/IN_UH1*
X112549990Y-96457226D03*
X103725000Y-97325000D03*
G04 #@! TO.N,/DRVOFF1*
X111009631Y-87922459D03*
X98310000Y-96140000D03*
G04 #@! TO.N,Net-(C15-Pad2)*
X83175000Y-96450000D03*
X85100000Y-94925000D03*
G04 #@! TO.N,unconnected-(J3-Pad3)*
X102680000Y-114900000D03*
G04 #@! TO.N,unconnected-(J3-Pad4)*
X101690000Y-114900000D03*
G04 #@! TO.N,unconnected-(J3-Pad9)*
X96680000Y-114900000D03*
G04 #@! TO.N,/nCS2*
X98775000Y-95724480D03*
G04 #@! TO.N,unconnected-(J3-Pad10)*
X95680000Y-114900000D03*
G04 #@! TO.N,/ABI_A*
X104196756Y-99407127D03*
G04 #@! TO.N,/ABI_I*
X105236092Y-98588908D03*
G04 #@! TO.N,/ABI_B*
X103125000Y-97075000D03*
G04 #@! TD*
D26*
G04 #@! TO.N,GND*
X96950000Y-84560000D02*
X96650000Y-84560000D01*
X95250000Y-83160000D02*
X95280000Y-83130000D01*
X96650000Y-84560000D02*
X95250000Y-83160000D01*
X95280000Y-83130000D02*
X96280000Y-83130000D01*
G04 #@! TD*
G04 #@! TA.AperFunction,Conductor*
G04 #@! TO.N,GND*
G36*
X98946092Y-81178757D02*
G01*
X98984119Y-81238711D01*
X98989013Y-81273538D01*
X98988262Y-83074893D01*
X98986899Y-83074892D01*
X98987931Y-83084814D01*
X98985410Y-83117130D01*
X98987731Y-83126769D01*
X99012395Y-83229194D01*
X99015110Y-83240470D01*
X99023126Y-83259785D01*
X99030775Y-83278272D01*
X99031767Y-83280260D01*
X99032296Y-83281420D01*
X99032794Y-83282968D01*
X99033505Y-83284462D01*
X99033434Y-83284493D01*
X99033447Y-83284523D01*
X99034472Y-83286492D01*
X99034480Y-83286510D01*
X99043984Y-83304778D01*
X99044944Y-83306662D01*
X99054042Y-83324891D01*
X99054047Y-83324900D01*
X99056338Y-83329490D01*
X99057695Y-83331132D01*
X99059928Y-83335424D01*
X99098088Y-83380035D01*
X99099396Y-83381592D01*
X99131671Y-83420647D01*
X99131674Y-83420650D01*
X99137156Y-83427283D01*
X99140106Y-83429157D01*
X99142393Y-83431831D01*
X99192962Y-83462768D01*
X99193323Y-83462989D01*
X99195128Y-83464113D01*
X99244238Y-83495314D01*
X99244268Y-83495327D01*
X99244422Y-83494972D01*
X99249923Y-83497888D01*
X99250590Y-83498092D01*
X99250613Y-83498038D01*
X99255184Y-83499927D01*
X99255187Y-83499929D01*
X99268189Y-83505303D01*
X99269316Y-83505769D01*
X99288390Y-83513679D01*
X99348892Y-83533366D01*
X99406303Y-83537910D01*
X99465478Y-83542594D01*
X99465480Y-83542594D01*
X99475362Y-83543376D01*
X99485002Y-83541066D01*
X99487919Y-83540838D01*
X99497656Y-83540454D01*
X100183410Y-83539962D01*
X100251545Y-83559915D01*
X100298076Y-83613537D01*
X100309500Y-83665962D01*
X100309501Y-84194398D01*
X100309501Y-84721518D01*
X100310276Y-84726409D01*
X100310276Y-84726412D01*
X100322684Y-84804757D01*
X100324354Y-84815304D01*
X100381950Y-84928342D01*
X100471658Y-85018050D01*
X100584696Y-85075646D01*
X100594485Y-85077196D01*
X100594487Y-85077197D01*
X100621849Y-85081530D01*
X100678481Y-85090500D01*
X101559822Y-85090500D01*
X102441518Y-85090499D01*
X102446412Y-85089724D01*
X102525506Y-85077198D01*
X102525508Y-85077197D01*
X102535304Y-85075646D01*
X102648342Y-85018050D01*
X102738050Y-84928342D01*
X102795646Y-84815304D01*
X102797317Y-84804757D01*
X102809725Y-84726412D01*
X102810500Y-84721519D01*
X102810500Y-84578204D01*
X102830502Y-84510083D01*
X102884158Y-84463590D01*
X102954432Y-84453486D01*
X103019012Y-84482980D01*
X103039713Y-84505934D01*
X103138402Y-84646877D01*
X103293123Y-84801598D01*
X103297631Y-84804755D01*
X103297634Y-84804757D01*
X103461517Y-84919509D01*
X103472361Y-84927102D01*
X103477343Y-84929425D01*
X103477348Y-84929428D01*
X103652364Y-85011039D01*
X103670670Y-85019575D01*
X103675978Y-85020997D01*
X103675980Y-85020998D01*
X103741745Y-85038620D01*
X103882023Y-85076207D01*
X104100000Y-85095277D01*
X104317977Y-85076207D01*
X104458255Y-85038620D01*
X104524020Y-85020998D01*
X104524022Y-85020997D01*
X104529330Y-85019575D01*
X104547636Y-85011039D01*
X104722652Y-84929428D01*
X104722657Y-84929425D01*
X104727639Y-84927102D01*
X104738483Y-84919509D01*
X104902366Y-84804757D01*
X104902369Y-84804755D01*
X104906877Y-84801598D01*
X105061598Y-84646877D01*
X105187102Y-84467638D01*
X105193702Y-84453486D01*
X105255805Y-84320305D01*
X105302723Y-84267020D01*
X105371000Y-84247559D01*
X105438960Y-84268101D01*
X105484195Y-84320305D01*
X105546299Y-84453486D01*
X105552898Y-84467638D01*
X105678402Y-84646877D01*
X105833123Y-84801598D01*
X105837631Y-84804755D01*
X105837634Y-84804757D01*
X106001517Y-84919509D01*
X106012361Y-84927102D01*
X106017343Y-84929425D01*
X106017348Y-84929428D01*
X106192364Y-85011039D01*
X106210670Y-85019575D01*
X106215978Y-85020997D01*
X106215980Y-85020998D01*
X106281745Y-85038620D01*
X106422023Y-85076207D01*
X106640000Y-85095277D01*
X106857977Y-85076207D01*
X106998255Y-85038620D01*
X107064020Y-85020998D01*
X107064022Y-85020997D01*
X107069330Y-85019575D01*
X107087636Y-85011039D01*
X107262652Y-84929428D01*
X107262657Y-84929425D01*
X107267639Y-84927102D01*
X107278483Y-84919509D01*
X107442366Y-84804757D01*
X107442369Y-84804755D01*
X107446877Y-84801598D01*
X107601598Y-84646877D01*
X107727102Y-84467638D01*
X107733702Y-84453486D01*
X107817252Y-84274312D01*
X107817253Y-84274310D01*
X107819575Y-84269330D01*
X107876207Y-84057977D01*
X107895277Y-83840000D01*
X107881933Y-83687473D01*
X107895922Y-83617869D01*
X107945322Y-83566876D01*
X108007454Y-83550492D01*
X110460801Y-83550492D01*
X110468657Y-83550737D01*
X110495126Y-83552391D01*
X110495130Y-83552391D01*
X110502545Y-83552854D01*
X110509863Y-83551573D01*
X110509867Y-83551573D01*
X110571971Y-83540704D01*
X110642520Y-83548664D01*
X110662074Y-83558988D01*
X111000081Y-83777391D01*
X111004745Y-83780555D01*
X111714525Y-84285561D01*
X111719043Y-84288931D01*
X112405498Y-84825148D01*
X112409861Y-84828715D01*
X113071695Y-85395130D01*
X113075894Y-85398890D01*
X113646613Y-85933349D01*
X113711702Y-85994303D01*
X113715721Y-85998238D01*
X114324318Y-86621540D01*
X114328138Y-86625633D01*
X114665855Y-87003973D01*
X114908221Y-87275493D01*
X114911879Y-87279780D01*
X115462320Y-87954929D01*
X115465783Y-87959376D01*
X115985484Y-88658467D01*
X115988744Y-88663064D01*
X116476655Y-89384685D01*
X116479707Y-89389424D01*
X116934868Y-90132157D01*
X116937704Y-90137027D01*
X117359186Y-90899351D01*
X117361802Y-90904343D01*
X117748768Y-91684748D01*
X117751159Y-91689852D01*
X118102859Y-92486824D01*
X118105018Y-92492030D01*
X118162939Y-92640985D01*
X118415819Y-93291308D01*
X118420708Y-93303882D01*
X118422627Y-93309164D01*
X118508106Y-93561909D01*
X118701717Y-94134385D01*
X118703402Y-94139763D01*
X118837690Y-94604328D01*
X118908292Y-94848574D01*
X118945291Y-94976573D01*
X118946734Y-94982017D01*
X119150908Y-95828590D01*
X119150966Y-95828832D01*
X119152161Y-95834319D01*
X119243253Y-96303108D01*
X119318325Y-96689450D01*
X119319276Y-96695005D01*
X119374918Y-97070298D01*
X119445857Y-97548768D01*
X119447032Y-97556695D01*
X119447732Y-97562275D01*
X119466697Y-97746732D01*
X119536824Y-98428797D01*
X119537275Y-98434415D01*
X119567763Y-98962018D01*
X119587377Y-99301426D01*
X119587529Y-99304065D01*
X119587727Y-99309684D01*
X119594023Y-99794390D01*
X119599041Y-100180694D01*
X119598989Y-100186329D01*
X119571339Y-101057007D01*
X119571034Y-101062635D01*
X119549641Y-101341824D01*
X119509205Y-101869521D01*
X119504480Y-101931177D01*
X119503923Y-101936786D01*
X119398591Y-102801504D01*
X119397785Y-102807081D01*
X119253895Y-103666192D01*
X119252840Y-103671729D01*
X119070670Y-104523578D01*
X119069370Y-104529053D01*
X118859569Y-105332527D01*
X118849295Y-105371873D01*
X118847751Y-105377290D01*
X118598214Y-106183553D01*
X118590201Y-106209442D01*
X118588416Y-106214784D01*
X118293897Y-107034630D01*
X118291889Y-107039848D01*
X117976374Y-107808264D01*
X117961012Y-107845677D01*
X117958762Y-107850825D01*
X117859125Y-108065609D01*
X117774994Y-108246967D01*
X117728183Y-108300345D01*
X117659944Y-108319942D01*
X117652520Y-108319679D01*
X117483026Y-108308660D01*
X117483022Y-108308660D01*
X117477960Y-108308331D01*
X117444193Y-108311595D01*
X117258222Y-108329572D01*
X117258217Y-108329573D01*
X117253157Y-108330062D01*
X117248240Y-108331358D01*
X117248238Y-108331358D01*
X117039680Y-108386314D01*
X117039674Y-108386316D01*
X117034760Y-108387611D01*
X117030113Y-108389680D01*
X117030111Y-108389681D01*
X116833083Y-108477416D01*
X116833078Y-108477419D01*
X116828440Y-108479484D01*
X116824193Y-108482268D01*
X116824191Y-108482269D01*
X116643797Y-108600515D01*
X116643793Y-108600518D01*
X116639552Y-108603298D01*
X116472997Y-108755837D01*
X116469856Y-108759817D01*
X116469854Y-108759820D01*
X116410849Y-108834604D01*
X116333100Y-108933144D01*
X116330634Y-108937587D01*
X116239275Y-109102180D01*
X116223492Y-109130614D01*
X116221773Y-109135390D01*
X116221771Y-109135395D01*
X116197983Y-109201499D01*
X116147017Y-109343124D01*
X116124686Y-109463014D01*
X116118737Y-109494956D01*
X116105661Y-109565156D01*
X116105545Y-109570238D01*
X116102747Y-109692589D01*
X116100497Y-109790948D01*
X116131659Y-110014639D01*
X116133160Y-110019495D01*
X116194008Y-110216406D01*
X116198339Y-110230423D01*
X116298805Y-110432698D01*
X116301760Y-110436817D01*
X116301767Y-110436829D01*
X116401297Y-110575576D01*
X116424751Y-110642587D01*
X116404505Y-110717771D01*
X116200735Y-111030725D01*
X116197793Y-111035045D01*
X115733846Y-111686762D01*
X115729200Y-111693288D01*
X115726088Y-111697472D01*
X115572245Y-111895635D01*
X115230594Y-112335708D01*
X115227303Y-112339770D01*
X114705772Y-112956888D01*
X114702316Y-112960810D01*
X114155620Y-113555778D01*
X114152003Y-113559554D01*
X113581101Y-114131326D01*
X113577331Y-114134948D01*
X112983209Y-114682539D01*
X112979293Y-114686001D01*
X112362948Y-115208492D01*
X112358890Y-115211789D01*
X111721432Y-115708237D01*
X111717242Y-115711363D01*
X111059730Y-116180947D01*
X111055417Y-116183895D01*
X110378942Y-116625831D01*
X110374540Y-116628579D01*
X110130899Y-116773696D01*
X109680339Y-117042058D01*
X109675793Y-117044639D01*
X108965071Y-117428946D01*
X108960422Y-117431337D01*
X108333920Y-117737225D01*
X108278640Y-117750000D01*
X100013597Y-117750139D01*
X91721585Y-117750279D01*
X91666147Y-117737427D01*
X91041440Y-117431337D01*
X90991095Y-117406669D01*
X90986141Y-117404104D01*
X90229411Y-116990824D01*
X90224576Y-116988042D01*
X89870337Y-116773696D01*
X89486891Y-116541677D01*
X89482211Y-116538702D01*
X88950500Y-116183897D01*
X88765002Y-116060116D01*
X88760431Y-116056918D01*
X88065104Y-115547051D01*
X88060679Y-115543653D01*
X87388618Y-115003518D01*
X87384348Y-114999928D01*
X87270705Y-114900000D01*
X95074318Y-114900000D01*
X95094956Y-115056762D01*
X95155464Y-115202841D01*
X95251718Y-115328282D01*
X95377159Y-115424536D01*
X95523238Y-115485044D01*
X95680000Y-115505682D01*
X95688188Y-115504604D01*
X95828574Y-115486122D01*
X95836762Y-115485044D01*
X95982841Y-115424536D01*
X96103296Y-115332108D01*
X96169517Y-115306508D01*
X96239065Y-115320773D01*
X96256704Y-115332108D01*
X96377159Y-115424536D01*
X96523238Y-115485044D01*
X96680000Y-115505682D01*
X96688188Y-115504604D01*
X96828574Y-115486122D01*
X96836762Y-115485044D01*
X96982841Y-115424536D01*
X97103296Y-115332108D01*
X97169517Y-115306508D01*
X97239065Y-115320773D01*
X97256704Y-115332108D01*
X97377159Y-115424536D01*
X97523238Y-115485044D01*
X97680000Y-115505682D01*
X97688188Y-115504604D01*
X97828574Y-115486122D01*
X97836762Y-115485044D01*
X97982841Y-115424536D01*
X98108282Y-115328282D01*
X98109109Y-115329359D01*
X98163862Y-115299456D01*
X98234678Y-115304514D01*
X98267359Y-115322610D01*
X98387159Y-115414536D01*
X98533238Y-115475044D01*
X98690000Y-115495682D01*
X98698188Y-115494604D01*
X98838574Y-115476122D01*
X98846762Y-115475044D01*
X98992841Y-115414536D01*
X98999394Y-115409508D01*
X98999397Y-115409506D01*
X99106981Y-115326954D01*
X99173201Y-115301353D01*
X99242750Y-115315618D01*
X99261052Y-115329150D01*
X99261718Y-115328282D01*
X99387159Y-115424536D01*
X99533238Y-115485044D01*
X99690000Y-115505682D01*
X99698188Y-115504604D01*
X99838574Y-115486122D01*
X99846762Y-115485044D01*
X99992841Y-115424536D01*
X100036454Y-115391071D01*
X100108296Y-115335945D01*
X100174517Y-115310345D01*
X100244066Y-115324610D01*
X100261704Y-115335945D01*
X100333546Y-115391071D01*
X100377159Y-115424536D01*
X100523238Y-115485044D01*
X100680000Y-115505682D01*
X100688188Y-115504604D01*
X100828574Y-115486122D01*
X100836762Y-115485044D01*
X100982841Y-115424536D01*
X101108282Y-115328282D01*
X101110497Y-115331168D01*
X101158217Y-115305110D01*
X101229032Y-115310175D01*
X101260228Y-115330224D01*
X101261718Y-115328282D01*
X101387159Y-115424536D01*
X101533238Y-115485044D01*
X101690000Y-115505682D01*
X101698188Y-115504604D01*
X101838574Y-115486122D01*
X101846762Y-115485044D01*
X101992841Y-115424536D01*
X102036454Y-115391071D01*
X102108296Y-115335945D01*
X102174517Y-115310345D01*
X102244066Y-115324610D01*
X102261704Y-115335945D01*
X102333546Y-115391071D01*
X102377159Y-115424536D01*
X102523238Y-115485044D01*
X102680000Y-115505682D01*
X102688188Y-115504604D01*
X102828574Y-115486122D01*
X102836762Y-115485044D01*
X102982841Y-115424536D01*
X103103296Y-115332108D01*
X103169517Y-115306508D01*
X103239065Y-115320773D01*
X103256704Y-115332108D01*
X103377159Y-115424536D01*
X103523238Y-115485044D01*
X103680000Y-115505682D01*
X103688188Y-115504604D01*
X103828574Y-115486122D01*
X103836762Y-115485044D01*
X103982841Y-115424536D01*
X104108282Y-115328282D01*
X104204536Y-115202841D01*
X104265044Y-115056762D01*
X104285682Y-114900000D01*
X104265044Y-114743238D01*
X104204536Y-114597159D01*
X104108282Y-114471718D01*
X103982841Y-114375464D01*
X103836762Y-114314956D01*
X103680000Y-114294318D01*
X103523238Y-114314956D01*
X103377159Y-114375464D01*
X103310268Y-114426791D01*
X103256704Y-114467892D01*
X103190483Y-114493492D01*
X103120935Y-114479227D01*
X103103296Y-114467892D01*
X103049732Y-114426791D01*
X102982841Y-114375464D01*
X102836762Y-114314956D01*
X102680000Y-114294318D01*
X102523238Y-114314956D01*
X102377159Y-114375464D01*
X102333546Y-114408929D01*
X102261704Y-114464055D01*
X102195483Y-114489655D01*
X102125934Y-114475390D01*
X102108296Y-114464055D01*
X102036454Y-114408929D01*
X101992841Y-114375464D01*
X101846762Y-114314956D01*
X101690000Y-114294318D01*
X101533238Y-114314956D01*
X101387159Y-114375464D01*
X101261718Y-114471718D01*
X101259503Y-114468832D01*
X101211783Y-114494890D01*
X101140968Y-114489825D01*
X101109772Y-114469776D01*
X101108282Y-114471718D01*
X101094473Y-114461122D01*
X100982841Y-114375464D01*
X100836762Y-114314956D01*
X100680000Y-114294318D01*
X100523238Y-114314956D01*
X100377159Y-114375464D01*
X100333546Y-114408929D01*
X100261704Y-114464055D01*
X100195483Y-114489655D01*
X100125934Y-114475390D01*
X100108296Y-114464055D01*
X100036454Y-114408929D01*
X99992841Y-114375464D01*
X99846762Y-114314956D01*
X99690000Y-114294318D01*
X99533238Y-114314956D01*
X99387159Y-114375464D01*
X99380608Y-114380491D01*
X99380603Y-114380494D01*
X99273019Y-114463046D01*
X99206799Y-114488647D01*
X99137250Y-114474382D01*
X99118948Y-114460850D01*
X99118282Y-114461718D01*
X99041363Y-114402696D01*
X98992841Y-114365464D01*
X98846762Y-114304956D01*
X98690000Y-114284318D01*
X98533238Y-114304956D01*
X98387159Y-114365464D01*
X98261718Y-114461718D01*
X98260891Y-114460641D01*
X98206138Y-114490544D01*
X98135322Y-114485486D01*
X98102640Y-114467389D01*
X98096980Y-114463046D01*
X97982841Y-114375464D01*
X97836762Y-114314956D01*
X97680000Y-114294318D01*
X97523238Y-114314956D01*
X97377159Y-114375464D01*
X97310268Y-114426791D01*
X97256704Y-114467892D01*
X97190483Y-114493492D01*
X97120935Y-114479227D01*
X97103296Y-114467892D01*
X97049732Y-114426791D01*
X96982841Y-114375464D01*
X96836762Y-114314956D01*
X96680000Y-114294318D01*
X96523238Y-114314956D01*
X96377159Y-114375464D01*
X96310268Y-114426791D01*
X96256704Y-114467892D01*
X96190483Y-114493492D01*
X96120935Y-114479227D01*
X96103296Y-114467892D01*
X96049732Y-114426791D01*
X95982841Y-114375464D01*
X95836762Y-114314956D01*
X95680000Y-114294318D01*
X95523238Y-114314956D01*
X95377159Y-114375464D01*
X95251718Y-114471718D01*
X95155464Y-114597159D01*
X95094956Y-114743238D01*
X95074318Y-114900000D01*
X87270705Y-114900000D01*
X87027336Y-114686001D01*
X86736830Y-114430554D01*
X86732752Y-114426804D01*
X86158598Y-113875000D01*
X93394318Y-113875000D01*
X93414956Y-114031762D01*
X93475464Y-114177841D01*
X93571718Y-114303282D01*
X93697159Y-114399536D01*
X93843238Y-114460044D01*
X93851426Y-114461122D01*
X93873705Y-114464055D01*
X94000000Y-114480682D01*
X94008188Y-114479604D01*
X94018367Y-114478264D01*
X94126295Y-114464055D01*
X94148574Y-114461122D01*
X94156762Y-114460044D01*
X94302841Y-114399536D01*
X94428282Y-114303282D01*
X94524536Y-114177841D01*
X94585044Y-114031762D01*
X94605682Y-113875000D01*
X94585044Y-113718238D01*
X94524536Y-113572159D01*
X94428282Y-113446718D01*
X94302841Y-113350464D01*
X94156762Y-113289956D01*
X94000000Y-113269318D01*
X93843238Y-113289956D01*
X93697159Y-113350464D01*
X93571718Y-113446718D01*
X93475464Y-113572159D01*
X93414956Y-113718238D01*
X93394318Y-113875000D01*
X86158598Y-113875000D01*
X86111070Y-113829322D01*
X86107135Y-113825368D01*
X85854002Y-113559554D01*
X85512533Y-113200978D01*
X85508786Y-113196865D01*
X85442167Y-113120398D01*
X84942408Y-112546770D01*
X84938837Y-112542484D01*
X84873165Y-112460000D01*
X91744318Y-112460000D01*
X91764956Y-112616762D01*
X91825464Y-112762841D01*
X91921718Y-112888282D01*
X92047159Y-112984536D01*
X92193238Y-113045044D01*
X92350000Y-113065682D01*
X92358188Y-113064604D01*
X92380695Y-113061641D01*
X92506762Y-113045044D01*
X92652841Y-112984536D01*
X92778282Y-112888282D01*
X92874536Y-112762841D01*
X92935044Y-112616762D01*
X92955682Y-112460000D01*
X92935044Y-112303238D01*
X92917134Y-112260000D01*
X95294318Y-112260000D01*
X95314956Y-112416762D01*
X95375464Y-112562841D01*
X95471718Y-112688282D01*
X95597159Y-112784536D01*
X95743238Y-112845044D01*
X95900000Y-112865682D01*
X95908188Y-112864604D01*
X96048574Y-112846122D01*
X96056762Y-112845044D01*
X96202841Y-112784536D01*
X96328282Y-112688282D01*
X96424536Y-112562841D01*
X96485044Y-112416762D01*
X96501848Y-112289126D01*
X110760541Y-112289126D01*
X110790935Y-112490097D01*
X110861119Y-112680852D01*
X110864479Y-112686272D01*
X110864480Y-112686273D01*
X110964863Y-112848176D01*
X110964866Y-112848180D01*
X110968226Y-112853599D01*
X110972612Y-112858237D01*
X111065902Y-112956888D01*
X111107881Y-113001280D01*
X111274379Y-113117863D01*
X111460919Y-113198586D01*
X111472422Y-113200989D01*
X111655144Y-113239162D01*
X111655149Y-113239163D01*
X111659880Y-113240151D01*
X111664762Y-113240407D01*
X111664871Y-113240413D01*
X111664887Y-113240413D01*
X111666539Y-113240500D01*
X112365800Y-113240500D01*
X112413793Y-113235625D01*
X112510868Y-113225765D01*
X112510870Y-113225765D01*
X112517216Y-113225120D01*
X112711172Y-113164338D01*
X112888944Y-113065797D01*
X113043271Y-112933523D01*
X113078364Y-112888282D01*
X113114353Y-112841884D01*
X113167848Y-112772919D01*
X113257587Y-112590545D01*
X113264071Y-112565652D01*
X113307212Y-112400034D01*
X113307212Y-112400031D01*
X113308822Y-112393852D01*
X113314645Y-112282744D01*
X113319125Y-112197256D01*
X113319125Y-112197252D01*
X113319459Y-112190874D01*
X113289065Y-111989903D01*
X113218881Y-111799148D01*
X113205001Y-111776762D01*
X113115137Y-111631824D01*
X113115134Y-111631820D01*
X113111774Y-111626401D01*
X112999986Y-111508188D01*
X112976508Y-111483361D01*
X112976507Y-111483360D01*
X112972119Y-111478720D01*
X112961702Y-111471426D01*
X112884181Y-111417145D01*
X112839853Y-111361688D01*
X112832544Y-111291068D01*
X112864575Y-111227708D01*
X112911348Y-111199035D01*
X112910512Y-111197103D01*
X112917785Y-111193956D01*
X112925398Y-111191744D01*
X112933936Y-111186695D01*
X113060044Y-111112115D01*
X113066865Y-111108081D01*
X113183081Y-110991865D01*
X113189808Y-110980491D01*
X113262709Y-110857221D01*
X113262709Y-110857220D01*
X113266744Y-110850398D01*
X113288192Y-110776576D01*
X113310801Y-110698754D01*
X113312598Y-110692569D01*
X113315174Y-110659837D01*
X113315307Y-110658153D01*
X113315308Y-110658140D01*
X113315500Y-110655694D01*
X113315500Y-109824306D01*
X113315308Y-109821860D01*
X113315307Y-109821847D01*
X113313103Y-109793850D01*
X113312598Y-109787431D01*
X113266744Y-109629602D01*
X113183081Y-109488135D01*
X113066865Y-109371919D01*
X112925398Y-109288256D01*
X112917786Y-109286045D01*
X112917785Y-109286044D01*
X112773754Y-109244199D01*
X112773755Y-109244199D01*
X112767569Y-109242402D01*
X112754416Y-109241367D01*
X112733153Y-109239693D01*
X112733140Y-109239692D01*
X112730694Y-109239500D01*
X111349306Y-109239500D01*
X111346860Y-109239692D01*
X111346847Y-109239693D01*
X111325584Y-109241367D01*
X111312431Y-109242402D01*
X111306245Y-109244199D01*
X111306246Y-109244199D01*
X111162215Y-109286044D01*
X111162214Y-109286045D01*
X111154602Y-109288256D01*
X111013135Y-109371919D01*
X110896919Y-109488135D01*
X110813256Y-109629602D01*
X110767402Y-109787431D01*
X110766897Y-109793850D01*
X110764693Y-109821847D01*
X110764692Y-109821860D01*
X110764500Y-109824306D01*
X110764500Y-110655694D01*
X110764692Y-110658140D01*
X110764693Y-110658153D01*
X110764826Y-110659837D01*
X110767402Y-110692569D01*
X110769199Y-110698754D01*
X110791809Y-110776576D01*
X110813256Y-110850398D01*
X110817291Y-110857220D01*
X110817291Y-110857221D01*
X110890192Y-110980491D01*
X110896919Y-110991865D01*
X111013135Y-111108081D01*
X111019956Y-111112115D01*
X111146065Y-111186695D01*
X111154602Y-111191744D01*
X111162216Y-111193956D01*
X111168222Y-111196555D01*
X111222797Y-111241965D01*
X111244158Y-111309672D01*
X111225523Y-111378179D01*
X111191925Y-111413721D01*
X111191056Y-111414203D01*
X111186213Y-111418354D01*
X111186210Y-111418356D01*
X111142747Y-111455609D01*
X111036729Y-111546477D01*
X110912152Y-111707081D01*
X110822413Y-111889455D01*
X110820804Y-111895633D01*
X110820803Y-111895635D01*
X110782747Y-112041736D01*
X110771178Y-112086148D01*
X110760541Y-112289126D01*
X96501848Y-112289126D01*
X96505682Y-112260000D01*
X96485044Y-112103238D01*
X96424536Y-111957159D01*
X96345624Y-111854318D01*
X96333305Y-111838264D01*
X96328282Y-111831718D01*
X96202841Y-111735464D01*
X96056762Y-111674956D01*
X95900000Y-111654318D01*
X95743238Y-111674956D01*
X95597159Y-111735464D01*
X95471718Y-111831718D01*
X95466695Y-111838264D01*
X95454376Y-111854318D01*
X95375464Y-111957159D01*
X95314956Y-112103238D01*
X95294318Y-112260000D01*
X92917134Y-112260000D01*
X92874536Y-112157159D01*
X92794846Y-112053305D01*
X92783305Y-112038264D01*
X92778282Y-112031718D01*
X92652841Y-111935464D01*
X92506762Y-111874956D01*
X92350000Y-111854318D01*
X92193238Y-111874956D01*
X92047159Y-111935464D01*
X91921718Y-112031718D01*
X91916695Y-112038264D01*
X91905154Y-112053305D01*
X91825464Y-112157159D01*
X91764956Y-112303238D01*
X91744318Y-112460000D01*
X84873165Y-112460000D01*
X84720448Y-112268188D01*
X84401752Y-111867907D01*
X84398405Y-111863506D01*
X83923439Y-111209509D01*
X83891743Y-111165865D01*
X83888565Y-111161280D01*
X83577198Y-110690000D01*
X95834318Y-110690000D01*
X95854956Y-110846762D01*
X95915464Y-110992841D01*
X95931944Y-111014318D01*
X96003891Y-111108081D01*
X96011718Y-111118282D01*
X96137159Y-111214536D01*
X96283238Y-111275044D01*
X96440000Y-111295682D01*
X96448188Y-111294604D01*
X96588574Y-111276122D01*
X96596762Y-111275044D01*
X96604389Y-111271885D01*
X96604392Y-111271884D01*
X96639588Y-111257305D01*
X96710178Y-111249716D01*
X96773665Y-111281495D01*
X96809892Y-111342554D01*
X96812728Y-111390160D01*
X96809016Y-111418356D01*
X96794318Y-111530000D01*
X96814956Y-111686762D01*
X96875464Y-111832841D01*
X96906953Y-111873878D01*
X96965830Y-111950608D01*
X96971718Y-111958282D01*
X97097159Y-112054536D01*
X97243238Y-112115044D01*
X97400000Y-112135682D01*
X97408188Y-112134604D01*
X97548574Y-112116122D01*
X97556762Y-112115044D01*
X97702841Y-112054536D01*
X97828282Y-111958282D01*
X97834171Y-111950608D01*
X97893047Y-111873878D01*
X97924536Y-111832841D01*
X97985044Y-111686762D01*
X97993833Y-111620000D01*
X100484318Y-111620000D01*
X100504956Y-111776762D01*
X100565464Y-111922841D01*
X100661718Y-112048282D01*
X100787159Y-112144536D01*
X100933238Y-112205044D01*
X101090000Y-112225682D01*
X101098188Y-112224604D01*
X101238574Y-112206122D01*
X101246762Y-112205044D01*
X101392841Y-112144536D01*
X101518282Y-112048282D01*
X101614536Y-111922841D01*
X101675044Y-111776762D01*
X101695682Y-111620000D01*
X101679884Y-111500000D01*
X103684318Y-111500000D01*
X103704956Y-111656762D01*
X103765464Y-111802841D01*
X103861718Y-111928282D01*
X103987159Y-112024536D01*
X104133238Y-112085044D01*
X104141426Y-112086122D01*
X104190077Y-112092527D01*
X104290000Y-112105682D01*
X104298188Y-112104604D01*
X104438574Y-112086122D01*
X104446762Y-112085044D01*
X104592841Y-112024536D01*
X104718282Y-111928282D01*
X104814536Y-111802841D01*
X104875044Y-111656762D01*
X104895682Y-111500000D01*
X104875044Y-111343238D01*
X104814536Y-111197159D01*
X104740360Y-111100491D01*
X104723305Y-111078264D01*
X104718282Y-111071718D01*
X104592841Y-110975464D01*
X104446762Y-110914956D01*
X104290000Y-110894318D01*
X104133238Y-110914956D01*
X103987159Y-110975464D01*
X103861718Y-111071718D01*
X103856695Y-111078264D01*
X103839640Y-111100491D01*
X103765464Y-111197159D01*
X103704956Y-111343238D01*
X103684318Y-111500000D01*
X101679884Y-111500000D01*
X101675044Y-111463238D01*
X101614536Y-111317159D01*
X101535791Y-111214536D01*
X101523305Y-111198264D01*
X101518282Y-111191718D01*
X101392841Y-111095464D01*
X101246762Y-111034956D01*
X101090000Y-111014318D01*
X100933238Y-111034956D01*
X100787159Y-111095464D01*
X100661718Y-111191718D01*
X100656695Y-111198264D01*
X100644209Y-111214536D01*
X100565464Y-111317159D01*
X100504956Y-111463238D01*
X100484318Y-111620000D01*
X97993833Y-111620000D01*
X98005682Y-111530000D01*
X97985044Y-111373238D01*
X97924536Y-111227159D01*
X97828282Y-111101718D01*
X97702841Y-111005464D01*
X97556762Y-110944956D01*
X97400000Y-110924318D01*
X97243238Y-110944956D01*
X97235611Y-110948115D01*
X97235608Y-110948116D01*
X97200412Y-110962695D01*
X97129822Y-110970284D01*
X97066335Y-110938505D01*
X97030108Y-110877446D01*
X97027272Y-110829840D01*
X97042284Y-110715808D01*
X97045682Y-110690000D01*
X97025044Y-110533238D01*
X96964536Y-110387159D01*
X96868282Y-110261718D01*
X96742841Y-110165464D01*
X96596762Y-110104956D01*
X96440000Y-110084318D01*
X96283238Y-110104956D01*
X96137159Y-110165464D01*
X96011718Y-110261718D01*
X95915464Y-110387159D01*
X95854956Y-110533238D01*
X95834318Y-110690000D01*
X83577198Y-110690000D01*
X83413267Y-110441877D01*
X83410296Y-110437156D01*
X83086785Y-109896933D01*
X82967310Y-109697423D01*
X82964558Y-109692589D01*
X82930533Y-109629602D01*
X82722337Y-109244199D01*
X82554754Y-108933975D01*
X82552212Y-108929009D01*
X82368657Y-108550000D01*
X95274318Y-108550000D01*
X95294956Y-108706762D01*
X95355464Y-108852841D01*
X95451718Y-108978282D01*
X95577159Y-109074536D01*
X95723238Y-109135044D01*
X95880000Y-109155682D01*
X95888188Y-109154604D01*
X96028574Y-109136122D01*
X96036762Y-109135044D01*
X96182841Y-109074536D01*
X96308282Y-108978282D01*
X96404536Y-108852841D01*
X96465044Y-108706762D01*
X96485682Y-108550000D01*
X96465044Y-108393238D01*
X96404536Y-108247159D01*
X96391369Y-108230000D01*
X101744318Y-108230000D01*
X101764956Y-108386762D01*
X101825464Y-108532841D01*
X101921718Y-108658282D01*
X102047159Y-108754536D01*
X102193238Y-108815044D01*
X102350000Y-108835682D01*
X102358188Y-108834604D01*
X102498574Y-108816122D01*
X102506762Y-108815044D01*
X102652841Y-108754536D01*
X102778282Y-108658282D01*
X102874536Y-108532841D01*
X102935044Y-108386762D01*
X102955682Y-108230000D01*
X102935044Y-108073238D01*
X102874536Y-107927159D01*
X102778282Y-107801718D01*
X102652841Y-107705464D01*
X102506762Y-107644956D01*
X102350000Y-107624318D01*
X102193238Y-107644956D01*
X102047159Y-107705464D01*
X101921718Y-107801718D01*
X101825464Y-107927159D01*
X101764956Y-108073238D01*
X101744318Y-108230000D01*
X96391369Y-108230000D01*
X96308282Y-108121718D01*
X96182841Y-108025464D01*
X96036762Y-107964956D01*
X95880000Y-107944318D01*
X95723238Y-107964956D01*
X95577159Y-108025464D01*
X95451718Y-108121718D01*
X95355464Y-108247159D01*
X95294956Y-108393238D01*
X95274318Y-108550000D01*
X82368657Y-108550000D01*
X82176397Y-108153017D01*
X82174077Y-108147944D01*
X81948524Y-107624318D01*
X81832972Y-107356059D01*
X81830879Y-107350889D01*
X81710944Y-107034609D01*
X81595435Y-106730000D01*
X90104318Y-106730000D01*
X90124956Y-106886762D01*
X90185464Y-107032841D01*
X90281718Y-107158282D01*
X90407159Y-107254536D01*
X90553238Y-107315044D01*
X90710000Y-107335682D01*
X90718188Y-107334604D01*
X90858574Y-107316122D01*
X90866762Y-107315044D01*
X91012841Y-107254536D01*
X91138282Y-107158282D01*
X91234536Y-107032841D01*
X91295044Y-106886762D01*
X91315682Y-106730000D01*
X91295044Y-106573238D01*
X91234536Y-106427159D01*
X91138282Y-106301718D01*
X91012841Y-106205464D01*
X90866762Y-106144956D01*
X90710000Y-106124318D01*
X90553238Y-106144956D01*
X90407159Y-106205464D01*
X90281718Y-106301718D01*
X90185464Y-106427159D01*
X90124956Y-106573238D01*
X90104318Y-106730000D01*
X81595435Y-106730000D01*
X81525159Y-106544677D01*
X81523300Y-106539426D01*
X81503861Y-106480404D01*
X81339740Y-105982108D01*
X81253569Y-105720478D01*
X81251942Y-105715142D01*
X81135446Y-105300500D01*
X93344318Y-105300500D01*
X93364956Y-105457262D01*
X93425464Y-105603341D01*
X93521718Y-105728782D01*
X93647159Y-105825036D01*
X93793238Y-105885544D01*
X93801426Y-105886622D01*
X93858379Y-105894120D01*
X93923306Y-105922843D01*
X93962397Y-105982108D01*
X93963242Y-106053099D01*
X93941894Y-106095747D01*
X93930491Y-106110607D01*
X93930489Y-106110610D01*
X93925464Y-106117159D01*
X93864956Y-106263238D01*
X93844318Y-106420000D01*
X93864956Y-106576762D01*
X93925464Y-106722841D01*
X94021718Y-106848282D01*
X94147159Y-106944536D01*
X94293238Y-107005044D01*
X94450000Y-107025682D01*
X94458188Y-107024604D01*
X94598574Y-107006122D01*
X94606762Y-107005044D01*
X94752841Y-106944536D01*
X94878282Y-106848282D01*
X94974536Y-106722841D01*
X95035044Y-106576762D01*
X95055682Y-106420000D01*
X95035044Y-106263238D01*
X94974536Y-106117159D01*
X94878282Y-105991718D01*
X94752841Y-105895464D01*
X94606762Y-105834956D01*
X94573257Y-105830545D01*
X94541621Y-105826380D01*
X94476694Y-105797657D01*
X94437603Y-105738392D01*
X94436758Y-105667401D01*
X94458106Y-105624753D01*
X94469509Y-105609893D01*
X94469511Y-105609890D01*
X94474536Y-105603341D01*
X94506895Y-105525219D01*
X96676578Y-105525219D01*
X96677656Y-105533407D01*
X96695297Y-105667401D01*
X96697216Y-105681981D01*
X96757724Y-105828060D01*
X96853978Y-105953501D01*
X96979419Y-106049755D01*
X97125498Y-106110263D01*
X97133686Y-106111341D01*
X97203879Y-106120582D01*
X97282260Y-106130901D01*
X97290448Y-106129823D01*
X97430834Y-106111341D01*
X97439022Y-106110263D01*
X97446650Y-106107103D01*
X97446655Y-106107102D01*
X97467898Y-106098303D01*
X97538488Y-106090714D01*
X97601975Y-106122494D01*
X97638201Y-106183553D01*
X97640279Y-106200100D01*
X97641037Y-106200000D01*
X97661675Y-106356762D01*
X97722183Y-106502841D01*
X97727214Y-106509398D01*
X97727902Y-106510589D01*
X97744642Y-106579584D01*
X97735194Y-106621811D01*
X97716056Y-106668014D01*
X97695418Y-106824776D01*
X97716056Y-106981538D01*
X97776564Y-107127617D01*
X97872818Y-107253058D01*
X97998259Y-107349312D01*
X98144338Y-107409820D01*
X98301100Y-107430458D01*
X98309288Y-107429380D01*
X98449674Y-107410898D01*
X98457862Y-107409820D01*
X98603941Y-107349312D01*
X98729382Y-107253058D01*
X98825636Y-107127617D01*
X98853644Y-107060000D01*
X100534318Y-107060000D01*
X100554956Y-107216762D01*
X100615464Y-107362841D01*
X100711718Y-107488282D01*
X100837159Y-107584536D01*
X100983238Y-107645044D01*
X101140000Y-107665682D01*
X101148188Y-107664604D01*
X101288574Y-107646122D01*
X101296762Y-107645044D01*
X101442841Y-107584536D01*
X101568282Y-107488282D01*
X101664536Y-107362841D01*
X101725044Y-107216762D01*
X101745682Y-107060000D01*
X101725044Y-106903238D01*
X101664536Y-106757159D01*
X101568282Y-106631718D01*
X101442841Y-106535464D01*
X101296762Y-106474956D01*
X101258419Y-106469908D01*
X101148188Y-106455396D01*
X101140000Y-106454318D01*
X101131812Y-106455396D01*
X101021582Y-106469908D01*
X100983238Y-106474956D01*
X100837159Y-106535464D01*
X100711718Y-106631718D01*
X100615464Y-106757159D01*
X100554956Y-106903238D01*
X100534318Y-107060000D01*
X98853644Y-107060000D01*
X98886144Y-106981538D01*
X98906782Y-106824776D01*
X98899106Y-106766472D01*
X98910045Y-106696325D01*
X98957173Y-106643226D01*
X98991419Y-106628320D01*
X98993554Y-106627748D01*
X99001742Y-106626670D01*
X99147821Y-106566162D01*
X99273262Y-106469908D01*
X99369516Y-106344467D01*
X99430024Y-106198388D01*
X99436642Y-106148116D01*
X99439260Y-106128234D01*
X99467983Y-106063307D01*
X99527248Y-106024216D01*
X99598239Y-106023371D01*
X99612401Y-106028273D01*
X99682001Y-106057103D01*
X99682006Y-106057104D01*
X99689634Y-106060264D01*
X99846396Y-106080902D01*
X99854584Y-106079824D01*
X99994970Y-106061342D01*
X100003158Y-106060264D01*
X100149237Y-105999756D01*
X100274678Y-105903502D01*
X100287631Y-105886622D01*
X100332462Y-105828196D01*
X100370932Y-105778061D01*
X100431440Y-105631982D01*
X100434330Y-105610034D01*
X100444981Y-105529126D01*
X115290541Y-105529126D01*
X115320935Y-105730097D01*
X115391119Y-105920852D01*
X115394479Y-105926272D01*
X115394480Y-105926273D01*
X115494863Y-106088176D01*
X115494866Y-106088180D01*
X115498226Y-106093599D01*
X115637881Y-106241280D01*
X115734441Y-106308892D01*
X115785248Y-106344467D01*
X115804379Y-106357863D01*
X115990919Y-106438586D01*
X116036947Y-106448202D01*
X116185144Y-106479162D01*
X116185149Y-106479163D01*
X116189880Y-106480151D01*
X116194762Y-106480407D01*
X116194871Y-106480413D01*
X116194887Y-106480413D01*
X116196539Y-106480500D01*
X116895800Y-106480500D01*
X116960994Y-106473878D01*
X117040868Y-106465765D01*
X117040870Y-106465765D01*
X117047216Y-106465120D01*
X117241172Y-106404338D01*
X117418944Y-106305797D01*
X117573271Y-106173523D01*
X117697848Y-106012919D01*
X117787587Y-105830545D01*
X117790222Y-105820430D01*
X117837212Y-105640034D01*
X117837212Y-105640031D01*
X117838822Y-105633852D01*
X117844944Y-105517031D01*
X117849125Y-105437256D01*
X117849125Y-105437252D01*
X117849459Y-105430874D01*
X117819065Y-105229903D01*
X117748881Y-105039148D01*
X117719095Y-104991108D01*
X117645137Y-104871824D01*
X117645134Y-104871820D01*
X117641774Y-104866401D01*
X117502119Y-104718720D01*
X117469523Y-104695896D01*
X117414181Y-104657145D01*
X117369853Y-104601688D01*
X117362544Y-104531068D01*
X117394575Y-104467708D01*
X117441348Y-104439035D01*
X117440512Y-104437103D01*
X117447785Y-104433956D01*
X117455398Y-104431744D01*
X117596865Y-104348081D01*
X117713081Y-104231865D01*
X117796744Y-104090398D01*
X117808658Y-104049392D01*
X117840801Y-103938754D01*
X117842598Y-103932569D01*
X117844816Y-103904391D01*
X117845307Y-103898153D01*
X117845308Y-103898140D01*
X117845500Y-103895694D01*
X117845500Y-103064306D01*
X117845308Y-103061860D01*
X117845307Y-103061847D01*
X117843103Y-103033850D01*
X117842598Y-103027431D01*
X117827733Y-102976265D01*
X117798956Y-102877215D01*
X117798955Y-102877214D01*
X117796744Y-102869602D01*
X117736353Y-102767485D01*
X117717115Y-102734956D01*
X117713081Y-102728135D01*
X117596865Y-102611919D01*
X117585835Y-102605396D01*
X117462221Y-102532291D01*
X117462220Y-102532291D01*
X117455398Y-102528256D01*
X117447786Y-102526045D01*
X117447785Y-102526044D01*
X117303754Y-102484199D01*
X117303755Y-102484199D01*
X117297569Y-102482402D01*
X117284416Y-102481367D01*
X117263153Y-102479693D01*
X117263140Y-102479692D01*
X117260694Y-102479500D01*
X115879306Y-102479500D01*
X115876860Y-102479692D01*
X115876847Y-102479693D01*
X115855584Y-102481367D01*
X115842431Y-102482402D01*
X115836245Y-102484199D01*
X115836246Y-102484199D01*
X115692215Y-102526044D01*
X115692214Y-102526045D01*
X115684602Y-102528256D01*
X115677780Y-102532291D01*
X115677779Y-102532291D01*
X115554165Y-102605396D01*
X115543135Y-102611919D01*
X115426919Y-102728135D01*
X115422885Y-102734956D01*
X115403648Y-102767485D01*
X115343256Y-102869602D01*
X115341045Y-102877214D01*
X115341044Y-102877215D01*
X115312267Y-102976265D01*
X115297402Y-103027431D01*
X115296897Y-103033850D01*
X115294693Y-103061847D01*
X115294692Y-103061860D01*
X115294500Y-103064306D01*
X115294500Y-103895694D01*
X115294692Y-103898140D01*
X115294693Y-103898153D01*
X115295184Y-103904391D01*
X115297402Y-103932569D01*
X115299199Y-103938754D01*
X115331343Y-104049392D01*
X115343256Y-104090398D01*
X115426919Y-104231865D01*
X115543135Y-104348081D01*
X115684602Y-104431744D01*
X115692216Y-104433956D01*
X115698222Y-104436555D01*
X115752797Y-104481965D01*
X115774158Y-104549672D01*
X115755523Y-104618179D01*
X115721925Y-104653721D01*
X115721056Y-104654203D01*
X115716213Y-104658354D01*
X115716210Y-104658356D01*
X115672412Y-104695896D01*
X115566729Y-104786477D01*
X115442152Y-104947081D01*
X115352413Y-105129455D01*
X115350804Y-105135633D01*
X115350803Y-105135635D01*
X115309992Y-105292312D01*
X115301178Y-105326148D01*
X115300844Y-105332527D01*
X115291172Y-105517090D01*
X115290541Y-105529126D01*
X100444981Y-105529126D01*
X100446566Y-105517090D01*
X100452078Y-105475220D01*
X100431440Y-105318458D01*
X100370932Y-105172379D01*
X100274678Y-105046938D01*
X100149237Y-104950684D01*
X100003158Y-104890176D01*
X99846396Y-104869538D01*
X99689634Y-104890176D01*
X99543555Y-104950684D01*
X99418114Y-105046938D01*
X99321860Y-105172379D01*
X99261352Y-105318458D01*
X99260274Y-105326646D01*
X99252116Y-105388612D01*
X99223393Y-105453539D01*
X99164128Y-105492630D01*
X99093137Y-105493475D01*
X99078975Y-105488573D01*
X99009375Y-105459743D01*
X99009370Y-105459742D01*
X99001742Y-105456582D01*
X98844980Y-105435944D01*
X98688218Y-105456582D01*
X98542139Y-105517090D01*
X98535586Y-105522118D01*
X98535583Y-105522120D01*
X98454375Y-105584433D01*
X98388155Y-105610034D01*
X98361226Y-105609393D01*
X98246719Y-105594318D01*
X98238531Y-105595396D01*
X98128415Y-105609893D01*
X98089957Y-105614956D01*
X98082329Y-105618116D01*
X98082324Y-105618117D01*
X98061081Y-105626916D01*
X97990491Y-105634505D01*
X97927004Y-105602725D01*
X97890778Y-105541666D01*
X97888700Y-105525119D01*
X97887942Y-105525219D01*
X97868382Y-105376645D01*
X97867304Y-105368457D01*
X97806796Y-105222378D01*
X97710542Y-105096937D01*
X97585101Y-105000683D01*
X97439022Y-104940175D01*
X97282260Y-104919537D01*
X97125498Y-104940175D01*
X96979419Y-105000683D01*
X96853978Y-105096937D01*
X96757724Y-105222378D01*
X96697216Y-105368457D01*
X96676578Y-105525219D01*
X94506895Y-105525219D01*
X94535044Y-105457262D01*
X94555682Y-105300500D01*
X94535044Y-105143738D01*
X94474536Y-104997659D01*
X94392062Y-104890176D01*
X94383305Y-104878764D01*
X94378282Y-104872218D01*
X94252841Y-104775964D01*
X94106762Y-104715456D01*
X93950000Y-104694818D01*
X93793238Y-104715456D01*
X93647159Y-104775964D01*
X93521718Y-104872218D01*
X93516695Y-104878764D01*
X93507938Y-104890176D01*
X93425464Y-104997659D01*
X93364956Y-105143738D01*
X93344318Y-105300500D01*
X81135446Y-105300500D01*
X81133146Y-105292312D01*
X81018727Y-104885063D01*
X81017341Y-104879674D01*
X80821094Y-104040062D01*
X80819948Y-104034618D01*
X80817119Y-104019525D01*
X80665344Y-103210000D01*
X86144318Y-103210000D01*
X86164956Y-103366762D01*
X86225464Y-103512841D01*
X86321718Y-103638282D01*
X86447159Y-103734536D01*
X86593238Y-103795044D01*
X86750000Y-103815682D01*
X86758188Y-103814604D01*
X86898574Y-103796122D01*
X86906762Y-103795044D01*
X87052841Y-103734536D01*
X87178282Y-103638282D01*
X87274536Y-103512841D01*
X87335044Y-103366762D01*
X87355682Y-103210000D01*
X87335044Y-103053238D01*
X87306552Y-102984453D01*
X93316139Y-102984453D01*
X93336777Y-103141215D01*
X93397285Y-103287294D01*
X93493539Y-103412735D01*
X93618980Y-103508989D01*
X93765059Y-103569497D01*
X93921821Y-103590135D01*
X93930009Y-103589057D01*
X94070395Y-103570575D01*
X94078583Y-103569497D01*
X94224662Y-103508989D01*
X94348659Y-103413843D01*
X94869328Y-103413843D01*
X94889966Y-103570605D01*
X94950474Y-103716684D01*
X95046728Y-103842125D01*
X95172169Y-103938379D01*
X95318248Y-103998887D01*
X95475010Y-104019525D01*
X95483198Y-104018447D01*
X95623584Y-103999965D01*
X95631772Y-103998887D01*
X95777851Y-103938379D01*
X95903292Y-103842125D01*
X95981655Y-103740000D01*
X104154318Y-103740000D01*
X104174956Y-103896762D01*
X104235464Y-104042841D01*
X104331718Y-104168282D01*
X104457159Y-104264536D01*
X104603238Y-104325044D01*
X104760000Y-104345682D01*
X104768188Y-104344604D01*
X104908574Y-104326122D01*
X104916762Y-104325044D01*
X105062841Y-104264536D01*
X105188282Y-104168282D01*
X105284536Y-104042841D01*
X105345044Y-103896762D01*
X105365682Y-103740000D01*
X105345044Y-103583238D01*
X105284536Y-103437159D01*
X105188282Y-103311718D01*
X105062841Y-103215464D01*
X104916762Y-103154956D01*
X104760000Y-103134318D01*
X104603238Y-103154956D01*
X104457159Y-103215464D01*
X104331718Y-103311718D01*
X104235464Y-103437159D01*
X104174956Y-103583238D01*
X104154318Y-103740000D01*
X95981655Y-103740000D01*
X95999546Y-103716684D01*
X96060054Y-103570605D01*
X96066349Y-103522791D01*
X96095071Y-103457863D01*
X96114567Y-103439274D01*
X96231743Y-103349362D01*
X96238289Y-103344339D01*
X96334543Y-103218898D01*
X96395051Y-103072819D01*
X96396496Y-103061847D01*
X96407613Y-102977397D01*
X96415689Y-102916057D01*
X96395051Y-102759295D01*
X96334543Y-102613216D01*
X96238289Y-102487775D01*
X96112848Y-102391521D01*
X95966769Y-102331013D01*
X95810007Y-102310375D01*
X95653245Y-102331013D01*
X95507166Y-102391521D01*
X95381725Y-102487775D01*
X95285471Y-102613216D01*
X95224963Y-102759295D01*
X95223885Y-102767485D01*
X95218668Y-102807109D01*
X95189946Y-102872037D01*
X95170450Y-102890626D01*
X95057368Y-102977397D01*
X95046728Y-102985561D01*
X94950474Y-103111002D01*
X94889966Y-103257081D01*
X94869328Y-103413843D01*
X94348659Y-103413843D01*
X94350103Y-103412735D01*
X94446357Y-103287294D01*
X94506865Y-103141215D01*
X94527503Y-102984453D01*
X94506865Y-102827691D01*
X94446357Y-102681612D01*
X94350103Y-102556171D01*
X94224662Y-102459917D01*
X94078583Y-102399409D01*
X94056852Y-102396548D01*
X93930009Y-102379849D01*
X93921821Y-102378771D01*
X93913633Y-102379849D01*
X93786791Y-102396548D01*
X93765059Y-102399409D01*
X93618980Y-102459917D01*
X93493539Y-102556171D01*
X93397285Y-102681612D01*
X93336777Y-102827691D01*
X93316139Y-102984453D01*
X87306552Y-102984453D01*
X87274536Y-102907159D01*
X87178282Y-102781718D01*
X87052841Y-102685464D01*
X86906762Y-102624956D01*
X86750000Y-102604318D01*
X86593238Y-102624956D01*
X86447159Y-102685464D01*
X86321718Y-102781718D01*
X86225464Y-102907159D01*
X86164956Y-103053238D01*
X86144318Y-103210000D01*
X80665344Y-103210000D01*
X80661063Y-103187164D01*
X80660158Y-103181674D01*
X80655497Y-103148844D01*
X80580521Y-102620846D01*
X80538936Y-102327990D01*
X80538275Y-102322451D01*
X80454965Y-101464284D01*
X80454549Y-101458721D01*
X80448837Y-101350012D01*
X106894306Y-101350012D01*
X106914944Y-101506774D01*
X106975452Y-101652853D01*
X107071706Y-101778294D01*
X107197147Y-101874548D01*
X107343226Y-101935056D01*
X107351414Y-101936134D01*
X107421607Y-101945375D01*
X107499988Y-101955694D01*
X107508176Y-101954616D01*
X107648562Y-101936134D01*
X107656750Y-101935056D01*
X107802829Y-101874548D01*
X107928270Y-101778294D01*
X107933293Y-101771748D01*
X107933297Y-101771744D01*
X107994155Y-101692433D01*
X108051493Y-101650566D01*
X108122364Y-101646344D01*
X108184267Y-101681108D01*
X108210526Y-101720919D01*
X108215464Y-101732841D01*
X108311718Y-101858282D01*
X108318264Y-101863305D01*
X108347918Y-101886059D01*
X108437159Y-101954536D01*
X108583238Y-102015044D01*
X108740000Y-102035682D01*
X108748188Y-102034604D01*
X108888574Y-102016122D01*
X108896762Y-102015044D01*
X109042841Y-101954536D01*
X109132082Y-101886059D01*
X109161736Y-101863305D01*
X109168282Y-101858282D01*
X109264536Y-101732841D01*
X109325044Y-101586762D01*
X109345682Y-101430000D01*
X109325044Y-101273238D01*
X109264536Y-101127159D01*
X109168282Y-101001718D01*
X109042841Y-100905464D01*
X108896762Y-100844956D01*
X108740000Y-100824318D01*
X108583238Y-100844956D01*
X108437159Y-100905464D01*
X108311718Y-101001718D01*
X108306695Y-101008264D01*
X108306691Y-101008268D01*
X108245833Y-101087579D01*
X108188495Y-101129446D01*
X108117624Y-101133668D01*
X108055721Y-101098904D01*
X108029461Y-101059091D01*
X108027684Y-101054801D01*
X108024524Y-101047171D01*
X107928270Y-100921730D01*
X107902954Y-100902304D01*
X107809380Y-100830503D01*
X107802829Y-100825476D01*
X107656750Y-100764968D01*
X107499988Y-100744330D01*
X107343226Y-100764968D01*
X107197147Y-100825476D01*
X107190596Y-100830503D01*
X107097023Y-100902304D01*
X107071706Y-100921730D01*
X106975452Y-101047171D01*
X106914944Y-101193250D01*
X106894306Y-101350012D01*
X80448837Y-101350012D01*
X80411919Y-100647425D01*
X80409306Y-100597697D01*
X80409136Y-100592128D01*
X80408677Y-100536191D01*
X80402472Y-99781173D01*
X80402051Y-99729917D01*
X80402129Y-99724339D01*
X80405713Y-99625000D01*
X90319318Y-99625000D01*
X90320396Y-99633188D01*
X90337723Y-99764797D01*
X90339956Y-99781762D01*
X90400464Y-99927841D01*
X90410888Y-99941426D01*
X90482724Y-100035044D01*
X90496718Y-100053282D01*
X90622159Y-100149536D01*
X90768238Y-100210044D01*
X90925000Y-100230682D01*
X90933188Y-100229604D01*
X91073574Y-100211122D01*
X91081762Y-100210044D01*
X91227841Y-100149536D01*
X91305430Y-100090000D01*
X92694308Y-100090000D01*
X92714946Y-100246762D01*
X92775454Y-100392841D01*
X92871708Y-100518282D01*
X92878254Y-100523305D01*
X92907908Y-100546059D01*
X92997149Y-100614536D01*
X93143228Y-100675044D01*
X93299990Y-100695682D01*
X93308178Y-100694604D01*
X93448564Y-100676122D01*
X93456752Y-100675044D01*
X93602831Y-100614536D01*
X93692072Y-100546059D01*
X93721726Y-100523305D01*
X93728272Y-100518282D01*
X93824526Y-100392841D01*
X93885034Y-100246762D01*
X93905672Y-100090000D01*
X93885034Y-99933238D01*
X93830913Y-99802578D01*
X94484618Y-99802578D01*
X94505256Y-99959340D01*
X94565764Y-100105419D01*
X94570791Y-100111970D01*
X94646873Y-100211122D01*
X94662018Y-100230860D01*
X94787459Y-100327114D01*
X94933538Y-100387622D01*
X95090300Y-100408260D01*
X95243271Y-100388121D01*
X95313419Y-100399060D01*
X95366518Y-100446188D01*
X95381751Y-100499231D01*
X95384639Y-100498851D01*
X95388551Y-100528562D01*
X95405277Y-100655613D01*
X95465785Y-100801692D01*
X95562039Y-100927133D01*
X95687480Y-101023387D01*
X95833559Y-101083895D01*
X95990321Y-101104533D01*
X95998509Y-101103455D01*
X96138895Y-101084973D01*
X96147083Y-101083895D01*
X96293162Y-101023387D01*
X96418603Y-100927133D01*
X96514857Y-100801692D01*
X96575365Y-100655613D01*
X96596003Y-100498851D01*
X96575365Y-100342089D01*
X96514857Y-100196010D01*
X96430418Y-100085967D01*
X96423626Y-100077115D01*
X96418603Y-100070569D01*
X96293162Y-99974315D01*
X96147083Y-99913807D01*
X95990321Y-99893169D01*
X95837350Y-99913308D01*
X95767202Y-99902369D01*
X95714103Y-99855241D01*
X95698870Y-99802198D01*
X95695982Y-99802578D01*
X95676422Y-99654004D01*
X95675344Y-99645816D01*
X95614836Y-99499737D01*
X95543774Y-99407127D01*
X103591074Y-99407127D01*
X103611712Y-99563889D01*
X103672220Y-99709968D01*
X103768474Y-99835409D01*
X103893915Y-99931663D01*
X104039994Y-99992171D01*
X104048182Y-99993249D01*
X104118375Y-100002490D01*
X104196756Y-100012809D01*
X104204944Y-100011731D01*
X104345330Y-99993249D01*
X104353518Y-99992171D01*
X104499597Y-99931663D01*
X104506150Y-99926635D01*
X104506153Y-99926633D01*
X104533723Y-99905478D01*
X104599943Y-99879877D01*
X104669492Y-99894141D01*
X104720288Y-99943743D01*
X104726836Y-99957221D01*
X104740219Y-99989530D01*
X104747808Y-100060120D01*
X104740219Y-100085967D01*
X104689916Y-100207408D01*
X104686756Y-100215038D01*
X104666118Y-100371800D01*
X104667196Y-100379988D01*
X104682895Y-100499231D01*
X104686756Y-100528562D01*
X104747264Y-100674641D01*
X104843518Y-100800082D01*
X104968959Y-100896336D01*
X105115038Y-100956844D01*
X105271800Y-100977482D01*
X105279988Y-100976404D01*
X105420374Y-100957922D01*
X105428562Y-100956844D01*
X105574641Y-100896336D01*
X105700082Y-100800082D01*
X105796336Y-100674641D01*
X105856844Y-100528562D01*
X105860706Y-100499231D01*
X105876404Y-100379988D01*
X105877482Y-100371800D01*
X105856844Y-100215038D01*
X105848963Y-100196010D01*
X105832081Y-100155254D01*
X105824492Y-100084664D01*
X105832081Y-100058818D01*
X105882384Y-99937376D01*
X105885544Y-99929747D01*
X105906182Y-99772985D01*
X105892395Y-99668264D01*
X105886622Y-99624411D01*
X105885544Y-99616223D01*
X105825036Y-99470144D01*
X105809579Y-99450000D01*
X114254318Y-99450000D01*
X114274956Y-99606762D01*
X114335464Y-99752841D01*
X114431718Y-99878282D01*
X114557159Y-99974536D01*
X114703238Y-100035044D01*
X114860000Y-100055682D01*
X114868188Y-100054604D01*
X115008574Y-100036122D01*
X115016762Y-100035044D01*
X115162841Y-99974536D01*
X115288282Y-99878282D01*
X115384536Y-99752841D01*
X115445044Y-99606762D01*
X115465682Y-99450000D01*
X115445044Y-99293238D01*
X115384536Y-99147159D01*
X115304701Y-99043116D01*
X115293305Y-99028264D01*
X115288282Y-99021718D01*
X115162841Y-98925464D01*
X115016762Y-98864956D01*
X114999619Y-98862699D01*
X114868188Y-98845396D01*
X114860000Y-98844318D01*
X114851812Y-98845396D01*
X114720382Y-98862699D01*
X114703238Y-98864956D01*
X114557159Y-98925464D01*
X114431718Y-99021718D01*
X114426695Y-99028264D01*
X114415299Y-99043116D01*
X114335464Y-99147159D01*
X114274956Y-99293238D01*
X114254318Y-99450000D01*
X105809579Y-99450000D01*
X105728782Y-99344703D01*
X105722236Y-99339680D01*
X105722233Y-99339677D01*
X105613441Y-99256199D01*
X105571573Y-99198861D01*
X105567351Y-99127990D01*
X105602115Y-99066087D01*
X105613440Y-99056273D01*
X105657828Y-99022213D01*
X105664374Y-99017190D01*
X105760628Y-98891749D01*
X105821136Y-98745670D01*
X105841774Y-98588908D01*
X105821136Y-98432146D01*
X105760628Y-98286067D01*
X105664374Y-98160626D01*
X105538933Y-98064372D01*
X105392854Y-98003864D01*
X105236092Y-97983226D01*
X105079330Y-98003864D01*
X104933251Y-98064372D01*
X104807810Y-98160626D01*
X104711556Y-98286067D01*
X104651048Y-98432146D01*
X104630410Y-98588908D01*
X104631488Y-98597096D01*
X104650363Y-98740468D01*
X104639424Y-98810617D01*
X104592295Y-98863715D01*
X104523941Y-98882905D01*
X104477223Y-98873323D01*
X104361148Y-98825243D01*
X104361145Y-98825242D01*
X104353518Y-98822083D01*
X104196756Y-98801445D01*
X104039994Y-98822083D01*
X103893915Y-98882591D01*
X103768474Y-98978845D01*
X103672220Y-99104286D01*
X103611712Y-99250365D01*
X103591074Y-99407127D01*
X95543774Y-99407127D01*
X95518582Y-99374296D01*
X95488547Y-99351249D01*
X95480016Y-99344703D01*
X95393141Y-99278042D01*
X95247062Y-99217534D01*
X95090300Y-99196896D01*
X94933538Y-99217534D01*
X94787459Y-99278042D01*
X94700584Y-99344703D01*
X94692054Y-99351249D01*
X94662018Y-99374296D01*
X94565764Y-99499737D01*
X94505256Y-99645816D01*
X94484618Y-99802578D01*
X93830913Y-99802578D01*
X93824526Y-99787159D01*
X93728272Y-99661718D01*
X93602831Y-99565464D01*
X93456752Y-99504956D01*
X93299990Y-99484318D01*
X93143228Y-99504956D01*
X92997149Y-99565464D01*
X92871708Y-99661718D01*
X92775454Y-99787159D01*
X92714946Y-99933238D01*
X92694308Y-100090000D01*
X91305430Y-100090000D01*
X91353282Y-100053282D01*
X91367277Y-100035044D01*
X91439112Y-99941426D01*
X91449536Y-99927841D01*
X91510044Y-99781762D01*
X91512278Y-99764797D01*
X91529604Y-99633188D01*
X91530682Y-99625000D01*
X91510044Y-99468238D01*
X91449536Y-99322159D01*
X91369255Y-99217534D01*
X91358305Y-99203264D01*
X91353282Y-99196718D01*
X91227841Y-99100464D01*
X91081762Y-99039956D01*
X90925000Y-99019318D01*
X90768238Y-99039956D01*
X90622159Y-99100464D01*
X90496718Y-99196718D01*
X90491695Y-99203264D01*
X90480745Y-99217534D01*
X90400464Y-99322159D01*
X90339956Y-99468238D01*
X90319318Y-99625000D01*
X80405713Y-99625000D01*
X80433215Y-98862699D01*
X80433539Y-98857130D01*
X80450881Y-98641736D01*
X80502739Y-97997655D01*
X80503308Y-97992127D01*
X80504424Y-97983226D01*
X80610482Y-97136587D01*
X80611297Y-97131075D01*
X80611646Y-97129029D01*
X80727437Y-96450000D01*
X82569318Y-96450000D01*
X82589956Y-96606762D01*
X82650464Y-96752841D01*
X82746718Y-96878282D01*
X82872159Y-96974536D01*
X83018238Y-97035044D01*
X83175000Y-97055682D01*
X83183188Y-97054604D01*
X83323574Y-97036122D01*
X83331762Y-97035044D01*
X83477841Y-96974536D01*
X83561946Y-96910000D01*
X97204308Y-96910000D01*
X97211381Y-96963724D01*
X97221864Y-97043348D01*
X97224946Y-97066762D01*
X97285454Y-97212841D01*
X97328592Y-97269060D01*
X97365234Y-97316812D01*
X97381708Y-97338282D01*
X97507149Y-97434536D01*
X97653228Y-97495044D01*
X97809990Y-97515682D01*
X97818178Y-97514604D01*
X97958564Y-97496122D01*
X97966752Y-97495044D01*
X98112831Y-97434536D01*
X98238272Y-97338282D01*
X98254747Y-97316812D01*
X98291388Y-97269060D01*
X98334526Y-97212841D01*
X98372781Y-97120486D01*
X98775782Y-97120486D01*
X98796420Y-97277248D01*
X98856928Y-97423327D01*
X98953182Y-97548768D01*
X99078623Y-97645022D01*
X99224702Y-97705530D01*
X99381464Y-97726168D01*
X99389652Y-97725090D01*
X99530038Y-97706608D01*
X99538226Y-97705530D01*
X99684305Y-97645022D01*
X99809746Y-97548768D01*
X99814769Y-97542222D01*
X99814772Y-97542219D01*
X99899507Y-97431789D01*
X99956845Y-97389921D01*
X100027716Y-97385699D01*
X100076173Y-97408529D01*
X100090480Y-97419507D01*
X100090484Y-97419509D01*
X100097035Y-97424536D01*
X100215423Y-97473574D01*
X100235191Y-97481762D01*
X100243114Y-97485044D01*
X100399876Y-97505682D01*
X100408064Y-97504604D01*
X100418243Y-97503264D01*
X100556638Y-97485044D01*
X100564562Y-97481762D01*
X100584329Y-97473574D01*
X100702717Y-97424536D01*
X100828158Y-97328282D01*
X100873601Y-97269060D01*
X100919381Y-97209398D01*
X100919382Y-97209396D01*
X100922594Y-97205211D01*
X100924412Y-97202841D01*
X100925031Y-97203316D01*
X100971652Y-97158858D01*
X101012949Y-97145925D01*
X101089606Y-97135833D01*
X101235685Y-97075325D01*
X101361126Y-96979071D01*
X101395044Y-96934868D01*
X101452382Y-96893001D01*
X101523253Y-96888779D01*
X101571711Y-96911609D01*
X101602023Y-96934868D01*
X101688486Y-97001213D01*
X101815399Y-97053782D01*
X101821775Y-97056423D01*
X101834565Y-97061721D01*
X101991327Y-97082359D01*
X101999515Y-97081281D01*
X102139901Y-97062799D01*
X102148089Y-97061721D01*
X102155718Y-97058561D01*
X102163697Y-97056423D01*
X102164571Y-97059687D01*
X102219539Y-97053782D01*
X102273860Y-97077815D01*
X102340604Y-97129029D01*
X102340608Y-97129031D01*
X102347159Y-97134058D01*
X102411259Y-97160609D01*
X102482815Y-97190249D01*
X102538096Y-97234798D01*
X102551006Y-97258439D01*
X102600464Y-97377841D01*
X102646392Y-97437696D01*
X102682724Y-97485044D01*
X102696718Y-97503282D01*
X102822159Y-97599536D01*
X102968238Y-97660044D01*
X103125000Y-97680682D01*
X103133188Y-97679604D01*
X103133191Y-97679604D01*
X103158243Y-97676306D01*
X103228391Y-97687246D01*
X103274650Y-97724524D01*
X103291691Y-97746732D01*
X103291695Y-97746736D01*
X103296718Y-97753282D01*
X103422159Y-97849536D01*
X103568238Y-97910044D01*
X103725000Y-97930682D01*
X103733188Y-97929604D01*
X103768159Y-97925000D01*
X108069318Y-97925000D01*
X108089956Y-98081762D01*
X108150464Y-98227841D01*
X108246718Y-98353282D01*
X108372159Y-98449536D01*
X108518238Y-98510044D01*
X108675000Y-98530682D01*
X108683188Y-98529604D01*
X108684799Y-98529392D01*
X108831762Y-98510044D01*
X108977841Y-98449536D01*
X109103282Y-98353282D01*
X109199536Y-98227841D01*
X109202784Y-98220000D01*
X113014318Y-98220000D01*
X113034956Y-98376762D01*
X113095464Y-98522841D01*
X113191718Y-98648282D01*
X113317159Y-98744536D01*
X113463238Y-98805044D01*
X113620000Y-98825682D01*
X113628188Y-98824604D01*
X113655526Y-98821005D01*
X113776762Y-98805044D01*
X113922841Y-98744536D01*
X114048282Y-98648282D01*
X114144536Y-98522841D01*
X114205044Y-98376762D01*
X114225682Y-98220000D01*
X114205044Y-98063238D01*
X114144536Y-97917159D01*
X114048282Y-97791718D01*
X113922841Y-97695464D01*
X113776762Y-97634956D01*
X113620000Y-97614318D01*
X113463238Y-97634956D01*
X113317159Y-97695464D01*
X113191718Y-97791718D01*
X113095464Y-97917159D01*
X113034956Y-98063238D01*
X113014318Y-98220000D01*
X109202784Y-98220000D01*
X109260044Y-98081762D01*
X109280682Y-97925000D01*
X109260044Y-97768238D01*
X109199536Y-97622159D01*
X109103282Y-97496718D01*
X108977841Y-97400464D01*
X108831762Y-97339956D01*
X108675000Y-97319318D01*
X108518238Y-97339956D01*
X108372159Y-97400464D01*
X108246718Y-97496718D01*
X108150464Y-97622159D01*
X108089956Y-97768238D01*
X108069318Y-97925000D01*
X103768159Y-97925000D01*
X103873574Y-97911122D01*
X103881762Y-97910044D01*
X104027841Y-97849536D01*
X104153282Y-97753282D01*
X104249536Y-97627841D01*
X104310044Y-97481762D01*
X104330682Y-97325000D01*
X104310044Y-97168238D01*
X104249536Y-97022159D01*
X104172599Y-96921892D01*
X104158305Y-96903264D01*
X104153282Y-96896718D01*
X104027841Y-96800464D01*
X103881762Y-96739956D01*
X103725000Y-96719318D01*
X103716812Y-96720396D01*
X103716809Y-96720396D01*
X103691757Y-96723694D01*
X103621609Y-96712754D01*
X103575350Y-96675476D01*
X103558309Y-96653268D01*
X103558305Y-96653264D01*
X103553282Y-96646718D01*
X103508688Y-96612500D01*
X108841818Y-96612500D01*
X108842896Y-96620688D01*
X108858006Y-96735457D01*
X108862456Y-96769262D01*
X108922964Y-96915341D01*
X109019218Y-97040782D01*
X109025764Y-97045805D01*
X109046506Y-97061721D01*
X109144659Y-97137036D01*
X109290738Y-97197544D01*
X109447500Y-97218182D01*
X109455688Y-97217104D01*
X109596074Y-97198622D01*
X109604262Y-97197544D01*
X109750341Y-97137036D01*
X109848494Y-97061721D01*
X109869236Y-97045805D01*
X109875782Y-97040782D01*
X109972036Y-96915341D01*
X110032544Y-96769262D01*
X110036995Y-96735457D01*
X110052104Y-96620688D01*
X110053182Y-96612500D01*
X110032544Y-96455738D01*
X109972036Y-96309659D01*
X109875782Y-96184218D01*
X109750341Y-96087964D01*
X109604262Y-96027456D01*
X109595125Y-96026253D01*
X109455688Y-96007896D01*
X109447500Y-96006818D01*
X109439312Y-96007896D01*
X109299876Y-96026253D01*
X109290738Y-96027456D01*
X109144659Y-96087964D01*
X109019218Y-96184218D01*
X108922964Y-96309659D01*
X108862456Y-96455738D01*
X108841818Y-96612500D01*
X103508688Y-96612500D01*
X103427841Y-96550464D01*
X103333431Y-96511358D01*
X103292185Y-96494273D01*
X103236904Y-96449724D01*
X103223994Y-96426083D01*
X103205109Y-96380491D01*
X103174536Y-96306681D01*
X103092269Y-96199468D01*
X103083305Y-96187786D01*
X103078282Y-96181240D01*
X102952841Y-96084986D01*
X102821580Y-96030616D01*
X102814391Y-96027638D01*
X102806762Y-96024478D01*
X102650000Y-96003840D01*
X102493238Y-96024478D01*
X102485609Y-96027638D01*
X102477630Y-96029776D01*
X102476756Y-96026512D01*
X102421788Y-96032417D01*
X102367467Y-96008384D01*
X102300723Y-95957170D01*
X102300719Y-95957168D01*
X102294168Y-95952141D01*
X102148089Y-95891633D01*
X102035477Y-95876807D01*
X101970551Y-95848086D01*
X101951961Y-95828590D01*
X101923804Y-95791894D01*
X101895915Y-95755549D01*
X101886213Y-95748104D01*
X101777025Y-95664322D01*
X101770474Y-95659295D01*
X101624395Y-95598787D01*
X101467633Y-95578149D01*
X101310871Y-95598787D01*
X101164792Y-95659295D01*
X101158241Y-95664322D01*
X101049054Y-95748104D01*
X101039351Y-95755549D01*
X100943097Y-95880990D01*
X100939936Y-95888622D01*
X100936295Y-95894928D01*
X100884913Y-95943923D01*
X100843621Y-95956853D01*
X100811861Y-95961035D01*
X100776082Y-95965745D01*
X100630003Y-96026253D01*
X100504562Y-96122507D01*
X100499539Y-96129053D01*
X100452187Y-96190764D01*
X100408308Y-96247948D01*
X100407689Y-96247473D01*
X100361068Y-96291931D01*
X100319771Y-96304864D01*
X100243114Y-96314956D01*
X100097035Y-96375464D01*
X100052667Y-96409509D01*
X99979810Y-96465414D01*
X99971594Y-96471718D01*
X99966571Y-96478264D01*
X99966568Y-96478267D01*
X99881833Y-96588697D01*
X99824495Y-96630565D01*
X99753624Y-96634787D01*
X99705167Y-96611957D01*
X99690860Y-96600979D01*
X99690856Y-96600977D01*
X99684305Y-96595950D01*
X99538226Y-96535442D01*
X99381464Y-96514804D01*
X99224702Y-96535442D01*
X99078623Y-96595950D01*
X99019007Y-96641695D01*
X98958628Y-96688025D01*
X98927856Y-96699921D01*
X98909502Y-96749128D01*
X98861958Y-96811089D01*
X98861956Y-96811092D01*
X98856928Y-96817645D01*
X98796420Y-96963724D01*
X98795342Y-96971912D01*
X98791068Y-97004373D01*
X98775782Y-97120486D01*
X98372781Y-97120486D01*
X98395034Y-97066762D01*
X98398117Y-97043348D01*
X98408599Y-96963724D01*
X98415672Y-96910000D01*
X98411496Y-96878282D01*
X98407843Y-96850532D01*
X98418782Y-96780383D01*
X98465911Y-96727285D01*
X98484547Y-96717677D01*
X98612841Y-96664536D01*
X98702224Y-96595950D01*
X98732836Y-96572461D01*
X98763608Y-96560565D01*
X98781962Y-96511358D01*
X98829506Y-96449397D01*
X98829508Y-96449394D01*
X98834536Y-96442841D01*
X98861255Y-96378336D01*
X98905804Y-96323055D01*
X98932278Y-96310771D01*
X98931762Y-96309524D01*
X98943012Y-96304864D01*
X99077841Y-96249016D01*
X99203282Y-96152762D01*
X99219358Y-96131812D01*
X99274837Y-96059509D01*
X99299536Y-96027321D01*
X99360044Y-95881242D01*
X99380682Y-95724480D01*
X99360044Y-95567718D01*
X99354242Y-95553709D01*
X99306452Y-95438335D01*
X99298863Y-95367745D01*
X99330642Y-95304258D01*
X99391701Y-95268031D01*
X99439306Y-95265195D01*
X99557017Y-95280692D01*
X99565205Y-95279614D01*
X99705591Y-95261132D01*
X99713779Y-95260054D01*
X99775733Y-95234392D01*
X99859858Y-95199546D01*
X99861163Y-95202697D01*
X99914771Y-95189687D01*
X99985490Y-95215583D01*
X99990603Y-95219506D01*
X99990606Y-95219508D01*
X99997159Y-95224536D01*
X100143238Y-95285044D01*
X100300000Y-95305682D01*
X100308188Y-95304604D01*
X100356817Y-95298202D01*
X100456762Y-95285044D01*
X100602841Y-95224536D01*
X100621772Y-95210010D01*
X105761341Y-95210010D01*
X105781979Y-95366772D01*
X105842487Y-95512851D01*
X105874795Y-95554956D01*
X105921225Y-95615464D01*
X105938741Y-95638292D01*
X105945287Y-95643315D01*
X105966113Y-95659295D01*
X106064182Y-95734546D01*
X106210261Y-95795054D01*
X106367023Y-95815692D01*
X106375211Y-95814614D01*
X106515597Y-95796132D01*
X106523785Y-95795054D01*
X106531412Y-95791895D01*
X106531415Y-95791894D01*
X106618811Y-95755693D01*
X106689401Y-95748104D01*
X106715247Y-95755693D01*
X106802644Y-95791894D01*
X106802647Y-95791895D01*
X106810274Y-95795054D01*
X106967036Y-95815692D01*
X106975224Y-95814614D01*
X107115610Y-95796132D01*
X107123798Y-95795054D01*
X107269877Y-95734546D01*
X107367946Y-95659295D01*
X107388772Y-95643315D01*
X107395318Y-95638292D01*
X107412835Y-95615464D01*
X107459264Y-95554956D01*
X107491572Y-95512851D01*
X107529178Y-95422063D01*
X107573725Y-95366783D01*
X107641089Y-95344362D01*
X107693804Y-95353873D01*
X107798564Y-95397266D01*
X107798567Y-95397267D01*
X107806194Y-95400426D01*
X107962956Y-95421064D01*
X107971144Y-95419986D01*
X108119718Y-95400426D01*
X108120133Y-95403580D01*
X108176103Y-95404923D01*
X108237675Y-95448227D01*
X108253403Y-95468724D01*
X108378844Y-95564978D01*
X108524923Y-95625486D01*
X108681685Y-95646124D01*
X108689873Y-95645046D01*
X108693231Y-95644604D01*
X108838447Y-95625486D01*
X108905507Y-95597709D01*
X108976898Y-95568138D01*
X108976900Y-95568137D01*
X108984526Y-95564978D01*
X108989257Y-95561348D01*
X109057220Y-95544860D01*
X109112775Y-95561172D01*
X109117159Y-95564536D01*
X109124784Y-95567694D01*
X109124785Y-95567695D01*
X109199848Y-95598787D01*
X109263238Y-95625044D01*
X109271426Y-95626122D01*
X109314145Y-95631746D01*
X109420000Y-95645682D01*
X109428188Y-95644604D01*
X109568574Y-95626122D01*
X109576762Y-95625044D01*
X109722841Y-95564536D01*
X109754817Y-95540000D01*
X111274318Y-95540000D01*
X111294956Y-95696762D01*
X111355464Y-95842841D01*
X111451718Y-95968282D01*
X111577159Y-96064536D01*
X111723238Y-96125044D01*
X111731426Y-96126122D01*
X111776309Y-96132031D01*
X111841236Y-96160754D01*
X111860394Y-96183678D01*
X111861371Y-96182928D01*
X111931214Y-96273950D01*
X111956814Y-96340170D01*
X111956173Y-96367099D01*
X111950590Y-96409509D01*
X111944308Y-96457226D01*
X111964946Y-96613988D01*
X112025454Y-96760067D01*
X112121708Y-96885508D01*
X112247149Y-96981762D01*
X112393228Y-97042270D01*
X112549990Y-97062908D01*
X112558178Y-97061830D01*
X112698564Y-97043348D01*
X112706752Y-97042270D01*
X112852831Y-96981762D01*
X112978272Y-96885508D01*
X113074526Y-96760067D01*
X113135034Y-96613988D01*
X113155672Y-96457226D01*
X113135034Y-96300464D01*
X113074526Y-96154385D01*
X113069499Y-96147834D01*
X113069497Y-96147830D01*
X113004683Y-96063362D01*
X112979083Y-95997142D01*
X112979724Y-95970213D01*
X112990284Y-95890000D01*
X116734318Y-95890000D01*
X116754956Y-96046762D01*
X116815464Y-96192841D01*
X116860993Y-96252176D01*
X116897790Y-96300130D01*
X116911718Y-96318282D01*
X117037159Y-96414536D01*
X117183238Y-96475044D01*
X117191426Y-96476122D01*
X117207719Y-96478267D01*
X117340000Y-96495682D01*
X117348188Y-96494604D01*
X117383494Y-96489956D01*
X117472281Y-96478267D01*
X117488574Y-96476122D01*
X117496762Y-96475044D01*
X117642841Y-96414536D01*
X117768282Y-96318282D01*
X117782211Y-96300130D01*
X117819007Y-96252176D01*
X117864536Y-96192841D01*
X117925044Y-96046762D01*
X117945682Y-95890000D01*
X117925044Y-95733238D01*
X117920938Y-95723324D01*
X117916130Y-95711718D01*
X117864536Y-95587159D01*
X117768282Y-95461718D01*
X117642841Y-95365464D01*
X117496762Y-95304956D01*
X117340000Y-95284318D01*
X117183238Y-95304956D01*
X117037159Y-95365464D01*
X116911718Y-95461718D01*
X116815464Y-95587159D01*
X116763870Y-95711718D01*
X116759063Y-95723324D01*
X116754956Y-95733238D01*
X116734318Y-95890000D01*
X112990284Y-95890000D01*
X112990511Y-95888275D01*
X112990511Y-95888274D01*
X112991589Y-95880086D01*
X112975212Y-95755693D01*
X112972029Y-95731512D01*
X112970951Y-95723324D01*
X112910443Y-95577245D01*
X112840539Y-95486144D01*
X112819212Y-95458350D01*
X112814189Y-95451804D01*
X112688748Y-95355550D01*
X112542669Y-95295042D01*
X112513297Y-95291175D01*
X112489598Y-95288055D01*
X112424671Y-95259332D01*
X112405514Y-95236409D01*
X112404536Y-95237159D01*
X112313305Y-95118264D01*
X112308282Y-95111718D01*
X112182841Y-95015464D01*
X112036762Y-94954956D01*
X111880000Y-94934318D01*
X111723238Y-94954956D01*
X111577159Y-95015464D01*
X111451718Y-95111718D01*
X111355464Y-95237159D01*
X111294956Y-95383238D01*
X111274318Y-95540000D01*
X109754817Y-95540000D01*
X109848282Y-95468282D01*
X109944536Y-95342841D01*
X109947697Y-95335208D01*
X109949712Y-95331719D01*
X110001093Y-95282725D01*
X110075279Y-95269794D01*
X110120000Y-95275682D01*
X110128188Y-95274604D01*
X110268574Y-95256122D01*
X110276762Y-95255044D01*
X110422841Y-95194536D01*
X110548282Y-95098282D01*
X110644536Y-94972841D01*
X110705044Y-94826762D01*
X110725682Y-94670000D01*
X110716751Y-94602164D01*
X110727690Y-94532017D01*
X110774818Y-94478918D01*
X110825226Y-94460798D01*
X110966762Y-94442164D01*
X111112841Y-94381656D01*
X111180161Y-94330000D01*
X114944318Y-94330000D01*
X114945396Y-94338188D01*
X114959227Y-94443242D01*
X114964956Y-94486762D01*
X115025464Y-94632841D01*
X115121718Y-94758282D01*
X115128264Y-94763305D01*
X115157918Y-94786059D01*
X115247159Y-94854536D01*
X115393238Y-94915044D01*
X115550000Y-94935682D01*
X115558188Y-94934604D01*
X115560361Y-94934318D01*
X115706762Y-94915044D01*
X115852841Y-94854536D01*
X115942082Y-94786059D01*
X115971736Y-94763305D01*
X115978282Y-94758282D01*
X116074536Y-94632841D01*
X116135044Y-94486762D01*
X116140774Y-94443242D01*
X116154604Y-94338188D01*
X116155682Y-94330000D01*
X116135044Y-94173238D01*
X116074536Y-94027159D01*
X115978282Y-93901718D01*
X115852841Y-93805464D01*
X115706762Y-93744956D01*
X115550000Y-93724318D01*
X115393238Y-93744956D01*
X115247159Y-93805464D01*
X115121718Y-93901718D01*
X115025464Y-94027159D01*
X114964956Y-94173238D01*
X114944318Y-94330000D01*
X111180161Y-94330000D01*
X111238282Y-94285402D01*
X111334536Y-94159961D01*
X111395044Y-94013882D01*
X111415682Y-93857120D01*
X111400915Y-93744956D01*
X111396122Y-93708546D01*
X111395044Y-93700358D01*
X111334536Y-93554279D01*
X111246535Y-93439594D01*
X111243305Y-93435384D01*
X111238282Y-93428838D01*
X111231736Y-93423815D01*
X111230842Y-93422921D01*
X111196816Y-93360609D01*
X111201881Y-93289794D01*
X111219974Y-93257123D01*
X111289507Y-93166505D01*
X111289509Y-93166501D01*
X111294536Y-93159950D01*
X111355044Y-93013871D01*
X111375682Y-92857109D01*
X111355044Y-92700347D01*
X111294536Y-92554268D01*
X111198282Y-92428827D01*
X111200410Y-92427194D01*
X111172739Y-92376521D01*
X111177804Y-92305706D01*
X111195898Y-92273034D01*
X111277649Y-92166494D01*
X111277652Y-92166489D01*
X111282679Y-92159938D01*
X111343187Y-92013859D01*
X111346359Y-91989769D01*
X111362747Y-91865285D01*
X111363825Y-91857097D01*
X111343187Y-91700335D01*
X111282679Y-91554256D01*
X111186425Y-91428815D01*
X111060984Y-91332561D01*
X110914905Y-91272053D01*
X110758143Y-91251415D01*
X110601381Y-91272053D01*
X110455302Y-91332561D01*
X110329861Y-91428815D01*
X110233607Y-91554256D01*
X110173099Y-91700335D01*
X110152461Y-91857097D01*
X110153539Y-91865285D01*
X110169928Y-91989769D01*
X110173099Y-92013859D01*
X110233607Y-92159938D01*
X110238634Y-92166489D01*
X110329861Y-92285379D01*
X110327733Y-92287012D01*
X110355404Y-92337685D01*
X110350339Y-92408500D01*
X110332245Y-92441172D01*
X110250494Y-92547712D01*
X110250492Y-92547715D01*
X110245464Y-92554268D01*
X110184956Y-92700347D01*
X110164318Y-92857109D01*
X110184956Y-93013871D01*
X110245464Y-93159950D01*
X110250491Y-93166501D01*
X110324746Y-93263272D01*
X110341718Y-93285391D01*
X110348264Y-93290414D01*
X110349158Y-93291308D01*
X110383184Y-93353620D01*
X110378119Y-93424435D01*
X110360026Y-93457106D01*
X110290493Y-93547724D01*
X110290491Y-93547728D01*
X110285464Y-93554279D01*
X110224956Y-93700358D01*
X110223878Y-93708546D01*
X110219085Y-93744956D01*
X110204318Y-93857120D01*
X110213249Y-93924956D01*
X110202310Y-93995103D01*
X110155182Y-94048202D01*
X110104774Y-94066322D01*
X109963238Y-94084956D01*
X109817159Y-94145464D01*
X109782169Y-94172313D01*
X109702431Y-94233498D01*
X109691718Y-94241718D01*
X109686695Y-94248264D01*
X109668698Y-94271718D01*
X109595464Y-94367159D01*
X109592303Y-94374792D01*
X109590288Y-94378281D01*
X109538907Y-94427275D01*
X109464721Y-94440206D01*
X109420000Y-94434318D01*
X109384406Y-94439004D01*
X109279987Y-94452751D01*
X109263238Y-94454956D01*
X109255609Y-94458116D01*
X109124787Y-94512304D01*
X109124785Y-94512305D01*
X109117159Y-94515464D01*
X109112428Y-94519094D01*
X109044465Y-94535582D01*
X108988910Y-94519270D01*
X108984526Y-94515906D01*
X108976403Y-94512541D01*
X108846076Y-94458558D01*
X108838447Y-94455398D01*
X108826902Y-94453878D01*
X108760066Y-94445079D01*
X108681685Y-94434760D01*
X108524923Y-94455398D01*
X108524508Y-94452244D01*
X108468538Y-94450901D01*
X108406966Y-94407597D01*
X108404811Y-94404789D01*
X108391238Y-94387100D01*
X108384144Y-94381656D01*
X108304307Y-94320396D01*
X108265797Y-94290846D01*
X108119718Y-94230338D01*
X107962956Y-94209700D01*
X107806194Y-94230338D01*
X107660115Y-94290846D01*
X107591995Y-94343116D01*
X107554133Y-94372169D01*
X107534674Y-94387100D01*
X107438420Y-94512541D01*
X107404795Y-94593719D01*
X107400815Y-94603328D01*
X107356267Y-94658609D01*
X107288903Y-94681030D01*
X107236188Y-94671519D01*
X107131428Y-94628126D01*
X107131425Y-94628125D01*
X107123798Y-94624966D01*
X106967036Y-94604328D01*
X106810274Y-94624966D01*
X106802647Y-94628125D01*
X106802644Y-94628126D01*
X106715248Y-94664327D01*
X106644658Y-94671916D01*
X106618812Y-94664327D01*
X106531415Y-94628126D01*
X106531412Y-94628125D01*
X106523785Y-94624966D01*
X106367023Y-94604328D01*
X106210261Y-94624966D01*
X106064182Y-94685474D01*
X105977827Y-94751736D01*
X105956322Y-94768238D01*
X105938741Y-94781728D01*
X105842487Y-94907169D01*
X105781979Y-95053248D01*
X105761341Y-95210010D01*
X100621772Y-95210010D01*
X100728282Y-95128282D01*
X100747448Y-95103305D01*
X100802357Y-95031745D01*
X100824536Y-95002841D01*
X100885044Y-94856762D01*
X100887330Y-94839402D01*
X100904604Y-94708188D01*
X100905682Y-94700000D01*
X100885044Y-94543238D01*
X100824536Y-94397159D01*
X100728282Y-94271718D01*
X100602841Y-94175464D01*
X100456762Y-94114956D01*
X100300000Y-94094318D01*
X100143238Y-94114956D01*
X99997159Y-94175464D01*
X99995854Y-94172313D01*
X99942246Y-94185323D01*
X99871527Y-94159427D01*
X99866414Y-94155504D01*
X99866409Y-94155501D01*
X99859858Y-94150474D01*
X99713779Y-94089966D01*
X99557017Y-94069328D01*
X99400255Y-94089966D01*
X99254176Y-94150474D01*
X99128735Y-94246728D01*
X99032481Y-94372169D01*
X98971973Y-94518248D01*
X98951335Y-94675010D01*
X98971973Y-94831772D01*
X98975132Y-94839399D01*
X98975133Y-94839402D01*
X99025565Y-94961155D01*
X99033154Y-95031745D01*
X99001375Y-95095232D01*
X98940316Y-95131459D01*
X98892711Y-95134295D01*
X98775000Y-95118798D01*
X98618238Y-95139436D01*
X98472159Y-95199944D01*
X98346718Y-95296198D01*
X98250464Y-95421639D01*
X98240991Y-95444509D01*
X98223745Y-95486144D01*
X98179196Y-95541425D01*
X98152722Y-95553709D01*
X98153238Y-95554956D01*
X98007159Y-95615464D01*
X97881718Y-95711718D01*
X97876695Y-95718264D01*
X97863301Y-95735720D01*
X97785464Y-95837159D01*
X97724956Y-95983238D01*
X97723878Y-95991426D01*
X97722244Y-96003840D01*
X97704318Y-96140000D01*
X97705396Y-96148188D01*
X97712147Y-96199468D01*
X97701208Y-96269617D01*
X97654079Y-96322715D01*
X97635445Y-96332322D01*
X97507149Y-96385464D01*
X97381708Y-96481718D01*
X97285454Y-96607159D01*
X97224946Y-96753238D01*
X97204308Y-96910000D01*
X83561946Y-96910000D01*
X83603282Y-96878282D01*
X83699536Y-96752841D01*
X83760044Y-96606762D01*
X83780682Y-96450000D01*
X83760044Y-96293238D01*
X83699536Y-96147159D01*
X83603282Y-96021718D01*
X83477841Y-95925464D01*
X83331762Y-95864956D01*
X83175000Y-95844318D01*
X83018238Y-95864956D01*
X82872159Y-95925464D01*
X82746718Y-96021718D01*
X82650464Y-96147159D01*
X82589956Y-96293238D01*
X82569318Y-96450000D01*
X80727437Y-96450000D01*
X80756234Y-96281127D01*
X80757290Y-96275664D01*
X80762375Y-96252176D01*
X80939712Y-95432949D01*
X80941013Y-95427524D01*
X80978244Y-95286122D01*
X81073328Y-94925000D01*
X84494318Y-94925000D01*
X84514956Y-95081762D01*
X84575464Y-95227841D01*
X84671718Y-95353282D01*
X84678264Y-95358305D01*
X84689313Y-95366783D01*
X84797159Y-95449536D01*
X84943238Y-95510044D01*
X85100000Y-95530682D01*
X85108188Y-95529604D01*
X85248574Y-95511122D01*
X85256762Y-95510044D01*
X85402841Y-95449536D01*
X85510687Y-95366783D01*
X85521736Y-95358305D01*
X85528282Y-95353282D01*
X85624536Y-95227841D01*
X85685044Y-95081762D01*
X85705682Y-94925000D01*
X85685044Y-94768238D01*
X85646423Y-94675000D01*
X95919318Y-94675000D01*
X95939956Y-94831762D01*
X96000464Y-94977841D01*
X96096718Y-95103282D01*
X96222159Y-95199536D01*
X96368238Y-95260044D01*
X96525000Y-95280682D01*
X96533188Y-95279604D01*
X96673574Y-95261122D01*
X96681762Y-95260044D01*
X96827841Y-95199536D01*
X96953282Y-95103282D01*
X97049536Y-94977841D01*
X97110044Y-94831762D01*
X97130682Y-94675000D01*
X97110044Y-94518238D01*
X97049536Y-94372159D01*
X96953282Y-94246718D01*
X96827841Y-94150464D01*
X96681762Y-94089956D01*
X96525000Y-94069318D01*
X96368238Y-94089956D01*
X96222159Y-94150464D01*
X96096718Y-94246718D01*
X96000464Y-94372159D01*
X95939956Y-94518238D01*
X95919318Y-94675000D01*
X85646423Y-94675000D01*
X85624536Y-94622159D01*
X85540958Y-94513238D01*
X85533305Y-94503264D01*
X85528282Y-94496718D01*
X85402841Y-94400464D01*
X85256762Y-94339956D01*
X85100000Y-94319318D01*
X84943238Y-94339956D01*
X84797159Y-94400464D01*
X84671718Y-94496718D01*
X84666695Y-94503264D01*
X84659042Y-94513238D01*
X84575464Y-94622159D01*
X84514956Y-94768238D01*
X84494318Y-94925000D01*
X81073328Y-94925000D01*
X81160558Y-94593709D01*
X81162095Y-94588357D01*
X81178513Y-94535609D01*
X81418326Y-93765106D01*
X81420101Y-93759818D01*
X81643128Y-93141193D01*
X81712529Y-92948692D01*
X81714536Y-92943490D01*
X81828033Y-92667611D01*
X88794394Y-92667611D01*
X88812999Y-92836135D01*
X88823277Y-92864220D01*
X88866951Y-92983564D01*
X88871266Y-92995356D01*
X88965830Y-93136083D01*
X88971442Y-93141190D01*
X88971445Y-93141193D01*
X89085612Y-93245077D01*
X89085616Y-93245080D01*
X89091233Y-93250191D01*
X89097906Y-93253814D01*
X89097910Y-93253817D01*
X89233558Y-93327467D01*
X89233560Y-93327468D01*
X89240235Y-93331092D01*
X89247584Y-93333020D01*
X89396883Y-93372188D01*
X89396885Y-93372188D01*
X89404233Y-93374116D01*
X89490609Y-93375473D01*
X89566161Y-93376660D01*
X89566164Y-93376660D01*
X89573760Y-93376779D01*
X89581165Y-93375083D01*
X89581166Y-93375083D01*
X89674879Y-93353620D01*
X89739029Y-93338928D01*
X89745810Y-93335517D01*
X89745817Y-93335515D01*
X89782666Y-93316982D01*
X89852511Y-93304244D01*
X89871252Y-93307671D01*
X90021883Y-93347188D01*
X90021885Y-93347188D01*
X90029233Y-93349116D01*
X90036833Y-93349235D01*
X90044352Y-93350265D01*
X90044058Y-93352412D01*
X90101476Y-93370260D01*
X90136274Y-93404894D01*
X90190830Y-93486083D01*
X90196448Y-93491195D01*
X90310612Y-93595077D01*
X90310616Y-93595080D01*
X90316233Y-93600191D01*
X90322906Y-93603814D01*
X90322910Y-93603817D01*
X90458558Y-93677467D01*
X90458560Y-93677468D01*
X90465235Y-93681092D01*
X90472584Y-93683020D01*
X90621883Y-93722188D01*
X90621885Y-93722188D01*
X90629233Y-93724116D01*
X90715609Y-93725473D01*
X90791161Y-93726660D01*
X90791164Y-93726660D01*
X90798760Y-93726779D01*
X90806165Y-93725083D01*
X90806166Y-93725083D01*
X90914122Y-93700358D01*
X90964029Y-93688928D01*
X91115498Y-93612747D01*
X91244423Y-93502634D01*
X91343361Y-93364947D01*
X91347561Y-93354499D01*
X91403766Y-93214687D01*
X91403767Y-93214685D01*
X91406601Y-93207634D01*
X91430490Y-93039778D01*
X91430645Y-93025000D01*
X91410276Y-92856680D01*
X91402080Y-92834990D01*
X103784486Y-92834990D01*
X103805124Y-92991752D01*
X103865632Y-93137831D01*
X103887631Y-93166501D01*
X103947925Y-93245077D01*
X103961886Y-93263272D01*
X104087327Y-93359526D01*
X104233406Y-93420034D01*
X104390168Y-93440672D01*
X104398356Y-93439594D01*
X104418569Y-93436933D01*
X104546930Y-93420034D01*
X104693009Y-93359526D01*
X104818450Y-93263272D01*
X104832412Y-93245077D01*
X104892705Y-93166501D01*
X104914704Y-93137831D01*
X104975212Y-92991752D01*
X104993106Y-92855830D01*
X105021828Y-92790904D01*
X105041324Y-92772315D01*
X105111732Y-92718289D01*
X105111736Y-92718285D01*
X105118282Y-92713262D01*
X105214536Y-92587821D01*
X105275044Y-92441742D01*
X105278795Y-92413254D01*
X105294604Y-92293168D01*
X105295682Y-92284980D01*
X105279220Y-92159938D01*
X105276122Y-92136406D01*
X105275044Y-92128218D01*
X105214536Y-91982139D01*
X105118282Y-91856698D01*
X104992841Y-91760444D01*
X104846762Y-91699936D01*
X104690000Y-91679298D01*
X104533238Y-91699936D01*
X104387159Y-91760444D01*
X104261718Y-91856698D01*
X104165464Y-91982139D01*
X104104956Y-92128218D01*
X104103878Y-92136406D01*
X104087062Y-92264139D01*
X104058340Y-92329066D01*
X104038844Y-92347655D01*
X103968436Y-92401681D01*
X103968432Y-92401685D01*
X103961886Y-92406708D01*
X103956863Y-92413254D01*
X103941286Y-92433554D01*
X103865632Y-92532149D01*
X103805124Y-92678228D01*
X103804046Y-92686416D01*
X103801134Y-92708535D01*
X103784486Y-92834990D01*
X91402080Y-92834990D01*
X91350345Y-92698077D01*
X91254312Y-92558349D01*
X91242379Y-92547717D01*
X91133392Y-92450612D01*
X91133388Y-92450610D01*
X91127721Y-92445560D01*
X91119434Y-92441172D01*
X91044848Y-92401681D01*
X90977881Y-92366224D01*
X90864264Y-92337685D01*
X90820811Y-92326770D01*
X90820809Y-92326770D01*
X90813441Y-92324919D01*
X90805842Y-92324879D01*
X90802475Y-92324454D01*
X90737398Y-92296072D01*
X90714427Y-92270815D01*
X90658615Y-92189610D01*
X90654312Y-92183349D01*
X90648641Y-92178296D01*
X90533392Y-92075612D01*
X90533388Y-92075610D01*
X90527721Y-92070560D01*
X90377881Y-91991224D01*
X90213441Y-91949919D01*
X90205843Y-91949879D01*
X90205841Y-91949879D01*
X90128668Y-91949475D01*
X90043895Y-91949031D01*
X90036508Y-91950805D01*
X90036504Y-91950805D01*
X89928356Y-91976770D01*
X89879032Y-91988612D01*
X89872284Y-91992095D01*
X89872281Y-91992096D01*
X89843662Y-92006867D01*
X89773955Y-92020336D01*
X89753079Y-92015436D01*
X89752881Y-92016224D01*
X89595810Y-91976770D01*
X89588441Y-91974919D01*
X89580843Y-91974879D01*
X89580841Y-91974879D01*
X89503668Y-91974475D01*
X89418895Y-91974031D01*
X89411508Y-91975805D01*
X89411504Y-91975805D01*
X89287108Y-92005671D01*
X89254032Y-92013612D01*
X89247288Y-92017093D01*
X89247285Y-92017094D01*
X89150581Y-92067007D01*
X89103369Y-92091375D01*
X88975604Y-92202831D01*
X88971237Y-92209045D01*
X88886885Y-92329066D01*
X88878113Y-92341547D01*
X88816524Y-92499513D01*
X88815532Y-92507046D01*
X88815532Y-92507047D01*
X88805903Y-92580191D01*
X88794394Y-92667611D01*
X81828033Y-92667611D01*
X82042575Y-92146121D01*
X82044811Y-92141010D01*
X82189172Y-91830000D01*
X96364318Y-91830000D01*
X96384956Y-91986762D01*
X96388116Y-91994391D01*
X96392532Y-92005053D01*
X96445464Y-92132841D01*
X96541718Y-92258282D01*
X96667159Y-92354536D01*
X96813238Y-92415044D01*
X96970000Y-92435682D01*
X96978188Y-92434604D01*
X97118574Y-92416122D01*
X97126762Y-92415044D01*
X97272841Y-92354536D01*
X97398282Y-92258282D01*
X97494536Y-92132841D01*
X97547468Y-92005053D01*
X97551884Y-91994391D01*
X97555044Y-91986762D01*
X97575682Y-91830000D01*
X97558559Y-91699936D01*
X97556122Y-91681426D01*
X97555044Y-91673238D01*
X97494536Y-91527159D01*
X97398282Y-91401718D01*
X97272841Y-91305464D01*
X97126762Y-91244956D01*
X97085054Y-91239465D01*
X96978188Y-91225396D01*
X96970000Y-91224318D01*
X96961812Y-91225396D01*
X96854947Y-91239465D01*
X96813238Y-91244956D01*
X96667159Y-91305464D01*
X96541718Y-91401718D01*
X96445464Y-91527159D01*
X96384956Y-91673238D01*
X96383878Y-91681426D01*
X96381441Y-91699936D01*
X96364318Y-91830000D01*
X82189172Y-91830000D01*
X82224911Y-91753005D01*
X82271734Y-91699637D01*
X82339977Y-91680056D01*
X82347334Y-91680318D01*
X82522402Y-91691661D01*
X82747318Y-91669851D01*
X82899146Y-91629780D01*
X82960883Y-91613487D01*
X82960885Y-91613486D01*
X82965808Y-91612187D01*
X83110431Y-91547705D01*
X83167552Y-91522237D01*
X83167555Y-91522235D01*
X83172194Y-91520167D01*
X83319044Y-91423792D01*
X83356857Y-91398976D01*
X83356859Y-91398975D01*
X83361114Y-91396182D01*
X83364861Y-91392746D01*
X83364866Y-91392742D01*
X83523912Y-91246890D01*
X83523917Y-91246885D01*
X83527658Y-91243454D01*
X83667499Y-91065951D01*
X83669960Y-91061509D01*
X83774538Y-90872738D01*
X83774540Y-90872734D01*
X83777004Y-90868286D01*
X83853328Y-90655595D01*
X83894486Y-90433404D01*
X83895639Y-90380516D01*
X83899298Y-90212575D01*
X83899409Y-90207487D01*
X83867971Y-89983713D01*
X83855464Y-89943416D01*
X83816672Y-89818437D01*
X83800986Y-89767899D01*
X83783744Y-89733299D01*
X83707681Y-89580669D01*
X83700197Y-89565651D01*
X83598213Y-89423907D01*
X109853416Y-89423907D01*
X109874054Y-89580669D01*
X109877214Y-89588298D01*
X109879478Y-89593764D01*
X109934562Y-89726748D01*
X110030816Y-89852189D01*
X110156257Y-89948443D01*
X110302336Y-90008951D01*
X110459098Y-90029589D01*
X110467286Y-90028511D01*
X110607672Y-90010029D01*
X110615860Y-90008951D01*
X110761939Y-89948443D01*
X110887380Y-89852189D01*
X110983634Y-89726748D01*
X111028533Y-89618352D01*
X111073081Y-89563071D01*
X111128495Y-89541648D01*
X111254542Y-89525054D01*
X111400621Y-89464546D01*
X111526062Y-89368292D01*
X111622316Y-89242851D01*
X111682824Y-89096772D01*
X111703462Y-88940010D01*
X111682824Y-88783248D01*
X111622316Y-88637169D01*
X111526062Y-88511728D01*
X111519516Y-88506705D01*
X111519512Y-88506701D01*
X111492792Y-88486198D01*
X111450925Y-88428860D01*
X111446703Y-88357990D01*
X111469534Y-88309532D01*
X111529137Y-88231856D01*
X111529140Y-88231851D01*
X111534167Y-88225300D01*
X111594675Y-88079221D01*
X111615313Y-87922459D01*
X111594675Y-87765697D01*
X111534167Y-87619618D01*
X111437913Y-87494177D01*
X111414372Y-87476113D01*
X111319023Y-87402950D01*
X111312472Y-87397923D01*
X111166393Y-87337415D01*
X111009631Y-87316777D01*
X110852869Y-87337415D01*
X110706790Y-87397923D01*
X110700239Y-87402950D01*
X110604891Y-87476113D01*
X110581349Y-87494177D01*
X110485095Y-87619618D01*
X110424587Y-87765697D01*
X110403949Y-87922459D01*
X110424587Y-88079221D01*
X110485095Y-88225300D01*
X110581349Y-88350741D01*
X110587895Y-88355764D01*
X110587899Y-88355768D01*
X110614619Y-88376271D01*
X110656486Y-88433609D01*
X110660708Y-88504479D01*
X110637877Y-88552937D01*
X110578274Y-88630613D01*
X110578272Y-88630616D01*
X110573244Y-88637169D01*
X110528345Y-88745565D01*
X110483797Y-88800846D01*
X110428383Y-88822269D01*
X110302336Y-88838863D01*
X110156257Y-88899371D01*
X110030816Y-88995625D01*
X109934562Y-89121066D01*
X109874054Y-89267145D01*
X109853416Y-89423907D01*
X83598213Y-89423907D01*
X83598174Y-89423853D01*
X83574627Y-89356878D01*
X83591027Y-89287802D01*
X83594975Y-89281345D01*
X83598904Y-89275333D01*
X83833572Y-88916198D01*
X83836755Y-88911555D01*
X83889038Y-88838863D01*
X84147029Y-88480159D01*
X84345409Y-88204337D01*
X84348802Y-88199837D01*
X84888524Y-87516135D01*
X84892114Y-87511790D01*
X85367493Y-86962047D01*
X85461910Y-86852861D01*
X85465687Y-86848686D01*
X85507735Y-86804244D01*
X85821987Y-86472094D01*
X86064345Y-86215934D01*
X86068309Y-86211927D01*
X86694685Y-85606558D01*
X86698824Y-85602733D01*
X86896330Y-85428241D01*
X87351664Y-85025963D01*
X87355924Y-85022366D01*
X87816499Y-84650772D01*
X88033906Y-84475367D01*
X88038370Y-84471927D01*
X88044202Y-84467638D01*
X88740109Y-83955812D01*
X88744704Y-83952588D01*
X89004416Y-83778918D01*
X89344318Y-83551625D01*
X89418990Y-83530450D01*
X89486497Y-83532934D01*
X89497335Y-83533333D01*
X89503017Y-83534050D01*
X89503017Y-83535492D01*
X91030765Y-83535492D01*
X91098886Y-83555494D01*
X91145379Y-83609150D01*
X91155483Y-83679424D01*
X91125989Y-83744004D01*
X91088848Y-83773306D01*
X91030416Y-83803659D01*
X91026801Y-83806242D01*
X91026795Y-83806246D01*
X90971900Y-83845475D01*
X90811442Y-83960140D01*
X90808215Y-83963218D01*
X90808213Y-83963220D01*
X90624923Y-84138070D01*
X90616701Y-84145913D01*
X90450079Y-84357273D01*
X90418746Y-84411217D01*
X90317134Y-84586154D01*
X90317131Y-84586160D01*
X90314900Y-84590001D01*
X90313230Y-84594124D01*
X90219656Y-84825148D01*
X90213861Y-84839454D01*
X90212790Y-84843767D01*
X90212788Y-84843772D01*
X90199650Y-84896664D01*
X90148978Y-85100655D01*
X90121546Y-85368392D01*
X90122744Y-85398890D01*
X90128724Y-85551061D01*
X90132113Y-85637324D01*
X90180466Y-85902084D01*
X90265643Y-86157389D01*
X90267635Y-86161376D01*
X90267636Y-86161378D01*
X90295646Y-86217434D01*
X90385942Y-86398146D01*
X90538964Y-86619550D01*
X90541986Y-86622819D01*
X90718640Y-86813923D01*
X90718645Y-86813928D01*
X90721656Y-86817185D01*
X90930372Y-86987107D01*
X90934190Y-86989406D01*
X90934192Y-86989407D01*
X91144061Y-87115758D01*
X91160948Y-87125925D01*
X91165043Y-87127659D01*
X91165045Y-87127660D01*
X91404682Y-87229133D01*
X91404689Y-87229135D01*
X91408783Y-87230869D01*
X91504671Y-87256293D01*
X91664636Y-87298708D01*
X91664641Y-87298709D01*
X91668933Y-87299847D01*
X91673342Y-87300369D01*
X91673348Y-87300370D01*
X91811973Y-87316777D01*
X91936206Y-87331481D01*
X92205271Y-87325140D01*
X92280407Y-87312634D01*
X92466367Y-87281682D01*
X92466371Y-87281681D01*
X92470757Y-87280951D01*
X92474998Y-87279610D01*
X92475001Y-87279609D01*
X92723123Y-87201138D01*
X92723125Y-87201137D01*
X92727369Y-87199795D01*
X92731380Y-87197869D01*
X92731385Y-87197867D01*
X92888105Y-87122611D01*
X104794394Y-87122611D01*
X104812999Y-87291135D01*
X104825443Y-87325140D01*
X104865237Y-87433880D01*
X104871266Y-87450356D01*
X104875502Y-87456659D01*
X104875502Y-87456660D01*
X104888574Y-87476113D01*
X104965830Y-87591083D01*
X104971442Y-87596190D01*
X104971445Y-87596193D01*
X105085612Y-87700077D01*
X105085616Y-87700080D01*
X105091233Y-87705191D01*
X105097906Y-87708814D01*
X105097910Y-87708817D01*
X105233558Y-87782467D01*
X105233560Y-87782468D01*
X105240235Y-87786092D01*
X105247584Y-87788020D01*
X105396883Y-87827188D01*
X105396885Y-87827188D01*
X105404233Y-87829116D01*
X105490609Y-87830473D01*
X105566161Y-87831660D01*
X105566164Y-87831660D01*
X105573760Y-87831779D01*
X105581165Y-87830083D01*
X105581166Y-87830083D01*
X105641586Y-87816245D01*
X105739029Y-87793928D01*
X105751756Y-87787527D01*
X105821600Y-87774789D01*
X105854164Y-87782796D01*
X105860235Y-87786092D01*
X105867579Y-87788019D01*
X105867580Y-87788019D01*
X106016883Y-87827188D01*
X106016885Y-87827188D01*
X106024233Y-87829116D01*
X106110609Y-87830473D01*
X106186161Y-87831660D01*
X106186164Y-87831660D01*
X106193760Y-87831779D01*
X106201165Y-87830083D01*
X106201166Y-87830083D01*
X106261586Y-87816245D01*
X106359029Y-87793928D01*
X106510498Y-87717747D01*
X106639423Y-87607634D01*
X106738361Y-87469947D01*
X106749105Y-87443222D01*
X106768585Y-87394763D01*
X106801601Y-87312634D01*
X106802185Y-87312869D01*
X106836300Y-87256905D01*
X106900162Y-87225886D01*
X106970656Y-87234317D01*
X107025401Y-87279522D01*
X107039375Y-87306838D01*
X107063634Y-87373128D01*
X107074548Y-87402950D01*
X107081276Y-87421336D01*
X107085512Y-87427639D01*
X107085512Y-87427640D01*
X107095983Y-87443222D01*
X107175840Y-87562063D01*
X107181452Y-87567170D01*
X107181455Y-87567173D01*
X107295622Y-87671057D01*
X107295626Y-87671060D01*
X107301243Y-87676171D01*
X107307916Y-87679794D01*
X107307920Y-87679797D01*
X107443568Y-87753447D01*
X107443570Y-87753448D01*
X107450245Y-87757072D01*
X107457594Y-87759000D01*
X107606893Y-87798168D01*
X107606895Y-87798168D01*
X107614243Y-87800096D01*
X107700619Y-87801453D01*
X107776171Y-87802640D01*
X107776174Y-87802640D01*
X107783770Y-87802759D01*
X107791175Y-87801063D01*
X107791176Y-87801063D01*
X107872371Y-87782467D01*
X107949039Y-87764908D01*
X108100508Y-87688727D01*
X108229433Y-87578614D01*
X108328371Y-87440927D01*
X108336247Y-87421336D01*
X108388776Y-87290667D01*
X108388777Y-87290665D01*
X108391611Y-87283614D01*
X108415500Y-87115758D01*
X108415655Y-87100980D01*
X108395286Y-86932660D01*
X108335355Y-86774057D01*
X108331055Y-86767800D01*
X108331051Y-86767793D01*
X108329007Y-86764819D01*
X108328187Y-86762315D01*
X108327534Y-86761066D01*
X108327742Y-86760957D01*
X108306910Y-86697349D01*
X108315943Y-86646460D01*
X108338765Y-86589688D01*
X108341601Y-86582634D01*
X108357720Y-86469374D01*
X108364909Y-86418862D01*
X108364909Y-86418859D01*
X108365490Y-86414778D01*
X108365645Y-86400000D01*
X108363840Y-86385080D01*
X108346188Y-86239220D01*
X108345276Y-86231680D01*
X108285345Y-86073077D01*
X108233915Y-85998246D01*
X108193614Y-85939608D01*
X108193613Y-85939607D01*
X108189312Y-85933349D01*
X108158960Y-85906306D01*
X108068392Y-85825612D01*
X108068388Y-85825610D01*
X108062721Y-85820560D01*
X108043170Y-85810208D01*
X107995080Y-85784746D01*
X107912881Y-85741224D01*
X107748441Y-85699919D01*
X107740843Y-85699879D01*
X107740841Y-85699879D01*
X107663668Y-85699475D01*
X107578895Y-85699031D01*
X107571508Y-85700805D01*
X107571504Y-85700805D01*
X107428162Y-85735220D01*
X107414032Y-85738612D01*
X107407288Y-85742093D01*
X107407285Y-85742094D01*
X107402089Y-85744776D01*
X107263369Y-85816375D01*
X107135604Y-85927831D01*
X107038113Y-86066547D01*
X106976524Y-86224513D01*
X106975532Y-86232046D01*
X106975532Y-86232047D01*
X106963481Y-86323589D01*
X106954394Y-86392611D01*
X106972999Y-86561135D01*
X106995572Y-86622819D01*
X107027164Y-86709146D01*
X107031266Y-86720356D01*
X107035501Y-86726659D01*
X107035505Y-86726666D01*
X107042145Y-86736547D01*
X107063538Y-86804244D01*
X107054957Y-86852592D01*
X107026534Y-86925493D01*
X107023395Y-86924269D01*
X106994801Y-86972292D01*
X106931265Y-87003973D01*
X106860687Y-86996275D01*
X106805475Y-86951642D01*
X106791219Y-86924479D01*
X106748029Y-86810180D01*
X106745345Y-86803077D01*
X106717330Y-86762315D01*
X106653614Y-86669608D01*
X106653613Y-86669607D01*
X106649312Y-86663349D01*
X106637514Y-86652837D01*
X106528392Y-86555612D01*
X106528388Y-86555610D01*
X106522721Y-86550560D01*
X106511093Y-86544403D01*
X106430185Y-86501565D01*
X106372881Y-86471224D01*
X106208441Y-86429919D01*
X106200843Y-86429879D01*
X106200841Y-86429879D01*
X106123668Y-86429475D01*
X106038895Y-86429031D01*
X106031508Y-86430805D01*
X106031504Y-86430805D01*
X105881421Y-86466838D01*
X105874032Y-86468612D01*
X105867280Y-86472097D01*
X105860162Y-86474744D01*
X105859575Y-86473167D01*
X105798874Y-86484900D01*
X105765629Y-86477095D01*
X105759595Y-86474779D01*
X105752881Y-86471224D01*
X105588441Y-86429919D01*
X105580843Y-86429879D01*
X105580841Y-86429879D01*
X105503668Y-86429475D01*
X105418895Y-86429031D01*
X105411508Y-86430805D01*
X105411504Y-86430805D01*
X105268162Y-86465220D01*
X105254032Y-86468612D01*
X105247288Y-86472093D01*
X105247285Y-86472094D01*
X105110117Y-86542892D01*
X105103369Y-86546375D01*
X105097647Y-86551367D01*
X105097645Y-86551368D01*
X105061804Y-86582634D01*
X104975604Y-86657831D01*
X104971237Y-86664045D01*
X104898322Y-86767793D01*
X104878113Y-86796547D01*
X104816524Y-86954513D01*
X104815532Y-86962046D01*
X104815532Y-86962047D01*
X104797242Y-87100980D01*
X104794394Y-87122611D01*
X92888105Y-87122611D01*
X92965967Y-87085222D01*
X92965968Y-87085221D01*
X92969986Y-87083292D01*
X93100217Y-86996275D01*
X93190059Y-86936245D01*
X93190063Y-86936242D01*
X93193767Y-86933767D01*
X93197084Y-86930796D01*
X93197088Y-86930793D01*
X93385189Y-86762315D01*
X93394247Y-86754202D01*
X93409088Y-86736547D01*
X93564562Y-86551589D01*
X93564567Y-86551583D01*
X93567426Y-86548181D01*
X93709848Y-86319813D01*
X93818673Y-86073657D01*
X93891728Y-85814623D01*
X93901835Y-85739375D01*
X93927129Y-85551061D01*
X93927130Y-85551053D01*
X93927556Y-85547879D01*
X93931316Y-85428241D01*
X93912308Y-85159774D01*
X93897394Y-85090500D01*
X93862214Y-84927102D01*
X93855661Y-84896664D01*
X93836149Y-84843772D01*
X93764051Y-84648342D01*
X93764050Y-84648340D01*
X93762508Y-84644160D01*
X93731210Y-84586154D01*
X93636818Y-84411217D01*
X93634705Y-84407301D01*
X93532798Y-84269330D01*
X93477453Y-84194398D01*
X93477450Y-84194395D01*
X93474804Y-84190812D01*
X93285995Y-83999013D01*
X93072044Y-83835731D01*
X92957216Y-83771424D01*
X92907557Y-83720690D01*
X92893210Y-83651158D01*
X92918731Y-83584907D01*
X92976019Y-83542972D01*
X93018785Y-83535492D01*
X93820180Y-83535492D01*
X93820180Y-83536725D01*
X93829952Y-83535685D01*
X93854180Y-83537472D01*
X93854181Y-83537472D01*
X93864065Y-83538201D01*
X93884695Y-83533141D01*
X93982478Y-83509158D01*
X93982483Y-83509156D01*
X93987279Y-83507980D01*
X93991839Y-83506065D01*
X94005104Y-83500494D01*
X94005671Y-83500257D01*
X94017603Y-83495314D01*
X94023450Y-83492892D01*
X94025645Y-83491773D01*
X94025678Y-83491852D01*
X94025811Y-83491796D01*
X94027981Y-83490676D01*
X94027993Y-83490670D01*
X94042369Y-83483248D01*
X94042841Y-83483005D01*
X94080339Y-83463885D01*
X94081056Y-83463272D01*
X94082032Y-83462768D01*
X94113586Y-83435547D01*
X94178231Y-83406196D01*
X94248483Y-83416453D01*
X94287052Y-83443972D01*
X94306273Y-83464118D01*
X94307250Y-83465155D01*
X94354393Y-83515789D01*
X94357104Y-83517397D01*
X94359255Y-83519652D01*
X94366219Y-83523670D01*
X94418518Y-83553844D01*
X94419840Y-83554617D01*
X94480149Y-83590398D01*
X94484297Y-83592116D01*
X94484303Y-83592119D01*
X94492595Y-83595553D01*
X94498817Y-83598130D01*
X94507312Y-83601656D01*
X94508061Y-83601967D01*
X94507948Y-83602239D01*
X94508319Y-83602436D01*
X94508450Y-83602120D01*
X94518414Y-83606247D01*
X94521649Y-83607197D01*
X94521658Y-83607200D01*
X94525625Y-83608365D01*
X94532089Y-83610454D01*
X94554433Y-83618346D01*
X94554435Y-83618346D01*
X94560283Y-83620412D01*
X94566420Y-83621294D01*
X94572448Y-83622777D01*
X94572444Y-83622794D01*
X94581420Y-83624747D01*
X94616237Y-83634969D01*
X94623798Y-83637189D01*
X94687781Y-83639472D01*
X94698577Y-83640439D01*
X94700555Y-83640580D01*
X94705017Y-83641222D01*
X94705036Y-83641222D01*
X94705036Y-83640901D01*
X94707207Y-83641056D01*
X94712728Y-83640363D01*
X94724554Y-83640785D01*
X94724397Y-83645182D01*
X94724548Y-83645168D01*
X94724551Y-83641236D01*
X94724648Y-83641236D01*
X94735272Y-83641243D01*
X94739630Y-83641322D01*
X94769927Y-83642404D01*
X94774109Y-83641336D01*
X94775297Y-83641273D01*
X98152008Y-83643721D01*
X98152008Y-83643962D01*
X98160088Y-83642974D01*
X98172273Y-83643482D01*
X98172262Y-83643735D01*
X98172274Y-83643735D01*
X98172274Y-83643736D01*
X98172395Y-83643736D01*
X98175054Y-83643756D01*
X98175061Y-83643599D01*
X98176731Y-83643669D01*
X98177555Y-83643775D01*
X98179684Y-83643791D01*
X98199295Y-83644608D01*
X98205048Y-83644848D01*
X98214048Y-83645223D01*
X98304229Y-83622777D01*
X98351579Y-83610992D01*
X98351583Y-83610991D01*
X98355941Y-83609906D01*
X98366038Y-83605794D01*
X98366451Y-83606807D01*
X98368949Y-83605455D01*
X98368666Y-83604771D01*
X98376204Y-83601656D01*
X98376651Y-83601472D01*
X98394297Y-83594286D01*
X98395525Y-83593625D01*
X98397648Y-83592608D01*
X98397713Y-83592765D01*
X98397855Y-83592706D01*
X98439012Y-83570223D01*
X98439569Y-83569920D01*
X98490934Y-83542275D01*
X98492050Y-83541248D01*
X98493424Y-83540498D01*
X98544332Y-83493170D01*
X98544708Y-83492823D01*
X98576175Y-83463885D01*
X98598563Y-83443296D01*
X98599304Y-83442065D01*
X98600516Y-83440938D01*
X98605021Y-83433358D01*
X98643618Y-83368414D01*
X98643865Y-83368000D01*
X98673947Y-83318003D01*
X98674006Y-83317863D01*
X98673731Y-83317747D01*
X98675221Y-83315239D01*
X98682469Y-83297778D01*
X98682720Y-83297179D01*
X98685232Y-83291214D01*
X98685240Y-83291194D01*
X98685888Y-83289655D01*
X98685992Y-83289367D01*
X98687185Y-83287144D01*
X98686927Y-83287037D01*
X98691106Y-83276968D01*
X98692943Y-83270728D01*
X98695265Y-83263625D01*
X98704290Y-83238573D01*
X98705213Y-83232467D01*
X98706042Y-83229194D01*
X98708704Y-83217191D01*
X98719895Y-83179175D01*
X98722121Y-83171615D01*
X98724305Y-83111672D01*
X98725162Y-83102500D01*
X98725482Y-83098445D01*
X98726155Y-83093995D01*
X98726156Y-83093858D01*
X98725844Y-83093856D01*
X98725943Y-83092600D01*
X98725217Y-83086624D01*
X98725283Y-83084814D01*
X98725704Y-83073279D01*
X98730458Y-83073452D01*
X98730446Y-83073306D01*
X98726279Y-83073281D01*
X98726279Y-83073278D01*
X98726381Y-83056300D01*
X98726462Y-83052493D01*
X98727157Y-83033413D01*
X98727157Y-83033406D01*
X98727445Y-83025489D01*
X98726589Y-83022125D01*
X98726584Y-83022027D01*
X98729078Y-82603901D01*
X98737015Y-81272737D01*
X98757423Y-81204736D01*
X98811355Y-81158564D01*
X98881688Y-81148880D01*
X98946092Y-81178757D01*
G37*
G04 #@! TD.AperFunction*
G04 #@! TD*
G04 #@! TA.AperFunction,Conductor*
G04 #@! TO.N,GND*
G36*
X94724554Y-83640785D02*
G01*
X94724397Y-83645182D01*
X94724548Y-83645168D01*
X94724551Y-83641236D01*
X94724648Y-83641236D01*
X94735272Y-83641243D01*
X94739630Y-83641322D01*
X94769927Y-83642404D01*
X94774109Y-83641336D01*
X94775297Y-83641273D01*
X96447144Y-83642485D01*
X96945345Y-83642846D01*
X98675000Y-85775000D01*
X95775000Y-86325000D01*
X94725000Y-84300000D01*
X94720187Y-83640629D01*
X94724554Y-83640785D01*
G37*
G04 #@! TD.AperFunction*
G04 #@! TD*
M02*
